<svg width="24" height="24" viewBox="0 0 24 24" fill="none" xmlns="http://www.w3.org/2000/svg">
<g clip-path="url(#clip0_531_51312)">
<path fill-rule="evenodd" clip-rule="evenodd" d="M12 0C18.6264 0 24 5.3736 24 12C24 18.6264 18.6264 24 12 24C5.3736 24 0 18.6264 0 12C0 5.3736 5.3736 0 12 0Z" fill="#263145"/>
<path fill-rule="evenodd" clip-rule="evenodd" d="M12.7367 4.24805H11.0591L4.12793 16.32H16.4471H16.4831L15.5999 14.88H6.62393L12.7367 4.24805Z" fill="#CCD9E2"/>
<path fill-rule="evenodd" clip-rule="evenodd" d="M18.8473 17.736L19.7041 16.284L12.7129 4.24805L6.6001 14.88H8.2801L12.7369 7.11605L18.8473 17.736Z" fill="#AAAAAA"/>
<path fill-rule="evenodd" clip-rule="evenodd" d="M4.12793 16.3196L4.98473 17.7356H18.8471L12.7367 7.08203L11.8919 8.57003L16.4255 16.3196H4.12793Z" fill="#5A5967"/>
</g>
<defs>
<clipPath id="clip0_531_51312">
<rect width="24" height="24" fill="white"/>
</clipPath>
</defs>
</svg>
