<svg width="24" height="24" viewBox="0 0 24 24" fill="none" xmlns="http://www.w3.org/2000/svg">
<g clip-path="url(#clip0_531_51305)">
<path fill-rule="evenodd" clip-rule="evenodd" d="M21.7687 9.09682C20.5791 7.91799 18.8992 6.936 16.7194 6.31249H16.7068C11.52 4.83455 9.67211 8.33036 13.872 10.5341C18.6398 13.0325 19.3023 17.1243 16.6113 19.6832C15.9257 20.3342 13.6977 21.5526 11.6481 21.8451C8.39326 22.318 4.78139 21.5933 1.8457 20.6168C3.44241 21.9158 5.26711 22.8737 7.21625 23.4363C11.793 24.7559 17.3211 23.7838 20.9844 20.4486C24.6739 17.0847 25.0267 12.3166 21.7687 9.09682Z" fill="#008DD0"/>
<path fill-rule="evenodd" clip-rule="evenodd" d="M6.74893 1.21011C9.27504 0.131738 12.027 -0.233793 14.7302 0.150004C17.4334 0.533802 19.9931 1.6535 22.154 3.39732C16.6732 1.57189 12.4208 1.73024 9.63107 2.90578L9.59012 2.92337C6.1452 4.39911 4.9514 7.41986 6.45074 10.1514C7.25816 11.6239 8.68191 12.7246 10.1256 13.4801C13.9433 15.4825 12.7694 18.5495 8.63571 17.9887C8.17693 17.9246 7.72295 17.8272 7.27706 17.6973C-0.840186 15.3759 -2.02769 8.15663 3.01422 3.56557C4.12722 2.57102 5.38901 1.77522 6.74893 1.21011Z" fill="#008DD0"/>
</g>
<defs>
<clipPath id="clip0_531_51305">
<rect width="24" height="24" fill="white"/>
</clipPath>
</defs>
</svg>
