<svg width="24" height="24" viewBox="0 0 24 24" fill="none" xmlns="http://www.w3.org/2000/svg">
<g clip-path="url(#clip0_531_51458)">
<path d="M18.0105 9.94199C18.3322 9.94199 18.5929 9.68127 18.5929 9.35967C18.5929 9.03806 18.3322 8.77734 18.0105 8.77734C17.6889 8.77734 17.4282 9.03806 17.4282 9.35967C17.4282 9.68127 17.6889 9.94199 18.0105 9.94199Z" fill="#262761"/>
<path d="M12.0208 0C5.36568 0 0 5.36568 0 12.0208C0 18.6759 5.36568 24.0416 12.0208 24.0416C18.6759 24.0416 24.0416 18.6759 24.0416 12.0208C24.0416 5.36568 18.6343 0 12.0208 0ZM17.4697 17.0121C16.0555 18.5927 14.0173 19.4662 11.9376 19.4662C9.81629 19.4662 7.77816 18.5511 6.36395 16.9705C4.90815 15.3484 4.28423 13.3102 4.4922 11.1473C4.86655 7.69497 7.61178 4.94974 11.0641 4.5338C11.3553 4.4922 11.6464 4.4922 11.9376 4.4922C13.6014 4.4922 15.182 5.03293 16.513 6.07279C16.5962 6.11438 16.6378 6.23917 16.6378 6.32236C16.6378 6.44714 16.5962 6.53033 16.513 6.61352L15.7227 7.32062C15.6395 7.40381 15.5147 7.44541 15.3899 7.44541C15.3068 7.44541 15.182 7.40381 15.1404 7.36222C14.1837 6.69671 13.0607 6.36395 11.9376 6.36395C10.3154 6.36395 8.77643 7.07106 7.73657 8.2773C6.65511 9.48353 6.15598 11.0641 6.36395 12.6863C6.65511 15.2652 8.73484 17.3449 11.3137 17.636C11.5217 17.6776 11.7296 17.6776 11.9792 17.6776C13.4766 17.6776 14.8908 17.0953 15.9723 16.0139C16.0555 15.9307 16.1802 15.8891 16.305 15.8891C16.3882 15.8891 16.4714 15.9307 16.5546 15.9723L17.4281 16.5546C17.5113 16.5962 17.5529 16.6794 17.5945 16.8042C17.5529 16.8458 17.5113 16.9289 17.4697 17.0121ZM18.0104 11.1889C17.0121 11.1889 16.1802 10.357 16.1802 9.35875C16.1802 8.36048 17.0121 7.5286 18.0104 7.5286C19.0087 7.5286 19.8406 8.36048 19.8406 9.35875C19.8406 10.357 19.0087 11.1889 18.0104 11.1889Z" fill="#262761"/>
</g>
<defs>
<clipPath id="clip0_531_51458">
<rect width="24" height="24" fill="white"/>
</clipPath>
</defs>
</svg>
