<svg width="24" height="24" viewBox="0 0 24 24" fill="none" xmlns="http://www.w3.org/2000/svg">
<g clip-path="url(#clip0_531_51626)">
<path d="M19.6364 0H4.36364C1.94595 0 0 1.98 0 4.38V19.62C0 22.02 1.94595 24 4.36364 24H19.6364C22.0541 24 24 22.02 24 19.62V4.38C24 1.98 22.0541 0 19.6364 0ZM15.9214 6C17.6904 6 19.1646 7.44 19.1646 9.24C19.1646 9.78 19.0467 10.32 18.8108 10.8C18.398 10.5 17.9263 10.2 17.4545 10.02C17.5725 9.78 17.6314 9.48 17.6314 9.24C17.6314 8.34 16.8649 7.56 15.9803 7.56C15.0369 7.56 14.3292 8.34 14.3292 9.24C14.3292 9.54 14.3882 9.78 14.5061 10.02C14.0344 10.2 13.5627 10.44 13.1499 10.8C12.855 10.32 12.7961 9.78 12.7961 9.24C12.7371 7.44 14.1523 6 15.9214 6ZM8.07862 18C6.30958 18 4.83538 16.56 4.83538 14.76H6.36855C6.36855 15.66 7.13513 16.44 8.01966 16.44C8.90418 16.44 9.67076 15.66 9.67076 14.76H11.2039C11.3219 16.56 9.84767 18 8.07862 18ZM8.07862 13.5C6.01474 13.5 4.36364 11.82 4.36364 9.78C4.36364 7.74 6.01474 6 8.07862 6C10.1425 6 11.8526 7.68 11.8526 9.78C11.8526 11.82 10.1425 13.5 8.07862 13.5ZM15.9214 18C13.8575 18 12.1474 16.32 12.1474 14.28C12.1474 12.18 13.7985 10.5 15.9214 10.5C17.9853 10.5 19.6364 12.18 19.6364 14.28C19.6953 16.32 17.9853 18 15.9214 18ZM18.1622 14.22C18.1622 15.48 17.1597 16.44 15.9214 16.44C14.683 16.44 13.6806 15.42 13.6806 14.22C13.6806 12.96 14.683 12 15.9214 12C17.1597 12.06 18.1622 13.02 18.1622 14.22ZM10.2604 9.78C10.2604 11.04 9.25798 12 8.01966 12C6.78133 12 5.77887 10.98 5.77887 9.78C5.77887 8.52 6.78133 7.56 8.01966 7.56C9.31695 7.56 10.2604 8.52 10.2604 9.78Z" fill="#D9B432"/>
</g>
<defs>
<clipPath id="clip0_531_51626">
<rect width="24" height="24" fill="white"/>
</clipPath>
</defs>
</svg>
