<svg width="24" height="24" viewBox="0 0 24 24" fill="none" xmlns="http://www.w3.org/2000/svg">
<g clip-path="url(#clip0_531_51106)">
<path fill-rule="evenodd" clip-rule="evenodd" d="M12 24.0005C5.4 24.0005 0 18.6005 0 11.9405C0.06 5.34049 5.4 -0.0595048 12.06 0.000495214C18.66 0.0604952 24 5.4005 24 12.1205C23.94 18.6605 18.6 24.0005 12 24.0005Z" fill="#0090FF"/>
<path fill-rule="evenodd" clip-rule="evenodd" d="M13.1402 10.5595L12.7802 12.4795L16.2002 12.9595L15.9602 13.8595L12.6002 13.3795C12.3602 14.1595 12.2402 14.9995 11.9402 15.7195C11.6402 16.5595 11.3402 17.3995 10.9802 18.1795C10.5002 19.1995 9.66023 19.9195 8.52023 20.0995C7.86023 20.2195 7.14023 20.1595 6.60023 19.7395C6.42023 19.6195 6.24023 19.3795 6.24023 19.1995C6.24023 18.9595 6.36023 18.6595 6.54023 18.5395C6.66023 18.4795 6.96023 18.5395 7.14023 18.5995C7.32023 18.7795 7.50023 19.0195 7.62023 19.2595C7.98023 19.7395 8.46023 19.7995 8.94023 19.4395C9.48023 18.9595 9.78023 18.2995 9.96023 17.6395C10.3202 16.1995 10.6802 14.8195 10.9802 13.3795V13.1395L7.80023 12.6595L7.92023 11.7595L11.2202 12.2395L11.6402 10.3795L8.22023 9.83951L8.34023 8.87951L11.8802 9.35951C12.0002 8.99951 12.0602 8.69951 12.1802 8.39951C12.4802 7.31951 12.7802 6.23951 13.5002 5.27951C14.2202 4.31951 15.0602 3.71951 16.3202 3.77951C16.8602 3.77951 17.4002 3.95951 17.7602 4.37951C17.8202 4.43951 17.9402 4.55951 17.9402 4.67951C17.9402 4.91951 17.9402 5.21951 17.7602 5.39951C17.5202 5.57951 17.2202 5.51951 16.9802 5.27951C16.8002 5.09951 16.6802 4.91951 16.5002 4.73951C16.1402 4.25951 15.6002 4.19951 15.1802 4.61951C14.8802 4.91951 14.5802 5.33951 14.4002 5.75951C13.9802 7.01951 13.6802 8.33951 13.2602 9.65951L16.5602 10.1395L16.3202 11.0395L13.1402 10.5595Z" fill="white"/>
</g>
<defs>
<clipPath id="clip0_531_51106">
<rect width="24" height="24" fill="white"/>
</clipPath>
</defs>
</svg>
