<svg width="24" height="24" viewBox="0 0 24 24" fill="none" xmlns="http://www.w3.org/2000/svg">
<g clip-path="url(#clip0_531_51425)">
<path d="M17.9503 0L5.95031 0.0643815L0 12.068L6.04969 24.0072L18.0497 23.9428L24 11.9392L17.9503 0ZM17.2919 22.4477L6.79503 22.5049L1.50311 12.0608L6.70807 1.55946L17.205 1.50224L22.4969 11.9463L17.2919 22.4477Z" fill="#8C91C7"/>
<path d="M19.0745 9.55705H18.3788L17.0931 1.83127L9.81982 4.47806V3.74125L17.0124 1.14453L17.59 1.45213L19.0745 9.55705Z" fill="#8C91C7"/>
<path d="M7.88208 3.14777L7.42866 3.47684L6.24854 1.38086H6.88829L7.88208 3.14777Z" fill="#8C91C7"/>
<path d="M8.00635 6.65234H8.60883V17.0249H8.00635V6.65234Z" fill="#8C91C7"/>
<path d="M6.41016 22.2698L6.7704 22.9923L7.55301 21.2898L7.1555 20.7676L6.41016 22.2698Z" fill="#8C91C7"/>
<path d="M17.3231 22.9708L17.1491 22.9923L9.98145 20.1595L10.1367 19.5729L16.9939 22.2054L18.4224 14.2793H19.0187L17.3231 22.9708Z" fill="#8C91C7"/>
<path d="M22.6957 12.3032H20.9565L20.9938 11.595L22.7081 11.5879L22.6957 12.3032Z" fill="#8C91C7"/>
<path d="M10.0123 18.4054L17.4471 13.4981L17.0496 12.9473L9.75146 17.8474L10.0123 18.4054Z" fill="#8C91C7"/>
<path d="M6.66453 17.8977L1.13037 12.3037L1.21733 11.4453L6.9813 5.55078L7.30428 6.12306L1.67074 12.0032L7.06205 17.4184L6.66453 17.8977Z" fill="#8C91C7"/>
<path d="M17.2607 11.103L9.68311 6.01691L9.97503 5.41602L17.5278 10.4878L17.2607 11.103Z" fill="#8C91C7"/>
<path d="M19.0188 9.32031C17.7518 9.32031 16.7207 10.5078 16.7207 11.9671C16.7207 13.4264 17.7518 14.6139 19.0188 14.6139C20.2859 14.6139 21.317 13.4264 21.317 11.9671C21.317 10.5078 20.2921 9.32031 19.0188 9.32031ZM19.0188 13.9272C18.081 13.9272 17.3232 13.0544 17.3232 11.9743C17.3232 10.8941 18.081 10.0214 19.0188 10.0214C19.9567 10.0214 20.7145 10.8941 20.7145 11.9743C20.7145 13.0544 19.9567 13.9272 19.0188 13.9272Z" fill="#F43B7B"/>
<path d="M8.42236 2.71875C7.40372 2.71875 6.57764 3.67017 6.57764 4.84334C6.57764 6.01651 7.40372 6.96793 8.42236 6.96793C9.44099 6.96793 10.2671 6.01651 10.2671 4.84334C10.2609 3.66301 9.44099 2.71875 8.42236 2.71875ZM8.42236 6.33842C7.70186 6.33842 7.11801 5.66599 7.11801 4.83619C7.11801 4.00638 7.70186 3.33395 8.42236 3.33395C9.14285 3.33395 9.72671 4.00638 9.72671 4.83619C9.72671 5.66599 9.14285 6.33842 8.42236 6.33842Z" fill="#5AA2DA"/>
<path d="M8.29178 16.7109C7.11166 16.7109 6.14893 17.8126 6.14893 19.1789C6.14893 20.5452 7.10545 21.6469 8.29178 21.6469C9.47191 21.6469 10.4346 20.5452 10.4346 19.1789C10.4346 17.8126 9.47812 16.7109 8.29178 16.7109ZM8.29178 20.9315C7.44706 20.9315 6.77004 20.1446 6.77004 19.1789C6.77004 18.206 7.45327 17.4263 8.29178 17.4263C9.1365 17.4263 9.81352 18.2132 9.81352 19.1789C9.81973 20.1446 9.1365 20.9315 8.29178 20.9315Z" fill="#F66F4D"/>
</g>
<defs>
<clipPath id="clip0_531_51425">
<rect width="24" height="24" fill="white"/>
</clipPath>
</defs>
</svg>
