<svg width="24" height="24" viewBox="0 0 24 24" fill="none" xmlns="http://www.w3.org/2000/svg">
<g clip-path="url(#clip0_531_51580)">
<path d="M5.71153 13.2226L6.34651 8.15342L0.838867 4.09089L5.87113 5.90207L7.05958 3.96461L11.3991 1.10352L20.9645 6.70303L21.4603 15.2466L17.1988 21.5389L13.8304 22.0873L15.5723 18.6994V15.4379L14.3058 12.8906L13.0188 11.9851L11.0392 14.1534V16.4481L9.49422 17.9851L7.53157 18.2376L6.6623 18.7608L5.23615 18.2773L4.64192 16.0043L5.71153 14.406V13.2226Z" fill="white"/>
<path d="M14.5057 4.04805C13.4565 3.81714 12.3088 3.87848 12.3088 3.87848C12.3088 3.87848 11.9319 5.72935 9.5957 6.21642C9.61268 6.21642 12.6823 7.33127 14.5057 4.04805Z" fill="#94A6C3"/>
<path d="M15.4568 20.8432C16.7233 19.7896 17.6741 18.3393 18.1121 16.6976C18.1325 16.6363 18.3091 16.5281 18.4279 16.4451C18.6249 16.3188 18.8252 16.2142 18.8625 16.0446C18.9406 15.5611 18.9814 15.056 18.9814 14.5509C18.9814 14.3633 18.8014 14.1721 18.6249 13.9845C18.4856 13.8582 18.3464 13.7103 18.3464 13.6056C18.1495 11.6898 17.3176 9.90029 15.9899 8.59782L15.8507 8.74575C17.1376 10.0302 17.9695 11.7764 18.1495 13.6273C18.1698 13.7969 18.326 13.9628 18.4856 14.1324C18.6249 14.2587 18.7844 14.4499 18.7844 14.5329C18.7844 15.0163 18.7437 15.4998 18.6656 15.9833C18.6452 16.0663 18.4687 16.1528 18.3294 16.2358C18.1325 16.3405 17.9525 16.4451 17.9152 16.6147C17.4398 18.4042 16.3498 19.9628 14.9033 20.973C15.1614 20.385 15.9729 18.4691 16.4075 17.4986L16.3294 14.385L13.8133 11.7981L12.3872 12.0073L10.8218 14.7025C10.8218 14.7025 11.5552 15.691 10.523 16.8492C9.5145 17.9857 8.71993 18.2382 8.71993 18.2382L7.98648 17.8161C8.2038 17.5203 8.64183 17.0801 8.978 16.7842C9.55185 16.2791 10.1257 16.2358 10.1257 15.691C10.1495 14.5509 8.99837 14.8648 8.99837 14.8648L8.58071 15.2869L8.40414 16.8456L7.53487 18.0037L7.4364 17.9821L6.01025 17.6465C6.01025 17.6465 6.88292 17.1631 7.02214 16.6147C7.16136 16.0879 6.7437 14.3417 6.72333 14.237C6.7437 14.2587 7.14098 14.6159 7.31755 15.204C7.63334 14.2767 8.051 13.3928 8.16985 13.3098C8.28869 13.2268 9.89141 12.3212 9.89141 12.3212L9.3583 13.8149L9.75558 13.584L10.7063 11.1017C10.7063 11.1017 11.6367 10.6183 12.3294 10.6183C13.5756 10.5966 15.4194 8.97666 14.5875 6.07227C14.8252 6.1769 18.944 8.36691 19.6571 12.6604C20.1902 15.9616 18.4279 19.0536 15.4568 20.8432Z" fill="#94A6C3"/>
<path d="M10.7437 4.51031C11.1987 3.94026 11.0221 3.09961 11.0221 3.09961L9.69446 5.185C9.67408 5.185 10.1664 5.20664 10.7437 4.51031Z" fill="#1B314F"/>
<path d="M6.28509 15.8973L6.44469 15.0566C6.44469 15.0566 5.78934 16.2761 5.73161 16.4457C5.67049 16.6369 5.77236 16.9725 6.02703 16.9508C6.28509 16.9292 6.60088 16.5287 6.60088 16.2364C6.60088 15.8576 6.28509 15.8973 6.28509 15.8973Z" fill="#1B314F"/>
<path d="M18.0509 2.51149C18.0509 2.51149 19.0424 2.55478 20.0712 2.68106C17.7521 0.7436 15.5551 0.177154 13.7724 0.177154C11.3174 0.177154 9.65358 1.25232 9.55171 1.31365L10.3259 0.00758089C10.3259 0.00758089 7.23592 -0.309918 6.14594 3.16453C5.8675 2.42851 5.61283 1.35334 5.61283 1.35334C5.61283 1.35334 4.00672 2.85064 4.76054 5.3329C2.91674 4.61852 0.285158 3.62634 0.18329 3.6083C0.0440715 3.58665 0.00332443 3.6516 0.00332443 3.6516C0.00332443 3.6516 -0.0374226 3.71293 0.0814229 3.82117C0.302136 4.00518 4.46173 7.27036 5.37514 7.90175C5.1782 8.65941 5.1782 9.0166 5.37514 9.37379C5.65358 9.85725 5.67056 10.1098 5.63321 10.467C5.59246 10.8242 5.23592 13.9198 5.15782 14.2986C5.07972 14.6775 4.24781 16.0232 4.28516 16.4237C4.3259 16.8242 4.83864 18.5271 5.29704 18.7183C5.63321 18.8446 6.46512 19.1188 7.0186 19.1188C7.21555 19.1188 7.39551 19.0755 7.47361 18.9925C7.80978 18.6787 7.90825 18.6137 8.14594 18.6137C8.16631 18.6137 8.18669 18.6137 8.20366 18.6137C8.30214 18.6137 8.42098 18.6354 8.5602 18.6354C8.87599 18.6354 9.29365 18.5704 9.58906 18.2782C10.0237 17.8164 10.7775 17.185 11.0152 16.8891C11.314 16.4886 11.4702 15.9438 11.3921 15.3954C11.331 14.8903 11.5891 14.4465 11.8879 14.0064C12.2648 13.4796 12.9575 12.5343 12.9575 12.5343C14.3259 13.6239 15.1782 15.2872 15.1782 17.1381C15.1782 20.4213 12.4855 23.0731 9.15782 23.0731C8.6417 23.0731 8.14933 23.0118 7.65358 22.8855C9.1782 23.452 10.4651 23.6432 11.5178 23.6432C13.7554 23.6432 14.9439 22.7809 14.9439 22.7809C14.9439 22.7809 14.5296 23.3509 13.8539 24.0004C13.8743 24.0004 13.8743 24.0004 13.8743 24.0004C17.5789 23.452 19.3819 20.212 19.3819 20.212C19.3819 20.212 19.2427 21.2655 19.0661 21.9799C23.9931 18.0437 23.1612 13.1188 23.1408 12.9529C23.1816 13.0142 23.6773 13.6456 23.932 13.9847C24.7266 5.31125 18.0509 2.51149 18.0509 2.51149ZM10.4651 16.3624C10.387 16.467 10.0509 16.7845 9.81317 17.0154C9.57548 17.2463 9.31742 17.4772 9.12047 17.6901C9.04237 17.7731 8.88278 17.8164 8.64509 17.8164C8.56699 17.8164 8.4855 17.8164 8.42777 17.8164C8.38703 17.8164 8.34967 17.8164 8.30893 17.8164C8.26818 17.8164 8.24781 17.8164 8.23083 17.8164C8.16971 17.8164 8.11198 17.8164 8.05086 17.8164C8.34967 17.3942 9.21894 16.4273 9.51776 16.218C9.87429 15.9655 10.0543 15.7129 9.83355 15.2728C9.61623 14.829 9.04237 14.9372 9.04237 14.9372C9.04237 14.9372 9.37854 14.7893 9.67735 14.7893C9.30044 14.6847 8.82506 14.7893 8.60774 15.0202C8.37005 15.2511 8.41079 16.0737 8.31232 16.5969C8.21385 17.1453 7.87769 17.4195 7.36156 17.9246C7.08312 18.1988 6.88618 18.2818 6.72658 18.2818C6.39042 18.2204 5.99314 18.1122 5.7147 18.0076C5.51776 17.7334 5.21894 16.8278 5.14085 16.449C5.19857 16.2397 5.43626 15.7959 5.55511 15.5434C5.7928 15.0599 5.93202 14.7857 5.97276 14.5331C6.05086 14.176 6.30893 11.9643 6.4074 11.0407C6.66546 11.3978 7.022 11.9895 6.94051 12.3684C7.51436 11.5061 7.1001 10.6618 6.89976 10.3263C6.72319 9.99074 6.4855 9.31606 6.68244 8.60169C6.87939 7.88732 7.59246 5.90656 7.59246 5.90656C7.59246 5.90656 7.83015 6.35033 8.16631 6.26374C8.50248 6.18076 11.2155 1.84402 11.2155 1.84402C11.2155 1.84402 11.949 3.54697 11.1748 4.79171C10.3836 6.03284 9.60944 6.26374 9.60944 6.26374C9.60944 6.26374 10.6994 6.473 11.7079 5.69369C12.1222 6.72556 12.5195 7.79712 12.5398 7.94504C12.4787 8.09297 11.6875 10.1134 11.6094 10.2397C11.5687 10.283 11.2936 10.366 11.0933 10.4093C10.7571 10.5139 10.5602 10.5788 10.4787 10.6402C10.3395 10.7665 9.70451 12.6173 9.4091 13.5229C9.05256 13.6275 8.69602 13.8404 8.43796 14.2589C8.57718 14.1543 9.01181 14.0894 9.331 14.0497C9.60944 14.028 10.4583 14.5115 10.679 15.4171C10.679 15.4387 10.679 15.4387 10.679 15.4604C10.7232 15.7923 10.6247 16.1098 10.4651 16.3624ZM8.60434 16.6149C8.78431 16.3407 8.76394 15.8789 8.78431 15.731C8.80468 15.583 8.84203 15.3088 9.00163 15.2692C9.16122 15.2259 9.53813 15.2908 9.53813 15.583C9.53813 15.8572 9.25969 15.9186 9.06275 16.1098C8.92013 16.2541 8.64169 16.5716 8.60434 16.6149ZM16.5059 12.5921C16.7028 11.5205 16.7232 10.5933 16.6655 9.8356C17.4363 10.9288 17.9116 12.2565 18.0509 13.6239C18.0712 13.7935 18.2274 13.9595 18.387 14.129C18.5262 14.2553 18.6858 14.4249 18.6858 14.5295C18.6858 15.013 18.6451 15.4965 18.567 15.9835C18.5466 16.0449 18.37 16.1531 18.2308 16.2361C18.0339 16.3407 17.8539 16.4453 17.8166 16.6149C17.3819 18.2349 16.4481 19.6672 15.202 20.6775C17.0424 18.6354 17.932 15.2655 16.5059 12.5921ZM15.2597 20.8651C16.5466 19.8115 17.5381 18.3395 17.9728 16.6763C17.9931 16.6149 18.1697 16.5067 18.2886 16.4237C18.4855 16.3191 18.6858 16.1928 18.7232 16.0232C18.8013 15.5398 18.842 15.0346 18.842 14.5295C18.842 14.3419 18.6621 14.1507 18.4855 13.9631C18.387 13.8368 18.2274 13.6889 18.2274 13.5842C18.0678 12.0473 17.494 10.5969 16.6043 9.39543C16.2071 6.86988 14.6247 6.09056 14.584 6.06892C14.6247 6.13386 15.6536 7.71053 14.9405 9.5614C14.2071 11.4339 12.3259 11.1417 12.1663 11.1597C12.0067 11.1597 11.3955 12.0004 10.6213 13.559C10.5228 13.5157 10.1052 13.4111 9.62981 13.4977C9.98635 12.4441 10.5228 10.9505 10.6213 10.8242C10.6621 10.7809 10.9575 10.6979 11.1578 10.6366C11.5347 10.5319 11.7113 10.467 11.7724 10.384C11.8132 10.3191 12.0101 9.8356 12.2071 9.33049C12.387 9.33049 12.842 9.2872 12.8794 9.26555C12.9201 9.22225 13.297 8.19399 13.297 8.06771C13.297 7.96308 12.5228 5.92099 12.2274 5.14168C12.3667 4.9721 12.5059 4.76284 12.6417 4.53193C16.7028 4.99736 19.8743 8.65942 19.8743 13.0972C19.8743 16.5067 17.9931 19.476 15.2597 20.8651Z" fill="#1B314F"/>
<path d="M9.98963 9.49928C10.3665 9.03746 10.1696 8.17516 9.47351 8.02724C9.65347 7.58707 9.90814 6.70312 9.90814 6.70312C9.90814 6.70312 7.88777 10.0693 7.7112 10.1343C7.53123 10.1992 7.35466 9.45959 7.35466 9.45959C6.97775 10.9966 7.98963 11.2058 8.10848 10.7224C8.66196 10.5708 9.61272 9.93944 9.98963 9.49928Z" fill="#1B314F"/>
<path d="M8.26465 10.3178L9.29351 8.44531C9.29351 8.44531 9.88774 8.76281 9.58893 9.26792C9.21541 9.85602 8.26465 10.3178 8.26465 10.3178Z" fill="#FFD923"/>
<path d="M21.0015 18.9926C20.7027 19.4147 20.3665 19.8549 19.9727 20.277C22.5261 15.0563 20.0915 10.2794 19.993 10.0918C20.173 10.283 20.3496 10.4923 20.5092 10.6799C22.4684 12.9926 22.7061 16.467 21.0015 18.9926Z" fill="#D82122"/>
<path d="M23.3784 12.2787C22.4854 9.73146 21.2189 7.56309 18.4277 5.60758C15.735 3.71342 12.8419 3.86134 12.6823 3.88299C12.662 3.88299 12.6416 3.88299 12.6416 3.88299C12.7401 3.83969 12.8385 3.81805 12.937 3.80001C13.5516 3.59075 14.3428 3.42117 15.1374 3.31654C17.2392 2.99544 19.3581 3.7531 20.8046 5.37668C20.825 5.39832 20.825 5.39832 20.8453 5.41997C22.4888 7.27084 23.3411 9.58353 23.3784 12.2787Z" fill="#D82122"/>
<path d="M17.7927 1.85867C14.8419 1.27057 12.9404 1.56282 11.5719 2.11122C11.5312 1.94165 11.392 1.60611 11.2731 1.33191C10.8623 1.85867 10.4242 2.49006 10.1492 2.89054C9.39538 3.43894 9.07959 3.9657 9.07959 3.9657C9.51422 2.38543 10.7842 1.20924 12.3292 0.913387C12.7638 0.830405 13.2392 0.787109 13.7553 0.787109C15.1203 0.808757 16.4854 1.16594 17.7927 1.85867Z" fill="#D82122"/>
<path d="M6.8797 5.89881C4.56391 5.81582 5.33471 2.95112 5.37546 2.78516C5.37546 2.8068 5.53165 5.03651 6.8797 5.89881Z" fill="#D82122"/>
<path d="M9.15769 0.744141C7.375 1.88064 7.73154 4.59381 7.73154 4.59381C6.02695 1.84095 9.01847 0.809083 9.15769 0.744141Z" fill="#D82122"/>
<path d="M6.22774 6.65598C6.34658 6.76061 6.46543 6.95183 6.32621 7.22604C6.24811 7.37396 6.12926 7.35231 5.9493 7.26933C5.71161 7.14305 4.28546 6.25911 2.99854 5.35352C4.46543 5.90192 5.9493 6.49002 6.18699 6.61629C6.18699 6.61629 6.20736 6.63794 6.22774 6.65598Z" fill="white"/>
</g>
<defs>
<clipPath id="clip0_531_51580">
<rect width="24" height="24" fill="white"/>
</clipPath>
</defs>
</svg>
