<svg width="24" height="24" viewBox="0 0 24 24" fill="none" xmlns="http://www.w3.org/2000/svg">
<g clip-path="url(#clip0_531_51679)">
<path d="M12 24C18.6274 24 24 18.6274 24 12C24 5.37258 18.6274 0 12 0C5.37258 0 0 5.37258 0 12C0 18.6274 5.37258 24 12 24Z" fill="url(#paint0_linear_531_51679)"/>
<path d="M15.3392 9.1312C15.3392 9.04424 15.374 8.93989 15.461 8.83555C15.5827 8.69642 15.7218 8.67902 15.8088 8.66163H17.2523C17.4262 8.66163 17.5653 8.5225 17.5653 8.34859V6.74859C17.5653 6.57468 17.4262 6.43555 17.2523 6.43555H15.6523C15.4783 6.43555 15.3392 6.57468 15.3392 6.74859V8.17468C15.3392 8.26163 15.3044 8.38337 15.2001 8.50511C15.1131 8.60946 14.9914 8.64424 14.9044 8.66163H13.4262C13.2523 8.66163 13.1131 8.80076 13.1131 8.97468V10.4008C13.1131 10.4877 13.0783 10.6095 12.974 10.7312C12.887 10.8355 12.7653 10.8703 12.6783 10.8877H11.3218C11.2349 10.8703 11.1131 10.8355 11.0262 10.7312C10.9392 10.6442 10.9044 10.5399 10.887 10.4529V8.97468C10.887 8.80076 10.7479 8.66163 10.574 8.66163H9.09574C9.00878 8.64424 8.88704 8.60946 8.80009 8.50511C8.71313 8.41816 8.67835 8.31381 8.66096 8.22685V6.74859C8.66096 6.57468 8.52183 6.43555 8.34791 6.43555H6.74791C6.574 6.43555 6.43487 6.57468 6.43487 6.74859V8.34859C6.43487 8.5225 6.574 8.66163 6.74791 8.66163H8.174C8.26096 8.66163 8.41748 8.69642 8.52183 8.83555C8.66096 8.99207 8.64357 9.20076 8.64357 9.23555V10.4182C8.64357 10.5051 8.60878 10.6269 8.50444 10.7486C8.41748 10.8529 8.29574 10.8877 8.20878 10.9051H6.73052C6.55661 10.9051 6.41748 11.0442 6.41748 11.2182V17.2703C6.41748 17.4442 6.55661 17.5834 6.73052 17.5834H8.34791C8.52183 17.5834 8.66096 17.4442 8.66096 17.2703V11.3573C8.66096 11.2703 8.69574 11.166 8.7827 11.0616C8.90444 10.9225 9.04357 10.9051 9.13052 10.8877H10.3827C10.4697 10.8877 10.6262 10.9225 10.7305 11.0616C10.8697 11.2182 10.8523 11.4269 10.8523 11.4616V12.8182C10.8523 12.9921 10.9914 13.1312 11.1653 13.1312H12.7653C12.9392 13.1312 13.0783 12.9921 13.0783 12.8182V11.3573C13.0783 11.2703 13.1131 11.166 13.2001 11.0616C13.3218 10.9225 13.461 10.9051 13.5479 10.8877H14.8001C14.887 10.8877 15.0436 10.9225 15.1479 11.0616C15.287 11.2182 15.2697 11.4269 15.2697 11.4616V17.2703C15.2697 17.4442 15.4088 17.5834 15.5827 17.5834H17.1827C17.3566 17.5834 17.4957 17.4442 17.4957 17.2703V11.2008C17.4957 11.0269 17.3566 10.8877 17.1827 10.8877H15.7044C15.6175 10.8703 15.4957 10.8355 15.4088 10.7312C15.3218 10.6442 15.287 10.5399 15.2697 10.4529L15.3392 9.1312Z" fill="white"/>
</g>
<defs>
<linearGradient id="paint0_linear_531_51679" x1="9.35137" y1="2.28372" x2="14.745" y2="22.0698" gradientUnits="userSpaceOnUse">
<stop stop-color="#0F51FB"/>
<stop offset="0.4448" stop-color="#6324FB"/>
<stop offset="1" stop-color="#EF3678"/>
</linearGradient>
<clipPath id="clip0_531_51679">
<rect width="24" height="24" fill="white"/>
</clipPath>
</defs>
</svg>
