<svg width="24" height="24" viewBox="0 0 24 24" fill="none" xmlns="http://www.w3.org/2000/svg">
<g clip-path="url(#clip0_531_51371)">
<path d="M2.19356 10.8008L1.93549 11.0777C-1.03225 14.4008 -0.387088 18.7392 3.61291 21.5085C5.80646 23.17 8.90324 24.0008 12 24.0008C12 24.0008 12 24.0008 2.19356 10.8008Z" fill="#00A3FF"/>
<path opacity="0.6" d="M11.9998 14.7686L2.19336 10.707C11.9998 23.9993 11.9998 23.9993 11.9998 23.9993C11.9998 21.1378 11.9998 17.8147 11.9998 14.7686Z" fill="#00A3FF"/>
<path opacity="0.6" d="M21.8065 10.8008L22.0645 11.0777C25.0323 14.4008 24.3871 18.7392 20.3871 21.5085C18.0645 23.17 15.0968 24.0008 12 24.0008C12 24.0008 12 24.0008 21.8065 10.8008Z" fill="#00A3FF"/>
<path opacity="0.2" d="M12 14.7686L21.8065 10.707C12 23.9993 12 23.9993 12 23.9993C12 21.1378 12 17.8147 12 14.7686Z" fill="#00A3FF"/>
<path opacity="0.2" d="M12 5.81445V12.7375L20.5161 9.32215L12 5.81445Z" fill="#00A3FF"/>
<path opacity="0.6" d="M12 5.81445L3.48389 9.32215L12 12.7375V5.81445Z" fill="#00A3FF"/>
<path d="M12 0L3.48389 9.32308L12 5.81538V0Z" fill="#00A3FF"/>
<path opacity="0.6" d="M12 5.81538L20.5161 9.32308L12 0V5.81538Z" fill="#00A3FF"/>
</g>
<defs>
<clipPath id="clip0_531_51371">
<rect width="24" height="24" fill="white"/>
</clipPath>
</defs>
</svg>
