<svg width="24" height="24" viewBox="0 0 24 24" fill="none" xmlns="http://www.w3.org/2000/svg">
<g clip-path="url(#clip0_531_51449)">
<mask id="mask0_531_51449" style="mask-type:luminance" maskUnits="userSpaceOnUse" x="0" y="0" width="24" height="24">
<path d="M24 0H0V24H24V0Z" fill="white"/>
</mask>
<g mask="url(#mask0_531_51449)">
<path fill-rule="evenodd" clip-rule="evenodd" d="M12 0C18.6277 0 24 5.37267 24 12C24 18.6277 18.6277 24 12 24C5.37313 24 0 18.6277 0 12C0 5.37313 5.37267 0 12 0Z" fill="#0074F0"/>
<path fill-rule="evenodd" clip-rule="evenodd" d="M15.3826 10.5541C15.4707 10.9948 15.5171 11.4783 15.5171 12.0003C15.5171 14.8111 14.1985 16.4893 11.99 16.4893C11.069 16.4893 10.2918 16.1942 9.70585 15.6319L17.3939 7.93356C17.1879 7.5684 16.9532 7.22692 16.6887 6.91512C16.5774 6.78429 16.4604 6.66133 16.3412 6.54255L16.3421 6.54117C16.3263 6.52585 16.3096 6.51101 16.2943 6.49569C16.2586 6.4609 16.2248 6.4247 16.1886 6.3913L16.1862 6.39268C15.0703 5.3506 13.6348 4.80078 11.99 4.80078C10.0891 4.80078 8.46748 5.53201 7.30103 6.91512C6.20419 8.21612 5.6001 10.0224 5.6001 12.0003C5.6001 13.3152 5.86828 14.5522 6.3689 15.6165L8.59971 13.3829C8.52223 12.9598 8.48279 12.4986 8.48279 12.0003C8.48279 10.7067 8.74586 9.6605 9.26459 8.89121C9.87244 7.98877 10.8152 7.51134 11.99 7.51134C12.9045 7.51134 13.6659 7.8004 14.2449 8.33722L6.57213 16.0207C6.78324 16.4039 7.02682 16.7608 7.30057 17.086C7.35578 17.1509 7.41239 17.2136 7.46946 17.2757L7.47085 17.2771C7.53674 17.349 7.60401 17.4187 7.67222 17.4864L7.6982 17.5123C7.72001 17.5337 7.74089 17.5564 7.76316 17.5773L7.76548 17.5754C8.88228 18.6394 10.3284 19.2008 11.9895 19.2008C13.8919 19.2008 15.5162 18.4695 16.6883 17.086C17.7911 15.7836 18.3989 13.9773 18.3989 12.0008C18.3989 10.6659 18.1206 9.40991 17.6009 8.33304L15.3821 10.5546L15.3826 10.5541Z" fill="white"/>
</g>
</g>
<defs>
<clipPath id="clip0_531_51449">
<rect width="24" height="24" fill="white"/>
</clipPath>
</defs>
</svg>
