<svg width="24" height="24" viewBox="0 0 24 24" fill="none" xmlns="http://www.w3.org/2000/svg">
<g clip-path="url(#clip0_531_51615)">
<path fill-rule="evenodd" clip-rule="evenodd" d="M12 0C18.6264 0 24 5.3736 24 12C24 18.6264 18.6264 24 12 24C5.3736 24 0 18.6264 0 12C0 5.3736 5.3736 0 12 0Z" fill="#0055D5"/>
<path fill-rule="evenodd" clip-rule="evenodd" d="M6.52817 7.93843C6.52817 7.93843 5.23697 6.90643 5.14817 9.45523C5.05937 11.4304 5.06177 15.2656 5.97617 17.0776C6.36257 17.7592 6.87857 17.5504 7.83857 16.8712C8.67377 16.2544 11.6954 13.4704 12.9746 12.2488C14.2538 11.0272 16.8482 7.52323 17.3882 9.90403C17.6018 10.9048 17.8658 11.7544 17.6642 13.9744C17.6018 14.6584 17.309 15.1768 15.9746 14.2504C14.9666 13.6024 14.009 12.9064 14.009 12.9064C14.009 12.9064 13.8242 12.5752 13.3874 13.1128C13.0442 13.5424 12.8714 13.648 13.421 13.9744C13.973 14.3008 16.7642 16.2256 17.8346 16.5256C18.7178 16.7824 19.2218 16.7776 19.2482 15.0424C19.2434 13.6648 19.1642 9.72163 18.6626 8.04163C18.2834 6.99523 17.7266 6.52003 16.5242 7.69603C15.3218 8.87203 11.5298 12.5488 9.45617 14.2144C8.08097 15.2464 7.49297 16.1776 6.97457 14.4568C6.60977 13.1536 6.13697 9.09763 7.62977 9.87043C8.56337 10.3168 9.02897 10.3144 8.66417 10.5952C8.29937 10.8736 7.25057 11.836 7.25057 11.836C7.25057 11.836 6.92657 12.0976 7.07777 12.664C7.22897 13.06 7.22897 13.2568 8.04257 12.4912C8.85617 11.7256 9.45617 11.1472 9.45617 11.1472C9.45617 11.1472 9.58577 10.9432 9.97217 11.32C10.3586 11.6968 10.421 11.8024 10.421 11.8024C10.421 11.8024 10.5242 12.0832 10.937 11.596C11.3522 11.1088 11.6186 10.8112 10.8338 10.3552C10.0514 9.89443 6.52817 7.93843 6.52817 7.93843Z" fill="white"/>
</g>
<defs>
<clipPath id="clip0_531_51615">
<rect width="24" height="24" fill="white"/>
</clipPath>
</defs>
</svg>
