<svg width="24" height="24" viewBox="0 0 24 24" fill="none" xmlns="http://www.w3.org/2000/svg">
<g clip-path="url(#clip0_531_51109)">
<path d="M12 24C18.6274 24 24 18.6274 24 12C24 5.37258 18.6274 0 12 0C5.37258 0 0 5.37258 0 12C0 18.6274 5.37258 24 12 24Z" fill="#00EF8B"/>
<path d="M17.2561 10.1289H13.8721V13.5129H17.2561V10.1289Z" fill="white"/>
<path d="M10.4881 14.7849C10.4881 15.4809 9.91206 16.0569 9.21606 16.0569C8.52006 16.0569 7.94406 15.4809 7.94406 14.7849C7.94406 14.0889 8.52006 13.5129 9.21606 13.5129H10.4881V10.1289H9.21606C6.64806 10.1289 4.56006 12.2169 4.56006 14.7849C4.56006 17.3529 6.64806 19.4409 9.21606 19.4409C11.7841 19.4409 13.8721 17.3529 13.8721 14.7849V13.5129H10.4881V14.7849Z" fill="white"/>
<path d="M15.1438 8.42306H18.9598V5.03906H15.1438C12.5758 5.03906 10.4878 7.12706 10.4878 9.69506V10.1271H13.8718V9.69506C13.8718 8.99906 14.4478 8.42306 15.1438 8.42306Z" fill="white"/>
<path d="M13.8718 10.1289H10.4878V13.5129H13.8718V10.1289Z" fill="#16FF99"/>
</g>
<defs>
<clipPath id="clip0_531_51109">
<rect width="24" height="24" fill="white"/>
</clipPath>
</defs>
</svg>
