<svg width="24" height="24" viewBox="0 0 24 24" fill="none" xmlns="http://www.w3.org/2000/svg">
<g clip-path="url(#clip0_531_51595)">
<path d="M7.0543 13.6649C7.74402 13.6649 8.41692 13.435 8.96084 13.0145L4.58701 8.64062C3.5328 10.0032 3.78514 11.9659 5.14776 13.0201C5.69729 13.435 6.36458 13.6649 7.0543 13.6649Z" fill="#00193C"/>
<path d="M20.0634 10.5413C20.0634 9.85159 19.8335 9.17869 19.4129 8.63477L15.0391 13.0086C16.4017 14.0628 18.3587 13.8105 19.4129 12.4478C19.8335 11.9039 20.0634 11.231 20.0634 10.5413Z" fill="#00193C"/>
<path d="M22.2673 5.78125L20.3327 7.71583C21.8916 9.58312 21.6449 12.3644 19.7776 13.9233C18.1402 15.2915 15.7626 15.2915 14.1252 13.9233L12 16.0485L9.88037 13.9289C8.01308 15.4878 5.23178 15.2411 3.6729 13.3738C2.30467 11.7364 2.30467 9.35882 3.6729 7.72144L2.68037 6.72891L1.73832 5.78125C0.6 7.65415 0 9.80742 0 11.9999C0 18.628 5.37196 23.9999 12 23.9999C18.628 23.9999 24 18.628 24 11.9999C24.0056 9.80742 23.4 7.65415 22.2673 5.78125Z" fill="#00193C"/>
<path d="M20.6804 3.71696C16.1103 -1.07744 8.51777 -1.25688 3.72338 3.31322C3.58319 3.4478 3.44861 3.58238 3.31964 3.71696C3.02244 4.03097 2.74207 4.35621 2.47852 4.69826L12 14.2254L21.5215 4.69826C21.2636 4.35621 20.9776 4.03097 20.6804 3.71696ZM12 1.56929C14.8037 1.56929 17.4168 2.65154 19.3794 4.62537L12 12.0048L4.62057 4.62537C6.58319 2.65154 9.19627 1.56929 12 1.56929Z" fill="#00193C"/>
</g>
<defs>
<clipPath id="clip0_531_51595">
<rect width="24" height="24" fill="white"/>
</clipPath>
</defs>
</svg>
