<svg width="24" height="24" viewBox="0 0 24 24" fill="none" xmlns="http://www.w3.org/2000/svg">
<g clip-path="url(#clip0_531_51118)">
<path fill-rule="evenodd" clip-rule="evenodd" d="M1.3208 17.7555C1.61226 17.9104 1.9948 18.1472 2.26805 18.3294C2.36824 18.3977 2.48209 18.4569 2.59139 18.5252C2.65059 18.5616 2.68702 18.5798 2.74167 18.6163C2.769 18.6345 2.79177 18.6527 2.81909 18.6664C2.85097 18.6846 2.86919 18.6937 2.90107 18.7119L6.40771 20.8705C6.4578 20.8979 6.50334 20.9297 6.55799 20.9616L9.74129 22.9244C9.77773 22.9472 9.79139 22.9517 9.82327 22.9745L11.3443 23.9081C11.4126 23.9445 11.44 23.9901 11.5174 23.9946V12.1085L11.0347 11.8307C10.9891 11.8079 10.9618 11.7897 10.9162 11.7624L10.5383 11.5438C10.0009 11.2614 9.49993 10.9153 8.95799 10.633C8.90334 10.6056 8.88513 10.5874 8.82593 10.5601L8.34319 10.2823C8.22479 10.2094 7.6874 9.88609 7.59177 9.86332V11.7396L9.56824 12.8827C9.62289 12.9146 9.65932 12.9373 9.70942 12.9646C9.76407 12.992 9.79139 13.0239 9.8597 13.0375V21.0846C9.51359 20.8523 9.14471 20.6428 8.78949 20.4288L7.92877 19.896C7.57811 19.6591 7.20012 19.4633 6.84945 19.2311C6.80847 19.2037 6.7857 19.1946 6.74471 19.1673L5.98418 18.6982C5.90221 18.6527 5.843 18.6163 5.76558 18.5616C5.48778 18.3749 5.18721 18.2109 4.90486 18.0288C4.82744 17.9787 4.76369 17.9468 4.68627 17.8967C4.26729 17.6144 3.81644 17.3593 3.38835 17.0998C3.35192 17.077 3.32004 17.0542 3.28816 17.0314L2.95572 16.8265V7.1673C2.89196 7.12632 2.8282 7.08988 2.75534 7.0489C2.68247 7.00791 2.62782 6.97603 2.55496 6.93049L1.53029 6.34757C1.45287 6.30658 1.39367 6.26104 1.3208 6.22461V17.7555Z" fill="#060606"/>
<path fill-rule="evenodd" clip-rule="evenodd" d="M12.5008 12.0916V16.6593L13.1065 16.3178C13.3843 16.172 13.6393 15.9944 13.9171 15.8487C13.9672 15.8214 13.9854 15.8123 14.0219 15.7849C14.0583 15.7622 14.0947 15.7485 14.1312 15.7303V13.0388C14.1858 13.0252 14.204 13.0161 14.245 12.9887C14.286 12.9614 14.3133 12.9523 14.3543 12.9295C14.5684 12.8066 14.7778 12.6608 14.9964 12.5515C15.2925 12.4058 15.5748 12.2236 15.8572 12.0551C15.93 12.0142 15.9892 11.9777 16.0667 11.9322L16.4947 11.6908C16.5403 11.6635 16.5539 11.6544 16.5995 11.6271C16.7862 11.5314 16.9593 11.4039 17.1505 11.3037L17.36 11.1808C17.3964 11.158 17.4329 11.1443 17.4693 11.1261L18.8674 10.3155C19.1634 10.1606 19.4367 9.97393 19.7281 9.81909L20.1608 9.56406C20.3065 9.47754 20.4477 9.40012 20.5934 9.30904C20.6708 9.2635 20.7346 9.23162 20.8029 9.18608L21.0306 9.05856V16.8506C20.9668 16.8643 20.9486 16.887 20.894 16.9189L20.4932 17.1648C20.4522 17.1921 20.4204 17.2149 20.3703 17.2468C20.3156 17.2787 20.2792 17.306 20.2336 17.3333C20.1835 17.3606 20.1562 17.3834 20.1061 17.4107L19.7008 17.6521C19.3365 17.8616 18.9949 18.0984 18.6306 18.3079L17.5649 18.9682C17.5149 19.0001 17.4875 19.0138 17.4374 19.0457C16.9593 19.369 16.4492 19.6377 15.9665 19.9519C15.8799 20.0111 15.7889 20.0612 15.7023 20.1159L14.368 20.9356C14.327 20.9584 14.2815 20.9857 14.2405 21.013C13.8443 21.2726 13.4298 21.4958 13.0336 21.7553L12.4917 22.0878V24.0005C12.5828 23.9777 12.7285 23.8684 12.8105 23.8183C12.9198 23.75 13.0245 23.6954 13.1338 23.6225C13.4389 23.4176 13.7714 23.2491 14.0765 23.0441C14.1357 23.0077 14.1813 22.9758 14.2359 22.944L15.042 22.4476C15.0966 22.4157 15.1376 22.3884 15.1923 22.3565L19.4822 19.7151C19.5414 19.6787 19.5915 19.6468 19.6416 19.6149L22.5061 17.8525C22.5608 17.8161 22.6154 17.7842 22.6701 17.7569V6.24414C22.5881 6.26236 22.5744 6.28968 22.5107 6.32611C22.4515 6.35799 22.4105 6.38076 22.3558 6.41264L21.404 6.96368C21.0807 7.13674 20.7801 7.35078 20.4522 7.51473L17.9065 8.98114C17.7926 9.0449 17.7016 9.1041 17.5923 9.16786L17.1232 9.4411C16.7908 9.60961 16.308 9.89651 16.0029 10.0878C15.9482 10.1242 15.9027 10.1379 15.8481 10.1743L14.8143 10.7755C14.7687 10.7982 14.7778 10.7982 14.7323 10.8255L14.409 11.0032C14.2177 11.1033 14.0492 11.2263 13.8579 11.3265C13.8124 11.3493 13.8124 11.3584 13.7759 11.3766L13.4526 11.5542C13.2386 11.6589 12.6739 12.0551 12.5008 12.0916Z" fill="#060606"/>
<path fill-rule="evenodd" clip-rule="evenodd" d="M1.95361 5.46034C2.01737 5.474 2.0538 5.51044 2.11301 5.54231C2.32705 5.65617 2.51832 5.79279 2.73692 5.90209L4.46747 6.90398C5.29175 7.40493 6.14792 7.85123 6.97676 8.35218L7.1316 8.43871C7.19081 8.47059 7.23179 8.49791 7.28644 8.52524L8.22914 9.07173C8.27012 9.0945 8.26557 9.0945 8.29745 9.11271C8.73919 9.3814 9.20371 9.60911 9.6409 9.88691L11.0436 10.693C11.0982 10.7249 11.1392 10.7522 11.1938 10.7841C11.3578 10.8843 11.9453 11.2395 12.0045 11.2395C12.091 11.2395 12.5919 10.9207 12.7195 10.8433L12.9654 10.6975C13.0474 10.6474 13.1202 10.6156 13.2022 10.5655C13.2887 10.5154 13.3525 10.4789 13.439 10.4288L13.9172 10.1465C13.9992 10.0964 14.072 10.06 14.1494 10.0099L14.8735 9.6C14.9191 9.57723 14.951 9.55446 14.9919 9.53169C15.0329 9.50436 15.0603 9.4907 15.1104 9.46338L15.5931 9.18558C15.6705 9.14004 15.757 9.07173 15.8481 9.04896C15.8345 8.99431 15.8253 8.99886 15.7798 8.97154L14.236 8.08349C13.6212 8.40683 13.0382 8.78482 12.428 9.11727C12.3779 9.14459 12.3369 9.17192 12.2914 9.20379C12.1957 9.263 12.1092 9.31309 12.009 9.36774L11.08 8.83036C10.7567 8.66641 10.4606 8.45237 10.1373 8.28387C10.0644 8.24288 9.99157 8.19734 9.92781 8.16091L8.04242 7.07704C8.00599 7.05427 7.97411 7.03605 7.93768 7.01328C7.89669 6.98596 7.86936 6.97685 7.82838 6.95408L5.41471 5.56053C5.36917 5.53321 5.36462 5.51954 5.30086 5.50588C5.35096 5.43302 5.41016 5.42846 5.49213 5.37837C5.56045 5.33283 5.6242 5.31006 5.69707 5.26907L7.7965 4.1351C7.84204 4.10778 7.84204 4.10323 7.88758 4.08046C7.93312 4.05768 7.95589 4.04858 7.99688 4.02125C8.06974 3.97571 8.14261 3.94383 8.21547 3.9074L10.8341 2.49564C10.8796 2.47287 10.8933 2.4592 10.9388 2.43188L12.0045 1.86262C12.0637 1.86262 12.8697 2.33169 13.0565 2.42732C13.102 2.45009 13.1339 2.46376 13.1794 2.49108C13.2341 2.52296 13.2477 2.53662 13.3115 2.56395L16.2079 4.126C16.4629 4.28539 17.2371 4.6907 17.5104 4.82732C17.82 4.98216 18.116 5.16888 18.4257 5.32372L20.1472 6.2573C20.2064 6.28918 20.2246 6.29829 20.2792 6.33017C20.4842 6.45313 20.4887 6.34839 20.8212 6.16622L21.436 5.81556C21.5453 5.75636 21.9597 5.49222 22.0553 5.46945C22.0371 5.41025 21.9825 5.38748 21.9278 5.3556L21.3039 5.01404C20.9897 4.85465 20.6754 4.65882 20.3612 4.50854L19.7373 4.16698C19.5233 4.05768 19.3092 3.95749 19.1088 3.82998L15.962 2.13131C15.8982 2.09943 15.8618 2.08121 15.8071 2.04478L14.5411 1.36167C14.4819 1.32979 14.4455 1.30702 14.3863 1.27514C14.3544 1.25693 14.3407 1.25237 14.3134 1.23871L12.6511 0.337002C12.5464 0.273245 12.0591 0 11.9999 0C11.9498 0 11.5992 0.209488 11.5217 0.24592L7.91946 2.19507C7.86026 2.22239 7.81472 2.24516 7.76007 2.27704L5.23711 3.63871C5.1779 3.67059 5.15058 3.69336 5.08227 3.72524L4.85456 3.8482C4.80902 3.87097 4.80902 3.88008 4.77259 3.89829C4.72249 3.93017 4.66785 3.94383 4.6132 3.98027L4.13046 4.23985C4.06671 4.27173 4.03483 4.29905 3.97563 4.32638L3.24242 4.72713C3.21509 4.7408 3.21509 4.73624 3.19232 4.74991C3.08758 4.80911 2.97828 4.85009 2.87809 4.91841C2.81889 4.95484 2.78246 4.9685 2.7187 5.00038L2.01282 5.39203C1.95817 5.42391 1.97183 5.39658 1.95361 5.46034Z" fill="#060606"/>
</g>
<defs>
<clipPath id="clip0_531_51118">
<rect width="24" height="24" fill="white"/>
</clipPath>
</defs>
</svg>
