<svg width="24" height="24" viewBox="0 0 24 24" fill="none" xmlns="http://www.w3.org/2000/svg">
<g clip-path="url(#clip0_531_51440)">
<path d="M12 0C18.6274 0 24 5.37257 24 12C24 18.6274 18.6274 24 12 24C5.37257 24 0 18.6274 0 12C0 5.37257 5.37257 0 12 0Z" fill="#00467A"/>
<path d="M5.22949 10.4348C4.98881 10.4348 4.88184 10.5417 4.88184 10.7557C4.88184 10.7557 4.88184 15.5714 4.88184 16.2668C4.88184 16.5074 4.98881 16.5877 5.22949 16.5877C7.87841 16.6144 11.115 14.2604 13.7906 12.4144V6.04688C11.1424 7.86608 7.82492 10.4615 5.22949 10.4348Z" fill="url(#paint0_linear_531_51440)"/>
<path d="M19.1676 12.9207C19.4083 12.9207 19.5152 12.8137 19.5152 12.5998C19.5152 12.5998 19.5152 7.78403 19.5152 7.08872C19.5152 6.84803 19.4083 6.7678 19.1676 6.7678C16.4919 6.74106 13.2821 9.09512 10.6064 10.9411V17.2819C13.2554 15.4627 16.5728 12.8672 19.1676 12.9207Z" fill="url(#paint1_linear_531_51440)"/>
<path d="M13.7906 12.4138V8.77539C12.6934 9.4707 11.597 10.2202 10.5801 10.9155V14.5539C11.704 13.8586 12.7744 13.1091 13.7906 12.4138Z" fill="#194AAD"/>
</g>
<defs>
<linearGradient id="paint0_linear_531_51440" x1="10.1512" y1="15.8035" x2="8.59148" y2="6.96428" gradientUnits="userSpaceOnUse">
<stop offset="0.1" stop-color="#194AAD"/>
<stop offset="0.5" stop-color="#248FCB"/>
<stop offset="0.8" stop-color="#2BBFDF"/>
</linearGradient>
<linearGradient id="paint1_linear_531_51440" x1="16.0499" y1="6.18544" x2="13.9875" y2="17.881" gradientUnits="userSpaceOnUse">
<stop offset="0.1" stop-color="#194AAD"/>
<stop offset="0.5" stop-color="#248FCB"/>
<stop offset="0.8" stop-color="#2BBFDF"/>
</linearGradient>
<clipPath id="clip0_531_51440">
<rect width="24" height="24" fill="white"/>
</clipPath>
</defs>
</svg>
