<svg width="24" height="24" viewBox="0 0 24 24" fill="none" xmlns="http://www.w3.org/2000/svg">
<g clip-path="url(#clip0_531_51607)">
<path d="M3.07039 9.73053C3.33449 10.2349 3.99474 11.2435 3.99474 11.2435L11.5546 0L4.19281 4.62794C3.76365 4.89493 3.40052 5.25093 3.13642 5.66625C2.44316 6.9419 2.44316 8.42522 3.07039 9.73053Z" fill="url(#paint0_linear_531_51607)"/>
<path d="M0.0992128 13.4098C0.264275 15.5755 1.48573 17.5928 3.40045 18.8981L11.5545 24.0007C11.5545 24.0007 6.43759 17.3851 2.14598 10.7992C1.71682 10.1169 1.41971 9.34554 1.28766 8.54455C1.22163 8.18855 1.22163 7.83256 1.28766 7.47656C1.18862 7.65456 0.957535 8.04022 0.957535 8.04022C0.528374 8.84121 0.231262 9.70153 0.0662004 10.5915C-0.0328367 11.5408 -0.0328367 12.4902 0.0992128 13.4098Z" fill="#A0A8D4"/>
<path d="M20.8968 14.3001C20.6327 13.7958 19.9724 12.7871 19.9724 12.7871L12.4126 24.001L19.8074 19.4027C20.2365 19.1357 20.5997 18.7797 20.8638 18.3644C21.524 17.0887 21.557 15.6054 20.8968 14.3001Z" fill="url(#paint1_linear_531_51607)"/>
<path d="M23.9011 10.5909C23.736 8.42522 22.5146 6.40791 20.5999 5.1026L12.4458 0C12.4458 0 17.5627 6.61558 21.8543 13.2015C22.2835 13.8838 22.5806 14.6551 22.7127 15.4561C22.7787 15.8121 22.7787 16.1681 22.7127 16.5241C22.8117 16.3461 23.0428 15.9604 23.0428 15.9604C23.4719 15.1595 23.769 14.2991 23.9341 13.4388C24.0001 12.4598 24.0001 11.5402 23.9011 10.5909Z" fill="#A0A8D4"/>
<path d="M3.13635 5.66625C3.40045 5.25093 3.73057 4.89493 4.19275 4.62794L11.5545 0L3.99467 11.2138C3.99467 11.2138 3.33443 10.2052 3.07033 9.70087C2.44309 8.42522 2.44309 6.9419 3.13635 5.66625ZM0.0992128 13.4091C0.264275 15.5748 1.48573 17.5921 3.40045 18.8974L11.5545 24C11.5545 24 6.43759 17.3844 2.14598 10.7985C1.71682 10.1162 1.41971 9.34487 1.28766 8.54388C1.22163 8.18789 1.22163 7.83189 1.28766 7.4759C1.18862 7.65389 0.957535 8.03955 0.957535 8.03955C0.528374 8.84054 0.231262 9.70087 0.0662004 10.5909C-0.0328367 11.5402 -0.0328367 12.4895 0.0992128 13.4091ZM20.897 14.2991C20.6329 13.7948 19.9727 12.7862 19.9727 12.7862L12.4128 24L19.8076 19.4017C20.2368 19.1347 20.5999 18.7787 20.864 18.3634C21.5242 17.0878 21.5573 15.6044 20.897 14.2991ZM23.8681 10.6205C23.7031 8.45488 22.4816 6.43758 20.5669 5.13226L12.4458 0C12.4458 0 17.5628 6.61557 21.8544 13.2015C22.2835 13.8838 22.5806 14.6551 22.7127 15.4561C22.7787 15.8121 22.7787 16.1681 22.7127 16.5241C22.8117 16.3461 23.0428 15.9604 23.0428 15.9604C23.472 15.1595 23.7691 14.2991 23.9342 13.4388C24.0002 12.4598 24.0002 11.5402 23.8681 10.6205Z" fill="url(#paint2_linear_531_51607)"/>
</g>
<defs>
<linearGradient id="paint0_linear_531_51607" x1="11.8984" y1="0.281266" x2="3.30525" y2="10.6476" gradientUnits="userSpaceOnUse">
<stop offset="0.58" stop-color="#A0A8D4"/>
<stop offset="0.73" stop-color="#8791C7"/>
<stop offset="0.91" stop-color="#6470B4"/>
</linearGradient>
<linearGradient id="paint1_linear_531_51607" x1="12.1018" y1="23.7394" x2="20.6921" y2="13.3801" gradientUnits="userSpaceOnUse">
<stop offset="0.58" stop-color="#A0A8D4"/>
<stop offset="0.73" stop-color="#8791C7"/>
<stop offset="0.91" stop-color="#6470B4"/>
</linearGradient>
<linearGradient id="paint2_linear_531_51607" x1="11.9911" y1="-0.118635" x2="11.9911" y2="24.089" gradientUnits="userSpaceOnUse">
<stop stop-color="#513EFF"/>
<stop offset="0.18" stop-color="#5157FF"/>
<stop offset="0.57" stop-color="#5298FF"/>
<stop offset="1" stop-color="#52E5FF"/>
</linearGradient>
<clipPath id="clip0_531_51607">
<rect width="24" height="24" fill="white"/>
</clipPath>
</defs>
</svg>
