<svg width="24" height="24" viewBox="0 0 24 24" fill="none" xmlns="http://www.w3.org/2000/svg">
<g clip-path="url(#clip0_531_51301)">
<path d="M12 23.2588C18.2183 23.2588 23.2592 18.2178 23.2592 11.9995C23.2592 5.78118 18.2183 0.740234 12 0.740234C5.78166 0.740234 0.740723 5.78118 0.740723 11.9995C0.740723 18.2178 5.78166 23.2588 12 23.2588Z" stroke="#0E0333" stroke-width="2"/>
<path fill-rule="evenodd" clip-rule="evenodd" d="M14.7407 10.2971C15.1852 10.8897 15.4074 11.7045 15.4074 12.4452C15.4074 13.186 15.1852 13.9267 14.7407 14.5193L15.6296 15.186C16.2222 14.3712 16.5185 13.4082 16.5185 12.3712C16.5185 11.3341 16.1481 10.2971 15.5555 9.4082L15.037 9.85265L14.7407 10.2971Z" fill="#02E2AC"/>
<path fill-rule="evenodd" clip-rule="evenodd" d="M16.4444 15.8516L13.3333 13.4813C13.5555 13.185 13.7037 12.8146 13.7037 12.4442C13.7037 12.0739 13.6296 11.7035 13.4074 11.4072L14.8889 10.0739L16.4444 8.59238C16.5185 8.5183 16.5185 8.29608 16.4444 8.22201L16.2963 8.07386C15.1852 6.96275 13.7037 6.29608 12.1481 6.222V5.33312C12.1481 5.25904 12.1481 5.18497 12.1481 5.18497C12.1481 5.11089 12.0741 5.11089 12.0741 5.03682C12.0741 4.96275 12 4.96275 11.9259 4.96275C11.8518 4.96275 11.8518 4.88867 11.7778 4.88867C11.7037 4.88867 11.6296 4.88867 11.6296 4.96275C11.5555 4.96275 11.5555 5.03682 11.4815 5.03682C11.4074 5.11089 11.4074 5.18497 11.3333 5.18497C11.3333 5.25904 11.3333 5.33312 11.3333 5.33312V6.222C10.9629 6.29608 10.5926 6.29608 10.2222 6.44423V5.33312C10.2222 5.25904 10.2222 5.18497 10.2222 5.18497C10.2222 5.11089 10.1481 5.11089 10.1481 5.03682C10.0741 4.96275 10.0741 4.96275 9.99999 4.96275C9.92591 4.96275 9.92591 4.88867 9.85184 4.88867C9.77776 4.88867 9.70369 4.88867 9.70369 4.96275C9.62962 4.96275 9.62962 5.03682 9.55554 5.03682C9.48147 5.11089 9.48147 5.18497 9.48147 5.18497C9.48147 5.25904 9.48147 5.33312 9.48147 5.33312V6.74052C8.22221 7.33312 7.18517 8.29608 6.5185 9.55534C5.85184 10.8146 5.70369 12.222 5.92591 13.6294C6.22221 15.0368 6.96295 16.222 7.99999 17.1109C9.03702 17.9998 10.4444 18.5183 11.8518 18.5183H16.3704C16.5185 18.5183 16.5926 18.3702 16.5926 18.2961V15.9998C16.5926 15.9998 16.5185 15.9257 16.4444 15.8516ZM11.9259 17.4813C10.8148 17.4813 9.70369 17.1109 8.88887 16.4442C7.99999 15.7776 7.40739 14.8146 7.1111 13.7035C6.8148 12.5924 6.88887 11.4813 7.33332 10.4442C7.77776 9.40719 8.5185 8.59238 9.48147 7.99978V9.62941C9.48147 9.70349 9.48147 9.77756 9.48147 9.77756C9.48147 9.85163 9.55554 9.85163 9.55554 9.92571C9.62962 9.99978 9.62962 9.99978 9.70369 9.99978C9.77776 9.99978 9.77776 10.0739 9.85184 10.0739C9.92591 10.0739 9.99999 10.0739 9.99999 9.99978C10.0741 9.99978 10.0741 9.92571 10.1481 9.92571C10.2222 9.85163 10.2222 9.85163 10.2222 9.77756C10.2222 9.70349 10.2222 9.62941 10.2222 9.62941V7.55534C10.8148 7.33312 11.3333 7.25904 11.9259 7.25904C13.037 7.25904 14.0741 7.62941 14.9629 8.29608C15.037 8.37015 15.037 8.44423 14.9629 8.5183L12.5926 10.7405C12.3704 10.6664 12.1481 10.5924 11.9259 10.5924C11.7037 10.5924 11.4074 10.6664 11.1852 10.7405C10.9629 10.8146 10.7407 11.0368 10.5926 11.185C10.4444 11.4072 10.2963 11.6294 10.2222 11.8516C10.1481 12.0739 10.1481 12.3702 10.1481 12.5924C10.2222 12.8887 10.2963 13.1109 10.4444 13.3331C10.5926 13.5553 10.7407 13.7035 10.9629 13.8516C11.1852 13.9998 11.4074 14.0739 11.7037 14.1479C11.9259 14.222 12.2222 14.1479 12.4444 14.0739L15.4815 16.3702L15.5555 16.4442V17.259C15.5555 17.3331 15.4815 17.4072 15.4074 17.4072L11.9259 17.4813ZM12.6667 12.4442C12.6667 12.5924 12.5926 12.7405 12.5185 12.8146C12.4444 12.9627 12.2963 13.0368 12.2222 13.1109C12.0741 13.185 11.9259 13.185 11.7778 13.185C11.6296 13.185 11.4815 13.1109 11.4074 12.9627C11.3333 12.8887 11.2592 12.7405 11.1852 12.5924C11.1852 12.4442 11.1852 12.2961 11.2592 12.1479C11.3333 11.9998 11.4074 11.9257 11.5555 11.8516C11.7037 11.7776 11.7778 11.7035 11.9259 11.7035C12.1481 11.7035 12.2963 11.7776 12.4444 11.9257C12.5926 11.9998 12.6667 12.222 12.6667 12.4442Z" fill="#02E2AC"/>
</g>
<defs>
<clipPath id="clip0_531_51301">
<rect width="24" height="24" fill="white"/>
</clipPath>
</defs>
</svg>
