<svg width="24" height="24" viewBox="0 0 24 24" fill="none" xmlns="http://www.w3.org/2000/svg">
<g clip-path="url(#clip0_531_51346)">
<path d="M11.9958 0.0319008C16.1096 0.0319008 19.9904 1.28449 23.5659 3.332L23.8311 3.45244L23.7507 3.73347C23.7427 7.75622 22.65 11.6987 20.593 15.1513C18.6004 18.6843 15.6998 21.6311 12.1886 23.6786L11.9958 23.8151L11.7869 23.6706C8.2355 21.615 5.54384 18.7164 3.50299 15.1594C1.46215 11.6104 0.232823 7.65987 0.232823 3.55683L0.200684 3.36412L0.337275 3.25171C3.8967 1.2042 7.87393 0.0078125 11.9878 0.0078125" fill="#8D33E5"/>
<path d="M23.6948 3.22067C20.1434 1.15711 16.1099 0.0570745 11.9961 0.0410156V23.6797L12.2612 23.8403C15.8046 21.7767 18.7373 18.8219 20.7701 15.2729C22.8351 11.7399 23.9278 7.73322 23.9358 3.64623V3.35717L23.6948 3.22067Z" fill="#7000DF"/>
<path d="M23.9759 3.59719V3.28404L23.7107 3.13148C20.1433 1.08397 16.1018 0 11.9879 0C7.87412 0 3.83261 1.08397 0.273184 3.13148L0 3.28404V3.59719C0.0160696 7.70826 1.10077 11.739 3.15768 15.2881C5.2146 18.8451 8.17141 21.7919 11.7308 23.8474L11.996 24L12.2611 23.8474C15.8206 21.7999 18.7774 18.8451 20.8343 15.2961C22.8992 11.739 23.992 7.70826 24 3.59719H23.9759ZM11.9799 22.8116C5.078 18.7809 0.658855 11.5704 0.610646 3.58113C4.08972 1.62998 8.00268 0.602208 11.996 0.602208C15.9893 0.602208 19.9022 1.62998 23.3813 3.58113C23.3411 11.5865 18.914 18.7809 11.996 22.8036L11.9799 22.8116Z" fill="#7000DF"/>
<path d="M11.996 22.8036C5.078 18.7809 0.658855 11.5704 0.610646 3.58113C4.08972 1.62998 8.01071 0.602208 11.996 0.602208V0C7.88216 0 3.83261 1.07595 0.265149 3.13148L0 3.28404V3.59719C0.00803482 7.70826 1.10077 11.739 3.15768 15.2881C5.2146 18.8451 8.17141 21.7919 11.7308 23.8474L11.996 24V22.8036Z" fill="#8D33E5"/>
<path d="M19.5327 7.46764C19.5327 7.37931 19.5167 7.28296 19.4845 7.20266C19.2194 6.43184 18.8176 5.70919 18.3115 5.07486C18.1909 4.90624 18.0463 4.75368 17.9177 4.5931L17.8133 4.47265C17.7731 4.42448 17.7169 4.38433 17.6606 4.35221C17.5481 4.28798 17.4276 4.25586 17.2991 4.25586C17.2348 4.26389 17.1785 4.27192 17.1143 4.29601C17.0821 4.30404 17.058 4.31207 17.0339 4.32812C17.0339 4.32812 12.671 6.68878 11.9881 7.04208C11.3131 6.68878 6.97433 4.31207 6.86987 4.30404C6.81363 4.27995 6.74935 4.27192 6.68507 4.26389C6.55652 4.26389 6.42796 4.29601 6.32351 4.36024C6.26726 4.39236 6.21905 4.43251 6.17888 4.48068L6.07443 4.60113C5.93784 4.75368 5.80928 4.90624 5.68072 5.08289C5.19863 5.70116 4.80493 6.38366 4.52371 7.11434C4.46746 7.22675 4.44336 7.34719 4.44336 7.46764C4.44336 7.58808 4.46746 7.71655 4.51567 7.82093C4.56388 7.93334 4.64423 8.0297 4.74065 8.10999C4.75672 8.12605 4.77279 8.14211 4.79689 8.15014L4.85314 8.19029L4.93348 8.24649L5.62448 8.67205L6.9904 9.52317L8.35632 10.3823L9.48922 11.0648L9.50529 15.8584V16.3883V16.6533C9.50529 16.7015 9.50529 16.7577 9.50529 16.8059C9.51333 16.8942 9.53743 16.9906 9.56957 17.0708C9.64189 17.2314 9.74634 17.3679 9.88293 17.4723C10.0195 17.5767 10.1802 17.649 10.3489 17.6891C10.5177 17.7293 10.6944 17.7694 10.8712 17.7935C11.6104 17.8979 12.3496 17.8979 13.0888 17.7935C13.354 17.7533 13.4182 17.7373 13.595 17.6971C13.7718 17.657 13.9325 17.5847 14.0691 17.4723C14.2057 17.3679 14.3181 17.2314 14.3824 17.0708C14.4146 16.9825 14.4387 16.8942 14.4467 16.8059C14.4467 16.7497 14.4467 16.7015 14.4467 16.6533C14.4467 16.6533 14.503 12.3254 14.4869 11.0729L15.6118 10.3904L17.0098 9.52317L18.3838 8.66402L19.0667 8.23846C19.2114 8.1662 19.3319 8.06181 19.4122 7.92531C19.4926 7.78078 19.5408 7.62822 19.5327 7.46764Z" fill="#3F017F"/>
<path d="M10.0112 10.7916C10.0112 10.3901 9.92285 9.98861 9.74608 9.61926C9.56932 9.25793 9.3122 8.93676 8.99885 8.68784C8.09895 7.97322 6.70089 7.71628 5.343 8.00534C5.25462 8.0214 5.00554 7.86884 4.91716 7.85278C4.91716 7.85278 4.89305 7.83672 4.94126 7.87687C4.98947 7.91702 4.98144 7.95716 4.98947 7.96519L10.0032 10.8397V10.7916H10.0112Z" fill="#F4A900"/>
<path d="M14.3982 7.64472C15.4669 7.22719 16.3909 6.15124 16.8167 4.83442C16.8489 4.73806 17.0176 4.71397 17.0819 4.64974C17.106 4.63368 17.0256 4.54536 17.0497 4.5293L11.9878 7.44398L12.0521 7.4761C12.4056 7.67684 12.7913 7.80531 13.2011 7.8294C13.6028 7.86151 14.0126 7.79728 14.3902 7.64472H14.3982Z" fill="#78B6E4"/>
<path d="M13.8921 10.9273C13.5466 11.128 13.2494 11.4091 13.0244 11.7463C12.7994 12.0835 12.6628 12.4609 12.6066 12.8624C12.4459 13.9945 12.9199 15.3274 13.852 16.3391C13.9243 16.4114 13.9162 16.5559 13.9323 16.6523C13.9323 16.6764 13.9644 16.6764 13.9886 16.6924L14.0127 10.8711L13.8921 10.9273Z" fill="#20B5AC"/>
<path d="M12.8475 13.0714C12.9198 12.6699 13.0805 12.3006 13.3135 11.9713C13.5466 11.6421 13.8599 11.3772 14.2134 11.1845L14.0045 10.8633L13.892 10.9355C13.5466 11.1363 13.2493 11.4173 13.0243 11.7545C12.7993 12.0918 12.6627 12.4692 12.6065 12.8706C12.4699 13.8583 12.8154 15.0145 13.5385 15.97C13.0002 15.1028 12.7511 14.0911 12.8475 13.0714Z" fill="#3F017F"/>
<path d="M14.4468 7.34637C14.0692 7.48287 13.6594 7.53104 13.2577 7.4909C12.8559 7.45075 12.4702 7.31425 12.1247 7.09745L11.9399 7.43469L12.0524 7.50696C12.3979 7.70769 12.7916 7.82813 13.1934 7.85222C13.5951 7.88434 13.9969 7.8201 14.3665 7.66754C15.4271 7.18578 16.2787 6.34269 16.7689 5.2828C16.7689 5.26674 16.6966 5.17842 16.6242 5.33901C16.1421 6.23028 15.3788 6.93687 14.4468 7.34637Z" fill="#3F017F"/>
<path d="M8.70966 8.86394C9.00695 9.10482 9.24799 9.41797 9.40065 9.77126C9.55332 10.1246 9.61759 10.51 9.59349 10.8954L9.97916 11.0158L10.0997 10.8874C10.1238 10.0844 9.77026 9.06467 9.13551 8.54276C8.3963 7.91646 6.83755 7.7077 5.79302 7.86829C5.75285 7.86829 5.73678 7.93252 6.00996 7.92449C6.99021 7.90843 7.94635 8.23764 8.70966 8.86394Z" fill="#3F017F"/>
<path d="M11.9957 17.3597C11.4574 17.3597 10.9191 17.2874 10.3968 17.1509C10.2843 17.1188 10.1879 17.0545 10.1236 16.9662C10.0513 16.8779 10.0111 16.7655 10.0111 16.6531V10.7916C10.0111 10.3901 9.92276 9.98864 9.75403 9.62731C9.58529 9.26599 9.32818 8.94481 9.01482 8.6959C8.11492 7.98128 6.71686 7.72434 5.35898 8.0134C5.2947 8.02945 5.22239 8.02945 5.15008 8.02142C5.07776 8.0134 5.01348 7.98128 4.95724 7.94916C4.83672 7.87689 4.74833 7.75645 4.7162 7.61995C4.69209 7.51557 4.70013 7.41119 4.7403 7.31483C4.90903 6.83307 5.12597 6.35933 5.37505 5.90968C5.6402 5.44397 5.96159 5.01038 6.34726 4.633C6.42761 4.55271 6.5401 4.50453 6.65259 4.48847C6.76507 4.47241 6.8856 4.4965 6.98201 4.55271L11.9234 7.39513L12.052 7.47542C12.4055 7.67616 12.7912 7.80463 13.201 7.82872C13.6027 7.86084 14.0125 7.7966 14.3821 7.63601C15.4507 7.21848 16.3747 6.14254 16.8006 4.82571C16.8247 4.76147 16.8568 4.69724 16.897 4.64103C16.9452 4.58482 17.0014 4.54468 17.0657 4.51256C17.13 4.48044 17.1943 4.45635 17.2666 4.44832C17.3389 4.44029 17.4112 4.44832 17.4755 4.47241C17.5719 4.50453 17.6603 4.56074 17.7246 4.64103C18.062 5.03447 18.3593 5.452 18.6245 5.90165C18.8976 6.36736 19.1066 6.86519 19.2431 7.3871C19.2672 7.49951 19.2592 7.61995 19.219 7.72434C19.1708 7.82872 19.0985 7.91704 18.9941 7.97325L14.0205 10.8398L13.8839 10.9201C13.5384 11.1208 13.2411 11.4018 13.0242 11.7391C12.8073 12.0763 12.6546 12.4537 12.6064 12.8471C12.4457 13.9793 12.9197 15.3122 13.8518 16.3239C13.9161 16.3961 13.9643 16.4845 13.9803 16.5728C13.9964 16.6691 13.9964 16.7655 13.9643 16.8538C13.9321 16.9421 13.8759 17.0224 13.8036 17.0867C13.7232 17.1509 13.6348 17.191 13.5384 17.2071C13.0242 17.3035 12.51 17.3516 11.9957 17.3597Z" fill="white"/>
</g>
<defs>
<clipPath id="clip0_531_51346">
<rect width="24" height="24" fill="white"/>
</clipPath>
</defs>
</svg>
