<svg width="24" height="24" viewBox="0 0 24 24" fill="none" xmlns="http://www.w3.org/2000/svg">
<g clip-path="url(#clip0_531_51229)">
<path d="M9.75256 5.46112C9.4925 5.42397 9.48012 5.41158 9.60396 5.3992C9.83925 5.36205 10.3841 5.41158 10.768 5.49827C11.6597 5.7088 12.4646 6.25369 13.3191 7.20725L13.542 7.46731L13.864 7.41778C15.2386 7.19487 16.6504 7.36824 17.8269 7.91313C18.1488 8.06174 18.6566 8.35895 18.7185 8.43325C18.7433 8.45802 18.7804 8.61901 18.8052 8.78C18.8919 9.36205 18.8547 9.79548 18.669 10.1298C18.5699 10.3156 18.5699 10.3651 18.6318 10.5261C18.6814 10.65 18.83 10.7367 18.9662 10.7367C19.2634 10.7367 19.573 10.2661 19.7216 9.60973L19.7835 9.34966L19.895 9.4735C20.5266 10.1794 21.0219 11.1577 21.0962 11.8512L21.121 12.037L21.0095 11.876C20.8238 11.5912 20.6504 11.4054 20.4151 11.2444C19.9941 10.9596 19.5482 10.8729 18.3718 10.811C17.3067 10.749 16.6999 10.6624 16.1055 10.4642C15.09 10.1298 14.5699 9.69641 13.3687 8.09889C12.8362 7.39301 12.5018 7.00911 12.1674 6.68712C11.4368 5.98124 10.7061 5.60973 9.75256 5.46112Z" fill="#FF007A"/>
<path d="M18.9782 7.03335C19.003 6.56277 19.0649 6.25317 19.2011 5.96834C19.2507 5.85688 19.3002 5.75781 19.3126 5.75781C19.325 5.75781 19.3002 5.8445 19.263 5.94357C19.164 6.21602 19.1516 6.59992 19.2135 7.03335C19.3002 7.59063 19.3373 7.66493 19.9318 8.27174C20.2042 8.55657 20.5262 8.91571 20.65 9.06431L20.8606 9.33676L20.65 9.13862C20.39 8.89094 19.7955 8.42035 19.6593 8.35843C19.5726 8.3089 19.5603 8.3089 19.4983 8.37082C19.4488 8.42035 19.4364 8.49465 19.4364 8.85379C19.424 9.41106 19.3497 9.75781 19.164 10.1169C19.0649 10.3027 19.0525 10.2656 19.1392 10.055C19.2011 9.89403 19.2135 9.81973 19.2135 9.28722C19.2135 8.20982 19.0897 7.94976 18.3342 7.51633C18.1485 7.40487 17.8265 7.24388 17.6407 7.15719C17.4426 7.07051 17.294 6.9962 17.3064 6.9962C17.3312 6.97143 18.0618 7.18196 18.3466 7.3058C18.7801 7.47917 18.8544 7.49156 18.9039 7.47917C18.9411 7.44202 18.9658 7.34295 18.9782 7.03335Z" fill="#FF007A"/>
<path d="M10.2602 8.87963C9.74009 8.16137 9.40573 7.04681 9.48003 6.21709L9.5048 5.95703L9.62864 5.9818C9.85155 6.01895 10.2355 6.16756 10.4212 6.27901C10.9166 6.57623 11.1395 6.9849 11.35 8.00037C11.4119 8.29759 11.4986 8.64434 11.5358 8.75579C11.5977 8.94155 11.833 9.37499 12.0311 9.64743C12.1673 9.84558 12.0807 9.94465 11.7711 9.91988C11.3005 9.87034 10.6689 9.43691 10.2602 8.87963Z" fill="#FF007A"/>
<path d="M18.3467 14.2659C15.8947 13.2752 15.0278 12.4207 15.0278 10.9718C15.0278 10.7613 15.0402 10.5879 15.0402 10.5879C15.0526 10.5879 15.1393 10.6622 15.2507 10.7489C15.7461 11.1452 16.3034 11.3185 17.8514 11.5415C18.7554 11.6777 19.2755 11.7767 19.7461 11.9377C21.2446 12.4331 22.1733 13.4486 22.3963 14.8232C22.4582 15.2195 22.421 15.9749 22.322 16.3712C22.2353 16.6808 21.9876 17.2504 21.9257 17.2628C21.9133 17.2628 21.8885 17.2009 21.8885 17.1018C21.8637 16.5817 21.6037 16.0863 21.1702 15.7024C20.6501 15.2566 19.9814 14.9223 18.3467 14.2659Z" fill="#FF007A"/>
<path d="M16.6129 14.6746C16.5882 14.4889 16.5262 14.2536 16.4891 14.1545L16.4272 13.9688L16.5386 14.105C16.6996 14.2907 16.8235 14.5136 16.9349 14.8232C17.0216 15.0585 17.0216 15.1328 17.0216 15.5167C17.0216 15.8883 17.0092 15.9749 16.9349 16.1855C16.8111 16.5198 16.6625 16.7551 16.4148 17.0152C15.969 17.4734 15.3869 17.7211 14.5572 17.8325C14.4086 17.8449 13.9875 17.8821 13.616 17.9068C12.6872 17.9564 12.068 18.0554 11.5108 18.2536C11.4365 18.2783 11.3622 18.3031 11.3498 18.2907C11.325 18.266 11.7089 18.0431 12.0185 17.8944C12.4519 17.6839 12.8978 17.5725 13.8761 17.3991C14.3591 17.3248 14.8544 17.2257 14.9783 17.1762C16.2043 16.7923 16.8111 15.8387 16.6129 14.6746Z" fill="#FF007A"/>
<path d="M17.7397 16.6691C17.4177 15.9632 17.3434 15.2945 17.5168 14.6629C17.5416 14.601 17.5663 14.5391 17.5911 14.5391C17.6159 14.5391 17.6902 14.5762 17.7645 14.6257C17.9131 14.7248 18.2227 14.8982 19.0153 15.3316C20.0184 15.8765 20.588 16.2976 20.9843 16.7805C21.331 17.2016 21.5416 17.6846 21.6406 18.279C21.7026 18.6134 21.6654 19.4183 21.5787 19.7527C21.3063 20.8053 20.6871 21.6474 19.7831 22.1304C19.6468 22.2047 19.5354 22.2542 19.523 22.2542C19.5106 22.2542 19.5601 22.1304 19.6345 21.9818C19.9317 21.3502 19.9688 20.7434 19.7459 20.0623C19.6097 19.6412 19.3249 19.1335 18.7552 18.279C18.0741 17.2883 17.9131 17.0282 17.7397 16.6691Z" fill="#FF007A"/>
<path d="M8.51397 20.4582C9.43038 19.6904 10.5573 19.1455 11.5976 18.9722C12.0434 18.8979 12.7864 18.9226 13.1951 19.0341C13.8514 19.2075 14.4459 19.579 14.7555 20.0372C15.0527 20.483 15.1889 20.8669 15.3251 21.7214C15.3746 22.0558 15.4366 22.4025 15.449 22.4768C15.548 22.9226 15.7462 23.2694 15.9938 23.4551C16.3777 23.74 17.0465 23.7523 17.7028 23.5047C17.8143 23.4675 17.9133 23.4304 17.9133 23.4427C17.9381 23.4675 17.6037 23.6904 17.3808 23.8019C17.0712 23.9629 16.8236 24.0124 16.4892 24.0124C15.8948 24.0124 15.387 23.7028 14.9784 23.0836C14.8917 22.9598 14.7183 22.6006 14.5697 22.2663C14.1363 21.2632 13.9133 20.966 13.4056 20.6316C12.9598 20.3468 12.3901 20.2849 11.9567 20.4954C11.387 20.7678 11.2384 21.4985 11.6347 21.9443C11.7957 22.1301 12.0929 22.2787 12.3406 22.3158C12.7988 22.3777 13.1951 22.0186 13.1951 21.5604C13.1951 21.2632 13.0836 21.0898 12.7864 20.9536C12.3901 20.7802 11.9567 20.9784 11.9691 21.3623C11.9691 21.5232 12.0434 21.6223 12.2044 21.6966C12.3034 21.7462 12.3034 21.7462 12.2291 21.7338C11.87 21.6595 11.7833 21.2136 12.0681 20.9288C12.4149 20.5821 13.1455 20.7307 13.3932 21.2136C13.4923 21.4118 13.5047 21.8081 13.418 22.0558C13.2075 22.6006 12.613 22.8855 12.0062 22.7245C11.5976 22.613 11.4242 22.5016 10.9288 21.9938C10.062 21.1022 9.72759 20.9288 8.4892 20.7431L8.25391 20.7059L8.51397 20.4582Z" fill="#FF007A"/>
<path fill-rule="evenodd" clip-rule="evenodd" d="M2.00022 0.532508C4.88567 4.03715 9.33149 9.48607 9.5544 9.78328C9.74016 10.031 9.66585 10.2663 9.35626 10.4396C9.18288 10.5387 8.82375 10.6378 8.65037 10.6378C8.45223 10.6378 8.21694 10.5387 8.05595 10.3777C7.94449 10.2663 7.46152 9.56037 6.37173 7.86378C5.54201 6.56347 4.83613 5.48607 4.82375 5.47368C4.77421 5.44892 4.77421 5.44892 6.28505 8.14861C7.23861 9.8452 7.54821 10.452 7.54821 10.5263C7.54821 10.6873 7.49867 10.774 7.30053 10.9969C6.96616 11.3684 6.81756 11.7895 6.7061 12.6687C6.58226 13.6471 6.2479 14.3406 5.29434 15.517C4.73706 16.2105 4.65037 16.3344 4.51415 16.6192C4.34077 16.9659 4.29124 17.1641 4.26647 17.6099C4.2417 18.0805 4.29124 18.3777 4.42746 18.8235C4.5513 19.2198 4.68752 19.4799 5.02189 19.9876C5.30672 20.4334 5.48009 20.7678 5.48009 20.8916C5.48009 20.9907 5.50486 20.9907 5.95068 20.8916C7.0157 20.644 7.89496 20.2229 8.37793 19.7028C8.67514 19.3808 8.74944 19.2074 8.74944 18.7616C8.74944 18.4768 8.73706 18.4149 8.66276 18.2415C8.53892 17.969 8.30362 17.7461 7.79588 17.3994C7.12715 16.9412 6.84232 16.5697 6.76802 16.0743C6.7061 15.6533 6.7804 15.3684 7.15192 14.5882C7.53582 13.7833 7.63489 13.4489 7.69681 12.6316C7.73396 12.1115 7.79588 11.9009 7.94449 11.7399C8.10548 11.5666 8.2417 11.5046 8.62561 11.4551C9.25718 11.3684 9.66585 11.2074 9.98783 10.8978C10.2727 10.6378 10.3965 10.3777 10.4089 9.99381L10.4213 9.70898L10.2603 9.5356C9.67824 8.86687 1.61632 0 1.57916 0C1.56678 0 1.76492 0.235294 2.00022 0.532508ZM5.80208 18.1424C5.9383 17.9071 5.86399 17.6099 5.64108 17.4613C5.43056 17.3251 5.10858 17.387 5.10858 17.5728C5.10858 17.6223 5.13334 17.6718 5.20765 17.6966C5.3191 17.7585 5.33149 17.8204 5.2448 17.9567C5.15811 18.0929 5.15811 18.2167 5.26957 18.3034C5.44294 18.4396 5.67824 18.3653 5.80208 18.1424Z" fill="#FF007A"/>
<path fill-rule="evenodd" clip-rule="evenodd" d="M10.8175 11.6279C10.5203 11.7146 10.2355 12.0366 10.1488 12.3586C10.0992 12.5567 10.124 12.9159 10.2107 13.0273C10.3469 13.2007 10.4708 13.2502 10.8175 13.2502C11.4986 13.2502 12.0807 12.953 12.1426 12.5939C12.2045 12.2967 11.9444 11.888 11.5853 11.7022C11.3996 11.6032 11.0157 11.566 10.8175 11.6279ZM11.6101 12.2471C11.7092 12.0985 11.672 11.9375 11.4862 11.8261C11.1519 11.6155 10.6441 11.7889 10.6441 12.1109C10.6441 12.2719 10.9042 12.4453 11.1519 12.4453C11.3129 12.4453 11.5358 12.3462 11.6101 12.2471Z" fill="#FF007A"/>
</g>
<defs>
<clipPath id="clip0_531_51229">
<rect width="24" height="24" fill="white"/>
</clipPath>
</defs>
</svg>
