<svg width="24" height="24" viewBox="0 0 24 24" fill="none" xmlns="http://www.w3.org/2000/svg">
<g clip-path="url(#clip0_531_51203)">
<path d="M6.66865 3.12434C7.12544 2.57294 7.54556 2.10637 7.94567 1.7105C1.19046 1.48075 3.15767 6.65895 0.943722 11.9149C-1.59032 17.9732 1.24381 20.2813 5.46498 21.0024C4.8755 20.2578 4.39448 19.4238 4.03792 18.5282C1.31382 14.8769 2.41746 8.22125 6.66865 3.12434Z" fill="#EFE812"/>
<path d="M22.9229 9.57812C22.1251 11.7905 20.971 13.8392 19.5119 15.6329C18.3422 17.1399 16.941 18.4269 15.3674 19.4397C13.5399 20.6673 11.4158 21.307 9.25241 21.2812C7.98932 21.2933 6.7273 21.1999 5.47803 21.002C6.17164 21.8803 7.03155 22.5944 8.00206 23.098C14.1104 26.2297 14.4939 20.4152 20.9557 17.4638C24.5833 15.8061 24.5967 12.5684 22.9195 9.57812" fill="#EDE70A"/>
<path d="M15.3675 3.53425C16.2518 3.69833 17.1038 4.01853 17.8882 4.48152C19.9429 5.70623 21.6742 7.45893 22.9229 9.57843C24.0232 6.29124 23.5097 3.71098 21.1057 3.24441C18.4583 2.73189 16.3911 2.56576 14.4039 1.09537C11.9565 -0.707285 9.80925 -0.120539 7.94873 1.71392L8.35218 1.7316C10.9329 1.89419 13.4002 2.43852 15.3541 3.52718" fill="#EDE70A"/>
<path d="M6.66874 3.12552C2.41756 8.22243 1.31392 14.8781 4.05134 18.5294C3.41809 16.9444 3.14174 15.2249 3.24418 13.507C3.34661 11.7892 3.82503 10.1203 4.64151 8.63245C6.94548 4.56058 11.5701 2.79327 15.3678 3.53554C13.4006 2.43274 10.9333 1.90255 8.36588 1.73996L7.96243 1.71875C7.54898 2.1217 7.12887 2.57413 6.66874 3.12552Z" fill="#DEC21C"/>
<path d="M17.8884 4.47536C17.1036 4.01483 16.2516 3.69703 15.3677 3.53516C17.9551 4.97728 19.6722 7.42323 19.6722 11.2901C19.6572 12.9224 19.2551 14.5245 18.5029 15.9489C17.7507 17.3732 16.6725 18.5741 15.3677 19.4409C16.942 18.4292 18.3434 17.142 19.5122 15.6341C20.9712 13.8404 22.1254 11.7917 22.9231 9.57934C21.6753 7.45725 19.9439 5.70205 17.8884 4.47536Z" fill="#E5CB22"/>
<path d="M15.3675 3.53453C11.5698 2.79226 6.94516 4.55956 4.64119 8.61376C3.82129 10.1035 3.34097 11.7756 3.23851 13.497C3.13605 15.2183 3.41428 16.9412 4.05103 18.5283C4.40633 19.4246 4.88746 20.2588 5.47809 21.0026C6.72736 21.2005 7.98938 21.2938 9.25247 21.2818C11.4159 21.3076 13.54 20.6679 15.3675 19.4403C16.6725 18.5737 17.7509 17.3729 18.5031 15.9485C19.2554 14.524 19.6573 12.9218 19.672 11.2895C19.672 7.4226 17.9549 4.97665 15.3675 3.53453ZM14.9407 17.6023C13.5361 18.5587 11.8315 18.8866 10.1995 18.5143C8.56745 18.1421 7.14087 17.1 6.23163 15.6158C4.34444 12.5301 5.27804 8.5466 8.10882 6.42584C11.2764 4.03998 15.3375 4.98018 16.8179 8.41229C18.2616 11.756 17.8649 15.6194 14.9407 17.6023Z" fill="#CCA727"/>
</g>
<defs>
<clipPath id="clip0_531_51203">
<rect width="24" height="24" fill="white"/>
</clipPath>
</defs>
</svg>
