<svg width="24" height="24" viewBox="0 0 24 24" fill="none" xmlns="http://www.w3.org/2000/svg">
<g clip-path="url(#clip0_531_51226)">
<path d="M12 24C18.6274 24 24 18.6274 24 12C24 5.37258 18.6274 0 12 0C5.37258 0 0 5.37258 0 12C0 18.6274 5.37258 24 12 24Z" fill="url(#paint0_linear_531_51226)"/>
<path d="M7.96788 5.66323L6.67188 6.95923V12.0952L7.96788 13.3912H13.1039V15.9832H10.5599V14.6872H6.67188V17.2792L7.96788 18.5752H15.6959L16.9919 17.2792V12.0952L15.6959 10.7992H10.5599V8.20723H13.1519V9.50323H17.0399V6.91123L15.7439 5.61523H7.96788V5.66323Z" fill="white"/>
</g>
<defs>
<linearGradient id="paint0_linear_531_51226" x1="5.1456" y1="4.2648" x2="20.0976" y2="21.1368" gradientUnits="userSpaceOnUse">
<stop stop-color="#00ADEF"/>
<stop offset="1" stop-color="#0084FF"/>
</linearGradient>
<clipPath id="clip0_531_51226">
<rect width="24" height="24" fill="white"/>
</clipPath>
</defs>
</svg>
