<svg width="24" height="24" viewBox="0 0 24 24" fill="none" xmlns="http://www.w3.org/2000/svg">
<g clip-path="url(#clip0_531_51337)">
<path d="M12 24C18.6 24 24 18.6 24 12C24 5.4 18.6 0 12 0C5.4 0 0 5.4 0 12C0 18.6 5.4 24 12 24Z" fill="url(#paint0_linear_531_51337)"/>
<path d="M12 4.72461V9.44961L12.825 11.6246L12 10.8746V13.1996C13.35 14.9246 15.075 16.3496 17.1 17.3996L12 4.72461Z" fill="url(#paint1_linear_531_51337)"/>
<path d="M11.9999 4.72461V9.44961L11.1749 11.6246L11.9999 10.8746V13.1996C10.6499 14.9246 8.9249 16.3496 6.8999 17.3996L11.9999 4.72461Z" fill="url(#paint2_linear_531_51337)"/>
<path d="M12 16.125C12.675 16.125 13.125 15.6 13.125 15C13.125 14.325 12.6 13.875 12 13.875C11.325 13.875 10.875 14.4 10.875 15C10.875 15.6 11.325 16.125 12 16.125Z" fill="#F5CC02"/>
</g>
<defs>
<linearGradient id="paint0_linear_531_51337" x1="3.51472" y1="20.4853" x2="20.4853" y2="3.51465" gradientUnits="userSpaceOnUse">
<stop stop-color="#102054"/>
<stop offset="1" stop-color="#1A45B8"/>
</linearGradient>
<linearGradient id="paint1_linear_531_51337" x1="14.5441" y1="4.70586" x2="14.5441" y2="17.6012" gradientUnits="userSpaceOnUse">
<stop stop-color="white"/>
<stop offset="1" stop-color="white" stop-opacity="0.6"/>
</linearGradient>
<linearGradient id="paint2_linear_531_51337" x1="9.4559" y1="17.5114" x2="9.4559" y2="4.85608" gradientUnits="userSpaceOnUse">
<stop stop-color="white"/>
<stop offset="1" stop-color="white" stop-opacity="0.6"/>
</linearGradient>
<clipPath id="clip0_531_51337">
<rect width="24" height="24" fill="white"/>
</clipPath>
</defs>
</svg>
