<svg width="24" height="24" viewBox="0 0 24 24" fill="none" xmlns="http://www.w3.org/2000/svg">
<g clip-path="url(#clip0_531_51536)">
<path d="M24 12C24 5.36638 18.6207 0 12 0C5.36638 0 0 5.36638 0 12C0 18.6207 5.36638 24 12 24C18.6207 24 24 18.6207 24 12Z" fill="url(#paint0_radial_531_51536)"/>
<path d="M20.1597 8.25061C20.108 8.54802 20.0562 8.69026 19.9786 8.84543C19.9011 9.02647 19.8235 9.22043 19.7459 9.63423C19.72 9.7894 19.6942 9.91871 19.6812 10.0222V10.0351C19.6554 10.2032 19.6424 10.3196 19.5778 10.5135C19.5261 10.6816 19.4355 10.9532 19.2157 11.2377C19.0347 11.4704 18.7373 11.8713 18.3364 11.923C18.2976 11.923 18.233 11.923 18.1942 11.9101C17.0562 11.3282 16.0864 10.9015 15.7502 10.811C15.3623 10.6946 15.414 9.84112 15.4528 9.09112C15.4787 8.75492 15.4916 8.43164 15.4786 8.16009C15.4269 7.20319 15.2588 6.16871 14.4312 5.6644C13.9399 5.36699 13.2933 5.27647 12.6855 5.27647C12.8019 5.22474 12.9183 5.14716 13.0605 5.06957C13.4226 4.86268 13.8623 4.60405 14.3149 4.55233C14.4571 4.5394 14.5993 4.52647 14.7416 4.50061C15.6338 4.39716 16.4097 4.30664 17.2243 4.59112C17.5993 4.72043 18.3493 5.13423 18.5433 5.53509C18.6855 5.80664 18.9183 6.02647 19.3709 6.45319C19.6166 6.67302 19.7718 6.80233 19.8881 6.90578C20.0562 7.03509 20.0821 7.07388 20.1338 7.1644C20.289 7.47474 20.2373 7.79802 20.1597 8.25061Z" fill="white"/>
<path d="M16.0345 12.1692C16.0863 12.1821 16.1121 12.2468 16.0733 12.2985C15.957 12.4795 15.8147 12.7381 15.6466 13.0355C15.569 13.1778 15.4914 13.32 15.4268 13.4235C15.207 13.7985 15.194 14.1218 15.1811 14.3674C15.1682 14.639 15.1552 14.7554 14.9871 14.8588C14.8578 14.9493 14.7156 14.9752 13.7845 15.1174C13.6164 15.1433 13.5518 15.1692 13.4871 15.208C13.4742 15.2209 13.4483 15.2209 13.4354 15.2338C13.3837 15.2597 13.332 15.208 13.332 15.1562C13.3449 15.0269 13.3449 14.8588 13.3449 14.639V14.6002C13.3449 14.4192 13.3449 14.264 13.332 14.1476C13.319 13.9149 13.319 13.8114 13.3837 13.708C13.4613 13.5787 13.5259 13.5399 13.6164 13.4752C13.7587 13.3847 13.9526 13.2683 14.2242 12.8804C14.3794 12.6735 14.4052 12.5571 14.4311 12.4666C14.444 12.4278 14.444 12.4149 14.5604 12.3243C14.6768 12.2338 15.0518 11.9493 15.5302 12.0269C15.6854 12.0528 15.8535 12.1045 16.0345 12.1692Z" fill="white"/>
<path d="M12.3236 16.4617C12.2978 16.4876 12.2848 16.5005 12.246 16.5005C12.1426 16.5005 12.0779 16.4747 12.0391 16.423C11.9486 16.3066 11.9615 16.0738 11.9745 15.9316L12.3753 15.8281C12.4012 16.048 12.4141 16.3454 12.3236 16.4617Z" fill="white"/>
<path d="M12.3491 15.0394C12.3362 15.0911 12.3362 15.1557 12.3362 15.2333C12.3362 15.2592 12.3362 15.285 12.3362 15.3109C12.3362 15.3756 12.3362 15.479 12.3362 15.5307C12.2069 15.5695 12.1034 15.5695 11.9741 15.5695C11.9741 15.5307 11.9741 15.4661 11.9741 15.4273C11.9741 15.4014 11.9741 15.3626 11.9741 15.3368C11.9741 15.298 11.9741 15.2721 11.9741 15.2333C11.9741 15.1557 11.9741 15.0394 11.9871 15.0006C12.0258 15.0006 12.0646 14.9876 12.1034 14.9747C12.181 14.9618 12.2974 14.9359 12.3621 14.9488C12.3621 14.9747 12.3621 15.0135 12.3491 15.0394Z" fill="white"/>
<path d="M11.6249 16.3457C11.612 16.5526 11.5473 16.7983 11.3534 16.8371C11.2629 16.85 11.2241 16.8242 11.1982 16.7983C11.0689 16.6819 11.056 16.3198 11.0689 16.0612C11.1594 16.0612 11.2629 16.0483 11.3922 16.0224C11.4698 16.0095 11.5473 15.9836 11.612 15.9707C11.6249 16.0742 11.6379 16.2035 11.6249 16.3457Z" fill="white"/>
<path d="M11.5346 15.621L11.1079 15.7761C11.1338 15.608 11.1596 15.3753 11.1726 15.2201C11.1855 15.1166 11.2114 15.0779 11.2243 15.0649C11.2243 15.0649 11.2372 15.052 11.2502 15.052C11.2502 15.052 11.2502 15.052 11.2631 15.052H11.276L11.5476 15.0391C11.5346 15.1684 11.5346 15.4529 11.5346 15.621Z" fill="white"/>
<path d="M10.8365 15.4926C10.8107 15.5573 10.7848 15.7383 10.7719 15.8676L10.2417 15.8547C10.2676 15.6866 10.3193 15.5185 10.3581 15.3892C10.4098 15.2599 10.4486 15.1564 10.5003 15.1306C10.552 15.1047 10.6684 15.0918 10.746 15.1564C10.8624 15.234 10.8883 15.3504 10.8365 15.4926Z" fill="white"/>
<path d="M10.6426 17.1346C10.6038 17.1864 10.5521 17.2251 10.5004 17.2251C10.4357 17.2381 10.3969 17.2122 10.3581 17.1864C10.19 17.0312 10.203 16.5269 10.2159 16.2812C10.4357 16.2295 10.6814 16.1907 10.7978 16.1777C10.7978 16.3717 10.8107 16.9019 10.6426 17.1346Z" fill="white"/>
<path d="M9.944 15.8287C9.91814 15.8933 9.89227 15.958 9.87934 16.0226C9.81469 16.0485 9.62072 16.0226 9.42676 15.9838L9.55607 15.1433C9.7759 15.0787 10.0345 15.0657 10.0862 15.1304C10.1768 15.2209 10.0087 15.6476 9.944 15.8287Z" fill="white"/>
<path d="M9.69838 17.2499C9.59493 17.3792 9.43976 17.4439 9.21993 17.431C9.06476 17.431 9.01303 17.3663 8.98717 17.3275C8.87079 17.1336 8.98717 16.681 9.10355 16.3965L9.82769 16.4353C9.84062 16.487 9.84062 16.5517 9.84062 16.6163C9.85355 16.8361 9.82769 17.0948 9.69838 17.2499Z" fill="white"/>
<path d="M15.6987 11.1338C15.0392 10.9528 15.1038 9.99589 15.1555 9.06486C15.1685 8.74158 15.1943 8.43124 15.1814 8.17262C15.1297 7.30624 14.9874 6.36227 14.2892 5.93555C13.5392 5.48296 12.3107 5.58641 11.5607 5.67693C11.2892 5.75451 11.0305 5.81917 10.8236 5.80624C10.384 5.78037 10.0349 5.59934 9.72451 5.43124C9.49175 5.30193 9.28485 5.18555 9.07796 5.18555C9.06503 5.18555 9.0521 5.18555 9.0521 5.18555C8.4702 5.22434 8.19865 5.36658 7.95296 5.58641C7.8883 5.63813 7.81072 5.79331 7.56503 6.50451C7.43572 6.86658 7.42279 7.06055 7.39692 7.24158C7.37106 7.40969 7.35813 7.59072 7.26761 7.86227C7.20296 8.04331 7.15123 8.19848 7.11244 8.35365C6.99606 8.75451 6.89261 9.07779 6.60813 9.46572C6.56934 9.50451 6.53054 9.5821 6.47882 9.64675C6.41416 9.7502 6.33658 9.87951 6.2202 10.0218C6.14261 10.1252 5.97451 10.5131 5.98744 10.6295C6.00037 10.8235 6.06503 10.9399 6.12968 11.0692C6.19434 11.1985 6.28485 11.3537 6.29778 11.5735V11.6123C6.32365 11.9485 6.27192 12.1166 5.6383 12.6855C5.23744 13.0476 4.94003 13.3968 4.74606 13.6554C4.73313 13.6812 4.74606 13.7071 4.78485 13.7071C4.79778 13.7071 4.79778 13.7071 4.79778 13.7071C4.81071 13.7071 4.82365 13.7071 4.83658 13.7071C4.84951 13.7071 4.86244 13.7071 4.87537 13.7071C4.8883 13.7071 4.90123 13.7071 4.91416 13.7071C5.06934 13.72 5.22451 13.7847 5.32796 13.9011C5.34089 13.9269 5.37968 13.9269 5.40554 13.914C5.50899 13.8752 5.62537 13.8752 5.72882 13.8881C5.85813 13.9011 6.00037 13.9399 6.09089 14.0304C6.11675 14.0562 6.15554 14.0692 6.19434 14.0562C6.29778 14.0304 6.41416 14.0304 6.51761 14.0692C6.5952 14.095 6.67278 14.1468 6.72451 14.2114C6.7633 14.2502 6.82796 14.2631 6.87968 14.2373C6.90554 14.2243 6.94434 14.1985 6.98313 14.1855C7.12537 14.1338 7.28054 14.1597 7.40985 14.2114C7.47451 14.2373 7.53916 14.2502 7.60382 14.3019C7.70727 14.3795 7.78485 14.483 7.82365 14.5993C7.84951 14.664 7.94003 14.6899 7.99175 14.6381C8.0952 14.5605 8.17279 14.5476 8.25037 14.5735C8.28916 14.5864 8.31503 14.6123 8.34089 14.6511C8.37968 14.7028 8.44434 14.7545 8.49606 14.7287C8.71589 14.664 8.97451 14.7028 9.16848 14.8062C9.23313 14.845 9.31072 14.8968 9.34951 14.9743V14.9355C9.34951 14.9226 9.36244 14.9097 9.37537 14.8968L9.41417 14.8838C9.51761 14.845 10.0607 14.6899 10.2676 14.9097C10.2805 14.9226 10.2935 14.9226 10.3064 14.9097C10.3323 14.8838 10.3581 14.858 10.3711 14.858C10.5133 14.7804 10.7461 14.7674 10.9012 14.9097C10.9271 14.9355 10.9788 14.9226 11.0047 14.8968C11.0176 14.8709 11.0305 14.858 11.0564 14.845C11.1081 14.7933 11.1857 14.7804 11.2633 14.7804L11.5607 14.7674C11.6383 14.7674 11.8711 14.7416 11.9357 14.7287H11.9486C11.9745 14.7287 12.0133 14.7157 12.0521 14.7028C12.1943 14.6769 12.3624 14.6381 12.4918 14.7028C12.6211 14.7674 12.6081 14.9097 12.5952 15.039C12.5952 15.0907 12.5823 15.1424 12.5823 15.1942C12.5823 15.22 12.5823 15.2459 12.5823 15.2718C12.5823 15.3881 12.5823 15.4916 12.5693 15.5692L12.5823 15.6338C12.5823 15.6338 12.5823 15.6338 12.5823 15.6468C12.5952 15.6985 12.6599 15.7373 12.6986 15.6985C12.8021 15.6338 12.9055 15.5562 12.9443 15.5045V15.4916C12.9443 15.4787 12.9573 15.4528 12.9702 15.4011C12.9831 15.2847 13.009 15.0649 13.009 14.6123C13.009 14.5864 13.009 14.5735 13.009 14.5605C13.009 14.3924 13.009 14.2502 12.9961 14.1338C12.9831 13.8881 12.9702 13.6942 13.0995 13.5002C13.2159 13.3062 13.3323 13.2416 13.4486 13.164C13.578 13.0864 13.7202 12.9959 13.9659 12.6597C14.0823 12.4916 14.0952 12.4269 14.1081 12.3752C14.134 12.2459 14.1728 12.1683 14.3668 12.039C14.5219 11.9226 14.9745 11.5735 15.5952 11.6769C15.8021 11.7157 16.1254 11.8192 16.4616 11.9485C16.4745 11.9485 16.4874 11.9614 16.5004 11.9614H16.5133C16.8107 12.0778 17.0823 12.2071 17.2762 12.3105C17.315 12.3364 17.3668 12.3235 17.4055 12.2847C17.4702 12.2071 17.5349 12.1683 17.5995 12.1166C17.6254 12.1037 17.6512 12.0907 17.6642 12.0778C17.6771 12.0778 17.6771 12.0649 17.6771 12.0649C17.7288 12.0261 17.7288 11.9226 17.6642 11.8968C16.7978 11.47 15.9702 11.2114 15.6987 11.1338ZM9.46589 11.3278C9.25899 12.2071 7.8883 13.1899 7.26761 13.1899H7.25468C7.24175 13.1899 7.22882 13.1899 7.22882 13.1899C7.21589 13.1899 7.20296 13.1899 7.19003 13.1769C7.1771 13.1769 7.1771 13.1769 7.16416 13.1769C7.04779 13.1381 6.89261 13.0605 6.77623 12.9442C6.69865 12.8666 6.63399 12.7631 6.60813 12.6726C6.60813 12.6597 6.5952 12.6338 6.5952 12.6209C6.55641 12.4657 6.51761 12.2847 6.64692 11.9743C6.65985 11.9355 6.68572 11.8968 6.69865 11.858C6.69865 11.845 6.71158 11.8321 6.71158 11.8192C6.72451 11.7804 6.73744 11.7545 6.75037 11.7287C6.7633 11.6769 6.78916 11.6381 6.80209 11.6123C6.80209 11.5993 6.81503 11.5864 6.81503 11.5735C6.85382 11.47 6.85382 11.4312 6.86675 11.3924C6.86675 11.3666 6.87968 11.3149 6.89261 11.2631C6.93141 11.095 6.95727 10.9528 6.9702 10.8364C6.99606 10.6166 7.03485 10.4226 7.15123 10.2416C7.1771 10.2157 7.19003 10.1899 7.21589 10.164C7.22882 10.1511 7.22882 10.1511 7.24175 10.1381C7.25468 10.1252 7.25468 10.1252 7.26761 10.1123C7.29347 10.0864 7.33227 10.0735 7.35813 10.0605C7.37106 10.0605 7.38399 10.0476 7.39692 10.0476C7.42279 10.0347 7.44865 10.0347 7.47451 10.0218C7.59089 9.99589 7.7202 9.99589 7.87537 10.0088C8.04348 10.0218 8.19865 10.0476 8.32796 10.0864C8.44434 10.1123 8.54778 10.1511 8.62537 10.1899C8.6383 10.1899 8.6383 10.2028 8.65123 10.2028C8.66416 10.2157 8.6771 10.2157 8.70296 10.2287C8.72882 10.2416 8.74175 10.2416 8.76761 10.2545C8.79348 10.2674 8.81934 10.2804 8.8452 10.2933L8.87106 10.3062C8.96158 10.345 9.0521 10.3968 9.11675 10.4485C9.15554 10.4743 9.18141 10.5002 9.20727 10.5261C9.2202 10.539 9.23313 10.539 9.23313 10.5519C9.24606 10.5649 9.24606 10.5649 9.25899 10.5778C9.53054 10.8105 9.51761 11.1338 9.46589 11.3278ZM10.1124 7.97865L10.0866 8.13382C10.0219 8.49589 9.87968 8.98727 9.36244 9.11658C8.85813 9.23296 8.74175 9.25882 8.39261 9.28469C8.37968 9.28469 8.37968 9.28469 8.36675 9.28469C8.10813 9.28469 7.60382 9.11658 7.5133 8.71572C7.46158 8.4571 7.57796 8.26313 7.75899 7.95279C7.78485 7.90106 7.82365 7.84934 7.86244 7.78469C8.12106 7.35796 8.21158 7.04762 8.28916 6.80193C8.36675 6.55624 8.43141 6.36227 8.59951 6.19417C8.6383 6.15537 8.6771 6.11658 8.72882 6.09072C8.75468 6.06486 8.79348 6.05193 8.83227 6.02606C8.88399 6.0002 8.93572 5.98727 8.98744 5.96141C9.10382 5.92262 9.23313 5.90969 9.34951 5.90969C9.5952 5.90969 9.84089 5.97434 10.009 6.11658C10.0866 6.18124 10.203 6.29762 10.2676 6.67262C10.2935 6.86658 10.2418 7.21572 10.1124 7.97865ZM13.8236 9.01313C13.6426 9.32348 13.5521 9.49158 13.3969 9.62089C13.0866 9.87951 12.7374 9.93124 12.44 9.93124C12.2331 9.93124 12.0521 9.89244 11.9357 9.87951C11.6254 9.82779 11.0693 9.72434 10.8754 9.27175C10.8366 9.18124 10.8366 9.12951 10.8366 9.05193C10.8366 8.98727 10.8366 8.85796 10.7978 8.58641V8.57348C10.7849 8.44417 10.7719 8.30193 10.7978 8.12089V8.09503C10.9012 7.55193 10.94 7.47434 10.953 7.42262C11.0047 7.31917 11.134 7.26744 11.2504 7.3321C11.3538 7.38382 11.3926 7.51313 11.3538 7.61658C11.3409 7.64244 11.315 7.75882 11.2245 8.18555V8.21141C11.1986 8.32779 11.2116 8.41831 11.2245 8.53469V8.54762C11.2633 8.85796 11.2633 8.98727 11.2633 9.06486C11.2633 9.07779 11.2633 9.09072 11.2633 9.10365V9.11658C11.3021 9.2071 11.3797 9.25882 11.4702 9.31055C11.5349 9.33641 11.5995 9.28469 11.5866 9.22003C11.4961 8.74158 11.4961 8.18555 11.6771 7.83641C11.7418 7.72003 11.8452 7.539 11.9486 7.35796C11.9616 7.34503 11.9745 7.31917 11.9745 7.30624C11.9874 7.29331 11.9874 7.28037 12.0004 7.26744C12.0521 7.18986 12.0909 7.1252 12.1297 7.06055C12.1297 7.04762 12.1426 7.04762 12.1426 7.03469L12.1555 7.02175C12.1685 7.00882 12.1685 6.99589 12.1814 6.98296C12.1814 6.98296 12.1814 6.97003 12.1943 6.97003L12.2073 6.9571C12.2073 6.94417 12.2202 6.94417 12.2202 6.93124C12.259 6.87951 12.2978 6.82779 12.3236 6.77606C12.3754 6.71141 12.3107 6.63382 12.2461 6.65969C12.065 6.73727 11.9486 6.82779 11.9228 6.84072C11.8323 6.91831 11.69 6.90537 11.6124 6.80193C11.5349 6.71141 11.5478 6.56917 11.6512 6.49158C11.7676 6.40106 12.3624 5.97434 13.0736 6.16831C13.5909 6.31055 13.8495 6.71141 13.953 6.85365C14.0305 6.97003 14.2892 7.3321 14.2762 7.84934C14.2762 8.22434 14.1211 8.50882 13.8236 9.01313Z" fill="white"/>
<path d="M9.19418 6.36328C9.15539 6.4538 9.1166 6.55725 9.06487 6.67363C8.96143 6.94518 8.83212 7.25552 8.76746 7.3719C8.66401 7.56587 8.58643 7.69518 8.52177 7.7857C8.44418 7.90207 8.39246 7.99259 8.34074 8.1219C8.26315 8.34173 8.25022 8.58742 8.30194 8.85897C8.1597 8.84604 7.93987 8.75552 7.91401 8.62621C7.90108 8.53569 7.9528 8.44518 8.10798 8.17363C8.13384 8.1219 8.17263 8.05725 8.21143 8.00552C8.48298 7.54001 8.59936 7.19087 8.67694 6.93225C8.76746 6.66069 8.80625 6.54432 8.94849 6.44087C9.03901 6.40207 9.1166 6.37621 9.19418 6.36328Z" fill="white"/>
<path d="M8.92279 16.1384C8.76762 16.4487 8.58658 16.7332 8.4702 16.8755C8.36676 16.6169 8.19865 16.0091 8.25038 15.5306C8.25038 15.5177 8.25038 15.5048 8.25038 15.4919C8.26331 15.3367 8.3021 15.2074 8.37969 15.091C8.43141 15.0134 8.56072 14.9746 8.70296 14.9746C8.80641 14.9746 8.92279 15.0005 9.02624 15.0522C9.07796 15.0781 9.15555 15.1427 9.15555 15.3108C9.18141 15.5436 9.06503 15.8539 8.92279 16.1384Z" fill="white"/>
<path d="M17.1985 12.6859C17.2114 12.6988 17.2114 12.7117 17.2114 12.7247C17.1727 12.8152 17.108 12.8798 17.0433 12.9574C16.9658 13.0479 16.8752 13.1514 16.7976 13.3195C16.6813 13.5522 16.6425 13.7591 16.6295 14.3022C16.6037 14.9359 16.6295 15.285 16.6554 15.5436C16.6683 15.7893 16.6813 15.9445 16.6425 16.1902C16.552 16.6816 16.3451 17.0048 16.0735 17.4186C15.7373 17.9359 15.4011 18.466 14.8321 18.6341C14.7804 18.6471 14.7804 18.6471 14.6252 18.6471C14.4959 18.6471 14.2761 18.6471 13.8752 18.66C13.1252 18.6859 12.7502 18.6988 12.4399 18.7635C12.1037 18.8281 11.9356 18.9057 11.7545 18.9704C11.5994 19.035 11.4571 19.0867 11.1856 19.1514C11.0175 19.1902 10.7718 19.216 9.93127 19.229C9.05196 19.229 8.52179 19.229 7.83644 19.1514C6.87955 19.0479 6.4011 18.9833 6.07782 18.8152C5.32782 18.4143 5.00455 17.6902 4.4873 16.5005C4.4873 16.4876 4.50024 16.4747 4.51317 16.4747C4.53903 16.4876 4.56489 16.5005 4.59075 16.5135C4.61661 16.5264 4.64248 16.5264 4.65541 16.5264C4.70713 16.5393 4.75886 16.5393 4.81058 16.5264C4.82351 16.5264 4.82351 16.5264 4.83644 16.5135C4.84937 16.5135 4.8623 16.5135 4.8623 16.5264C4.9011 16.6169 4.95282 16.6945 5.04334 16.7462C5.13386 16.7979 5.2373 16.7979 5.32782 16.7979C5.43127 16.7979 5.53472 16.785 5.63817 16.7721C5.68989 16.7721 5.74161 16.7979 5.76748 16.8367C5.85799 17.0695 5.97437 17.2247 6.15541 17.2505C6.16834 17.2505 6.18127 17.2505 6.1942 17.2505C6.23299 17.2505 6.29765 17.2376 6.37524 17.1859C6.43989 17.1341 6.54334 17.1729 6.59506 17.2376C6.63386 17.3022 6.68558 17.341 6.7373 17.3798C6.91834 17.5609 7.35799 17.6514 7.72006 17.6514C7.91403 17.6514 8.09506 17.6255 8.19851 17.5738C8.35368 17.4962 8.35368 17.3928 8.34075 17.341C8.32782 17.2635 8.31489 17.1729 8.30196 17.0954C8.30196 17.0824 8.31489 17.0824 8.31489 17.0954C8.34075 17.1471 8.36661 17.1988 8.43127 17.2117C8.4442 17.2117 8.4442 17.2117 8.45713 17.2117C8.56058 17.2117 8.71575 17.2505 8.74161 17.341C8.75455 17.3928 8.78041 17.4316 8.80627 17.4833C8.87092 17.5738 8.9873 17.6902 9.23299 17.7031H9.24593C9.53041 17.7031 9.75024 17.6126 9.89248 17.4316C9.90541 17.4186 9.90541 17.4057 9.91834 17.3928C9.97006 17.3152 10.1252 17.3152 10.1899 17.3798C10.2675 17.4445 10.358 17.4833 10.4614 17.4833C10.4744 17.4833 10.5002 17.4833 10.5132 17.4833C10.6425 17.4704 10.7459 17.4057 10.8364 17.2893C10.8882 17.2117 10.927 17.1212 10.9528 17.0178C10.9658 16.9919 11.0045 16.979 11.0304 17.0048C11.0821 17.0566 11.1726 17.1083 11.302 17.1083C11.3278 17.1083 11.3666 17.1083 11.4054 17.0954C11.6511 17.0436 11.7804 16.8367 11.8321 16.6169C11.8321 16.604 11.8451 16.604 11.8451 16.6169C11.9097 16.6945 12.0261 16.785 12.2201 16.785C12.233 16.785 12.2459 16.785 12.2459 16.785C12.3494 16.785 12.4399 16.7333 12.5045 16.6557C12.5821 16.5522 12.608 16.3971 12.6209 16.2548C12.6209 16.216 12.6468 16.1772 12.6985 16.1514C12.9054 16.0609 13.164 15.8669 13.2416 15.7376C13.2416 15.7376 13.2416 15.7247 13.2545 15.7247C13.2675 15.6859 13.3063 15.66 13.3321 15.66C13.5002 15.6341 13.5649 15.5954 13.6295 15.5695C13.6813 15.5436 13.7201 15.5307 13.8494 15.5048C14.7933 15.3626 14.9744 15.3238 15.1813 15.1945C15.4916 14.9876 15.5045 14.7031 15.5175 14.4316C15.5304 14.1988 15.5433 13.9402 15.7244 13.6298C15.789 13.5135 15.8666 13.3841 15.9442 13.229C16.0864 12.9704 16.2804 12.6083 16.4226 12.4143C16.4485 12.3755 16.5002 12.3626 16.539 12.3885C16.8623 12.5048 17.1468 12.6341 17.1985 12.6859Z" fill="white"/>
<path d="M8.01722 15.5044C7.97843 15.8277 7.95257 16.2674 8.00429 16.8363C8.01722 16.9915 8.04309 17.1596 8.06895 17.3277C8.03016 17.3536 7.88791 17.3924 7.65516 17.3794C7.31895 17.3665 6.98274 17.2889 6.87929 17.1725L6.86636 17.1596C6.78878 17.095 6.72412 17.0432 6.72412 16.9269C6.72412 16.8881 6.73705 16.8493 6.77585 16.7846C6.80171 16.7588 6.82757 16.72 6.85343 16.6682C6.90516 16.5907 6.98274 16.5001 7.06033 16.3708C7.28016 16.0088 7.35774 15.8924 7.46119 15.7501C7.47412 15.7372 7.47412 15.7243 7.48705 15.7113C7.55171 15.6338 7.61636 15.5303 7.73274 15.3622C7.81033 15.2458 7.87498 15.1424 7.93964 15.0648C8.03016 14.9355 8.09481 14.8708 8.1336 14.832C8.1336 14.8838 8.12067 14.9613 8.10774 15.0389C8.05602 15.1941 8.03016 15.3363 8.01722 15.5044Z" fill="white"/>
<path d="M7.8495 10.4106C7.8495 10.4236 7.8495 10.4236 7.8495 10.4106C7.79777 10.4753 7.74605 10.5529 7.6814 10.6822C7.51329 11.0442 7.51329 11.2511 7.51329 11.4192C7.51329 11.5098 7.51329 11.5744 7.48743 11.652C7.4745 11.7037 7.44864 11.7684 7.40984 11.833C7.31933 12.0529 7.19002 12.3374 7.24174 12.7253C7.16415 12.6865 7.04777 12.596 7.02191 12.5572C7.02191 12.5313 7.00898 12.5184 7.00898 12.4925C6.98312 12.3761 6.97019 12.2986 7.03484 12.1175C7.24174 11.652 7.2676 11.5356 7.28053 11.4063C7.28053 11.3805 7.29346 11.3546 7.29346 11.3158C7.33226 11.1348 7.35812 10.9796 7.37105 10.8503C7.39691 10.6563 7.42278 10.527 7.48743 10.4365C7.51329 10.3977 7.57795 10.3848 7.66846 10.3848C7.70726 10.3848 7.74605 10.3848 7.79777 10.3977H7.81071C7.8495 10.4106 7.8495 10.4106 7.8495 10.4106Z" fill="white"/>
<path d="M7.59079 15.0263C7.57786 14.9099 7.56492 14.8064 7.5132 14.6901C7.5132 14.6901 7.50027 14.6642 7.50027 14.6513C7.48734 14.6383 7.48734 14.6254 7.47441 14.6125L7.46148 14.5995C7.44855 14.5866 7.44855 14.5866 7.43561 14.5866L7.42268 14.5737C7.40975 14.5737 7.40975 14.5607 7.39682 14.5607H7.38389C7.31924 14.5349 7.25458 14.509 7.17699 14.4961C7.16406 14.4961 7.15113 14.4961 7.15113 14.4961C7.1382 14.4961 7.1382 14.4961 7.12527 14.4961H7.11234C7.09941 14.4961 7.08648 14.509 7.06061 14.509C7.04768 14.509 7.04768 14.522 7.03475 14.522L7.02182 14.5349C7.00889 14.5478 7.00889 14.5478 6.99596 14.5607L6.98303 14.5737V14.5866C6.95717 14.6254 6.9313 14.6642 6.90544 14.703C6.84079 14.7935 6.77613 14.897 6.71148 14.9875C6.64682 15.078 6.5951 15.1556 6.53044 15.2461C6.49165 15.2978 6.46579 15.3366 6.42699 15.3883C6.42699 15.4013 6.41406 15.4013 6.41406 15.4142C6.45286 15.4271 6.49165 15.4271 6.53044 15.4401C6.62096 15.453 6.71148 15.4659 6.78906 15.4789C6.9701 15.5047 7.16406 15.5176 7.3451 15.5047C7.35803 15.5047 7.35803 15.5047 7.37096 15.5047C7.40975 15.4401 7.47441 15.3625 7.53906 15.259C7.57786 15.2073 7.61665 15.1556 7.64251 15.1039C7.60372 15.0909 7.59079 15.0521 7.59079 15.0263Z" fill="white"/>
<path d="M6.93139 15.7892C6.91846 15.9314 6.76328 16.2935 6.5176 16.6426C6.3107 16.9271 6.18139 17.0047 6.15553 17.0047C6.05208 16.9918 5.96156 16.7461 5.88397 16.5004C5.85811 16.397 5.81932 16.3064 5.80639 16.2159C5.75466 16.0349 5.74173 15.7763 5.75466 15.6211C5.96156 15.7375 6.32363 15.7633 6.84087 15.7633C6.86673 15.7763 6.90553 15.7763 6.93139 15.7892Z" fill="white"/>
<path d="M6.56918 14.6251C6.47867 14.7673 6.38815 14.8966 6.29763 15.0259C6.24591 15.0906 6.20712 15.1552 6.15539 15.2199C6.12953 15.2587 6.09074 15.2975 6.06487 15.3363C5.98729 15.3233 5.92263 15.2975 5.84505 15.2845C5.78039 15.2716 5.72867 15.2458 5.66401 15.2199C5.65108 15.2199 5.63815 15.207 5.62522 15.207C5.61229 15.194 5.59936 15.1682 5.58643 15.1552C5.61229 15.1164 5.62522 15.0647 5.65108 15.0259C5.68987 14.9483 5.72867 14.8708 5.78039 14.7932C5.85798 14.6639 5.94849 14.5216 6.09074 14.4311C6.10367 14.4311 6.10367 14.4182 6.1166 14.4182C6.16832 14.3923 6.22005 14.3664 6.2847 14.3535C6.29763 14.3535 6.33643 14.3535 6.36229 14.3535H6.37522C6.37522 14.3535 6.37522 14.3535 6.38815 14.3535C6.40108 14.3535 6.41401 14.3664 6.43987 14.3664C6.43987 14.3664 6.45281 14.3664 6.45281 14.3794C6.46574 14.3923 6.47867 14.3923 6.4916 14.4052C6.46574 14.3923 6.51746 14.444 6.51746 14.4311C6.54332 14.5087 6.55625 14.5475 6.56918 14.6251Z" fill="white"/>
<path d="M5.87099 14.2504C5.70289 14.3797 5.58651 14.5608 5.49599 14.7547C5.44427 14.8582 5.39254 14.9616 5.34082 15.0651C5.34082 15.078 5.32789 15.0909 5.32789 15.0909C5.27617 15.078 5.22444 15.0651 5.18565 15.0521C5.13392 15.0392 5.0822 15.0133 5.03048 15.0004C5.00461 14.9875 4.99168 14.9745 4.96582 14.9616C5.01754 14.8711 5.06927 14.7806 5.13392 14.6901C5.21151 14.5737 5.30203 14.4444 5.39254 14.3409C5.43134 14.3021 5.47013 14.2504 5.50892 14.2245C5.56065 14.1987 5.61237 14.1987 5.67703 14.2116C5.74168 14.2116 5.80634 14.2116 5.85806 14.2375C5.84513 14.2375 5.85806 14.2504 5.87099 14.2504Z" fill="white"/>
<path d="M5.61232 16.4493C5.59939 16.4622 5.59939 16.4622 5.58646 16.4751H5.57353C5.53473 16.4751 5.49594 16.4881 5.45715 16.4881C5.37956 16.4881 5.30198 16.501 5.22439 16.4881C5.1856 16.4881 5.1468 16.4751 5.12094 16.4493C5.09508 16.4105 5.08215 16.3329 5.06922 16.2812C5.01749 15.9967 5.01749 15.7122 5.04335 15.4277C5.1856 15.4795 5.34077 15.5183 5.49594 15.5441C5.45715 15.8027 5.5218 16.1777 5.54767 16.2812C5.58646 16.3329 5.59939 16.3976 5.61232 16.4493Z" fill="white"/>
<path d="M5.1467 14.1604C5.01739 14.3156 4.90101 14.4837 4.79756 14.6648C4.75877 14.7294 4.70705 14.807 4.66825 14.8846C4.61653 14.8717 4.56481 14.8458 4.52601 14.8199C4.48722 14.7941 4.44843 14.7682 4.42257 14.7423C4.40963 14.7294 4.38377 14.7165 4.37084 14.7036C4.37084 14.7036 4.35791 14.7036 4.35791 14.6906C4.37084 14.6518 4.3967 14.626 4.3967 14.6001C4.42257 14.5354 4.44843 14.4837 4.48722 14.432C4.55188 14.3286 4.61653 14.2251 4.69412 14.1217C4.71998 14.0829 4.74584 14.0441 4.79756 14.0311C4.83636 14.0182 4.88808 14.0311 4.92688 14.0311C5.00446 14.0441 5.08205 14.0958 5.1467 14.1604Z" fill="white"/>
<path d="M4.15102 14.8456C4.16396 14.8327 4.15102 14.8327 4.15102 14.8456C4.20275 14.8974 4.24154 14.9362 4.29327 14.9749C4.31913 14.9879 4.33206 15.0137 4.35792 15.0267C4.35792 15.0267 4.35792 15.0267 4.35792 15.0396C4.3062 15.2594 4.2674 15.4922 4.2674 15.7249C4.2674 15.7379 4.25447 15.7379 4.25447 15.7249C4.18982 15.4534 4.11223 15.0137 4.15102 14.8456Z" fill="white"/>
<path d="M4.78466 15.3242C4.7588 15.5181 4.74587 15.7121 4.7588 15.906C4.7588 16.0095 4.77173 16.1129 4.78466 16.2293C4.7588 16.2293 4.73294 16.2293 4.70708 16.2293H4.69415H4.68122C4.65535 16.2164 4.65535 16.2164 4.62949 16.2035C4.60363 16.1905 4.57777 16.1517 4.55191 16.1129C4.50018 16.0224 4.48725 15.919 4.48725 15.8155C4.47432 15.6216 4.50018 15.4147 4.53897 15.2207C4.56484 15.2336 4.60363 15.2466 4.64242 15.2595C4.69415 15.2854 4.73294 15.3112 4.78466 15.3242Z" fill="white"/>
<mask id="mask0_531_51536" style="mask-type:luminance" maskUnits="userSpaceOnUse" x="0" y="0" width="24" height="24">
<path d="M24 12C24 5.36638 18.6207 0 12 0C5.36638 0 0 5.36638 0 12C0 18.6207 5.36638 24 12 24C18.6207 24 24 18.6207 24 12Z" fill="white"/>
</mask>
<g mask="url(#mask0_531_51536)">
<g opacity="0.8">
<path opacity="0.8" d="M9.87944 25.4103C9.00013 25.4103 8.17254 25.3586 7.47427 25.3068L7.2803 25.2939L7.08634 25.2681C6.99582 25.2551 6.89237 25.2422 6.77599 25.2293C6.10358 25.1517 4.84927 25.0224 3.46565 24.3758L3.24582 24.2724L3.05186 24.156C0.388063 22.656 -0.594696 20.4189 -1.1378 19.2163C-1.17659 19.1387 -1.21539 19.0482 -1.25418 18.9577C-1.52573 18.4017 -1.69383 17.9103 -1.83607 17.4448L-1.86194 17.3413L-1.8878 17.2379C-2.27573 15.8672 -2.36625 14.6905 -2.19814 13.5137C-2.01711 12.337 -1.59038 11.2767 -0.827454 10.1517L-0.439523 9.51805C-0.361937 9.38874 -0.310213 9.2465 -0.27142 9.10426C0.025994 7.63012 0.698408 6.58271 1.03461 6.0784C1.12513 5.47064 1.2803 4.87581 1.4872 4.29391L1.51306 4.20339L1.55186 4.11288C1.55186 4.09995 1.56479 4.07408 1.57772 4.03529C1.73289 3.58271 2.08203 2.53529 2.97427 1.42322L3.31048 1.03529L3.65961 0.724946C4.53892 -0.0767778 5.59927 -0.671606 6.7372 -1.00781C7.37082 -1.20178 8.0303 -1.31816 8.70272 -1.35695H8.76737H8.85789C8.97427 -1.35695 9.09065 -1.36988 9.19409 -1.36988C9.60789 -1.36988 10.0217 -1.33109 10.4355 -1.26643C10.6941 -1.22764 10.9527 -1.2535 11.1984 -1.35695C11.9096 -1.65436 12.6467 -1.84833 13.4096 -1.95178C13.4743 -1.96471 13.526 -1.96471 13.5777 -1.97764C13.6941 -1.99057 13.8881 -2.01643 14.1208 -2.0423C14.5217 -2.08109 15.1424 -2.13281 15.8019 -2.13281C17.1079 -2.13281 18.2329 -1.96471 19.2415 -1.61557L19.332 -1.58971L19.4096 -1.56385C21.6337 -0.72333 22.7587 0.453395 23.5734 1.47495L23.6122 1.52667L23.7286 1.63012C24.4656 2.19908 25.0863 2.91029 25.5777 3.69908L25.7329 3.94477L25.8622 4.20339C26.9484 6.4146 26.5993 8.47064 26.47 9.23357L26.457 9.27236C26.3665 9.84133 26.2113 10.3974 26.0174 10.9405C25.9398 11.4577 25.8234 11.9749 25.6553 12.4663C25.3708 13.3456 24.9441 14.1862 24.401 14.9362C24.0906 15.3758 23.7286 15.8025 23.3406 16.1775C23.1984 16.3068 23.1079 16.4879 23.082 16.6818C23.0691 16.7982 23.0432 16.9146 23.0303 17.031C22.707 18.7379 21.97 19.9275 21.6596 20.406L20.7415 21.7249C19.6294 23.1086 18.3105 24.0137 16.72 24.5051L16.332 24.6215L15.9182 24.6991C15.4398 24.7896 14.9613 24.8284 14.47 24.8284C14.4053 24.8284 14.3406 24.8284 14.2631 24.8284H14.2372H14.1596H14.0691C13.8881 24.8284 13.707 24.8672 13.526 24.9189C12.4656 25.2551 11.3019 25.4103 9.87944 25.4103Z" stroke="url(#paint1_linear_531_51536)" stroke-width="0.0909828" stroke-miterlimit="10"/>
<path opacity="0.8" d="M9.87932 24.493C9.0388 24.493 8.22415 24.4413 7.55173 24.3895L7.39656 24.3766L7.24139 24.3508C7.13794 24.3378 7.02156 24.3249 6.90518 24.312C6.2457 24.2473 5.15949 24.118 3.94397 23.549L3.76294 23.4585L3.59484 23.368C1.22846 22.062 0.362077 20.1094 -0.155164 18.9456C-0.193958 18.868 -0.232751 18.7645 -0.284475 18.674C-0.530164 18.1826 -0.685337 17.7171 -0.814647 17.3033L-0.840509 17.2128L-0.866371 17.1352C-1.20258 15.9068 -1.2931 14.8723 -1.13792 13.8508C-0.982751 12.8421 -0.59482 11.8982 0.0775943 10.9154L0.581905 10.1008C0.672422 9.95851 0.737077 9.79041 0.762939 9.62231C1.00863 8.22575 1.66811 7.243 1.96553 6.79041L2.00432 6.73869L2.01725 6.71282C2.01725 6.69989 2.03018 6.68696 2.03018 6.67403C2.04311 6.60937 2.06897 6.55765 2.0819 6.50593C2.15949 5.93696 2.30173 5.368 2.4957 4.82489L2.52156 4.74731L2.54742 4.66972C2.56035 4.64386 2.56035 4.618 2.58622 4.54041C2.72846 4.11369 3.02587 3.22144 3.80173 2.26455L4.08622 1.92834L4.3707 1.66972C5.13363 0.971444 6.05173 0.454203 7.03449 0.16972C7.60346 0.00161633 8.17242 -0.101832 8.76725 -0.127694H8.81897H8.89656C9.00001 -0.127694 9.09053 -0.140625 9.18104 -0.140625C9.60777 -0.140625 10.0216 -0.257004 10.4354 -0.179418C10.7586 -0.114763 11.0819 -0.153556 11.3793 -0.282866C11.9354 -0.528556 12.6854 -0.619073 13.5388 -0.735453C13.6035 -0.748384 13.6552 -0.748384 13.694 -0.761315C13.8104 -0.774246 13.9914 -0.800108 14.1983 -0.813039C14.5733 -0.851832 15.1552 -0.890625 15.7888 -0.890625C16.9785 -0.890625 17.9871 -0.735453 18.8793 -0.438039L18.9569 -0.412177L19.0216 -0.386315C20.9871 0.363685 21.9569 1.34644 22.7198 2.31627C22.7586 2.368 22.8104 2.41972 22.8233 2.44558L22.8362 2.45851L22.9785 2.58782L22.9914 2.61369C23.6509 3.118 24.2069 3.73869 24.6336 4.43696L24.7629 4.64386L24.8664 4.86369C25.7974 6.76455 25.5129 8.51024 25.3836 9.24731L25.3707 9.2861C25.2802 9.8292 25.1379 10.3464 24.944 10.8637C24.8793 11.3551 24.7629 11.8464 24.6078 12.312C24.3491 13.0878 23.9741 13.8249 23.4957 14.4973C23.1724 14.9628 22.7845 15.3895 22.3707 15.7645C22.1767 15.9456 22.0474 16.1783 22.0216 16.4499C21.9957 16.6439 21.9698 16.8249 21.944 17.0189C21.6595 18.5318 21.0129 19.5663 20.7026 20.0318L19.9526 21.118C18.9569 22.3982 17.7802 23.2258 16.3578 23.6654L16.0345 23.7689L15.6854 23.8335C15.2716 23.9111 14.8448 23.9499 14.431 23.937C14.3664 23.937 14.3017 23.937 14.2371 23.937H14.2241H14.1854C14.1854 23.937 14.1724 23.937 14.1466 23.937H14.069H13.9914H13.8491C13.6552 23.9499 13.4612 23.9758 13.2673 24.0404C12.3233 24.3508 11.2241 24.493 9.87932 24.493Z" stroke="url(#paint2_linear_531_51536)" stroke-width="0.0909828" stroke-miterlimit="10"/>
<path opacity="0.8" d="M9.87968 23.4187C9.07795 23.4187 8.28916 23.367 7.62968 23.3153L7.50037 23.3023L7.37106 23.2894C7.25468 23.2765 7.12537 23.2635 6.99606 23.2506C6.37537 23.186 5.4314 23.0825 4.37106 22.5782L4.22882 22.5135L4.09951 22.436C2.06933 21.298 1.31933 19.617 0.827955 18.5049C0.789162 18.4144 0.737438 18.298 0.698644 18.2075C0.478817 17.7679 0.336576 17.3541 0.220196 16.9661L0.194334 16.9015L0.181403 16.8368C-0.116011 15.7765 -0.193597 14.8713 -0.0642865 14.0178C0.0650239 13.1515 0.414162 12.3368 1.00899 11.4704L1.08658 11.367L1.16416 11.2635C1.21589 11.1989 1.25468 11.1342 1.3064 11.0825L1.60382 10.5265C1.70726 10.3454 1.77192 10.1515 1.79778 9.94457C1.99175 8.70319 2.58658 7.81095 2.85813 7.39716C2.87106 7.3713 2.89692 7.34543 2.90985 7.3325L2.97451 7.24199C3.00037 7.19026 3.02623 7.12561 3.05209 7.04802C3.07795 6.97043 3.11675 6.85405 3.14261 6.75061C3.20726 6.22043 3.33658 5.70319 3.51761 5.19888L3.54347 5.13423L3.56933 5.06957C3.58226 5.01785 3.60813 4.97905 3.63399 4.88854C3.7633 4.48768 4.00899 3.75061 4.66847 2.94888L4.8883 2.67733L5.12106 2.47043C5.76761 1.87561 6.54347 1.44888 7.38399 1.19026C7.87537 1.04802 8.36675 0.957503 8.88399 0.931641H8.92278H8.98744C9.06502 0.931641 9.14261 0.931641 9.23313 0.931641C9.67278 0.931641 10.0995 0.983365 10.5262 1.09974C10.8883 1.19026 11.2762 1.15147 11.6124 0.983365C12.1555 0.724744 12.8797 0.440261 13.7202 0.336813C13.7719 0.323882 13.8236 0.323882 13.8624 0.310951C13.9659 0.29802 14.134 0.272158 14.3409 0.259227C14.69 0.220434 15.2461 0.181641 15.828 0.181641C16.8883 0.181641 17.7805 0.310951 18.5693 0.582503L18.6211 0.608365L18.6728 0.634227C20.4831 1.31957 21.2848 2.21181 21.9055 3.00061C22.0478 3.16871 22.0607 3.19457 22.1512 3.28509L22.2676 3.38854L22.3064 3.44026C22.6038 3.67302 23.2116 4.15147 23.7417 5.01785L23.8452 5.18595L23.9357 5.35405C24.7245 6.94457 24.4788 8.39285 24.3624 9.09112L24.3495 9.12992C24.2719 9.63423 24.1297 10.1385 23.9228 10.617V10.6558C23.8711 11.1084 23.7676 11.561 23.6254 11.9877C23.4055 12.673 23.0823 13.3066 22.6555 13.8885C22.3064 14.3928 21.8797 14.8454 21.4012 15.2334C21.2848 15.3239 21.1943 15.4403 21.1297 15.5696C21.065 15.6989 21.0262 15.8411 21.0133 15.9834C21.0004 16.2678 20.9616 16.5523 20.9098 16.8368C20.6642 18.1428 20.0952 19.048 19.8107 19.5006L19.2288 20.3541C18.3624 21.5178 17.328 22.2678 16.0736 22.6558L15.815 22.7334L15.5305 22.7851C15.1814 22.8497 14.8193 22.8756 14.4573 22.8756C14.4055 22.8756 14.3409 22.8756 14.2762 22.8756H14.2633H14.1986C14.1857 22.8756 14.1598 22.8756 14.0952 22.8756H14.0305H13.9788L13.6814 22.8885C13.4745 22.9015 13.2676 22.9273 13.0736 23.0049C12.1814 23.2894 11.1599 23.4187 9.87968 23.4187Z" stroke="url(#paint3_linear_531_51536)" stroke-width="0.0852931" stroke-miterlimit="10"/>
<path opacity="0.8" d="M9.87937 22.3447C9.11643 22.3447 8.3535 22.293 7.71988 22.2412L7.62937 22.2283L7.53885 22.2154C7.40954 22.2025 7.2673 22.1766 7.13799 22.1637C6.55609 22.099 5.75437 22.0085 4.84919 21.5947L4.74575 21.543L4.6423 21.4912C2.92247 20.5214 2.28885 19.099 1.82333 18.0645C1.77161 17.9611 1.71988 17.8447 1.68109 17.7412C1.48713 17.3404 1.35781 16.9654 1.25437 16.6421L1.24144 16.5904L1.20264 16.5516C0.698332 14.7671 0.892298 13.5128 1.87506 12.0775L1.92678 11.9999L1.9785 11.9223C2.04316 11.8447 2.10781 11.7542 2.17247 11.6766C2.26299 11.5602 2.3535 11.4309 2.45695 11.3145C2.52161 11.2369 2.57333 11.1464 2.61213 11.0559L2.7285 10.7714C2.78023 10.6421 2.80609 10.5128 2.81902 10.3835C2.92247 9.23262 3.4785 8.40504 3.75006 7.99125C3.77592 7.96538 3.80178 7.91366 3.81471 7.90073L3.87937 7.79728L3.90523 7.77142C3.94402 7.70676 4.00868 7.55159 4.0604 7.39642C4.08626 7.29297 4.13799 7.12487 4.18971 6.98262V6.96969C4.24144 6.49125 4.35781 6.0128 4.52592 5.56021L4.53885 5.52142L4.55178 5.48262C4.57764 5.40504 4.6035 5.34038 4.62937 5.24987C4.74575 4.90073 4.93971 4.3059 5.46988 3.64642L5.63799 3.43952L5.80609 3.28435C7.0604 2.14642 8.45695 2.0559 8.92247 2.01711H8.94833H9.00006C9.06471 2.01711 9.12937 2.01711 9.19402 2.01711C9.75006 2.01711 10.2932 2.13349 10.8104 2.35331C10.9009 2.39211 11.0044 2.40504 11.0949 2.40504C11.1983 2.40504 11.2888 2.37918 11.3794 2.32745C11.8578 2.0559 12.7242 1.55159 13.8363 1.42228C13.888 1.40935 13.9397 1.40935 13.9785 1.40935C14.082 1.39642 14.2371 1.38349 14.4182 1.35762C14.7544 1.33176 15.2587 1.29297 15.8018 1.29297C16.7457 1.29297 17.5216 1.40935 18.1811 1.62918L18.2199 1.64211L18.2587 1.65504C19.8104 2.23693 20.4699 2.974 21.0259 3.67228C21.1682 3.86624 21.2457 3.94383 21.4009 4.099L21.4914 4.17659L21.5561 4.25418L21.6078 4.29297C21.8664 4.49987 22.3578 4.87487 22.7975 5.58607L22.8751 5.71538L22.9397 5.84469C23.5733 7.1378 23.3664 8.30159 23.263 8.92228V8.96107C23.1854 9.41366 23.0561 9.86625 22.8751 10.293L22.8621 10.3318C22.8621 10.3447 22.8621 10.3447 22.8492 10.3706C22.8363 10.4093 22.8363 10.4481 22.8363 10.4869L22.8233 10.5387C22.7845 10.9266 22.694 11.3016 22.5647 11.6637C22.3707 12.2456 22.0992 12.7887 21.7371 13.28C21.388 13.7843 20.9871 14.1981 20.5475 14.5214C20.3535 14.6637 20.1983 14.8447 20.082 15.0645C19.9656 15.2843 19.9138 15.5171 19.9138 15.7628C19.9138 16.0602 19.8751 16.3706 19.8233 16.668C19.6164 17.78 19.1509 18.53 18.8535 18.9826L18.4268 19.6162C17.6768 20.6637 16.7845 21.3361 15.7113 21.6723L15.6595 21.6852C15.569 21.7111 15.4785 21.7369 15.388 21.7499L15.3233 21.7628C15.0259 21.8145 14.7285 21.8404 14.4311 21.8404C14.3794 21.8404 14.3276 21.8404 14.2759 21.8404H14.263C14.2371 21.8404 14.2113 21.8404 14.1854 21.8404C14.1595 21.8404 14.1078 21.8404 14.0044 21.8404H13.9656H13.9268C13.7845 21.8404 13.6035 21.8533 13.4483 21.8533C13.2285 21.8662 13.0216 21.905 12.8147 21.9826C12.0388 22.2154 11.0949 22.3447 9.87937 22.3447Z" stroke="url(#paint4_linear_531_51536)" stroke-width="0.0796121" stroke-miterlimit="10"/>
<path opacity="0.8" d="M9.87936 21.2716C9.14229 21.2716 8.41815 21.2199 7.79746 21.1682H7.7328L7.66815 21.1552C7.52591 21.1294 7.37074 21.1164 7.22849 21.1035C6.68539 21.0389 6.01298 20.9742 5.28884 20.6251L5.21125 20.5863L5.1466 20.5475C3.73711 19.7587 3.20694 18.569 2.79315 17.6121C2.74142 17.4958 2.6897 17.3794 2.63798 17.2501C2.46987 16.9139 2.35349 16.5777 2.26298 16.2932L2.25005 16.2544L2.23711 16.2156C1.82332 14.7414 1.96556 13.8104 2.76729 12.6466L2.80608 12.5949L2.84487 12.5432C2.90953 12.4527 2.97418 12.3751 3.03884 12.2846C3.24574 12.013 3.45263 11.7414 3.75005 11.4182C3.8147 11.3535 3.85349 11.2501 3.86643 11.1596L3.87936 10.8621L3.86643 10.7458V10.6294C3.89229 9.67248 4.37074 8.96127 4.62936 8.57334C4.65522 8.53455 4.69401 8.48283 4.70694 8.45696L4.74574 8.39231L4.78453 8.34058C4.83625 8.263 4.95263 7.99145 5.05608 7.74576C5.09487 7.64231 5.1466 7.43541 5.21125 7.26731C5.22418 7.21558 5.22418 7.20265 5.23712 7.08627C5.27591 6.68541 5.37936 6.28455 5.50867 5.90955L5.5216 5.88369L5.53453 5.85783C5.57332 5.75438 5.59918 5.67679 5.63798 5.57334C5.74143 5.263 5.8966 4.81041 6.29746 4.3061L6.41384 4.16386L6.53022 4.06041C7.40953 3.27162 8.35349 3.11645 9.00005 3.07765H9.02591H9.05177C9.10349 3.07765 9.14229 3.07765 9.19401 3.07765C9.73712 3.07765 10.3966 3.33627 10.7457 3.50438C10.8233 3.54317 10.9138 3.56903 11.0044 3.56903C11.0949 3.56903 11.1854 3.5561 11.2759 3.53024C11.4957 3.45265 11.7026 3.36214 11.8966 3.25869C12.3363 3.00007 13.0604 2.58627 13.9656 2.48283C14.0173 2.46989 14.0561 2.46989 14.0949 2.46989C14.1854 2.45696 14.3276 2.44403 14.5087 2.41817C14.819 2.39231 15.2845 2.35352 15.7888 2.35352C16.6035 2.35352 17.2759 2.44403 17.819 2.638L17.8449 2.65093L17.8707 2.66386C19.1638 3.15524 19.6811 3.71127 20.1725 4.34489C20.3276 4.55179 20.444 4.69403 20.6768 4.90093L20.7285 4.95265L20.7802 5.00438C20.8319 5.0561 20.8837 5.09489 20.9354 5.13369C21.1552 5.30179 21.5302 5.59921 21.8535 6.14231L21.9052 6.21989L21.944 6.31041C22.4225 7.28024 22.2673 8.19834 22.1768 8.74145V8.78024C22.1121 9.15524 22.0087 9.51731 21.8535 9.86645C21.8147 9.95696 21.7888 10.0475 21.763 10.1509C21.75 10.2156 21.7371 10.2802 21.7371 10.332L21.7242 10.3837C21.6854 10.694 21.6207 11.0044 21.5173 11.3018C21.3621 11.7802 21.1294 12.2328 20.8449 12.6337C20.4052 13.2544 19.9009 13.694 19.2932 13.9785C19.1509 14.0432 19.0216 14.1466 18.9311 14.2889C18.8406 14.4182 18.7888 14.5863 18.7759 14.7414C18.7759 14.8061 18.7759 14.8578 18.7759 14.8966C18.8018 15.3621 18.8406 15.8923 18.7371 16.4483C18.569 17.3535 18.1811 17.9613 17.8966 18.4139C17.8966 18.4139 16.5776 20.2501 15.375 20.6251L15.2457 20.6639L15.1035 20.6897C14.8707 20.7285 14.638 20.7544 14.3923 20.7544C14.3535 20.7544 14.3018 20.7544 14.25 20.7544C14.2242 20.7544 14.1854 20.7544 14.1466 20.7544C14.0949 20.7544 14.0173 20.7544 13.9009 20.7673H13.875H13.8492C13.3837 20.7802 12.9569 20.7932 12.8276 20.819C12.763 20.832 12.6983 20.8449 12.6337 20.8708C12 21.1423 11.1078 21.2716 9.87936 21.2716Z" stroke="url(#paint5_linear_531_51536)" stroke-width="0.0739224" stroke-miterlimit="10"/>
<path opacity="0.8" d="M9.87964 20.213C9.18136 20.213 8.48308 20.1612 7.88826 20.1224H7.86239H7.83653C7.66843 20.0966 7.51326 20.0836 7.37101 20.0707C6.8667 20.019 6.33653 19.9543 5.76757 19.6957L5.72877 19.6828L5.68998 19.6699C4.59084 19.0492 4.17705 18.1311 3.78912 17.2388C3.73739 17.1095 3.67274 16.9802 3.60808 16.8509C3.47877 16.5923 3.37532 16.3078 3.29774 16.0362V16.0233V16.0104C2.96153 14.8336 3.05205 14.2388 3.67274 13.3336L3.68567 13.3078L3.6986 13.2819C3.77619 13.1914 3.84084 13.1009 3.9055 13.0233C4.20291 12.6354 4.46153 12.2992 5.04343 11.7561C5.08222 11.7173 5.12101 11.6655 5.13395 11.6009C5.14688 11.5492 5.14688 11.4845 5.12101 11.4328L5.01757 11.1354C4.9917 11.0449 4.97877 10.9414 4.97877 10.8509V10.7733V10.7086C5.00463 10.0621 5.34084 9.55779 5.56067 9.22158C5.59946 9.16985 5.62532 9.11813 5.65119 9.07934L5.67705 9.04054L5.70291 9.00175C5.81929 8.84658 6.01326 8.39399 6.1167 8.12244C6.14257 8.03192 6.20722 7.8121 6.27188 7.64399C6.31067 7.51468 6.33653 7.38537 6.34946 7.25606C6.38826 6.93279 6.45291 6.60951 6.56929 6.3121V6.29916V6.28623C6.62101 6.15692 6.65981 6.05348 6.68567 5.95003C6.77619 5.67848 6.87964 5.36813 7.16412 5.01899L7.21584 4.95434L7.26757 4.90261C7.88826 4.33365 8.5736 4.2302 9.09084 4.19141H9.10377H9.1167C9.14257 4.19141 9.18136 4.19141 9.20722 4.19141C9.72446 4.19141 10.1124 4.3983 10.371 4.54054L10.4357 4.56641H10.4486C10.5262 4.6052 10.5779 4.64399 10.6426 4.66985C10.7977 4.74744 10.9917 4.7733 11.1598 4.72158C11.5219 4.63106 12.0779 4.41123 12.44 4.20434H12.4529C12.8408 3.97158 13.4357 3.63537 14.1339 3.55779C14.1727 3.54485 14.2245 3.54485 14.2633 3.54485C14.3408 3.53192 14.4831 3.51899 14.6383 3.50606C14.9227 3.4802 15.3624 3.44141 15.815 3.44141C16.5133 3.44141 17.0693 3.51899 17.496 3.66123H17.5089H17.5219C18.5564 4.04916 18.9443 4.46296 19.3581 5.00606C19.5262 5.22589 19.6943 5.43279 20.0046 5.70434L20.0305 5.7302L20.0564 5.75606C20.1339 5.83365 20.2245 5.91123 20.3279 5.98882C20.5089 6.13106 20.7676 6.32503 20.9874 6.70003L21.0133 6.73882L21.0391 6.77761C21.3624 7.45003 21.2589 8.08365 21.1814 8.5621V8.60089C21.1296 8.8983 21.0521 9.18279 20.9227 9.46727C20.8581 9.62244 20.8064 9.79054 20.7805 9.95865C20.7676 10.0621 20.7546 10.1397 20.7417 10.2043L20.7288 10.2561C20.7029 10.5018 20.6512 10.7345 20.5736 10.9673C20.4572 11.3423 20.2762 11.6914 20.0434 12.0147C19.6555 12.5836 19.2158 12.9328 18.6339 13.1138C18.3495 13.2043 18.1167 13.3854 17.9615 13.6311L17.9098 13.6957L17.8581 13.7604C17.7158 13.9285 17.7546 14.575 17.7805 14.963C17.8064 15.3897 17.8322 15.8293 17.7546 16.2431C17.6253 16.9543 17.315 17.4328 17.0434 17.8466C17.0434 17.8466 16.0348 19.3078 15.1167 19.5793L15.0521 19.6052L14.9874 19.6181C14.8193 19.644 14.6383 19.6699 14.4572 19.6699C14.4184 19.6699 14.3796 19.6699 14.3279 19.6699C14.2891 19.6699 14.2503 19.6699 14.1986 19.6699C14.1339 19.6699 14.0434 19.6699 13.8883 19.6828H13.8753H13.8624C13.2546 19.7086 12.8796 19.7216 12.6727 19.7604C12.5305 19.7862 12.4012 19.825 12.2719 19.8768C11.7158 20.0966 10.9658 20.213 9.87964 20.213Z" stroke="url(#paint6_linear_531_51536)" stroke-width="0.0739224" stroke-miterlimit="10"/>
</g>
</g>
</g>
<defs>
<radialGradient id="paint0_radial_531_51536" cx="0" cy="0" r="1" gradientUnits="userSpaceOnUse" gradientTransform="translate(12.0005 13.2537) rotate(90) scale(13.48)">
<stop offset="0.1667" stop-color="#073183"/>
<stop offset="1" stop-color="#0054F9"/>
</radialGradient>
<linearGradient id="paint1_linear_531_51536" x1="-1.68041" y1="-2.69724" x2="25.8146" y2="26.1603" gradientUnits="userSpaceOnUse">
<stop offset="0.2057" stop-color="#89D0FF"/>
<stop offset="0.3984" stop-color="#EBBF9A"/>
<stop offset="0.6015" stop-color="#EB8280"/>
<stop offset="0.8411" stop-color="#A281FF"/>
</linearGradient>
<linearGradient id="paint2_linear_531_51536" x1="-0.614345" y1="-1.45477" x2="24.733" y2="25.2576" gradientUnits="userSpaceOnUse">
<stop offset="0.2057" stop-color="#89D0FF"/>
<stop offset="0.3984" stop-color="#EBBF9A"/>
<stop offset="0.6015" stop-color="#EB80DA"/>
<stop offset="0.8411" stop-color="#A281FF"/>
</linearGradient>
<linearGradient id="paint3_linear_531_51536" x1="0.462848" y1="-0.382205" x2="23.6621" y2="24.1844" gradientUnits="userSpaceOnUse">
<stop offset="0.2057" stop-color="#89D0FF"/>
<stop offset="0.3984" stop-color="#EBBF9A"/>
<stop offset="0.6015" stop-color="#EB8280"/>
<stop offset="0.8411" stop-color="#A281FF"/>
</linearGradient>
<linearGradient id="paint4_linear_531_51536" x1="1.53789" y1="0.694353" x2="22.5843" y2="23.1085" gradientUnits="userSpaceOnUse">
<stop offset="0.2057" stop-color="#89D0FF"/>
<stop offset="0.3984" stop-color="#EBBF9A"/>
<stop offset="0.6015" stop-color="#EB80E7"/>
<stop offset="0.8411" stop-color="#A281FF"/>
</linearGradient>
<linearGradient id="paint5_linear_531_51536" x1="2.60697" y1="1.77392" x2="21.5046" y2="22.034" gradientUnits="userSpaceOnUse">
<stop offset="0.2057" stop-color="#89D0FF"/>
<stop offset="0.3984" stop-color="#EBBF9A"/>
<stop offset="0.6015" stop-color="#EB80D3"/>
<stop offset="0.8411" stop-color="#A281FF"/>
</linearGradient>
<linearGradient id="paint6_linear_531_51536" x1="3.69022" y1="2.84199" x2="20.4372" y2="20.9562" gradientUnits="userSpaceOnUse">
<stop offset="0.2057" stop-color="#89D0FF"/>
<stop offset="0.3984" stop-color="#EBBF9A"/>
<stop offset="0.6015" stop-color="#A280EB"/>
<stop offset="0.8411" stop-color="#A281FF"/>
</linearGradient>
<clipPath id="clip0_531_51536">
<rect width="24" height="24" fill="white"/>
</clipPath>
</defs>
</svg>
