<svg width="24" height="24" viewBox="0 0 24 24" fill="none" xmlns="http://www.w3.org/2000/svg">
<g clip-path="url(#clip0_531_43339)">
<path fill-rule="evenodd" clip-rule="evenodd" d="M12 0C18.6279 0 24 5.37212 24 12C24 18.6279 18.6279 24 12 24C5.37212 24 0 18.6279 0 12C0 5.37212 5.37212 0 12 0Z" fill="#F0B90B"/>
<path d="M6.59509 11.9995L6.60375 15.1726L9.2999 16.7591V18.6168L5.02586 16.1101V11.0716L6.59509 11.9995ZM6.59509 8.82644V10.6755L5.0249 9.74664V7.8976L6.59509 6.96875L8.17298 7.8976L6.59509 8.82644ZM10.4259 7.8976L11.9961 6.96875L13.5739 7.8976L11.9961 8.82644L10.4259 7.8976Z" fill="white"/>
<path d="M7.72998 14.5149V12.6572L9.30017 13.5861V15.4351L7.72998 14.5149ZM10.4261 17.4245L11.9963 18.3534L13.5742 17.4245V19.2736L11.9963 20.2024L10.4261 19.2736V17.4245ZM15.8261 7.8976L17.3963 6.96875L18.9742 7.8976V9.74663L17.3963 10.6755V8.82644L15.8261 7.8976ZM17.3963 15.1726L17.405 11.9995L18.9752 11.0707V16.1091L14.7011 18.6159V16.7582L17.3963 15.1726Z" fill="white"/>
<path d="M16.2704 14.5159L14.7002 15.4361V13.587L16.2704 12.6582V14.5159Z" fill="white"/>
<path d="M16.2704 9.48438L16.279 11.3421L13.5752 12.9286V16.1094L12.005 17.0296L10.4348 16.1094V12.9286L7.73094 11.3421V9.48438L9.30786 8.55553L11.9954 10.1498L14.6992 8.55553L16.2771 9.48438H16.2704ZM7.72998 6.31226L11.9963 3.79688L16.2704 6.31226L14.7002 7.24111L11.9963 5.64688L9.30017 7.24111L7.72998 6.31226Z" fill="white"/>
</g>
<defs>
<clipPath id="clip0_531_43339">
<rect width="24" height="24" fill="white"/>
</clipPath>
</defs>
</svg>
