<svg width="24" height="24" viewBox="0 0 24 24" fill="none" xmlns="http://www.w3.org/2000/svg">
<g clip-path="url(#clip0_531_51380)">
<path d="M10.2733 24C15.9471 24 20.5466 18.6274 20.5466 12C20.5466 5.37258 15.9471 0 10.2733 0C4.5995 0 0 5.37258 0 12C0 18.6274 4.5995 24 10.2733 24Z" fill="#2EB6EA"/>
<path d="M10.2153 24.0004C0.000110188 24.0004 -4.03375 8.30548 4.99165 1.69531C3.91789 14.814 9.63494 15.0851 14.9167 14.814C23.797 14.3055 23.826 24.0004 23.826 24.0004H10.2153Z" fill="#1542CD"/>
<path fill-rule="evenodd" clip-rule="evenodd" d="M19.9952 15.9316C18.4571 20.5418 14.6554 23.8299 10.1572 23.9994C10.2733 23.9994 10.3604 23.9994 10.4765 23.9994H23.971C24 23.9994 23.971 18.3384 19.9952 15.9316Z" fill="#745DDF"/>
</g>
<defs>
<clipPath id="clip0_531_51380">
<rect width="24" height="24" fill="white"/>
</clipPath>
</defs>
</svg>
