<svg width="24" height="24" viewBox="0 0 24 24" fill="none" xmlns="http://www.w3.org/2000/svg">
<g clip-path="url(#clip0_531_51192)">
<path d="M23.9995 9.91769L19.1076 11.4584L6.12999 16.1247L19.1076 20.5323V13.2468L23.9995 11.6895V22.4527L19.1076 23.9934L-0.000488281 17.5333V14.0997L13.2264 9.516L-0.000488281 5.02585V1.54269L4.96933 0.00195312L23.9995 6.47305V9.91769Z" fill="#49C1BF"/>
<path d="M-0.000488281 1.54269L19.1076 8.01378L23.9995 6.47305L4.96933 0.00195312L-0.000488281 1.54269Z" fill="#077A8F"/>
<path d="M19.1079 7.99972L23.9998 6.45898V9.90363L19.1079 11.4444V7.99972Z" fill="#298E97"/>
<path d="M-0.000488281 1.54492V5.02809L13.2264 9.51823L-0.000488281 14.1019V17.5356L19.1076 23.9956V20.54L6.12999 16.1269L19.1076 11.4607V8.01601L-0.000488281 1.54492Z" fill="#49C1BF"/>
<path d="M19.1079 23.9699L23.9998 22.4292V11.666L19.1079 13.2233V23.9699Z" fill="#298E97"/>
</g>
<defs>
<clipPath id="clip0_531_51192">
<rect width="24" height="24" fill="white"/>
</clipPath>
</defs>
</svg>
