<svg width="24" height="24" viewBox="0 0 24 24" fill="none" xmlns="http://www.w3.org/2000/svg">
<g clip-path="url(#clip0_531_43350)">
<path d="M12 24C18.6274 24 24 18.6274 24 12C24 5.37258 18.6274 0 12 0C5.37258 0 0 5.37258 0 12C0 18.6274 5.37258 24 12 24Z" fill="#2E3148"/>
<path d="M12.0001 18.9631C15.8456 18.9631 18.9631 15.8456 18.9631 12.0001C18.9631 8.15454 15.8456 5.03711 12.0001 5.03711C8.15454 5.03711 5.03711 8.15454 5.03711 12.0001C5.03711 15.8456 8.15454 18.9631 12.0001 18.9631Z" fill="#1B1E36"/>
<path d="M12.0249 1.53125C10.7295 1.53125 9.6792 6.22949 9.6792 12.0251C9.6792 17.8207 10.7295 22.519 12.0249 22.519C13.3202 22.519 14.3705 17.8207 14.3705 12.0251C14.3705 6.22949 13.3202 1.53125 12.0249 1.53125ZM12.1868 21.9267C12.0387 22.1243 11.8906 21.9761 11.8906 21.9761C11.294 21.2849 10.9957 20.0008 10.9957 20.0008C9.95232 16.6428 10.2007 9.43291 10.2007 9.43291C10.691 3.70901 11.5831 2.35685 11.8866 2.05666C11.9176 2.02602 11.9584 2.0073 12.0019 2.00379C12.0453 2.00027 12.0886 2.0122 12.1241 2.03746C12.5646 2.34955 12.934 3.65477 12.934 3.65477C14.0248 7.70415 13.926 11.5066 13.926 11.5066C14.0248 14.8152 13.3794 18.5189 13.3794 18.5189C12.8826 21.3336 12.1868 21.9267 12.1868 21.9267Z" fill="#6F7390"/>
<path d="M21.1271 6.80198C20.4822 5.67801 15.8847 7.10515 10.8551 9.98918C5.82559 12.8732 2.27781 16.1225 2.92226 17.246C3.56671 18.3695 8.16472 16.9428 13.1943 14.0588C18.2238 11.1748 21.7716 7.92547 21.1271 6.80198ZM3.51727 17.0918C3.27036 17.0607 3.32613 16.8578 3.32613 16.8578C3.62901 15.9966 4.59285 15.0988 4.59285 15.0988C6.98738 12.5225 13.3652 9.15014 13.3652 9.15014C18.5736 6.72691 20.1914 6.82915 20.6018 6.94214C20.6439 6.9539 20.6805 6.98019 20.7051 7.01635C20.7297 7.05251 20.7407 7.09621 20.7362 7.13971C20.6869 7.67731 19.7362 8.64691 19.7362 8.64691C16.7686 11.6094 13.421 13.4163 13.421 13.4163C10.6002 15.1491 7.06648 16.4316 7.06648 16.4316C4.37762 17.4005 3.51736 17.0918 3.51736 17.0918H3.51727Z" fill="#6F7390"/>
<path d="M21.104 17.2841C21.7539 16.1631 18.215 12.8989 13.2032 9.99316C8.1913 7.08743 3.59434 5.64263 2.94499 6.76555C2.29565 7.88846 5.83392 11.1507 10.8487 14.0565C15.8634 16.9622 20.4546 18.4071 21.104 17.2841ZM3.37565 7.1987C3.27965 6.97108 3.48231 6.91627 3.48231 6.91627C4.37952 6.74683 5.63981 7.13294 5.63981 7.13294C9.06845 7.91371 15.1822 11.7433 15.1822 11.7433C19.8894 15.0372 20.6113 16.488 20.7195 16.8999C20.7305 16.9421 20.7262 16.9869 20.7074 17.0263C20.6886 17.0657 20.6565 17.0972 20.6168 17.1152C20.1259 17.3399 18.8113 17.0051 18.8113 17.0051C14.7594 15.9187 11.5189 13.9281 11.5189 13.9281C8.60736 12.3577 5.72832 9.94142 5.72832 9.94142C3.54067 8.09947 3.37632 7.20119 3.37632 7.20119L3.37565 7.1987Z" fill="#6F7390"/>
<path d="M12.0002 13.2347C12.682 13.2347 13.2347 12.682 13.2347 12.0002C13.2347 11.3184 12.682 10.7656 12.0002 10.7656C11.3184 10.7656 10.7656 11.3184 10.7656 12.0002C10.7656 12.682 11.3184 13.2347 12.0002 13.2347Z" fill="#B7B9C8"/>
<path d="M17.0618 7.99905C17.4572 7.99905 17.7778 7.66741 17.7778 7.25831C17.7778 6.84922 17.4572 6.51758 17.0618 6.51758C16.6663 6.51758 16.3457 6.84922 16.3457 7.25831C16.3457 7.66741 16.6663 7.99905 17.0618 7.99905Z" fill="#B7B9C8"/>
<path d="M5.30884 10.5186C5.70431 10.5186 6.0249 10.1869 6.0249 9.77785C6.0249 9.36875 5.70431 9.03711 5.30884 9.03711C4.91337 9.03711 4.59277 9.36875 4.59277 9.77785C4.59277 10.1869 4.91337 10.5186 5.30884 10.5186Z" fill="#B7B9C8"/>
<path d="M10.5432 19.6045C10.9387 19.6045 11.2593 19.2729 11.2593 18.8638C11.2593 18.4547 10.9387 18.123 10.5432 18.123C10.1477 18.123 9.82715 18.4547 9.82715 18.8638C9.82715 19.2729 10.1477 19.6045 10.5432 19.6045Z" fill="#B7B9C8"/>
</g>
<defs>
<clipPath id="clip0_531_43350">
<rect width="24" height="24" fill="white"/>
</clipPath>
</defs>
</svg>
