<svg width="24" height="24" viewBox="0 0 24 24" fill="none" xmlns="http://www.w3.org/2000/svg">
<g clip-path="url(#clip0_531_51152)">
<path d="M19.232 1.23898L14.2242 8.67072C13.8779 9.17682 14.5438 9.78948 15.0233 9.36328L19.9512 5.07472C20.0843 4.96817 20.2708 5.04808 20.2708 5.23454V18.633C20.2708 18.8194 20.0311 18.8994 19.9245 18.7662L5.00777 0.919332C4.5283 0.333317 3.83574 0.0136719 3.06326 0.0136719H2.53052C1.14539 0.0136719 0 1.15907 0 2.57083V21.4299C0 22.8416 1.14539 23.987 2.55716 23.987C3.43618 23.987 4.26193 23.5342 4.7414 22.7617L9.74917 15.33C10.0954 14.8239 9.42952 14.2112 8.95005 14.6374L4.0222 18.8994C3.88901 19.0059 3.70255 18.926 3.70255 18.7395V5.36772C3.70255 5.18126 3.94229 5.10135 4.04883 5.23454L18.9656 23.0814C19.4451 23.6674 20.1643 23.987 20.9101 23.987H21.4428C22.8546 23.987 24 22.8416 24 21.4299V2.57083C24 1.15907 22.8546 0.0136719 21.4428 0.0136719C20.5372 0.0136719 19.7114 0.466502 19.232 1.23898Z" fill="black"/>
</g>
<defs>
<clipPath id="clip0_531_51152">
<rect width="24" height="24" fill="white"/>
</clipPath>
</defs>
</svg>
