<svg width="24" height="24" viewBox="0 0 24 24" fill="none" xmlns="http://www.w3.org/2000/svg">
<g clip-path="url(#clip0_531_51342)">
<path d="M12 24C18.6274 24 24 18.6274 24 12C24 5.37258 18.6274 0 12 0C5.37258 0 0 5.37258 0 12C0 18.6274 5.37258 24 12 24Z" fill="#4B5CF0"/>
<path d="M17.8644 6.09795V17.8641H15.329V11.7164H13.2428C12.9967 11.7164 12.7628 11.8087 12.5844 11.9687C12.4798 12.061 12.4059 12.1718 12.3505 12.301C12.2952 12.4303 12.2644 12.5595 12.2644 12.701V14.1164C12.2644 14.4918 11.9567 14.8118 11.569 14.8118H9.89515C9.51977 14.8118 9.19977 14.5041 9.19977 14.1164V12.4056C9.19977 12.0303 9.50746 11.7103 9.89515 11.7103H11.409C11.6121 11.7103 11.809 11.6426 11.9567 11.5072C12.049 11.4272 12.129 11.3287 12.1844 11.2056C12.2398 11.0949 12.2644 10.9718 12.2644 10.8426V8.62103H6.14746V6.0918L17.8644 6.09795Z" fill="white"/>
<path d="M9.20006 16.3448V16.3694C9.20006 17.2187 8.51699 17.9017 7.66776 17.9017C6.81852 17.9017 6.1416 17.2187 6.1416 16.3694V16.3448C6.1416 15.4956 6.82468 14.8125 7.67391 14.8125C8.09852 14.8125 8.48006 14.9848 8.75699 15.2617C9.03391 15.5448 9.19391 15.9202 9.20006 16.3448Z" fill="white"/>
</g>
<defs>
<clipPath id="clip0_531_51342">
<rect width="24" height="24" fill="white"/>
</clipPath>
</defs>
</svg>
