<svg width="24" height="24" viewBox="0 0 24 24" fill="none" xmlns="http://www.w3.org/2000/svg">
<g clip-path="url(#clip0_531_43333)">
<path d="M19.3964 4.11719H4.58789V17.5853H19.3964V4.11719Z" fill="white"/>
<path fill-rule="evenodd" clip-rule="evenodd" d="M23.9842 11.9997C23.9842 18.6183 18.6188 23.9837 12.0002 23.9837C5.38155 23.9837 0.0161133 18.6183 0.0161133 11.9997C0.0161133 5.38106 5.38155 0.015625 12.0002 0.015625C18.6188 0.015625 23.9842 5.38106 23.9842 11.9997ZM8.60422 16.7687H6.27845C5.78974 16.7687 5.54834 16.7687 5.40115 16.6746C5.24216 16.5715 5.14501 16.4007 5.13324 16.2123C5.1244 16.0387 5.24511 15.8266 5.48652 15.4027L11.2291 5.28055C11.4735 4.85072 11.5971 4.6358 11.7532 4.55632C11.921 4.47094 12.1212 4.47094 12.289 4.55632C12.445 4.6358 12.5687 4.85072 12.813 5.28055L13.9936 7.34135L13.9996 7.35187C14.2635 7.81299 14.3973 8.04683 14.4558 8.29226C14.5205 8.56017 14.5205 8.84279 14.4558 9.1107C14.3969 9.35799 14.2644 9.59352 13.9965 10.0616L10.98 15.3938L10.9722 15.4075C10.7066 15.8724 10.5719 16.1081 10.3854 16.2858C10.1822 16.4802 9.93786 16.6214 9.66995 16.7011C9.4256 16.7687 9.15182 16.7687 8.60422 16.7687ZM14.4775 16.7687H17.8101C18.3018 16.7687 18.5491 16.7687 18.6964 16.6717C18.8553 16.5686 18.9554 16.3948 18.9643 16.2065C18.9728 16.0385 18.8547 15.8347 18.6233 15.4354C18.6153 15.4218 18.6073 15.408 18.5992 15.3939L16.9299 12.5382L16.9109 12.5061C16.6763 12.1094 16.5579 11.9091 16.4058 11.8317C16.2381 11.7463 16.0407 11.7463 15.873 11.8317C15.7199 11.9112 15.5963 12.1202 15.3519 12.5412L13.6885 15.3969L13.6829 15.4067C13.4394 15.827 13.3177 16.0371 13.3264 16.2094C13.3382 16.3979 13.4354 16.5715 13.5943 16.6746C13.7386 16.7687 13.9859 16.7687 14.4775 16.7687Z" fill="#E84142"/>
</g>
<defs>
<clipPath id="clip0_531_43333">
<rect width="24" height="24" fill="white"/>
</clipPath>
</defs>
</svg>
