<svg width="24" height="24" viewBox="0 0 24 24" fill="none" xmlns="http://www.w3.org/2000/svg">
<g clip-path="url(#clip0_531_51500)">
<path d="M12 24C18.6274 24 24 18.6274 24 12C24 5.37258 18.6274 0 12 0C5.37258 0 0 5.37258 0 12C0 18.6274 5.37258 24 12 24Z" fill="black"/>
<path d="M20.8072 10.1546C20.6885 9.57848 20.5132 9.01549 20.2837 8.47388C20.0575 7.94042 19.7807 7.42983 19.4572 6.94913C19.1363 6.47422 18.7704 6.03141 18.3644 5.62688C17.9596 5.22086 17.5166 4.85491 17.0414 4.53413C16.56 4.21222 16.0498 3.93554 15.5174 3.70763C14.4164 3.24065 13.2326 3 12.0367 3C10.8407 3 9.65695 3.24065 8.55591 3.70763C7.49125 4.1567 6.52424 4.80885 5.70891 5.62763C5.30297 6.03192 4.93702 6.47448 4.61616 6.94913C4.29421 7.43079 4.01753 7.94122 3.78966 8.47388C3.32268 9.57492 3.08203 10.7587 3.08203 11.9546C3.08203 13.1506 3.32268 14.3343 3.78966 15.4354C4.01016 15.9679 4.29516 16.4726 4.61616 16.9594C4.937 17.4345 5.30295 17.8776 5.70891 18.2824C6.11368 18.6884 6.55674 19.0544 7.03191 19.3751C7.50891 19.6961 8.02341 19.9721 8.55591 20.2016C9.65695 20.6686 10.8407 20.9093 12.0367 20.9093C13.2326 20.9093 14.4164 20.6686 15.5174 20.2016C16.0499 19.9811 16.5547 19.6961 17.0414 19.3751C17.5166 19.0544 17.9596 18.6884 18.3644 18.2824C18.7704 17.8776 19.1364 17.4346 19.4572 16.9594C19.7782 16.4824 20.0542 15.9679 20.2837 15.4354C20.9902 13.7691 21.1728 11.9272 20.8072 10.1546ZM12.0449 19.7884C7.71966 19.7884 4.22091 16.2799 4.22091 11.9636C4.22091 7.64738 7.72941 4.13888 12.0449 4.13888C16.3612 4.13888 19.8697 7.64738 19.8697 11.9636C19.8697 16.2799 16.3619 19.7884 12.0449 19.7884Z" fill="white"/>
<path d="M12.1838 19.1098H12.3953C12.4321 19.1098 12.4681 19.1098 12.5048 19.1001H12.5146C12.5513 19.1001 12.5783 19.1001 12.6151 19.0911H12.6428C12.6706 19.0911 12.6983 19.0911 12.7253 19.0821H12.7531C12.7808 19.0821 12.8086 19.0731 12.8453 19.0731H12.8633C12.9001 19.0731 12.9368 19.0633 12.9736 19.0633C13.0103 19.0633 13.0381 19.0543 13.0748 19.0453H13.0928C13.1206 19.0453 13.1483 19.0363 13.1753 19.0363H13.1941C13.2308 19.0266 13.2586 19.0266 13.2953 19.0176C13.3681 19.0086 13.4416 18.9898 13.5061 18.9718H13.5248C13.5518 18.9628 13.5886 18.9628 13.6163 18.9531H13.6253C13.6988 18.9351 13.7633 18.9163 13.8368 18.8983C13.1489 18.9201 12.461 18.8554 11.7893 18.7056C10.7783 18.4851 9.81457 18.0906 8.99707 17.4103C8.35258 16.874 7.83536 16.2011 7.48281 15.4403C7.13026 14.6796 6.95119 13.85 6.95857 13.0116C6.96518 11.7607 7.41026 10.5518 8.21632 9.59531C9.26332 8.35556 10.7513 7.70306 12.2753 7.66631H12.4868V6.44531H12.2483C11.7847 6.45381 11.3231 6.50909 10.8706 6.61031C10.4152 6.71328 9.97197 6.86412 9.54832 7.06031C9.11632 7.26281 8.71207 7.51031 8.33557 7.79531C7.94651 8.09106 7.59224 8.42997 7.27957 8.80556C6.98516 9.15317 6.72964 9.53192 6.51757 9.93506C6.30775 10.3237 6.13837 10.7328 6.01207 11.1561C5.88817 11.5727 5.80528 12.0005 5.76457 12.4333L5.73682 12.8368V13.0753C5.74582 13.5441 5.80132 14.0031 5.90182 14.4531C6.00307 14.9128 6.15907 15.3531 6.35182 15.7761C6.58207 16.2808 6.99532 17.0248 7.61032 17.5851C8.86604 18.575 10.4191 19.1122 12.0181 19.1098H12.1838Z" fill="white"/>
<path d="M14.1856 17.9324C13.7326 17.9163 13.2814 17.8671 12.8356 17.7854C10.9441 17.4457 9.31808 16.2884 8.72183 14.5439C7.99583 12.4222 9.10733 10.1264 11.2193 9.42894C11.6218 9.29406 12.0436 9.22566 12.4681 9.22644C13.0103 9.22644 13.5518 9.33669 14.0483 9.53844L14.5621 8.44569C14.4076 8.38375 14.2515 8.32573 14.0941 8.27169C13.5679 8.10655 13.0196 8.02283 12.4681 8.02344C11.9156 8.02448 11.3668 8.11437 10.8428 8.28969C10.1741 8.51026 9.55821 8.86672 9.03383 9.33669C8.78094 9.56197 8.55037 9.81112 8.34533 10.0807C8.14264 10.3472 7.96726 10.6334 7.82183 10.9349C7.5257 11.5412 7.35092 12.1996 7.30733 12.8729C7.26158 13.5704 7.35308 14.2679 7.58258 14.9294C7.81642 15.6099 8.19223 16.2329 8.68508 16.7572C9.13508 17.2439 9.65858 17.6114 10.2916 17.9512C10.9531 18.2999 11.7706 18.4837 12.6241 18.6037C13.1753 18.6764 13.9103 18.6952 14.3416 18.6952C14.7181 18.5572 14.8741 18.4927 15.0766 18.4102C15.2513 18.3277 15.4253 18.2452 15.6001 18.1439C15.7748 18.0427 15.8026 18.0239 16.0958 17.8319C16.122 17.8157 16.1466 17.7971 16.1693 17.7764C15.1591 17.9512 14.9018 17.9414 14.1856 17.9324Z" fill="white"/>
<path d="M16.4453 16.5655C16.1603 16.5835 15.7561 16.6105 15.2971 16.6105C14.4796 16.6105 13.4783 16.5377 12.6248 16.2527C11.3018 15.8125 10.0531 14.683 10.0531 13.2865C10.0528 12.9559 10.1177 12.6286 10.244 12.3232C10.3704 12.0178 10.5557 11.7403 10.7894 11.5065C11.0231 11.2728 11.3006 11.0875 11.6061 10.9612C11.9115 10.8348 12.2388 10.7699 12.5693 10.7702C13.5151 10.7702 14.3326 11.2937 14.7646 12.0557L15.8573 11.5142C15.686 11.1916 15.4659 10.8974 15.2048 10.642C14.8589 10.2954 14.448 10.0205 13.9957 9.83295C13.5434 9.64538 13.0586 9.54883 12.569 9.54883C12.0793 9.54883 11.5945 9.64538 11.1422 9.83295C10.6899 10.0205 10.279 10.2954 9.93308 10.642C9.58667 10.9879 9.31185 11.3987 9.12435 11.8509C8.93684 12.3032 8.84033 12.7879 8.84033 13.2775C8.84278 13.7905 8.95264 14.2974 9.16283 14.7655C9.35483 15.1877 9.62183 15.583 9.96158 15.9505C10.5586 16.5925 11.3753 17.107 12.2483 17.401C13.0838 17.6762 14.3146 17.7775 15.5086 17.695C15.8386 17.6672 16.0868 17.6395 16.5091 17.548C16.9166 17.2264 17.2864 16.8598 17.6116 16.4552C17.3266 16.483 16.8031 16.5377 16.4453 16.5655Z" fill="white"/>
</g>
<defs>
<clipPath id="clip0_531_51500">
<rect width="24" height="24" fill="white"/>
</clipPath>
</defs>
</svg>
