<svg width="24" height="24" viewBox="0 0 24 24" fill="none" xmlns="http://www.w3.org/2000/svg">
<g clip-path="url(#clip0_531_51524)">
<path d="M16.5131 9.54939L18.4715 11.0366L19.7099 11.9755L18.3266 12.6811L15.5482 14.1041L16.5015 14.7632L17.8325 15.6904L16.391 16.4369L7.55615 21.0091C9.02519 21.8201 10.6747 22.2454 12.3515 22.2454C17.8443 22.2454 22.297 17.7782 22.297 12.2668C22.3021 9.92998 21.4849 7.66639 19.9894 5.875L16.5131 9.54939Z" fill="#091B26"/>
<path d="M7.78373 15.2289L5.82536 13.7359L4.58697 12.797L5.97032 12.0914L8.74862 10.6681L7.79535 10.0035L6.46433 9.07608L7.90584 8.3296L17.2116 3.51247C15.6355 2.52034 13.8115 1.99662 11.9509 2.00199C6.45809 2.00199 2.00537 6.46919 2.00537 11.9807C2.00537 14.5409 2.97026 16.8795 4.55126 18.6466L7.78373 15.2289Z" fill="#091B26"/>
<path d="M3.79551 19.1461C2.04017 17.2157 0.970644 14.6497 0.970644 11.8387C0.970644 5.84938 5.82991 0.973885 11.7993 0.973885C14.0022 0.973885 16.147 1.64456 17.9548 2.90991L18.9196 2.40837C16.9438 0.898082 14.4731 0 11.7993 0C5.2952 0 0 5.31288 0 11.8387C0 14.9295 1.18578 17.7406 3.12131 19.8514L3.79551 19.1458V19.1461Z" fill="#091B26"/>
<path d="M20.4429 5.12724C22.053 7.02261 23.0295 9.48367 23.0295 12.1605C23.0295 18.1498 18.1702 23.0253 12.2008 23.0253C10.1781 23.0253 8.19601 22.4596 6.48714 21.3865L5.49316 21.8997C7.46364 23.2702 9.80601 23.9995 12.2008 23.9995C18.7049 23.9995 24.0001 18.6866 24.0001 12.1608C24.0001 9.20376 22.9132 6.49218 21.1172 4.41602L20.443 5.12753L20.4429 5.12724Z" fill="#091B26"/>
<path d="M6.47911 13.0079L9.30398 15.154L2.92188 21.9016L15.6105 15.3349L13.3204 13.7428L17.5461 11.5733L14.7212 9.42713L21.1033 2.68555L8.41474 9.25222L10.7048 10.8447L6.47911 13.0079Z" fill="#23BEE2"/>
</g>
<defs>
<clipPath id="clip0_531_51524">
<rect width="24" height="24" fill="white"/>
</clipPath>
</defs>
</svg>
