<svg width="24" height="24" viewBox="0 0 24 24" fill="none" xmlns="http://www.w3.org/2000/svg">
<g clip-path="url(#clip0_531_51122)">
<path d="M12 24C18.6274 24 24 18.6274 24 12C24 5.37258 18.6274 0 12 0C5.37258 0 0 5.37258 0 12C0 18.6274 5.37258 24 12 24Z" fill="#0093DD"/>
<path fill-rule="evenodd" clip-rule="evenodd" d="M10.1248 12.0004L14.0248 15.9754L16.4998 13.5004C16.9498 13.0504 17.6248 13.0504 17.9998 13.5004C18.4498 13.9504 18.4498 14.7004 17.9998 15.1504L14.7748 18.4504C14.3248 18.9004 13.6498 18.9004 13.1998 18.4504L8.5498 13.6504V16.5004C8.5498 17.1004 8.0248 17.6254 7.4248 17.6254C6.8248 17.6254 6.2998 17.1004 6.2998 16.5004V7.50039C6.2998 6.90039 6.8248 6.37539 7.4248 6.37539C8.0248 6.37539 8.5498 6.90039 8.5498 7.50039V10.3504L13.1998 5.55039C13.6498 5.10039 14.3248 5.10039 14.7748 5.55039L17.9998 8.85039C18.4498 9.30039 18.4498 10.0504 17.9998 10.5004C17.5498 10.9504 16.8748 10.9504 16.4998 10.5004L14.0248 7.95039L10.1248 12.0004ZM14.0248 10.8754C14.6248 10.8754 15.1498 11.4004 15.1498 12.0004C15.1498 12.6004 14.6248 13.1254 14.0248 13.1254C13.4248 13.1254 12.8998 12.6004 12.8998 12.0004C12.8998 11.4004 13.4248 10.8754 14.0248 10.8754Z" fill="white"/>
</g>
<defs>
<clipPath id="clip0_531_51122">
<rect width="24" height="24" fill="white"/>
</clipPath>
</defs>
</svg>
