<svg width="24" height="24" viewBox="0 0 24 24" fill="none" xmlns="http://www.w3.org/2000/svg">
<g clip-path="url(#clip0_531_51384)">
<path d="M3.79189 1.10542V6.62471C3.79194 6.76991 3.77794 6.9137 3.75071 7.04786C3.72348 7.18202 3.68354 7.30393 3.63318 7.40659C3.58282 7.50926 3.52302 7.59068 3.45721 7.6462C3.3914 7.70171 3.32086 7.73023 3.24964 7.73013H0.542244C0.471022 7.73023 0.400487 7.70171 0.334677 7.6462C0.268866 7.59068 0.20907 7.50926 0.158708 7.40659C0.108346 7.30393 0.0684067 7.18202 0.0411743 7.04786C0.0139418 6.9137 -5.00751e-05 6.76991 1.34655e-07 6.62471V1.10542C-5.00751e-05 0.960222 0.0139418 0.816431 0.0411743 0.682269C0.0684067 0.548108 0.108346 0.426207 0.158708 0.323539C0.20907 0.220871 0.268866 0.139452 0.334677 0.0839354C0.400487 0.0284193 0.471022 -0.000102083 0.542244 2.7453e-07H3.24964C3.32086 -0.000102083 3.3914 0.0284193 3.45721 0.0839354C3.52302 0.139452 3.58282 0.220871 3.63318 0.323539C3.68354 0.426207 3.72348 0.548108 3.75071 0.682269C3.77794 0.816431 3.79194 0.960222 3.79189 1.10542ZM7.55704 8.5086H4.84964C4.77842 8.50849 4.70789 8.53702 4.64207 8.59253C4.57626 8.64805 4.51647 8.72947 4.46611 8.83213C4.41574 8.9348 4.3758 9.0567 4.34857 9.19087C4.32134 9.32503 4.30735 9.46882 4.3074 9.61401V22.8946C4.30735 23.0398 4.32134 23.1836 4.34857 23.3177C4.3758 23.4519 4.41574 23.5738 4.46611 23.6765C4.51647 23.7791 4.57626 23.8605 4.64207 23.9161C4.70789 23.9716 4.77842 24.0001 4.84964 24H7.55704C7.62826 24.0001 7.6988 23.9716 7.76461 23.9161C7.83042 23.8605 7.89022 23.7791 7.94058 23.6765C7.99094 23.5738 8.03088 23.4519 8.05811 23.3177C8.08534 23.1836 8.09933 23.0398 8.09928 22.8946V9.61401C8.09933 9.46882 8.08534 9.32503 8.05811 9.19087C8.03088 9.0567 7.99094 8.9348 7.94058 8.83213C7.89022 8.72947 7.83042 8.64805 7.76461 8.59253C7.6988 8.53702 7.62826 8.50849 7.55704 8.5086ZM15.622 8.5086H13.579C13.3879 8.5087 13.1987 8.43205 13.0222 8.28303C12.8456 8.13402 12.6852 7.91555 12.5501 7.64012C12.415 7.36468 12.3078 7.03768 12.2347 6.67779C12.1617 6.3179 12.1241 5.93218 12.1241 5.54265V1.10542C12.1242 0.960222 12.1102 0.816431 12.0829 0.682269C12.0557 0.548108 12.0158 0.426207 11.9654 0.323539C11.915 0.220871 11.8552 0.139452 11.7894 0.0839354C11.7236 0.0284193 11.6531 -0.000102083 11.5819 2.7453e-07H8.87446C8.80324 -0.000102083 8.73271 0.0284193 8.6669 0.0839354C8.60109 0.139452 8.54129 0.220871 8.49093 0.323539C8.44057 0.426207 8.40063 0.548108 8.37339 0.682269C8.34616 0.816431 8.33217 0.960222 8.33222 1.10542V6.62471C8.33217 6.76991 8.34616 6.9137 8.37339 7.04786C8.40063 7.18202 8.44057 7.30393 8.49093 7.40659C8.54129 7.50926 8.60109 7.59068 8.6669 7.6462C8.73271 7.70171 8.80324 7.73023 8.87446 7.73013H9.8673C9.92171 7.71461 9.97657 7.70681 10.0315 7.70678H10.9174C11.1085 7.70668 11.2977 7.78332 11.4742 7.93234C11.6508 8.08136 11.8112 8.29982 11.9463 8.57526C12.0814 8.85069 12.1886 9.17769 12.2617 9.53758C12.3348 9.89747 12.3724 10.2832 12.3723 10.6727V22.8868C12.3723 23.032 12.3863 23.1758 12.4135 23.3099C12.4407 23.4441 12.4807 23.566 12.531 23.6687C12.5814 23.7713 12.6412 23.8528 12.707 23.9083C12.7728 23.9638 12.8433 23.9923 12.9146 23.9922H15.622C15.6932 23.9923 15.7637 23.9638 15.8295 23.9083C15.8953 23.8528 15.9551 23.7713 16.0055 23.6687C16.0559 23.566 16.0958 23.4441 16.123 23.3099C16.1503 23.1758 16.1643 23.032 16.1642 22.8868V9.61401C16.1643 9.46882 16.1503 9.32503 16.123 9.19087C16.0958 9.0567 16.0559 8.9348 16.0055 8.83213C15.9551 8.72947 15.8953 8.64805 15.8295 8.59253C15.7637 8.53702 15.6932 8.50849 15.622 8.5086ZM23.4616 8.5086H21.4186C21.2275 8.5087 21.0383 8.43205 20.8618 8.28303C20.6853 8.13402 20.5249 7.91555 20.3897 7.64012C20.2546 7.36468 20.1475 7.03768 20.0744 6.67779C20.0013 6.3179 19.9637 5.93218 19.9637 5.54265V1.10542C19.9638 0.960222 19.9498 0.816431 19.9226 0.682269C19.8953 0.548108 19.8554 0.426207 19.805 0.323539C19.7547 0.220871 19.6949 0.139452 19.629 0.0839354C19.5632 0.0284193 19.4927 -0.000102083 19.4215 2.7453e-07H16.7103C16.639 -0.000102083 16.5685 0.0284193 16.5027 0.0839354C16.4369 0.139452 16.3771 0.220871 16.3267 0.323539C16.2764 0.426207 16.2364 0.548108 16.2092 0.682269C16.182 0.816431 16.168 0.960222 16.168 1.10542V6.62471C16.168 6.76991 16.182 6.9137 16.2092 7.04786C16.2364 7.18202 16.2764 7.30393 16.3267 7.40659C16.3771 7.50926 16.4369 7.59068 16.5027 7.6462C16.5685 7.70171 16.639 7.73023 16.7103 7.73013H17.7031C17.7575 7.71461 17.8124 7.70681 17.8673 7.70678H18.7532C18.9443 7.70668 19.1335 7.78332 19.31 7.93234C19.4866 8.08136 19.647 8.29982 19.7821 8.57526C19.9172 8.85069 20.0244 9.17769 20.0975 9.53758C20.1706 9.89747 20.2082 10.2832 20.2081 10.6727V22.8868C20.2081 23.032 20.2221 23.1758 20.2493 23.3099C20.2765 23.4441 20.3165 23.566 20.3668 23.6687C20.4172 23.7713 20.477 23.8528 20.5428 23.9083C20.6086 23.9638 20.6791 23.9923 20.7504 23.9922H23.4578C23.529 23.9923 23.5995 23.9638 23.6653 23.9083C23.7311 23.8528 23.7909 23.7713 23.8413 23.6687C23.8917 23.566 23.9316 23.4441 23.9588 23.3099C23.9861 23.1758 24.0001 23.032 24 22.8868V9.61401C24.001 9.46893 23.9878 9.32489 23.9612 9.19035C23.9345 9.05581 23.895 8.93347 23.8448 8.8305C23.7947 8.72754 23.7349 8.64603 23.6691 8.59076C23.6033 8.53548 23.5328 8.50754 23.4616 8.5086Z" fill="#231F20"/>
</g>
<defs>
<clipPath id="clip0_531_51384">
<rect width="24" height="24" fill="white"/>
</clipPath>
</defs>
</svg>
