<svg width="24" height="24" viewBox="0 0 24 24" fill="none" xmlns="http://www.w3.org/2000/svg">
<g clip-path="url(#clip0_531_43363)">
<path d="M15.5028 24C13.1708 24 11.4687 23.5875 10.3964 22.7625C9.40314 22.0641 8.82672 21.1054 8.79318 20.0958C8.78111 19.7891 8.8779 19.4854 9.07403 19.2145C9.25698 18.9804 9.52125 18.7861 9.83986 18.6516C10.2102 18.516 10.6184 18.4454 11.0322 18.4454C11.446 18.4454 11.8542 18.516 12.2245 18.6516C12.5426 18.7856 12.8056 18.98 12.9861 19.2145C13.1879 19.4841 13.2883 19.7883 13.277 20.0958C13.2978 20.4631 13.1543 20.8253 12.8685 21.1271C12.6302 21.3734 12.2897 21.5564 11.8979 21.6487C12.2811 22.0069 12.8232 22.2551 13.4298 22.35C14.1085 22.4947 14.8115 22.5692 15.5182 22.5712C16.454 22.5771 17.3704 22.3759 18.1481 21.9937C18.9548 21.5751 19.5564 20.9768 19.8637 20.2875C20.2533 19.467 20.4435 18.6026 20.4254 17.7338C20.4569 16.828 20.2488 15.9263 19.8127 15.0787C19.4846 14.4008 18.862 13.821 18.0408 13.4287C17.2775 13.074 16.3914 12.8878 15.4881 12.8925C14.701 12.9415 13.942 13.1307 13.277 13.4438L11.6374 14.0475V13.4438L19.0058 6.18456H8.79318V13.7175C8.76433 14.2611 8.96014 14.7984 9.35489 15.2588C9.54587 15.4594 9.80417 15.6203 10.1047 15.7261C10.4053 15.8319 10.738 15.8788 11.0706 15.8624C11.685 15.8533 12.2792 15.6995 12.7657 15.4237C13.3172 15.1269 13.797 14.7644 14.1854 14.3512C14.2203 14.2787 14.2848 14.2159 14.37 14.1713C14.4384 14.1279 14.5258 14.1039 14.6162 14.1038C14.7936 14.1157 14.9615 14.1681 15.0962 14.2537C15.2669 14.3938 15.3598 14.5758 15.3566 14.7637C15.3369 14.89 15.3062 15.0153 15.2647 15.1387C14.9019 15.7835 14.2938 16.338 13.5131 16.7357C12.788 17.096 11.9317 17.287 11.0562 17.2838C8.84508 17.2838 7.31329 16.9638 6.46082 16.3238C6.02265 15.97 5.68496 15.5557 5.46751 15.1049C5.25006 14.6542 5.15722 14.1761 5.19442 13.6987V6.18456H0V4.78493H5.21863V1.59367L4.02383 0.715631V0H7.49088L8.79318 0.495066V4.78493L22.2839 4.7548L23.627 5.74478L15.3547 11.8493C15.8545 11.7017 16.3808 11.6083 16.9172 11.5718C17.9788 11.606 19.0145 11.8231 19.9407 12.2057C21.0132 12.58 21.917 13.1724 22.5451 13.9125C23.1078 14.539 23.5061 15.2372 23.7196 15.9712C23.895 16.5502 23.9891 17.1409 24.0004 17.7339C24.0059 18.8658 23.6564 19.9834 22.9792 21.0001C22.3369 21.9846 21.2559 22.7785 19.9152 23.2502C18.5429 23.7468 17.0327 24.0034 15.5028 24Z" fill="#2C7DF7"/>
</g>
<defs>
<clipPath id="clip0_531_43363">
<rect width="24" height="24" fill="white"/>
</clipPath>
</defs>
</svg>
