<svg width="24" height="24" viewBox="0 0 24 24" fill="none" xmlns="http://www.w3.org/2000/svg">
<g clip-path="url(#clip0_531_51419)">
<path d="M6.41607 2.32479C6.03327 3.05541 5.20047 3.29622 4.55607 2.86221C3.91167 2.4282 3.69927 1.48398 4.08207 0.753365C4.46487 0.022753 5.29767 -0.218063 5.94207 0.21595C6.58647 0.649964 6.79887 1.59418 6.41607 2.32479Z" fill="#5F45BA"/>
<path d="M1.78308 1.64235C1.51308 2.158 0.923882 2.32807 0.469082 2.02194C0.014282 1.71582 -0.135718 1.04915 0.134282 0.532147C0.404282 0.01514 0.993482 -0.153567 1.44828 0.152555C1.90428 0.460038 2.05428 1.1267 1.78308 1.64235Z" fill="#5F45BA"/>
<path d="M14.6805 23.9141C19.6533 23.2515 23.6529 18.642 23.9793 12.7753C24.3465 6.17398 19.9233 0.485547 14.1009 0.0705813C13.4181 0.0216017 12.7329 0.0488126 12.0549 0.149493C10.6557 0.278745 9.47373 0.884187 9.47373 0.884187C8.51613 1.4148 7.89813 2.30187 7.89813 3.48827C7.89813 5.03113 9.00093 6.28283 10.3617 6.28283C10.5897 6.28283 11.3769 5.99983 11.5641 5.92636C12.2793 5.64337 13.0377 5.52636 13.7937 5.58215C15.8049 5.72636 17.5053 7.03793 18.4161 8.89779C18.9441 9.97534 19.1877 11.2012 19.1181 12.4311C18.9201 15.9889 16.2165 18.6923 13.0773 18.4679C11.2233 18.3345 9.63333 17.2094 8.68173 15.5781C7.54413 13.891 7.80693 11.193 7.80573 11.159C7.75893 9.65834 6.67533 8.45834 5.34093 8.45834C4.20093 8.45834 3.24453 9.33589 2.96013 10.5264C2.90493 10.7604 2.87613 11.4461 2.88453 11.5372C2.64933 18.0243 7.02814 23.5658 12.7713 23.9753C13.4085 24.0202 14.0469 23.9998 14.6805 23.9141Z" fill="#5F45BA"/>
<path d="M5.00255 6.59693C4.50575 7.54523 3.42575 7.85679 2.59055 7.29353C1.75535 6.73026 1.47935 5.50577 1.97615 4.55884C2.47295 3.6119 3.55295 3.29897 4.38815 3.86224C5.22335 4.4255 5.49815 5.64999 5.00255 6.59693Z" fill="#5F45BA"/>
</g>
<defs>
<clipPath id="clip0_531_51419">
<rect width="24" height="24" fill="white"/>
</clipPath>
</defs>
</svg>
