<svg width="24" height="24" viewBox="0 0 24 24" fill="none" xmlns="http://www.w3.org/2000/svg">
<g clip-path="url(#clip0_531_51213)">
<path d="M17.8529 8.98438H6.01635C2.74659 8.98438 0.13079 11.5418 0 14.8204C0 14.886 0.0653951 14.9516 0.13079 14.9516H11.9673C15.2371 14.9516 17.8529 12.3942 17.9837 9.11552C17.9837 9.04995 17.9183 8.98438 17.8529 8.98438Z" fill="#E62058"/>
<path d="M23.8038 0H6.01635C2.74659 0 0.13079 2.55738 0 5.83607C0 5.90164 0.0653951 6.03279 0.13079 6.03279H17.9837C21.2534 6.03279 23.8692 3.47541 24 0.196721C24 0.0655738 23.9346 0 23.8038 0Z" fill="#E62058"/>
<path d="M3.00817 23.9996C4.66954 23.9996 6.01635 22.6491 6.01635 20.9832C6.01635 19.3173 4.66954 17.9668 3.00817 17.9668C1.34681 17.9668 0 19.3173 0 20.9832C0 22.6491 1.34681 23.9996 3.00817 23.9996Z" fill="#E62058"/>
</g>
<defs>
<clipPath id="clip0_531_51213">
<rect width="24" height="24" fill="white"/>
</clipPath>
</defs>
</svg>
