<svg width="24" height="24" viewBox="0 0 24 24" fill="none" xmlns="http://www.w3.org/2000/svg">
<g clip-path="url(#clip0_531_51250)">
<path d="M6.78458 0.00151788C12.5222 -0.000505959 18.2601 -0.000505959 23.9984 0.00151788C24.0002 2.13418 24.0002 4.26648 23.9984 6.39841C18.2607 6.40043 12.5227 6.40043 6.78458 6.39841C6.78274 4.26574 6.78274 2.13345 6.78458 0.00151788Z" fill="#02A6C2"/>
<path d="M0.00719989 8.80515C1.85829 8.79412 3.7097 8.79412 5.56144 8.80515C5.57104 10.9338 5.57104 13.0628 5.56144 15.1921C3.70978 15.2031 1.85837 15.2032 0.00719989 15.1927C-0.00239996 13.0637 -0.00239996 10.9345 0.00719989 8.80515Z" fill="#5FCADE"/>
<path d="M6.78919 8.80446C10.9305 8.79435 15.0715 8.79435 19.2122 8.80446C19.221 10.9331 19.221 13.0621 19.2122 15.1914C15.071 15.2014 10.93 15.2014 6.78919 15.1914C6.78055 13.0627 6.78055 10.9337 6.78919 8.80446Z" fill="#5FCADE"/>
<path d="M6.79445 17.6111C8.64242 17.588 10.4901 17.588 12.3374 17.6111C12.3566 19.7347 12.3569 21.8594 12.3382 23.9851C10.4903 24.006 8.64266 24.0057 6.79541 23.9839C6.77621 21.8605 6.77589 19.7362 6.79445 17.6111Z" fill="#ABEBF4"/>
</g>
<defs>
<clipPath id="clip0_531_51250">
<rect width="24" height="24" fill="white"/>
</clipPath>
</defs>
</svg>
