<svg width="24" height="24" viewBox="0 0 24 24" fill="none" xmlns="http://www.w3.org/2000/svg">
<g clip-path="url(#clip0_531_51330)">
<path d="M12 24C18.6274 24 24 18.6274 24 12C24 5.37258 18.6274 0 12 0C5.37258 0 0 5.37258 0 12C0 18.6274 5.37258 24 12 24Z" fill="#000625"/>
<path d="M16.3148 7.69896C17.4172 7.69896 18.3108 6.80534 18.3108 5.70299C18.3108 4.60065 17.4172 3.70703 16.3148 3.70703C15.2125 3.70703 14.3188 4.60065 14.3188 5.70299C14.3188 6.80534 15.2125 7.69896 16.3148 7.69896Z" fill="#08D8D5"/>
<path d="M16.3148 20.2927C17.4172 20.2927 18.3108 19.3991 18.3108 18.2967C18.3108 17.1944 17.4172 16.3008 16.3148 16.3008C15.2125 16.3008 14.3188 17.1944 14.3188 18.2967C14.3188 19.3991 15.2125 20.2927 16.3148 20.2927Z" fill="#FF4B8B"/>
<path d="M16.3079 11.9993C16.3079 10.8568 15.854 9.76106 15.0462 8.95317C14.2383 8.14528 13.1425 7.69141 12 7.69141V16.3073C12.5657 16.3073 13.1259 16.1958 13.6486 15.9793C14.1712 15.7628 14.6461 15.4455 15.0462 15.0455C15.4462 14.6455 15.7635 14.1706 15.98 13.6479C16.1965 13.1252 16.3079 12.5651 16.3079 11.9993Z" fill="white"/>
<path d="M7.69213 11.9996C7.69213 10.857 8.146 9.7613 8.9539 8.95341C9.76179 8.14552 10.8575 7.69165 12.0001 7.69164V3.80859C9.82767 3.80859 7.74427 4.67157 6.20816 6.20767C4.67206 7.74378 3.80908 9.82718 3.80908 11.9996C3.80908 14.1719 4.67206 16.2554 6.20816 17.7915C7.74427 19.3276 9.82767 20.1905 12.0001 20.1905V16.3075C11.4343 16.3075 10.8741 16.1961 10.3515 15.9796C9.82882 15.7631 9.35392 15.4458 8.95389 15.0457C8.55386 14.6457 8.23654 14.1708 8.02005 13.6481C7.80356 13.1255 7.69213 12.5653 7.69213 11.9996Z" fill="white"/>
</g>
<defs>
<clipPath id="clip0_531_51330">
<rect width="24" height="24" fill="white"/>
</clipPath>
</defs>
</svg>
