<svg width="24" height="24" viewBox="0 0 24 24" fill="none" xmlns="http://www.w3.org/2000/svg">
<g clip-path="url(#clip0_531_51402)">
<path d="M18.2131 24.0003L1.81512 10.9549C1.25591 10.5109 0.79937 9.92073 0.484168 9.23434C0.168967 8.54796 0.00439453 7.78558 0.00439453 7.0118C0.00439453 6.23802 0.168967 5.47565 0.484168 4.78926C0.79937 4.10287 1.25591 3.5127 1.81512 3.06875L5.78712 -0.0761719L22.1851 12.971C22.744 13.4152 23.2003 14.0054 23.5153 14.6918C23.8303 15.3782 23.9947 16.1404 23.9947 16.9141C23.9947 17.6877 23.8303 18.4499 23.5153 19.1363C23.2003 19.8227 22.744 20.4129 22.1851 20.8571L18.2131 24.0003ZM5.78562 2.02158L2.68962 4.47631C2.32972 4.76172 2.03586 5.14129 1.83297 5.58283C1.63008 6.02436 1.52415 6.51483 1.52415 7.01265C1.52415 7.51047 1.63008 8.00094 1.83297 8.44248C2.03586 8.88401 2.32972 9.26358 2.68962 9.54899L18.2176 21.9026L21.3136 19.4495C21.6732 19.1639 21.9668 18.7842 22.1695 18.3427C22.3722 17.9012 22.478 17.4109 22.478 16.9132C22.478 16.4155 22.3722 15.9252 22.1695 15.4837C21.9668 15.0422 21.6732 14.6625 21.3136 14.3769L5.78562 2.02158Z" fill="#4BC0C8"/>
<path d="M5.77065 21.8912L2.67915 19.4314C2.31955 19.1457 2.02598 18.7661 1.8233 18.3246C1.62062 17.8831 1.5148 17.3927 1.5148 16.8951C1.5148 16.3974 1.62062 15.907 1.8233 15.4655C2.02598 15.024 2.31955 14.6444 2.67915 14.3587L10.6817 8.01788L9.36165 6.9707L1.81365 12.9512C1.25445 13.3951 0.797905 13.9853 0.482703 14.6717C0.167502 15.3581 0.00292969 16.1204 0.00292969 16.8942C0.00292969 17.668 0.167502 18.4304 0.482703 19.1167C0.797905 19.8031 1.25445 20.3933 1.81365 20.8373L5.77515 23.989L10.6757 20.1029L9.35565 19.0523L5.77065 21.8912Z" fill="#02819B"/>
<path d="M22.1924 3.08727L18.2294 -0.0644531L13.3244 3.82505L14.6444 4.87562L18.2279 2.04009L21.3209 4.49993C21.6805 4.78558 21.9741 5.16523 22.1768 5.60674C22.3794 6.04824 22.4853 6.53859 22.4853 7.03627C22.4853 7.53395 22.3794 8.0243 22.1768 8.4658C21.9741 8.90731 21.6805 9.28696 21.3209 9.57261L13.3169 15.9083L14.6369 16.9589L22.1864 10.9734C22.7456 10.5294 23.2021 9.93925 23.5173 9.25286C23.8325 8.56648 23.9971 7.8041 23.9971 7.03032C23.9971 6.25654 23.8325 5.49416 23.5173 4.80778C23.2021 4.12139 22.7456 3.53122 22.1864 3.08727H22.1924Z" fill="#02819B"/>
<path d="M8.99341 7.2523L2.75732 12.1973L3.62672 13.6055L9.86281 8.66049L8.99341 7.2523Z" fill="#02819B"/>
<path d="M20.5141 10.1992L17.4766 12.6098L18.3451 14.0173L21.4951 11.5167C21.1651 11.0849 20.8396 10.6429 20.5141 10.1992Z" fill="#02819B"/>
</g>
<defs>
<clipPath id="clip0_531_51402">
<rect width="24" height="24" fill="white"/>
</clipPath>
</defs>
</svg>
