<svg width="24" height="24" viewBox="0 0 24 24" fill="none" xmlns="http://www.w3.org/2000/svg">
<g clip-path="url(#clip0_531_51637)">
<path d="M24 0H0V24H24V0Z" fill="black"/>
<path fill-rule="evenodd" clip-rule="evenodd" d="M3.05304 19.9196H6.67224L9.99384 7.33398L2.90904 19.67C2.81304 19.766 2.90904 19.9196 3.06264 19.9196H3.05304Z" fill="url(#paint0_linear_531_51637)"/>
<path fill-rule="evenodd" clip-rule="evenodd" d="M19.3056 16.5977L6.62402 19.9193H20.9472C21.1008 19.9193 21.1968 19.7657 21.1008 19.6697L19.3152 16.5977H19.3056Z" fill="url(#paint1_linear_531_51637)"/>
<path fill-rule="evenodd" clip-rule="evenodd" d="M17.3762 14.668L19.3058 16.5976L12.077 4.15598C12.029 4.05998 11.8274 4.05998 11.7794 4.15598L9.9458 7.32398L17.3762 14.6584V14.668Z" fill="url(#paint2_linear_531_51637)"/>
<path fill-rule="evenodd" clip-rule="evenodd" d="M9.25442 19.218V10.002L6.62402 19.9188L9.25442 19.218Z" fill="url(#paint3_linear_531_51637)"/>
<path fill-rule="evenodd" clip-rule="evenodd" d="M9.25439 10.0026L17.376 14.6682L9.94559 7.32422L9.25439 10.0026Z" fill="url(#paint4_linear_531_51637)"/>
<path fill-rule="evenodd" clip-rule="evenodd" d="M9.25439 19.2184L19.3056 16.5976L17.376 14.668L9.25439 19.2184Z" fill="url(#paint5_linear_531_51637)"/>
<path fill-rule="evenodd" clip-rule="evenodd" d="M9.25439 19.219L10.9824 18.2302L9.25439 11.9902V19.219Z" fill="url(#paint6_linear_531_51637)"/>
<path fill-rule="evenodd" clip-rule="evenodd" d="M17.376 14.6683L15.6384 13.6699L10.9824 18.2299L17.376 14.6683Z" fill="url(#paint7_linear_531_51637)"/>
<path fill-rule="evenodd" clip-rule="evenodd" d="M9.25439 10.0117V11.9893L15.7056 13.7077L9.25439 10.0117Z" fill="url(#paint8_linear_531_51637)"/>
<path fill-rule="evenodd" clip-rule="evenodd" d="M9.64799 13.3246H13.3152H14.304L9.25439 11.9902L9.64799 13.3246Z" fill="url(#paint9_linear_531_51637)"/>
<path fill-rule="evenodd" clip-rule="evenodd" d="M9.6001 13.3242L10.9825 18.2298L11.9713 17.289L10.1377 14.169L9.6001 13.3242Z" fill="url(#paint10_linear_531_51637)"/>
<path fill-rule="evenodd" clip-rule="evenodd" d="M14.304 13.3242L11.9712 17.289L15.6384 13.6698L14.304 13.3242Z" fill="url(#paint11_linear_531_51637)"/>
<path fill-rule="evenodd" clip-rule="evenodd" d="M13.3153 13.3242H9.6001L10.1377 14.217L13.3153 13.3242Z" fill="url(#paint12_linear_531_51637)"/>
<path fill-rule="evenodd" clip-rule="evenodd" d="M12.4705 16.492L10.1377 14.2168L11.9713 17.3368L12.4705 16.492Z" fill="url(#paint13_linear_531_51637)"/>
<path fill-rule="evenodd" clip-rule="evenodd" d="M14.3043 13.3242H13.3155L12.4707 16.4442L14.3043 13.3242Z" fill="url(#paint14_linear_531_51637)"/>
<path fill-rule="evenodd" clip-rule="evenodd" d="M3.05288 19.9194H6.67208L9.94568 7.32422L2.89928 19.6698C2.80328 19.7658 2.89928 19.9194 3.05288 19.9194Z" fill="url(#paint15_linear_531_51637)"/>
<path fill-rule="evenodd" clip-rule="evenodd" d="M19.3056 16.5977L6.62402 19.9193H20.9472C21.1008 19.9193 21.1968 19.7657 21.1008 19.6697L19.3152 16.5977H19.3056Z" fill="url(#paint16_linear_531_51637)"/>
<path fill-rule="evenodd" clip-rule="evenodd" d="M17.3762 14.668L19.3058 16.5976L12.077 4.15598C12.029 4.05998 11.8274 4.05998 11.7794 4.15598L9.9458 7.32398L17.3762 14.6584V14.668Z" fill="url(#paint17_linear_531_51637)"/>
<path fill-rule="evenodd" clip-rule="evenodd" d="M9.25442 19.218V10.002L6.62402 19.9188L9.25442 19.218Z" fill="url(#paint18_linear_531_51637)"/>
<path fill-rule="evenodd" clip-rule="evenodd" d="M9.25439 19.2184L19.3056 16.5976L17.376 14.668L9.25439 19.2184Z" fill="url(#paint19_linear_531_51637)"/>
<path fill-rule="evenodd" clip-rule="evenodd" d="M9.25439 19.219L10.9824 18.2302L9.25439 11.9902V19.219Z" fill="url(#paint20_linear_531_51637)"/>
<path fill-rule="evenodd" clip-rule="evenodd" d="M17.376 14.6683L15.6384 13.6699L10.9824 18.2299L17.376 14.6683Z" fill="url(#paint21_linear_531_51637)"/>
<path fill-rule="evenodd" clip-rule="evenodd" d="M9.6001 13.3242L10.9825 18.2298L11.9713 17.289L10.1377 14.169L9.6001 13.3242Z" fill="url(#paint22_linear_531_51637)"/>
<path fill-rule="evenodd" clip-rule="evenodd" d="M14.304 13.3242L11.9712 17.289L15.6384 13.6698L14.304 13.3242Z" fill="url(#paint23_linear_531_51637)"/>
<path fill-rule="evenodd" clip-rule="evenodd" d="M12.4705 16.492L10.1377 14.2168L11.9713 17.2888L12.4705 16.492Z" fill="url(#paint24_linear_531_51637)"/>
<path fill-rule="evenodd" clip-rule="evenodd" d="M14.3043 13.3242H13.3155L12.4707 16.4442L14.3043 13.3242Z" fill="url(#paint25_linear_531_51637)"/>
</g>
<defs>
<linearGradient id="paint0_linear_531_51637" x1="7.08303" y1="19.8622" x2="5.83412" y2="7.74778" gradientUnits="userSpaceOnUse">
<stop stop-color="#C3C4C3"/>
<stop offset="0.0901961" stop-color="#D8D8D8"/>
<stop offset="0.2118" stop-color="#E9EAE9"/>
<stop offset="0.349" stop-color="#F6F6F6"/>
<stop offset="0.549" stop-color="#FDFDFD"/>
<stop offset="1" stop-color="white"/>
</linearGradient>
<linearGradient id="paint1_linear_531_51637" x1="18.6766" y1="16.578" x2="18.1103" y2="24.0184" gradientUnits="userSpaceOnUse">
<stop stop-color="#C3C4C3"/>
<stop offset="0.0901961" stop-color="#D8D8D8"/>
<stop offset="0.2118" stop-color="#E9EAE9"/>
<stop offset="0.349" stop-color="#F6F6F6"/>
<stop offset="0.549" stop-color="#FDFDFD"/>
<stop offset="1" stop-color="white"/>
</linearGradient>
<linearGradient id="paint2_linear_531_51637" x1="9.93934" y1="7.74603" x2="21.5778" y2="10.7077" gradientUnits="userSpaceOnUse">
<stop stop-color="#C3C4C3"/>
<stop offset="0.0901961" stop-color="#D8D8D8"/>
<stop offset="0.2118" stop-color="#E9EAE9"/>
<stop offset="0.349" stop-color="#F6F6F6"/>
<stop offset="0.549" stop-color="#FDFDFD"/>
<stop offset="1" stop-color="white"/>
</linearGradient>
<linearGradient id="paint3_linear_531_51637" x1="8.43651" y1="19.7276" x2="3.34009" y2="16.2904" gradientUnits="userSpaceOnUse">
<stop stop-color="#B7B8B8"/>
<stop offset="0.1098" stop-color="#C9CACA"/>
<stop offset="0.302" stop-color="#E1E1E1"/>
<stop offset="0.502" stop-color="#F2F2F2"/>
<stop offset="0.7294" stop-color="#FCFCFC"/>
<stop offset="1" stop-color="white"/>
</linearGradient>
<linearGradient id="paint4_linear_531_51637" x1="9.20671" y1="9.01078" x2="18.1364" y2="12.9913" gradientUnits="userSpaceOnUse">
<stop stop-color="#B7B8B8"/>
<stop offset="0.1098" stop-color="#C9CACA"/>
<stop offset="0.302" stop-color="#E1E1E1"/>
<stop offset="0.502" stop-color="#F2F2F2"/>
<stop offset="0.7294" stop-color="#FCFCFC"/>
<stop offset="1" stop-color="white"/>
</linearGradient>
<linearGradient id="paint5_linear_531_51637" x1="18.1765" y1="15.0571" x2="16.1269" y2="22.3734" gradientUnits="userSpaceOnUse">
<stop stop-color="#B7B8B8"/>
<stop offset="0.1098" stop-color="#C9CACA"/>
<stop offset="0.302" stop-color="#E1E1E1"/>
<stop offset="0.502" stop-color="#F2F2F2"/>
<stop offset="0.7294" stop-color="#FCFCFC"/>
<stop offset="1" stop-color="white"/>
</linearGradient>
<linearGradient id="paint6_linear_531_51637" x1="10.1643" y1="19.0487" x2="7.01993" y2="17.7794" gradientUnits="userSpaceOnUse">
<stop stop-color="#B7B8B8"/>
<stop offset="0.2118" stop-color="#CECECE"/>
<stop offset="0.5216" stop-color="#E9E9E9"/>
<stop offset="0.7882" stop-color="#F9F9F9"/>
<stop offset="1" stop-color="white"/>
</linearGradient>
<linearGradient id="paint7_linear_531_51637" x1="16.586" y1="13.9359" x2="13.6703" y2="19.9216" gradientUnits="userSpaceOnUse">
<stop stop-color="#B7B8B8"/>
<stop offset="0.2118" stop-color="#CECECE"/>
<stop offset="0.5216" stop-color="#E9E9E9"/>
<stop offset="0.7882" stop-color="#F9F9F9"/>
<stop offset="1" stop-color="white"/>
</linearGradient>
<linearGradient id="paint8_linear_531_51637" x1="8.98949" y1="10.975" x2="15.9207" y2="12.7318" gradientUnits="userSpaceOnUse">
<stop stop-color="#B7B8B8"/>
<stop offset="0.2118" stop-color="#CECECE"/>
<stop offset="0.5216" stop-color="#E9E9E9"/>
<stop offset="0.7882" stop-color="#F9F9F9"/>
<stop offset="1" stop-color="white"/>
</linearGradient>
<linearGradient id="paint9_linear_531_51637" x1="9.18694" y1="12.6367" x2="14.3325" y2="13.0399" gradientUnits="userSpaceOnUse">
<stop stop-color="#ABACAC"/>
<stop offset="0.1804" stop-color="#BDBDBD"/>
<stop offset="0.7294" stop-color="#EDEDED"/>
<stop offset="1" stop-color="white"/>
</linearGradient>
<linearGradient id="paint10_linear_531_51637" x1="11.5735" y1="17.98" x2="8.15103" y2="16.1495" gradientUnits="userSpaceOnUse">
<stop stop-color="#ABACAC"/>
<stop offset="0.1804" stop-color="#BDBDBD"/>
<stop offset="0.7294" stop-color="#EDEDED"/>
<stop offset="1" stop-color="white"/>
</linearGradient>
<linearGradient id="paint11_linear_531_51637" x1="15.0899" y1="13.3193" x2="11.9885" y2="17.286" gradientUnits="userSpaceOnUse">
<stop stop-color="#ABACAC"/>
<stop offset="0.1804" stop-color="#BDBDBD"/>
<stop offset="0.7294" stop-color="#EDEDED"/>
<stop offset="1" stop-color="white"/>
</linearGradient>
<linearGradient id="paint12_linear_531_51637" x1="9.84634" y1="13.9297" x2="13.0911" y2="12.7105" gradientUnits="userSpaceOnUse">
<stop stop-color="#9FA0A0"/>
<stop offset="0.1686" stop-color="#A5A6A6"/>
<stop offset="0.4" stop-color="#B6B6B6"/>
<stop offset="0.6588" stop-color="#D1D1D1"/>
<stop offset="0.9412" stop-color="#F6F6F6"/>
<stop offset="1" stop-color="white"/>
</linearGradient>
<linearGradient id="paint13_linear_531_51637" x1="12.3411" y1="16.864" x2="9.7395" y2="14.6656" gradientUnits="userSpaceOnUse">
<stop stop-color="#9FA0A0"/>
<stop offset="0.1686" stop-color="#A5A6A6"/>
<stop offset="0.4" stop-color="#B6B6B6"/>
<stop offset="0.6588" stop-color="#D1D1D1"/>
<stop offset="0.9412" stop-color="#F6F6F6"/>
<stop offset="1" stop-color="white"/>
</linearGradient>
<linearGradient id="paint14_linear_531_51637" x1="13.6704" y1="13.3177" x2="12.2094" y2="16.1118" gradientUnits="userSpaceOnUse">
<stop stop-color="#9FA0A0"/>
<stop offset="0.1686" stop-color="#A5A6A6"/>
<stop offset="0.4" stop-color="#B6B6B6"/>
<stop offset="0.6588" stop-color="#D1D1D1"/>
<stop offset="0.9412" stop-color="#F6F6F6"/>
<stop offset="1" stop-color="white"/>
</linearGradient>
<linearGradient id="paint15_linear_531_51637" x1="7.05415" y1="19.863" x2="5.80615" y2="7.74781" gradientUnits="userSpaceOnUse">
<stop stop-color="#C3C4C3"/>
<stop offset="0.0901961" stop-color="#D8D8D8"/>
<stop offset="0.2118" stop-color="#E9EAE9"/>
<stop offset="0.349" stop-color="#F6F6F6"/>
<stop offset="0.549" stop-color="#FDFDFD"/>
<stop offset="1" stop-color="white"/>
</linearGradient>
<linearGradient id="paint16_linear_531_51637" x1="18.6766" y1="16.578" x2="18.1103" y2="24.0184" gradientUnits="userSpaceOnUse">
<stop stop-color="#C3C4C3"/>
<stop offset="0.0901961" stop-color="#D8D8D8"/>
<stop offset="0.2118" stop-color="#E9EAE9"/>
<stop offset="0.349" stop-color="#F6F6F6"/>
<stop offset="0.549" stop-color="#FDFDFD"/>
<stop offset="1" stop-color="white"/>
</linearGradient>
<linearGradient id="paint17_linear_531_51637" x1="9.93934" y1="7.74603" x2="21.5778" y2="10.7077" gradientUnits="userSpaceOnUse">
<stop stop-color="#C3C4C3"/>
<stop offset="0.0901961" stop-color="#D8D8D8"/>
<stop offset="0.2118" stop-color="#E9EAE9"/>
<stop offset="0.349" stop-color="#F6F6F6"/>
<stop offset="0.549" stop-color="#FDFDFD"/>
<stop offset="1" stop-color="white"/>
</linearGradient>
<linearGradient id="paint18_linear_531_51637" x1="8.43651" y1="19.7276" x2="3.34009" y2="16.2904" gradientUnits="userSpaceOnUse">
<stop stop-color="#B7B8B8"/>
<stop offset="0.1098" stop-color="#C9CACA"/>
<stop offset="0.302" stop-color="#E1E1E1"/>
<stop offset="0.502" stop-color="#F2F2F2"/>
<stop offset="0.7294" stop-color="#FCFCFC"/>
<stop offset="1" stop-color="white"/>
</linearGradient>
<linearGradient id="paint19_linear_531_51637" x1="18.1765" y1="15.0571" x2="16.1269" y2="22.3734" gradientUnits="userSpaceOnUse">
<stop stop-color="#B7B8B8"/>
<stop offset="0.1098" stop-color="#C9CACA"/>
<stop offset="0.302" stop-color="#E1E1E1"/>
<stop offset="0.502" stop-color="#F2F2F2"/>
<stop offset="0.7294" stop-color="#FCFCFC"/>
<stop offset="1" stop-color="white"/>
</linearGradient>
<linearGradient id="paint20_linear_531_51637" x1="10.1643" y1="19.0487" x2="7.01993" y2="17.7794" gradientUnits="userSpaceOnUse">
<stop stop-color="#B7B8B8"/>
<stop offset="0.2118" stop-color="#CECECE"/>
<stop offset="0.5216" stop-color="#E9E9E9"/>
<stop offset="0.7882" stop-color="#F9F9F9"/>
<stop offset="1" stop-color="white"/>
</linearGradient>
<linearGradient id="paint21_linear_531_51637" x1="16.586" y1="13.9359" x2="13.6703" y2="19.9216" gradientUnits="userSpaceOnUse">
<stop stop-color="#B7B8B8"/>
<stop offset="0.2118" stop-color="#CECECE"/>
<stop offset="0.5216" stop-color="#E9E9E9"/>
<stop offset="0.7882" stop-color="#F9F9F9"/>
<stop offset="1" stop-color="white"/>
</linearGradient>
<linearGradient id="paint22_linear_531_51637" x1="11.5735" y1="17.98" x2="8.15103" y2="16.1495" gradientUnits="userSpaceOnUse">
<stop stop-color="#ABACAC"/>
<stop offset="0.1804" stop-color="#BDBDBD"/>
<stop offset="0.7294" stop-color="#EDEDED"/>
<stop offset="1" stop-color="white"/>
</linearGradient>
<linearGradient id="paint23_linear_531_51637" x1="15.0899" y1="13.3193" x2="11.9885" y2="17.286" gradientUnits="userSpaceOnUse">
<stop stop-color="#ABACAC"/>
<stop offset="0.1804" stop-color="#BDBDBD"/>
<stop offset="0.7294" stop-color="#EDEDED"/>
<stop offset="1" stop-color="white"/>
</linearGradient>
<linearGradient id="paint24_linear_531_51637" x1="12.3435" y1="16.823" x2="9.7419" y2="14.663" gradientUnits="userSpaceOnUse">
<stop stop-color="#9FA0A0"/>
<stop offset="0.1686" stop-color="#A5A6A6"/>
<stop offset="0.4" stop-color="#B6B6B6"/>
<stop offset="0.6588" stop-color="#D1D1D1"/>
<stop offset="0.9412" stop-color="#F6F6F6"/>
<stop offset="1" stop-color="white"/>
</linearGradient>
<linearGradient id="paint25_linear_531_51637" x1="13.6704" y1="13.3177" x2="12.2094" y2="16.1118" gradientUnits="userSpaceOnUse">
<stop stop-color="#9FA0A0"/>
<stop offset="0.1686" stop-color="#A5A6A6"/>
<stop offset="0.4" stop-color="#B6B6B6"/>
<stop offset="0.6588" stop-color="#D1D1D1"/>
<stop offset="0.9412" stop-color="#F6F6F6"/>
<stop offset="1" stop-color="white"/>
</linearGradient>
<clipPath id="clip0_531_51637">
<rect width="24" height="24" fill="white"/>
</clipPath>
</defs>
</svg>
