<svg width="24" height="24" viewBox="0 0 24 24" fill="none" xmlns="http://www.w3.org/2000/svg">
<g clip-path="url(#clip0_531_51126)">
<path d="M15.7638 7.38187C15.7638 3.93816 13.2002 0.971268 11.2366 -3.45783e-05C11.2366 -3.45783e-05 11.1002 -0.0530147 11.1002 0.0882657C10.9366 6.7461 5.72748 8.56509 2.83657 10.9845C-3.7907 16.6004 2.37294 22.7461 8.64566 23.8763C12.1638 24.5121 7.82748 22.7461 7.28203 19.0375C6.62748 14.5342 15.7638 11.1081 15.7638 7.38187Z" fill="#282E5B"/>
<path d="M19.2 9.65973C19.1728 9.64207 19.1182 9.64207 19.0637 9.65973C19.0637 9.65973 19.0637 9.65973 19.0364 9.67739C18.9273 10.5074 17.5091 12.3087 15.7364 13.9511C9.70912 19.5317 13.1455 22.216 15.0818 23.6641C16.2 24.5118 15.0818 23.6641 17.8909 22.7988C18.1091 22.7282 23.3455 20.9268 23.9182 16.8474C24.4909 12.8739 20.5909 10.3838 19.2 9.65973Z" fill="#059BDC"/>
</g>
<defs>
<clipPath id="clip0_531_51126">
<rect width="24" height="24" fill="white"/>
</clipPath>
</defs>
</svg>
