<svg width="24" height="24" viewBox="0 0 24 24" fill="none" xmlns="http://www.w3.org/2000/svg">
<g clip-path="url(#clip0_531_51463)">
<path d="M12 24C18.6274 24 24 18.6274 24 12C24 5.37258 18.6274 0 12 0C5.37258 0 0 5.37258 0 12C0 18.6274 5.37258 24 12 24Z" fill="#209CE9"/>
<path d="M17.62 19.5776H16.4533L12.0244 12.6798L7.52887 19.5776H6.37109L11.4111 11.762L6.81998 4.58203H8.00887L12.0444 10.8976L16.1644 4.58203H17.28L12.64 11.742L17.62 19.5776Z" fill="white"/>
<path d="M7.47754 11.3047H16.5509V12.158H7.47754V11.3047ZM7.47754 13.8647H16.5509V14.718H7.47754V13.8647Z" fill="white"/>
</g>
<defs>
<clipPath id="clip0_531_51463">
<rect width="24" height="24" fill="white"/>
</clipPath>
</defs>
</svg>
