<svg width="24" height="24" viewBox="0 0 24 24" fill="none" xmlns="http://www.w3.org/2000/svg">
<g clip-path="url(#clip0_531_51471)">
<path d="M7.95056 0.025439C7.9711 0.033989 7.98342 0.0510891 7.97931 0.0724643C7.97931 0.115215 7.97931 0.15369 7.97931 0.19644V15.2916C7.97931 15.3429 7.9752 15.3899 7.9752 15.4412C7.99574 15.4839 8.0327 15.4626 8.05734 15.4626C10.661 15.4626 13.2647 15.4626 15.8725 15.4668C15.9547 15.4668 15.9916 15.4455 15.9793 15.3557C15.9793 15.3258 15.9793 15.3001 15.9793 15.2702C15.9793 10.2428 15.9793 5.2196 15.9793 0.192165C15.9793 0.140865 15.9506 0.0724643 16.0122 0.033989C16.0327 0.0168889 16.0656 0.021164 16.082 0.0425391C16.082 0.0425391 16.082 0.0468141 16.0861 0.0468141C16.1066 0.0767393 16.1272 0.106664 16.1436 0.140865C16.4393 0.752193 16.7432 1.3678 17.0347 1.97913C17.277 2.49213 17.5235 3.00513 17.7658 3.51386C18.0368 4.07816 18.312 4.64674 18.583 5.21105C18.8294 5.71977 19.0717 6.23278 19.314 6.74151C19.5317 7.20321 19.7575 7.65636 19.9711 8.11806C20.0039 8.18646 20.0532 8.24204 20.0738 8.31472C20.0861 8.40022 20.0861 8.48999 20.082 8.57549V23.2816C20.082 23.3243 20.082 23.3628 20.082 23.4056C20.082 23.568 20.082 23.568 20.2339 23.5979C20.2545 23.6022 20.2709 23.6108 20.2873 23.6279C20.1846 23.6792 20.0779 23.6963 19.967 23.7219C19.4824 23.8416 18.9937 23.9186 18.4968 23.957C18.2668 23.9741 18.0368 23.9784 17.8068 23.9827C16.62 24.0041 15.429 23.9955 14.2421 23.9955C12.1805 23.9955 10.1148 23.9955 8.04912 23.9912C8.00806 23.9912 7.96288 24.0041 7.92181 23.9784C7.93413 23.9699 7.94645 23.957 7.96288 23.9528C8.0368 23.9357 8.11073 23.9314 8.18875 23.9357H15.7411C15.8068 23.9399 15.8766 23.9357 15.9423 23.9271C16.0039 23.8972 15.9793 23.8416 15.9834 23.7946C15.9834 22.0504 15.9834 20.3019 15.9834 18.5577V15.8259C15.9793 15.7704 15.9834 15.7148 15.9875 15.6592C15.9259 15.8601 15.8233 16.0482 15.7329 16.2406C15.4003 16.9631 15.0758 17.6898 14.7432 18.4166C14.5625 18.8142 14.3818 19.2075 14.2011 19.6051C14.1764 19.6606 14.1518 19.7205 14.0943 19.7504C14.0368 19.7675 13.9752 19.7718 13.9177 19.7675H10.0327C9.97931 19.7718 9.93003 19.7675 9.87664 19.7547C9.79861 19.729 9.77397 19.6564 9.74522 19.588C9.51935 19.0878 9.28937 18.5876 9.0635 18.0832C8.81709 17.5402 8.57068 17.0016 8.32428 16.4586C8.20518 16.2021 8.0943 15.9414 7.96288 15.672C7.96288 15.7447 7.96288 15.8046 7.96288 15.8644C7.96288 18.4893 7.96288 21.1099 7.96288 23.7347C7.96288 23.816 7.98342 23.9015 7.92592 23.9741C7.88485 23.9741 7.84789 23.9827 7.80682 23.9827C7.21956 23.9827 6.63229 23.9827 6.04502 23.9827C5.89307 23.9827 5.74522 23.9741 5.59327 23.9699C5.56452 23.9699 5.53578 23.9741 5.51524 23.9528C5.54399 23.9271 5.57684 23.9399 5.60559 23.9399C6.32428 23.9399 7.04296 23.9399 7.76165 23.9399C7.7904 23.9399 7.81504 23.9357 7.82325 23.9399C7.10867 23.9399 6.37767 23.9399 5.64255 23.9399C5.60148 23.9399 5.55631 23.9228 5.51524 23.957C5.33454 23.9656 5.14974 23.9399 4.96904 23.9186C4.61586 23.8844 4.27089 23.8074 3.92592 23.7476C3.9136 23.7433 3.90539 23.739 3.89307 23.7305C3.93413 23.6364 3.93003 23.5381 3.93003 23.4398C3.93003 18.5064 3.93003 13.573 3.93003 8.63962C3.92592 8.55412 3.93003 8.46434 3.93824 8.37884C3.95877 8.28907 3.99163 8.20357 4.0327 8.12661C4.2791 7.61789 4.52551 7.10916 4.76781 6.59616C5.66309 4.68522 6.58711 2.79138 7.49471 0.888994C7.6097 0.649593 7.72469 0.418741 7.83557 0.17934C7.852 0.140865 7.86432 0.0596392 7.93824 0.12804C7.93824 4.84767 7.93824 9.5673 7.93824 14.2869C7.93824 14.6546 7.93824 15.0222 7.93824 15.3942C7.93824 10.3454 7.93824 5.30082 7.93824 0.252015C7.93413 0.17079 7.90949 0.0981144 7.95056 0.025439Z" fill="#E85C50"/>
<path d="M3.96315 8.32424C3.96315 13.3944 3.96315 18.4646 3.96315 23.5305C3.96315 23.5733 3.96315 23.6117 3.96315 23.6545C3.96726 23.7143 3.9303 23.7229 3.88923 23.7272C3.30196 23.5861 2.73112 23.398 2.19724 23.1116C1.90155 22.9534 1.61408 22.7867 1.35946 22.5686C0.653091 21.9659 0.160279 21.2263 0.0535023 20.2558C0.0535023 20.2216 0.0535023 20.1917 0.0535023 20.1575C0.041182 20.1148 0.0370752 20.0677 0.0452888 20.0207C0.0452888 13.4414 0.0452888 6.86646 0.0452888 0.287191C0.041182 0.240166 0.0452888 0.197416 0.0535023 0.150391C0.110997 0.154666 0.123318 0.205966 0.139745 0.244441C0.357404 0.706144 0.575063 1.16357 0.796829 1.621C1.06377 2.17248 1.33071 2.71968 1.59354 3.27543C1.83995 3.78844 2.09046 4.30144 2.33276 4.81872C2.48471 5.14362 2.64488 5.46425 2.79683 5.78488C2.94057 6.07985 3.0843 6.37483 3.22393 6.67408C3.3882 7.03318 3.56069 7.38801 3.73728 7.73856C3.81531 7.88819 3.8728 8.04636 3.94673 8.20027C3.97137 8.23447 3.97547 8.28149 3.96315 8.32424Z" fill="#CF3339"/>
<path d="M20.2873 23.6273C20.2298 23.623 20.1764 23.6316 20.1231 23.6487C20.0779 23.6572 20.045 23.6444 20.045 23.5846C20.045 23.5546 20.045 23.529 20.045 23.4991V8.2757C20.0081 8.2073 20.0573 8.156 20.082 8.1047C20.4762 7.30527 20.8664 6.50156 21.2524 5.69358C21.2606 5.67648 21.273 5.65511 21.2853 5.63801C21.2894 5.62946 21.2935 5.62091 21.2976 5.61236C21.3058 5.59953 21.3099 5.58671 21.3181 5.57388C21.3263 5.56106 21.3263 5.55678 21.3305 5.54823C21.3428 5.52258 21.3551 5.49266 21.3674 5.46701C21.3715 5.45846 21.3797 5.44563 21.3838 5.43708C21.5892 5.03523 21.7781 4.62483 21.9752 4.21442C22.082 4.00067 22.1806 3.78692 22.2832 3.5689C22.3777 3.37652 22.468 3.18842 22.5584 2.99604C22.5666 2.98322 22.5707 2.97039 22.5789 2.96184C22.8828 2.34624 23.1703 1.72208 23.4742 1.11076C23.6015 0.858529 23.7247 0.602027 23.852 0.349801C23.8725 0.302775 23.889 0.2472 23.9547 0.234375C23.9793 0.285675 23.967 0.336976 23.967 0.388276C23.967 4.29565 23.967 8.20302 23.967 12.1061C23.967 14.7011 23.967 17.296 23.967 19.8909C23.9711 19.9422 23.9711 19.9893 23.9588 20.0406C23.9752 20.2201 23.9095 20.3826 23.8684 20.5493C23.737 21.0794 23.4578 21.5197 23.1128 21.9216C22.8541 22.2337 22.5543 22.5115 22.2216 22.7381C21.8027 23.0245 21.351 23.2597 20.8787 23.4392C20.6898 23.5076 20.4886 23.576 20.2873 23.6273Z" fill="#CF3339"/>
<path d="M3.96313 8.32254C3.95491 8.27979 3.94259 8.24132 3.91795 8.20712C3.80707 7.96344 3.68387 7.72832 3.57709 7.48464C3.47031 7.24951 3.3389 7.02721 3.24033 6.78781C3.14998 6.56551 3.02267 6.36458 2.93233 6.14656C2.81734 5.86868 2.65717 5.61645 2.55039 5.3343C2.50933 5.22315 2.43951 5.12482 2.39023 5.01795C2.3122 4.8555 2.2506 4.6845 2.16436 4.52632C1.99598 4.21852 1.86046 3.88934 1.7044 3.57726C1.60173 3.37206 1.49495 3.17114 1.4046 2.95738C1.30604 2.72653 1.17463 2.51278 1.08017 2.28193C0.965179 1.99978 0.805015 1.74328 0.690025 1.46113C0.636637 1.32433 0.550395 1.20035 0.4929 1.06355C0.361483 0.764297 0.193106 0.482145 0.0493685 0.178618V20.0062C0.0493685 20.0575 0.0493685 20.1045 0.0493685 20.1558C0.00830078 20.019 0.0206211 19.8779 0.0206211 19.7369C0.0165143 17.9841 0.0165143 16.2271 0.0206211 14.4743V0.396644C0.0247279 0.272669 0.0206211 0.148693 0.00830078 0.024717C0.0452618 0.011892 0.0863295 0.00761694 0.12329 0.016167C2.68181 0.016167 5.24444 0.016167 7.80296 0.016167H7.87278C7.95902 0.016167 7.92616 0.0631923 7.90152 0.101668L6.34506 3.32931C6.02062 4.00477 5.69618 4.67595 5.37586 5.3514C5.25676 5.59935 5.14588 5.85158 5.02678 6.09953C4.69824 6.78353 4.3697 7.46754 4.04115 8.15154L3.96313 8.32254Z" fill="#E33936"/>
<path d="M21.2856 5.66809C21.2815 5.70229 21.2692 5.73222 21.2528 5.75787C20.994 6.3008 20.7353 6.848 20.4684 7.38666C20.3411 7.64316 20.2179 7.89966 20.0906 8.16043C20.07 8.19463 20.0536 8.23311 20.0454 8.27586C20.0002 8.27586 19.9879 8.23311 19.9756 8.20318C19.9222 8.09631 19.8811 7.98516 19.8277 7.87828C19.7661 7.75003 19.6963 7.62178 19.6347 7.49353C19.5197 7.2584 19.4006 7.02328 19.2938 6.78388C19.183 6.53165 19.0433 6.29652 18.9366 6.04002C18.8216 5.76642 18.6696 5.51419 18.5587 5.24059C18.4971 5.09097 18.4109 4.94989 18.3411 4.80026C18.2302 4.56941 18.1111 4.33856 18.0084 4.10343C17.8893 3.83411 17.7415 3.57761 17.6306 3.304C17.569 3.15438 17.4786 3.0133 17.4129 2.86368C17.2897 2.57725 17.1337 2.30792 17.0146 2.01722C16.953 1.8676 16.8667 1.72652 16.7969 1.57689C16.5711 1.10237 16.3411 0.632113 16.1152 0.157585C16.0906 0.11911 16.0741 0.0763597 16.0659 0.0336095L16.0865 0.0207844C17.6429 0.0165094 19.1994 0.0207844 20.76 0.0207844C21.7949 0.0207844 22.8257 0.0207844 23.8606 0.0207844C23.9016 0.0207844 23.9468 0.00795931 23.9879 0.0336095C23.992 0.0678097 24.029 0.0977349 23.992 0.13621C23.877 0.277286 23.8236 0.452562 23.7456 0.610738C23.3513 1.40589 22.9694 2.2096 22.5834 3.0133C22.4848 3.2014 22.3904 3.39378 22.3041 3.58616C22.1973 3.79991 22.0947 4.01366 21.992 4.23169C21.7867 4.64209 21.5977 5.06532 21.3883 5.47144C21.3678 5.50137 21.3513 5.53557 21.339 5.56977C21.3226 5.58259 21.3267 5.60824 21.3144 5.62107C21.2938 5.62962 21.2979 5.65527 21.2856 5.66809Z" fill="#E33936"/>
<path d="M22.5747 3.00898C22.6363 2.78667 22.7513 2.58575 22.8581 2.38482C22.895 2.31642 22.9197 2.24375 22.9525 2.17107C23.0963 1.88037 23.2318 1.58967 23.3714 1.29896C23.4823 1.07239 23.585 0.841537 23.7 0.614961C23.778 0.465335 23.8437 0.315709 23.9176 0.161808C23.9341 0.127608 23.9464 0.101958 23.9874 0.127608C23.9874 0.931313 23.9874 1.73502 23.9874 2.53445C23.9874 8.25443 23.9874 13.9744 23.9874 19.6944C23.9874 19.8056 23.9957 19.9167 23.9669 20.0279C23.9669 19.9851 23.9628 19.9466 23.9628 19.9039V0.251583C23.9258 0.255858 23.9217 0.285784 23.9135 0.311434C23.8724 0.392659 23.8355 0.473885 23.7944 0.55511C23.4043 1.33744 23.0265 2.12404 22.6486 2.91492C22.6281 2.94912 22.6158 2.99188 22.5747 3.00898Z" fill="#E34C37"/>
<path d="M16.0615 0.0292708C16.0123 0.0378209 15.9794 0.0848462 15.9876 0.136146V0.140422C15.9876 0.174622 15.9876 0.204547 15.9876 0.238747C15.9876 5.25763 15.9876 10.2808 15.9876 15.2997C15.9876 15.4963 16.0082 15.4792 15.8151 15.4792C13.2525 15.4792 10.6858 15.4792 8.12314 15.4792C8.07386 15.4792 8.01226 15.5091 7.97119 15.445C8.01226 15.4621 8.05743 15.4664 8.0985 15.4621H15.8439C15.8603 15.4621 15.8767 15.4621 15.8932 15.4621C15.9507 15.4664 15.9753 15.445 15.9712 15.3852C15.9671 15.3467 15.9712 15.3125 15.9712 15.274V0.191722C15.9712 0.161797 15.9712 0.136146 15.9712 0.106221C15.963 0.0335459 15.9999 0.00789571 16.0615 0.0121707V0.0292708Z" fill="#E9654C"/>
<path d="M7.89733 0.106892C7.89733 0.072692 7.92608 0.0256667 7.85626 0.0342168C7.82341 0.0342168 7.79055 0.0342168 7.76181 0.0342168H0C0.0328542 -0.0128085 0.0821355 0.0128416 0.119097 0.0128416C0.665298 0.00856662 1.20739 0.0128416 1.74949 0.0128416C3.76181 0.0128416 5.77823 0.0128416 7.79055 0.0128416C7.83984 0.0128416 7.89322 -0.00425846 7.9425 0.0342168C7.9425 1.75705 7.9425 3.47989 7.9425 5.19845V15.4286C7.90554 15.4115 7.92197 15.3816 7.91786 15.3602C7.91786 15.3303 7.91786 15.3046 7.91786 15.2747C7.91786 10.2772 7.91786 5.2754 7.91786 0.273618C7.92197 0.213768 7.9425 0.153918 7.89733 0.106892Z" fill="#E7563D"/>
<path d="M16.0615 0.0290408C16.0615 0.0247658 16.0615 0.0162157 16.0615 0.0119407C16.1067 0.00766568 16.1478 0.00339066 16.1929 0.00339066C18.7474 0.00339066 21.2977 0.00339066 23.8521 0.00339066C23.8973 0.00339066 23.9465 -0.0179845 23.9835 0.0247658L16.0615 0.0290408Z" fill="#E85C50"/>
<path d="M15.9875 23.9693C15.9341 23.9693 15.8848 23.9693 15.8314 23.9693H8.09018C8.0409 23.9693 7.99572 23.9651 7.94644 23.9651C7.93823 23.9138 7.94644 23.8667 7.97108 23.8197C8.17642 23.3708 8.37765 22.922 8.58299 22.4731C8.98956 21.5882 9.38792 20.6989 9.79449 19.8183C9.80681 19.7841 9.82734 19.7499 9.85198 19.7285H14.0984C14.2011 19.9166 14.2832 20.1133 14.3694 20.3056C14.5337 20.6776 14.7062 21.0452 14.8746 21.4172C15.236 22.208 15.5974 23.0032 15.9547 23.7941C15.9875 23.8496 15.9998 23.9095 15.9875 23.9693Z" fill="#CF3339"/>
<path d="M9.85617 19.7287C9.83974 19.8014 9.8151 19.8698 9.77814 19.9382C9.58101 20.3657 9.37978 20.7932 9.18676 21.2207C9.05535 21.5114 8.92393 21.8021 8.79251 22.0928C8.64056 22.4305 8.48861 22.764 8.33255 23.0974C8.21756 23.3454 8.10668 23.5976 7.9958 23.8498C7.97937 23.8883 7.96705 23.9268 7.95062 23.9652L7.92188 23.9738C7.92188 23.9182 7.92188 23.8669 7.92188 23.8113V15.5605C7.95884 15.5862 7.98758 15.6247 7.9999 15.6674C8.07793 15.847 8.15596 16.0308 8.2381 16.2061C8.36541 16.484 8.49682 16.7576 8.62003 17.0312C8.83769 17.5185 9.05945 18.0016 9.28122 18.4847C9.41263 18.7711 9.53995 19.0618 9.67547 19.3482C9.73296 19.4765 9.77403 19.6133 9.85617 19.7287Z" fill="#E33937"/>
<path d="M15.9877 23.9692C15.959 23.8195 15.8769 23.6956 15.8235 23.5588C15.7537 23.3835 15.6715 23.2168 15.5894 23.0415C15.4046 22.6396 15.2157 22.2378 15.035 21.8359C14.8871 21.511 14.7393 21.1861 14.5914 20.8612C14.4313 20.5192 14.2834 20.1729 14.1274 19.8309C14.111 19.7967 14.0986 19.7625 14.0986 19.7241C14.3368 19.2025 14.5791 18.6809 14.8132 18.1551C14.9528 17.8473 15.0925 17.5438 15.2321 17.236C15.3882 16.894 15.5401 16.5563 15.6962 16.2185C15.7783 16.039 15.8563 15.8594 15.9344 15.6799C15.9467 15.6371 15.9713 15.5944 16.0083 15.5645V15.6927C16.0083 18.4031 16.0083 21.1177 16.0083 23.8281C16.0124 23.8794 16.0288 23.9307 15.9877 23.9692Z" fill="#E33937"/>
<path d="M5.50732 23.9539C5.53196 23.9197 5.57303 23.924 5.60589 23.924H7.83587C7.85229 23.924 7.86872 23.9283 7.88515 23.9325C7.83997 23.9496 7.7948 23.9539 7.74962 23.9454H5.6141C5.58125 23.9496 5.54429 23.9539 5.50732 23.9539Z" fill="#E75840"/>
<path d="M21.3799 5.4685C21.384 5.43857 21.3922 5.41292 21.4086 5.38727C21.5852 5.01962 21.7618 4.65196 21.9384 4.28431C21.9466 4.25866 21.9589 4.24156 21.9795 4.22446C21.9877 4.21164 21.9959 4.21164 22.0041 4.22446C21.8234 4.60494 21.6386 4.98114 21.4579 5.36162C21.4374 5.40009 21.4251 5.4514 21.3799 5.4685Z" fill="#E04437"/>
<path d="M22.0002 4.22741H21.9756C22.0249 4.07351 22.1111 3.93244 22.1768 3.78281C22.2097 3.71441 22.2302 3.63746 22.2836 3.58188C22.2918 3.56906 22.3 3.56906 22.3082 3.58188L22.0002 4.22741Z" fill="#E24837"/>
<path d="M22.3122 3.58262H22.2876C22.3656 3.38169 22.4478 3.18504 22.5751 3.00977C22.5792 3.03542 22.571 3.06107 22.5628 3.08244C22.4642 3.24062 22.3944 3.41589 22.3122 3.58262Z" fill="#E34C37"/>
<path d="M21.3348 5.56512C21.3266 5.52237 21.3471 5.4839 21.3841 5.4668C21.38 5.50527 21.3636 5.54375 21.3348 5.56512Z" fill="#E04437"/>
<path d="M21.3099 5.62161C21.3058 5.60024 21.3181 5.58314 21.3345 5.57031C21.3345 5.59169 21.3263 5.60879 21.3099 5.62161Z" fill="#E04437"/>
<path d="M21.2855 5.66849C21.2814 5.64711 21.2937 5.63001 21.3101 5.61719C21.3101 5.63856 21.3019 5.65566 21.2855 5.66849Z" fill="#E04437"/>
</g>
<defs>
<clipPath id="clip0_531_51471">
<rect width="24" height="24" fill="white"/>
</clipPath>
</defs>
</svg>
