<svg width="24" height="24" viewBox="0 0 24 24" fill="none" xmlns="http://www.w3.org/2000/svg">
<g clip-path="url(#clip0_531_43336)">
<path d="M12 24C18.6274 24 24 18.6274 24 12C24 5.37258 18.6274 0 12 0C5.37258 0 0 5.37258 0 12C0 18.6274 5.37258 24 12 24Z" fill="#0AC18E"/>
<path d="M15.743 7.97082C15.14 6.60331 13.7542 6.31093 12.0577 6.59417L11.5125 4.48047L10.2273 4.81245L10.7633 6.92006C10.4252 7.00534 10.078 7.07844 9.73386 7.1759L9.19782 5.08047L7.91254 5.41245L8.45772 7.52615C8.18056 7.60534 5.86279 8.19925 5.86279 8.19925L6.21609 9.5759C6.21609 9.5759 7.16025 9.31093 7.15112 9.33224C7.67498 9.19519 7.92168 9.45712 8.03741 9.70382L9.53589 15.4967C9.55416 15.6642 9.52371 15.9505 9.16432 16.048C9.18564 16.0602 8.22929 16.2886 8.22929 16.2886L8.36939 17.8937C8.36939 17.8937 10.6658 17.3058 10.9674 17.2297L11.5186 19.3678L12.8039 19.0358L12.2526 16.8825C12.6059 16.8003 12.9501 16.715 13.2851 16.6267L13.8334 18.7678L15.1186 18.4358L14.5674 16.3008C16.5471 15.8196 17.945 14.5708 17.6587 12.6612C17.476 11.5099 16.2181 10.5657 15.1735 10.4591C15.8161 9.88961 16.142 9.05813 15.743 7.97082ZM15.1247 13.0114C15.3806 14.9028 12.7521 15.1343 11.8841 15.3627L11.1288 12.5333C11.9998 12.3048 14.6922 11.3454 15.1247 13.0114ZM13.541 9.15864C13.812 10.8399 11.5643 11.0348 10.8394 11.2206L10.1511 8.65306C10.879 8.47336 12.9897 7.6023 13.541 9.15864Z" fill="white"/>
</g>
<defs>
<clipPath id="clip0_531_43336">
<rect width="24" height="24" fill="white"/>
</clipPath>
</defs>
</svg>
