<svg width="24" height="24" viewBox="0 0 24 24" fill="none" xmlns="http://www.w3.org/2000/svg">
<g clip-path="url(#clip0_531_51512)">
<path d="M3.41377 16.3214C3.28397 16.3214 3.15709 16.3599 3.04916 16.432C2.94124 16.5042 2.85712 16.6067 2.80745 16.7266C2.75777 16.8465 2.74478 16.9784 2.7701 17.1058C2.79542 17.2331 2.85793 17.35 2.94971 17.4418C3.04149 17.5336 3.15843 17.5961 3.28574 17.6214C3.41304 17.6467 3.545 17.6337 3.66492 17.584C3.78484 17.5344 3.88733 17.4503 3.95945 17.3423C4.03156 17.2344 4.07005 17.1075 4.07005 16.9777C4.07005 16.8613 4.03825 16.7555 3.98533 16.6496C3.92666 16.5501 3.84313 16.4675 3.74293 16.41C3.64273 16.3525 3.5293 16.322 3.41377 16.3216M12.6857 2.043C12.6857 1.9132 12.6472 1.78631 12.5751 1.67839C12.503 1.57046 12.4005 1.48635 12.2806 1.43668C12.1606 1.387 12.0287 1.37401 11.9014 1.39933C11.7741 1.42465 11.6571 1.48716 11.5654 1.57894C11.4736 1.67072 11.4111 1.78766 11.3857 1.91497C11.3604 2.04227 11.3734 2.17423 11.4231 2.29415C11.4728 2.41407 11.5569 2.51656 11.6648 2.58868C11.7727 2.66079 11.8996 2.69928 12.0294 2.69928C12.2032 2.6983 12.3695 2.62885 12.4924 2.50598C12.6153 2.38311 12.6847 2.21675 12.6857 2.043ZM20.6881 7.73748C20.8179 7.73748 20.9448 7.69899 21.0527 7.62688C21.1607 7.55476 21.2448 7.45227 21.2945 7.33235C21.3441 7.21243 21.3571 7.08047 21.3318 6.95317C21.3065 6.82586 21.244 6.70892 21.1522 6.61714C21.0604 6.52536 20.9435 6.46285 20.8162 6.43753C20.6889 6.41221 20.5569 6.4252 20.437 6.47488C20.3171 6.52455 20.2146 6.60866 20.1425 6.71659C20.0703 6.82451 20.0319 6.9514 20.0319 7.0812C20.0323 7.19257 20.0615 7.30194 20.1166 7.39872C20.1729 7.50105 20.2557 7.58643 20.3562 7.646C20.4567 7.70557 20.5713 7.73716 20.6881 7.73748ZM3.72013 6.47784C3.40261 6.29784 3.01093 6.4038 2.83105 6.72132C2.65117 7.03884 2.75701 7.43052 3.07453 7.6104C3.39205 7.79028 3.78373 7.68444 3.96361 7.36692C4.14361 7.05996 4.03765 6.65772 3.72013 6.47784ZM20.9521 16.4484C20.8569 16.3849 20.7405 16.3637 20.6241 16.3531C20.5371 16.3519 20.4508 16.368 20.3702 16.4005C20.2895 16.433 20.2161 16.4811 20.1543 16.5422C20.0924 16.6032 20.0432 16.6759 20.0097 16.7561C19.9762 16.8363 19.9589 16.9224 19.9589 17.0093C19.9589 17.0963 19.9762 17.1823 20.0097 17.2625C20.0432 17.3427 20.0924 17.4155 20.1543 17.4765C20.2161 17.5376 20.2895 17.5857 20.3702 17.6182C20.4508 17.6506 20.5371 17.6667 20.6241 17.6656C20.8569 17.6656 21.0681 17.5386 21.1956 17.3375C21.3756 17.0305 21.2697 16.6283 20.9521 16.4484ZM11.3731 21.9204C11.3413 22.2168 11.5213 22.5025 11.7965 22.6084C11.86 22.6295 11.9341 22.6507 11.9976 22.6507C12.1581 22.6505 12.3135 22.5943 12.4371 22.4919C12.5607 22.3896 12.6448 22.2474 12.675 22.0897C12.6986 21.9193 12.6539 21.7464 12.5506 21.6088C12.4474 21.4711 12.294 21.3798 12.1238 21.3547C11.9535 21.3296 11.7803 21.3727 11.6417 21.4747C11.5031 21.5766 11.4104 21.7292 11.3837 21.8992C11.378 21.9049 11.3742 21.9123 11.3731 21.9203" fill="#2683FF"/>
<path d="M21.5977 15.2416C21.5197 15.1965 21.4383 15.1575 21.3542 15.1252V8.99676C21.4495 8.96496 21.5448 8.91204 21.6401 8.8698C22.6241 8.31936 22.9841 7.0704 22.4339 6.0858C21.8837 5.1012 20.6345 4.7418 19.6499 5.292C19.5652 5.33436 19.4911 5.38728 19.4171 5.4402L14.019 2.3178C14.0296 2.22252 14.0401 2.1378 14.0401 2.04264C14.04 0.9102 13.1196 0 11.9976 0C10.8756 0 9.9336 0.93144 9.9336 2.05332C9.9336 2.1486 9.94416 2.23332 9.95472 2.32848L4.599 5.42976C4.38595 5.26285 4.1419 5.13987 3.88099 5.06793C3.62008 4.99599 3.34749 4.97653 3.07901 5.01067C2.81052 5.04482 2.55148 5.13189 2.31688 5.26684C2.08228 5.40179 1.87678 5.58194 1.71229 5.79687C1.5478 6.01179 1.42758 6.25721 1.3586 6.51892C1.28961 6.78062 1.27323 7.05342 1.31041 7.3215C1.34759 7.58958 1.43758 7.84762 1.57517 8.08068C1.71277 8.31374 1.89523 8.51719 2.112 8.67924C2.18604 8.73216 2.2602 8.78508 2.3448 8.838C2.43125 8.89091 2.5236 8.93352 2.61996 8.96496V15.0828C1.572 15.5062 1.0638 16.692 1.48716 17.7395C1.91052 18.787 3.096 19.2954 4.14396 18.872C4.23924 18.8402 4.32396 18.7873 4.40856 18.7451C4.49328 18.6922 4.57788 18.6392 4.6626 18.5758L9.9654 21.6347C9.7854 22.746 10.5475 23.7938 11.659 23.9738C12.7704 24.1538 13.8182 23.3917 13.9981 22.2803C14.0192 22.1639 14.0192 22.058 14.0192 21.9415C14.0179 21.8424 14.0108 21.7434 13.9981 21.6451L19.2692 18.6074C19.354 18.6709 19.4386 18.7344 19.5338 18.7874C20.5178 19.3379 21.7672 18.9886 22.3178 18.0042C22.8467 17.0197 22.5292 15.8131 21.5977 15.2416ZM21.9682 17.803C21.5342 18.5438 20.571 18.7979 19.8301 18.364C19.2374 18.0146 18.941 17.3267 19.0998 16.66L16.623 15.2099C16.2408 15.5975 15.7525 15.8635 15.2196 15.9745C14.6866 16.0856 14.1328 16.0366 13.6276 15.8339C13.2571 15.9503 12.4636 16.0244 12.4636 16.0244V20.3852C13.3315 20.6498 13.8076 21.5707 13.5436 22.4386C13.2796 23.3064 12.3581 23.7826 11.4901 23.5186C11.4796 23.5186 11.469 23.508 11.4583 23.508C11.3843 23.4869 11.3207 23.4551 11.2572 23.4233C10.4422 23.021 10.1246 22.0261 10.5269 21.2218C10.728 20.8195 11.0879 20.5232 11.5109 20.3856V15.9401C11.2 15.844 10.8959 15.7273 10.6006 15.5908C10.1277 15.6853 9.63974 15.6745 9.17145 15.5593C8.70317 15.444 8.266 15.2271 7.89096 14.9239L4.93788 16.6279C5.01004 16.9303 4.99092 17.2473 4.88294 17.5388C4.77496 17.8304 4.58296 18.0833 4.33123 18.2657C4.07949 18.4482 3.77932 18.5518 3.46867 18.5637C3.15801 18.5755 2.85082 18.495 2.58594 18.3322C2.32105 18.1695 2.11036 17.9319 1.98051 17.6494C1.85066 17.367 1.80748 17.0523 1.85642 16.7453C1.90536 16.4383 2.04423 16.1527 2.25547 15.9246C2.46672 15.6966 2.74084 15.5362 3.0432 15.4639C3.55128 15.337 4.09104 15.485 4.4832 15.8449L7.24572 14.2466C6.31428 12.9342 6.46248 11.1348 7.60572 9.99168L4.46172 8.19228C3.83772 8.78496 2.85288 8.75328 2.2602 8.11824C2.11918 7.96845 2.00918 7.79224 1.93654 7.59977C1.86389 7.40729 1.83004 7.20235 1.83692 6.99673C1.8438 6.79112 1.89128 6.5889 1.97663 6.40171C2.06199 6.21453 2.18352 6.04607 2.33424 5.90604C2.96928 5.31336 3.94308 5.34504 4.53576 5.98008C4.89576 6.36108 5.03328 6.89028 4.91676 7.39836L8.39904 9.39876C8.85527 9.15334 9.36301 9.01914 9.88092 9.00708C10.368 8.60508 11.616 8.19228 11.616 8.19228V3.42936C10.8433 3.19656 10.4094 2.38152 10.6422 1.60884C10.875 0.83616 11.6906 0.4128 12.4633 0.6456C13.236 0.8784 13.6699 1.69344 13.4371 2.46612C13.3683 2.69647 13.2433 2.90608 13.0733 3.07607C12.9033 3.24606 12.6937 3.3711 12.4633 3.43992V8.10792C12.4633 8.10792 14.7496 8.67948 15.4693 9.53676L19.1738 7.43052C18.9833 6.5838 19.5019 5.73696 20.3488 5.54652C21.1956 5.35608 22.0423 5.8746 22.2328 6.72144C22.4232 7.56828 21.9047 8.415 21.0578 8.60544C20.8058 8.66222 20.5437 8.65619 20.2945 8.5879C20.0453 8.5196 19.8167 8.39112 19.6289 8.21376L15.9667 10.2881C16.0726 10.5103 16.1678 10.7321 16.2313 10.9655C17.3639 11.7382 17.7661 13.2199 17.1628 14.4583L19.5868 15.866C19.831 15.6384 20.1423 15.4958 20.4742 15.4596C20.8061 15.4233 21.1408 15.4954 21.4284 15.6649C22.1587 16.0988 22.4124 17.0515 21.9684 17.803H21.9682Z" fill="#2683FF"/>
<path d="M15.1414 11.792C15.1308 11.7073 15.1203 11.6332 15.1096 11.5485C15.0993 11.4912 15.0851 11.4346 15.0672 11.3792C15.0672 11.3581 15.0567 11.3368 15.0567 11.3157C15.0356 11.2522 15.0143 11.1781 14.9932 11.1146V11.104C14.8586 10.749 14.6534 10.4249 14.3898 10.1515C14.3264 10.088 14.2734 10.0351 14.1993 9.97148L14.1887 9.96092C14.1252 9.908 14.0618 9.85508 13.9876 9.81272L13.977 9.80216C13.9136 9.7598 13.8394 9.70688 13.7759 9.6752L13.7654 9.66464C13.697 9.62516 13.6263 9.58981 13.5537 9.5588L13.5326 9.54824C13.4585 9.51644 13.3844 9.48476 13.2998 9.45296L13.2892 9.4424C13.2045 9.42128 13.1304 9.38948 13.0457 9.37892H13.0352C12.9514 9.35966 12.8666 9.34551 12.7811 9.33656H12.7706C12.3198 9.27251 11.8601 9.32723 11.4369 9.49532L11.384 9.53768C11.3205 9.5588 11.2146 9.61172 11.1512 9.64352C11.1181 9.66533 11.0826 9.6831 11.0453 9.69644C11.0135 9.707 10.9606 9.74936 10.9289 9.77048C10.8972 9.7916 10.8231 9.84452 10.7807 9.87632L10.7489 9.89744C10.6854 9.9398 10.6325 9.99272 10.5689 10.0456L10.516 10.0986C10.4525 10.162 10.3996 10.215 10.3467 10.2786C10.2208 10.2575 10.0933 10.2468 9.96569 10.2468C9.92333 10.2468 9.89165 10.2468 9.85985 10.2573C9.37301 10.2784 8.90729 10.4796 8.54741 10.8078C8.36741 10.9665 8.21933 11.1678 8.10341 11.3793L8.09213 11.4009C8.0595 11.4624 8.03119 11.5261 8.00741 11.5915C7.99685 11.6126 7.99685 11.6233 7.98629 11.6444C7.96386 11.6992 7.94616 11.7559 7.93337 11.8137C7.92281 11.8348 7.92281 11.8666 7.91225 11.8878C7.90169 11.9407 7.89113 11.9936 7.88045 12.0571C7.88045 12.0782 7.86989 12.0994 7.86989 12.1311C7.86109 12.212 7.85756 12.2933 7.85933 12.3746C7.85757 12.4418 7.8611 12.5091 7.86989 12.5757C7.86989 12.5968 7.88045 12.6181 7.88045 12.6498C7.89101 12.6921 7.89101 12.7345 7.90157 12.7767C7.91213 12.819 7.91213 12.8296 7.92269 12.8614C7.93473 12.8919 7.94186 12.924 7.94381 12.9567C7.94381 12.9885 7.96493 13.0202 7.97561 13.052C7.98426 13.0775 7.9949 13.1022 8.00741 13.126C8.02335 13.1606 8.03749 13.1959 8.04977 13.2319C8.06033 13.253 8.07089 13.2637 8.07089 13.2848C8.21964 13.6334 8.4707 13.9287 8.79089 14.1315C8.94965 14.2268 9.10841 14.3115 9.27773 14.3643C9.34338 14.3869 9.4106 14.4046 9.47885 14.4172L9.49997 14.4278L9.69053 14.4596L9.73289 14.4702C9.80693 14.4807 9.88109 14.4807 9.96569 14.4807C10.2515 14.4807 10.5267 14.4278 10.7807 14.3114C10.8442 14.3538 10.8971 14.3961 10.9607 14.4384L10.9818 14.4489C11.0348 14.4807 11.0982 14.5124 11.1618 14.5442H11.1722C11.7771 14.8525 12.4753 14.9242 13.1303 14.7453H13.1409C13.2361 14.7248 13.3285 14.6928 13.416 14.65L13.7019 14.5231C13.974 14.7354 14.3093 14.8509 14.6544 14.8512C14.7285 14.8512 14.7921 14.8406 14.8661 14.8406L14.919 14.83C14.9869 14.8199 15.054 14.8058 15.1202 14.7877C15.1854 14.7676 15.2491 14.7429 15.3107 14.7136L15.3425 14.7031C15.406 14.6713 15.4589 14.6396 15.5225 14.6078C15.7871 14.4385 15.9882 14.1844 16.1046 13.8986C16.147 13.8033 16.1681 13.708 16.1894 13.6129V13.5811C16.1999 13.5387 16.1999 13.4964 16.2105 13.4541C16.2105 13.4012 16.221 13.3483 16.221 13.2954C16.221 12.5968 15.7871 11.9935 15.141 11.7924" fill="#2683FF"/>
</g>
<defs>
<clipPath id="clip0_531_51512">
<rect width="24" height="24" fill="white"/>
</clipPath>
</defs>
</svg>
