<svg width="24" height="24" viewBox="0 0 24 24" fill="none" xmlns="http://www.w3.org/2000/svg">
<g clip-path="url(#clip0_531_51140)">
<path d="M15.7187 0H6.98164L6.25706 4.98656L14.1433 4.99808C18.028 4.99808 19.1733 6.73704 19.1406 9.61612C19.1219 11.0902 18.603 13.5893 18.3786 14.4012C17.7802 16.5605 16.5508 19.0192 11.9415 19.0134L4.27498 19.0077L3.55273 24H12.2711C15.347 24 16.6513 23.5566 18.0397 22.7735C21.111 21.0173 22.9388 17.286 23.6727 12.4146C24.7596 5.15931 23.4039 0 15.7187 0Z" fill="#008DE4"/>
<path d="M3.21153 9.49609C0.920919 9.49609 0.593689 11.3329 0.378652 12.4443C0.0934944 13.8953 0 14.4884 0 14.4884H8.94741C11.238 14.4884 11.5652 12.6516 11.7803 11.5402C12.0654 10.0892 12.1589 9.49609 12.1589 9.49609H3.21153Z" fill="#008DE4"/>
</g>
<defs>
<clipPath id="clip0_531_51140">
<rect width="24" height="24" fill="white"/>
</clipPath>
</defs>
</svg>
