<svg width="24" height="24" viewBox="0 0 24 24" fill="none" xmlns="http://www.w3.org/2000/svg">
<g clip-path="url(#clip0_531_51133)">
<path d="M6.22797 0.157047L17.9951 7.99652V15.9928L0 3.99839L5.76718 0.157047C5.83796 0.112938 5.91714 0.0898438 5.99757 0.0898438C6.07801 0.0898437 6.15719 0.112938 6.22797 0.157047Z" fill="#3CA9E5"/>
<path d="M17.9951 0L11.9951 3.99813L17.9951 7.99627V0Z" fill="#2853C3"/>
<path d="M17.9951 0L23.7671 3.84134C23.8366 3.8901 23.8943 3.95821 23.935 4.03941C23.9756 4.12062 23.998 4.21233 24 4.30611V19.9851L17.9951 15.9925V0Z" fill="#1A4199"/>
<path d="M23.995 19.99L18.2278 23.8313C18.1541 23.8805 18.0705 23.9063 17.9853 23.9063C17.9002 23.9063 17.8165 23.8805 17.7428 23.8313L5.98047 15.9918V7.98438L23.995 19.99Z" fill="#2853C3"/>
<path d="M8.22662e-06 3.99805V19.677C-0.000479262 19.7736 0.0207065 19.8688 0.0615048 19.9532C0.102303 20.0376 0.161325 20.1083 0.23283 20.1586L6.00001 23.9999V7.98498L8.22662e-06 3.99805Z" fill="#60BEFF"/>
<path d="M6 23.9885L11.9951 19.9903L6 15.9922V23.9885Z" fill="#3CA9E5"/>
</g>
<defs>
<clipPath id="clip0_531_51133">
<rect width="24" height="24" fill="white"/>
</clipPath>
</defs>
</svg>
