<svg width="24" height="24" viewBox="0 0 24 24" fill="none" xmlns="http://www.w3.org/2000/svg">
<g clip-path="url(#clip0_531_51292)">
<path fill-rule="evenodd" clip-rule="evenodd" d="M4.72741 0.363281H19.2729C21.6729 0.363281 23.6365 2.32692 23.6365 4.72692V19.2724C23.6365 21.6724 21.6729 23.636 19.2729 23.636H4.72741C2.32741 23.636 0.36377 21.6724 0.36377 19.2724V4.72692C0.36377 2.32692 2.32741 0.363281 4.72741 0.363281Z" fill="#181818" stroke="white"/>
<path d="M6.40027 11.1629H4.72754V10.1447H6.40027V10.072C6.40027 9.78111 6.40027 9.4902 6.40027 9.19929C6.40027 8.61747 6.54572 8.10838 6.90936 7.67202C7.27299 7.16293 7.70936 6.94474 8.29118 6.79929C8.72754 6.72656 9.1639 6.72656 9.67299 6.72656C10.1094 6.79929 10.6184 6.94474 11.0548 7.0902H11.1275L10.8366 8.03565C10.7639 8.03565 10.6912 7.96293 10.6184 7.96293C10.1094 7.67202 9.45481 7.67202 8.87299 7.74474C8.14572 7.8902 7.70936 8.32656 7.63663 9.05384C7.5639 9.27202 7.5639 9.56293 7.5639 9.78111C7.5639 9.92656 7.5639 9.99929 7.5639 10.1447H10.473V11.0902H7.5639V17.1266H6.40027V11.1629Z" fill="white"/>
<path d="M15.7823 14.2171C16.0732 13.708 16.3641 13.1262 16.655 12.6171C16.7277 12.3989 16.8732 12.1808 16.9459 11.9626H15.855C15.855 11.9626 15.3459 13.0535 15.1277 13.5626C14.9096 13.0535 14.3277 11.9626 14.3277 11.9626H13.1641C13.1641 11.9626 14.0368 13.4898 14.4005 14.1444C14.0368 14.7989 13.1641 16.3262 13.1641 16.3262H14.3277C14.3277 16.3262 14.8368 15.2353 15.1277 14.7989C15.3459 15.308 15.855 16.3262 15.855 16.3262H16.9459C16.8732 16.1808 16.0732 14.7262 15.7823 14.2171ZM12.7277 16.7626C12.5096 16.908 12.3641 17.0535 12.1459 17.1989C10.5459 15.7444 10.3277 12.8353 12.1459 11.0898C12.3641 11.308 12.5823 11.4535 12.7277 11.5989C12.655 11.6717 12.655 11.7444 12.5823 11.7444C12.2186 12.2535 11.9277 12.7626 11.855 13.3444C11.7823 13.708 11.7823 14.0717 11.7823 14.508C11.7823 14.9444 11.9277 15.3808 12.0732 15.7444C12.2186 16.108 12.4368 16.3989 12.7277 16.7626ZM17.3823 16.7626C17.6005 16.908 17.7459 17.0535 17.9641 17.1989C19.5641 15.7444 19.7823 12.8353 17.9641 11.0898C17.7459 11.2353 17.6005 11.3808 17.3823 11.5989C17.455 11.6717 17.455 11.7444 17.5277 11.8171C17.8914 12.2535 18.1823 12.7626 18.3277 13.4171C18.4005 13.7808 18.4005 14.1444 18.4005 14.5808C18.4005 15.0171 18.255 15.4535 18.1096 15.8171C17.8914 16.108 17.6732 16.3989 17.3823 16.7626Z" fill="#F7D509"/>
</g>
<defs>
<clipPath id="clip0_531_51292">
<rect width="24" height="24" fill="white"/>
</clipPath>
</defs>
</svg>
