<svg width="24" height="24" viewBox="0 0 24 24" fill="none" xmlns="http://www.w3.org/2000/svg">
<g clip-path="url(#clip0_531_51623)">
<path d="M12 24C18.6274 24 24 18.6274 24 12C24 5.37258 18.6274 0 12 0C5.37258 0 0 5.37258 0 12C0 18.6274 5.37258 24 12 24Z" fill="#5546FF"/>
<path d="M16.8962 18.3228L14.313 14.2677H18.0226V12.7358H5.85742V14.2677H9.56706L6.98383 18.3228H8.90623L11.94 13.5619L14.9738 18.3228H16.8962ZM18.0226 11.249V9.71704H14.3881L16.9413 5.70703H15.0039L11.94 10.5431L8.8762 5.70703H6.93877L9.49197 9.71704H5.85742V11.264L18.0226 11.249Z" fill="white"/>
</g>
<defs>
<clipPath id="clip0_531_51623">
<rect width="24" height="24" fill="white"/>
</clipPath>
</defs>
</svg>
