<svg width="24" height="24" viewBox="0 0 24 24" fill="none" xmlns="http://www.w3.org/2000/svg">
<g clip-path="url(#clip0_531_51388)">
<path d="M12.0481 17.9007C13.0119 17.9007 13.9758 17.6007 14.9396 17.1007C17.6384 15.5007 18.6023 11.8007 17.0601 9.00071C15.518 6.20071 11.9517 5.20071 9.25289 6.80071C7.9035 7.60071 7.03603 8.90071 6.5541 10.4007C6.16856 11.9007 6.36133 13.5007 7.13241 14.9007C8.09627 16.9007 10.024 17.9007 12.0481 17.9007ZM8.28904 11.0007C8.5782 10.0007 9.15651 9.10071 10.1204 8.60071C10.6987 8.20071 11.3734 8.10071 12.0481 8.10071C13.3975 8.10071 14.6505 8.80071 15.4216 10.1007C16.4818 12.0007 15.8071 14.5007 13.9758 15.6007C12.1445 16.7007 9.73482 16.0007 8.67458 14.1007C8.19265 13.1007 7.99988 12.0007 8.28904 11.0007Z" fill="#1A1A1D"/>
<path d="M18.4098 8.09922C19.1808 9.39922 20.3375 10.3992 21.7833 10.7992C22.2652 10.8992 22.7471 10.9992 23.229 10.9992C23.5182 10.9992 23.711 10.9992 24.0001 10.8992C23.9037 10.2992 23.8073 9.69922 23.711 8.99922C23.229 9.09922 22.7471 8.99922 22.2652 8.89922C21.3013 8.59922 20.5302 7.99922 19.9519 7.09922C19.47 6.19922 19.2772 5.19922 19.5664 4.19922C19.6628 3.69922 19.9519 3.29922 20.2411 2.89922C19.7592 2.49922 19.3736 2.09922 18.7953 1.69922C18.3134 2.29922 18.0242 2.99922 17.8314 3.69922C17.4459 5.29922 17.6387 6.79922 18.4098 8.09922Z" fill="#1A1A1D"/>
<path d="M21.7833 13.1993C20.3375 13.5993 19.1808 14.4993 18.4098 15.8993C17.6387 17.1993 17.4459 18.7993 17.8314 20.2993C18.0242 21.0993 18.4098 21.6993 18.7953 22.2993C19.2772 21.8993 19.7592 21.4993 20.2411 21.0993C19.9519 20.6993 19.7592 20.2993 19.5664 19.7993C19.2772 18.7993 19.47 17.7993 19.9519 16.8993C20.4339 15.9993 21.3013 15.3993 22.2652 15.0993C22.7471 14.9993 23.229 14.8993 23.711 14.9993C23.8073 14.3993 23.9037 13.7993 24.0001 13.0993C23.229 12.8993 22.5543 12.9993 21.7833 13.1993Z" fill="#1A1A1D"/>
<path d="M11.952 21.5992C13.4942 21.5992 14.8436 22.5992 15.4219 23.9992C16.0002 23.7992 16.5785 23.5992 17.1568 23.2992C16.2893 21.1992 14.3616 19.6992 12.0484 19.6992C9.73512 19.6992 7.71103 21.1992 6.93994 23.2992C7.51825 23.5992 8.09657 23.7992 8.67488 23.9992C9.15681 22.5992 10.4098 21.5992 11.952 21.5992Z" fill="#1A1A1D"/>
<path d="M11.9516 4.3C14.2648 4.3 16.2889 2.8 17.06 0.7C16.4817 0.4 15.9998 0.2 15.3251 0C14.7468 1.4 13.3974 2.4 11.8552 2.4C10.313 2.4 8.96364 1.4 8.38533 0C7.80702 0.2 7.2287 0.4 6.65039 0.7C7.71063 2.8 9.63834 4.3 11.9516 4.3Z" fill="#1A1A1D"/>
<path d="M5.59036 15.9008C4.81928 14.6008 3.66265 13.6008 2.21687 13.2008C1.44578 13.0008 0.771084 13.0008 0 13.1008C0.0963855 13.7008 0.192771 14.3008 0.289157 15.0008C0.481928 15.0008 0.578313 15.0008 0.771084 15.0008C1.06024 15.0008 1.44578 15.0008 1.73494 15.1008C2.6988 15.4008 3.46988 16.0008 4.04819 16.9008C4.81928 18.3008 4.62651 20.0008 3.75904 21.2008C4.24096 21.6008 4.62651 22.0008 5.20482 22.4008C6.45783 20.5008 6.74699 17.9008 5.59036 15.9008Z" fill="#1A1A1D"/>
<path d="M2.21687 10.7992C3.66265 10.3992 4.81928 9.49922 5.59036 8.09922C6.36145 6.79922 6.55422 5.19922 6.16867 3.69922C5.9759 2.89922 5.59036 2.29922 5.20482 1.69922C4.62651 2.09922 4.14458 2.49922 3.75904 2.89922C4.04819 3.29922 4.24096 3.69922 4.43373 4.19922C4.72289 5.19922 4.53012 6.19922 4.04819 7.09922C3.56626 7.99922 2.6988 8.59922 1.73494 8.89922C1.25301 8.99922 0.771084 9.09922 0.289157 8.99922C0.192771 9.59922 0.0963855 10.1992 0 10.8992C0.289157 10.8992 0.481928 10.9992 0.771084 10.9992C1.25301 10.9992 1.73494 10.9992 2.21687 10.7992Z" fill="#1A1A1D"/>
</g>
<defs>
<clipPath id="clip0_531_51388">
<rect width="24" height="24" fill="white"/>
</clipPath>
</defs>
</svg>
