<svg width="24" height="24" viewBox="0 0 24 24" fill="none" xmlns="http://www.w3.org/2000/svg">
<g clip-path="url(#clip0_531_51154)">
<path d="M11.999 5.03382C14.389 5.03382 16.3266 3.90696 16.3266 2.51691C16.3266 1.12686 14.389 0 11.999 0C9.60891 0 7.67139 1.12686 7.67139 2.51691C7.67139 3.90696 9.60891 5.03382 11.999 5.03382Z" fill="#E6007A"/>
<path d="M11.999 23.9987C14.389 23.9987 16.3266 22.8718 16.3266 21.4818C16.3266 20.0917 14.389 18.9648 11.999 18.9648C9.60891 18.9648 7.67139 20.0917 7.67139 21.4818C7.67139 22.8718 9.60891 23.9987 11.999 23.9987Z" fill="#E6007A"/>
<path d="M5.96841 8.51701C7.16344 6.44722 7.15569 4.20551 5.95109 3.51001C4.74649 2.81452 2.80121 3.92861 1.60618 5.9984C0.411147 8.06819 0.418903 10.3099 1.6235 11.0054C2.8281 11.7009 4.77338 10.5868 5.96841 8.51701Z" fill="#E6007A"/>
<path d="M22.3903 17.9997C23.5853 15.9299 23.5782 13.6886 22.3744 12.9935C21.1706 12.2985 19.226 13.413 18.031 15.4828C16.836 17.5526 16.843 19.7939 18.0468 20.4889C19.2506 21.184 21.1952 20.0695 22.3903 17.9997Z" fill="#E6007A"/>
<path d="M5.95158 20.488C7.15618 19.7925 7.16393 17.5508 5.9689 15.481C4.77387 13.4112 2.82859 12.2972 1.62399 12.9926C0.419391 13.6881 0.411635 15.9299 1.60667 17.9996C2.8017 20.0694 4.74698 21.1835 5.95158 20.488Z" fill="#E6007A"/>
<path d="M22.3754 11.0065C23.5792 10.3114 23.5863 8.07011 22.3912 6.00031C21.1962 3.93052 19.2516 2.81605 18.0478 3.51108C16.844 4.2061 16.8369 6.44743 18.032 8.51722C19.227 10.587 21.1716 11.7015 22.3754 11.0065Z" fill="#E6007A"/>
</g>
<defs>
<clipPath id="clip0_531_51154">
<rect width="24" height="24" fill="white"/>
</clipPath>
</defs>
</svg>
