<svg width="24" height="24" viewBox="0 0 24 24" fill="none" xmlns="http://www.w3.org/2000/svg">
<g clip-path="url(#clip0_531_51257)">
<path d="M17.1861 8.72768H15.6358V7.17764C15.6358 6.91349 15.7407 6.66015 15.9275 6.47336C16.1143 6.28658 16.3676 6.18164 16.6318 6.18164H17.1861C17.4502 6.18164 17.7036 6.28658 17.8903 6.47336C18.0771 6.66015 18.1821 6.91349 18.1821 7.17764V7.73204C18.182 7.99613 18.077 8.24938 17.8902 8.43609C17.7034 8.6228 17.4502 8.72768 17.1861 8.72768ZM8.36378 8.72768H6.81338C6.54923 8.72768 6.29589 8.62275 6.1091 8.43596C5.92232 8.24917 5.81738 7.99584 5.81738 7.73168V7.17764C5.81729 7.04682 5.84299 6.91726 5.89301 6.79638C5.94303 6.67549 6.01639 6.56566 6.10889 6.47315C6.2014 6.38065 6.31124 6.30728 6.43212 6.25726C6.553 6.20724 6.68256 6.18155 6.81338 6.18164H7.36778C7.63194 6.18164 7.88528 6.28658 8.07206 6.47336C8.25885 6.66015 8.36378 6.91349 8.36378 7.17764V8.72768ZM7.36778 18.1822H6.8135C6.68271 18.1822 6.55319 18.1565 6.43235 18.1064C6.31151 18.0564 6.20171 17.983 6.10922 17.8905C6.01674 17.798 5.94337 17.6882 5.89332 17.5674C5.84327 17.4466 5.8175 17.317 5.8175 17.1862V16.6324C5.8175 16.5016 5.84327 16.3721 5.89332 16.2513C5.94337 16.1304 6.01674 16.0207 6.10922 15.9282C6.20171 15.8357 6.31151 15.7623 6.43235 15.7123C6.55319 15.6622 6.68271 15.6364 6.8135 15.6364H8.36378V17.1862C8.36378 17.4504 8.25885 17.7037 8.07206 17.8905C7.88528 18.0773 7.63194 18.1822 7.36778 18.1822ZM17.1861 18.1822H16.6318C16.3676 18.1822 16.1143 18.0773 15.9275 17.8905C15.7407 17.7037 15.6358 17.4504 15.6358 17.1862V15.6364H17.1857C17.4499 15.6364 17.7032 15.7414 17.89 15.9282C18.0768 16.1149 18.1817 16.3683 18.1817 16.6324V17.1868C18.1817 17.451 18.0768 17.7043 17.89 17.8911C17.7032 18.0779 17.4499 18.1828 17.1857 18.1828" fill="#005FFF"/>
<path d="M12.4592 6.18252H11.9048C11.6407 6.18252 11.3873 6.07758 11.2006 5.8908C11.0138 5.70401 10.9088 5.45067 10.9088 5.18652V4.63272C10.9088 4.36856 11.0138 4.11523 11.2006 3.92844C11.3873 3.74165 11.6407 3.63672 11.9048 3.63672H12.4591C12.7233 3.63672 12.9766 3.74165 13.1634 3.92844C13.3502 4.11523 13.4551 4.36856 13.4551 4.63272V5.18712C13.4551 5.45127 13.3502 5.70461 13.1634 5.8914C12.9766 6.07818 12.7233 6.18312 12.4591 6.18312M12.4592 20.728H11.9048C11.6407 20.728 11.3873 20.623 11.2006 20.4362C11.0138 20.2495 10.9088 19.9961 10.9088 19.732V19.1776C10.9088 18.9134 11.0138 18.6601 11.2006 18.4733C11.3873 18.2865 11.6407 18.1816 11.9048 18.1816H12.4591C12.7233 18.1816 12.9766 18.2865 13.1634 18.4733C13.3502 18.6601 13.4551 18.9134 13.4551 19.1776V19.732C13.4551 19.9961 13.3502 20.2495 13.1634 20.4362C12.9766 20.623 12.7233 20.728 12.4591 20.728M19.732 13.4552H19.1777C18.9135 13.4552 18.6602 13.3503 18.4734 13.1635C18.2866 12.9767 18.1817 12.7234 18.1817 12.4592V11.9047C18.1817 11.6406 18.2866 11.3872 18.4734 11.2004C18.6602 11.0137 18.9135 10.9087 19.1777 10.9087H19.732C19.9961 10.9087 20.2494 11.0137 20.4362 11.2004C20.623 11.3872 20.728 11.6406 20.728 11.9047V12.4591C20.728 12.7233 20.623 12.9766 20.4362 13.1634C20.2494 13.3502 19.9961 13.4551 19.732 13.4551M5.18651 13.4552H4.63223C4.36807 13.4552 4.11474 13.3503 3.92795 13.1635C3.74117 12.9767 3.63623 12.7234 3.63623 12.4592V11.9047C3.63623 11.6406 3.74117 11.3872 3.92795 11.2004C4.11474 11.0137 4.36807 10.9087 4.63223 10.9087H5.18651C5.31731 10.9087 5.44682 10.9345 5.56766 10.9845C5.6885 11.0346 5.7983 11.108 5.89079 11.2004C5.98328 11.2929 6.05664 11.4027 6.10669 11.5236C6.15675 11.6444 6.18251 11.7739 6.18251 11.9047V12.4591C6.18251 12.5899 6.15675 12.7194 6.10669 12.8403C6.05664 12.9611 5.98328 13.0709 5.89079 13.1634C5.7983 13.2559 5.6885 13.3292 5.56766 13.3793C5.44682 13.4294 5.31731 13.4551 5.18651 13.4551" fill="#00CCEE"/>
<path d="M14.9642 21.7326C14.9092 21.5997 14.8948 21.4535 14.9228 21.3125C14.9508 21.1714 15.0201 21.0419 15.1217 20.9402C15.2234 20.8385 15.3529 20.7692 15.494 20.7412C15.635 20.7131 15.7812 20.7275 15.9141 20.7825C16.0469 20.8375 16.1605 20.9307 16.2404 21.0502C16.3203 21.1698 16.363 21.3103 16.363 21.4541C16.363 21.5979 16.3204 21.7385 16.2405 21.8581C16.1606 21.9777 16.0471 22.0709 15.9143 22.1259C15.7361 22.1997 15.536 22.1997 15.3578 22.1259C15.1797 22.0522 15.0381 21.9107 14.9642 21.7326ZM7.3285 3.18705C7.27345 3.0542 7.25903 2.90802 7.28707 2.76697C7.3151 2.62593 7.38433 2.49637 7.486 2.39467C7.58767 2.29297 7.71722 2.22371 7.85825 2.19563C7.99929 2.16756 8.14548 2.18193 8.27834 2.23695C8.41121 2.29196 8.52477 2.38513 8.60468 2.50469C8.68459 2.62424 8.72726 2.76481 8.72728 2.90861C8.7273 3.05242 8.68468 3.193 8.6048 3.31257C8.52493 3.43215 8.41139 3.52536 8.27854 3.58041C8.10039 3.65417 7.90024 3.65417 7.72209 3.5804C7.54394 3.50664 7.40237 3.36516 7.3285 3.18705ZM21.3693 9.03573C21.2365 9.09078 21.0903 9.1052 20.9493 9.07717C20.8082 9.04913 20.6787 8.9799 20.577 8.87823C20.4753 8.77656 20.406 8.64702 20.3779 8.50598C20.3498 8.36495 20.3642 8.21876 20.4192 8.08589C20.4742 7.95303 20.5674 7.83946 20.687 7.75955C20.8065 7.67964 20.9471 7.63698 21.0909 7.63696C21.2347 7.63693 21.3753 7.67956 21.4949 7.75943C21.6144 7.83931 21.7077 7.95285 21.7627 8.08569C21.8365 8.26385 21.8365 8.46399 21.7627 8.64214C21.6889 8.82029 21.5474 8.96186 21.3693 9.03573ZM3.18754 16.6715C3.05469 16.7265 2.9085 16.7409 2.76746 16.7129C2.62642 16.6848 2.49686 16.6156 2.39516 16.514C2.29346 16.4123 2.22419 16.2827 2.19612 16.1417C2.16805 16.0007 2.18242 15.8545 2.23743 15.7216C2.29245 15.5887 2.38562 15.4752 2.50518 15.3953C2.62473 15.3154 2.7653 15.2727 2.9091 15.2727C3.0529 15.2727 3.19348 15.3153 3.31306 15.3952C3.43264 15.475 3.52585 15.5886 3.5809 15.7214C3.65466 15.8996 3.65465 16.0997 3.58089 16.2779C3.50713 16.456 3.36565 16.5976 3.18754 16.6715Z" fill="#005FFF"/>
<path d="M20.8127 16.6714C20.6799 16.6164 20.5663 16.5232 20.4864 16.4036C20.4066 16.284 20.3639 16.1435 20.3639 15.9997C20.3639 15.8559 20.4066 15.7153 20.4865 15.5957C20.5664 15.4762 20.6799 15.383 20.8128 15.328C20.9456 15.2729 21.0918 15.2585 21.2329 15.2866C21.3739 15.3147 21.5035 15.3839 21.6051 15.4856C21.7068 15.5873 21.7761 15.7168 21.8041 15.8579C21.8322 15.9989 21.8178 16.1451 21.7627 16.2779C21.7262 16.3662 21.6727 16.4463 21.6052 16.5139C21.5376 16.5814 21.4575 16.635 21.3692 16.6715C21.281 16.708 21.1865 16.7268 21.091 16.7268C20.9955 16.7268 20.9009 16.708 20.8127 16.6714ZM2.63091 9.0357C2.49806 8.98066 2.38452 8.88746 2.30463 8.76789C2.22475 8.64832 2.18212 8.50775 2.18213 8.36395C2.18214 8.22015 2.22479 8.07958 2.30468 7.96002C2.38458 7.84046 2.49814 7.74727 2.63099 7.69225C2.76385 7.63722 2.91004 7.62283 3.05107 7.65089C3.19211 7.67894 3.32166 7.74819 3.42334 7.84987C3.52502 7.95156 3.59426 8.08111 3.62232 8.22214C3.65037 8.36318 3.63598 8.50937 3.58095 8.64222C3.54442 8.73045 3.49087 8.81062 3.42335 8.87815C3.35583 8.94568 3.27567 8.99924 3.18745 9.03578C3.09922 9.07232 3.00466 9.09112 2.90917 9.09111C2.81368 9.09109 2.71912 9.07227 2.63091 9.0357ZM16.308 3.18702C16.253 3.31987 16.1598 3.43341 16.0402 3.5133C15.9206 3.59318 15.7801 3.63581 15.6363 3.6358C15.4925 3.63579 15.3519 3.59314 15.2323 3.51325C15.1128 3.43335 15.0196 3.31979 14.9646 3.18694C14.9096 3.05408 14.8952 2.90789 14.9232 2.76686C14.9513 2.62582 15.0205 2.49627 15.1222 2.39459C15.2239 2.29291 15.3534 2.22367 15.4945 2.19561C15.6355 2.16756 15.7817 2.18195 15.9145 2.23698C16.0028 2.27351 16.0829 2.32706 16.1505 2.39458C16.218 2.4621 16.2716 2.54226 16.3081 2.63048C16.3446 2.71871 16.3635 2.81327 16.3634 2.90876C16.3634 3.00425 16.3446 3.09881 16.308 3.18702ZM8.67183 21.7325C8.61679 21.8654 8.52359 21.9789 8.40402 22.0588C8.28445 22.1387 8.14387 22.1813 8.00007 22.1813C7.85627 22.1813 7.71571 22.1387 7.59615 22.0588C7.47658 21.9789 7.3834 21.8653 7.32837 21.7325C7.27335 21.5996 7.25895 21.4534 7.28701 21.3124C7.31507 21.1713 7.38432 21.0418 7.486 20.9401C7.58768 20.8384 7.71723 20.7692 7.85827 20.7411C7.99931 20.7131 8.14549 20.7275 8.27835 20.7825C8.36658 20.819 8.44675 20.8726 8.51428 20.9401C8.5818 21.0076 8.63537 21.0878 8.67191 21.176C8.70845 21.2642 8.72725 21.3588 8.72724 21.4543C8.72722 21.5498 8.70839 21.6443 8.67183 21.7325Z" fill="#002DAE"/>
<path d="M19.743 20.621C19.6922 20.5701 19.6575 20.5053 19.6435 20.4348C19.6295 20.3643 19.6367 20.2912 19.6642 20.2247C19.6917 20.1583 19.7383 20.1015 19.7981 20.0616C19.8579 20.0216 19.9282 20.0003 20.0001 20.0003C20.072 20.0003 20.1423 20.0216 20.2021 20.0616C20.2619 20.1015 20.3085 20.1583 20.336 20.2247C20.3636 20.2912 20.3708 20.3643 20.3567 20.4348C20.3427 20.5053 20.3081 20.5701 20.2572 20.621C20.2235 20.6548 20.1834 20.6816 20.1393 20.6998C20.0952 20.7181 20.0479 20.7275 20.0001 20.7275C19.9524 20.7275 19.9051 20.7181 19.861 20.6998C19.8169 20.6816 19.7768 20.6548 19.743 20.621ZM3.37946 4.25743C3.32861 4.20658 3.29398 4.14179 3.27994 4.07126C3.26591 4.00073 3.27311 3.92762 3.30063 3.86118C3.32815 3.79474 3.37476 3.73795 3.43455 3.698C3.49434 3.65804 3.56464 3.63672 3.63656 3.63672C3.70847 3.63672 3.77877 3.65804 3.83856 3.698C3.89836 3.73795 3.94496 3.79474 3.97248 3.86118C4 3.92762 4.0072 4.00073 3.99317 4.07126C3.97914 4.14179 3.94451 4.20658 3.89366 4.25743C3.8599 4.2912 3.81982 4.318 3.77571 4.33628C3.73159 4.35456 3.68431 4.36397 3.63656 4.36397C3.58881 4.36397 3.54152 4.35456 3.49741 4.33628C3.45329 4.318 3.41321 4.2912 3.37946 4.25743ZM20.2572 4.25743C20.2064 4.30828 20.1416 4.34291 20.071 4.35694C20.0005 4.37097 19.9274 4.36377 19.861 4.33625C19.7945 4.30873 19.7377 4.26213 19.6978 4.20233C19.6578 4.14254 19.6365 4.07224 19.6365 4.00033C19.6365 3.92841 19.6578 3.85811 19.6978 3.79832C19.7377 3.73853 19.7945 3.69192 19.861 3.6644C19.9274 3.63688 20.0005 3.62968 20.071 3.64371C20.1416 3.65774 20.2064 3.69238 20.2572 3.74323C20.291 3.77698 20.3178 3.81706 20.3361 3.86118C20.3544 3.90529 20.3638 3.95257 20.3638 4.00033C20.3638 4.04808 20.3544 4.09536 20.3361 4.13948C20.3178 4.18359 20.291 4.22367 20.2572 4.25743ZM3.89366 20.621C3.84281 20.6718 3.77802 20.7065 3.70749 20.7205C3.63696 20.7345 3.56385 20.7273 3.49741 20.6998C3.43097 20.6723 3.37418 20.6257 3.33423 20.5659C3.29427 20.5061 3.27295 20.4358 3.27295 20.3639C3.27295 20.292 3.29427 20.2217 3.33423 20.1619C3.37418 20.1021 3.43097 20.0555 3.49741 20.028C3.56385 20.0004 3.63696 19.9932 3.70749 20.0073C3.77802 20.0213 3.84281 20.0559 3.89366 20.1068C3.92743 20.1405 3.95423 20.1806 3.97251 20.2247C3.99079 20.2688 4.0002 20.3161 4.0002 20.3639C4.0002 20.4116 3.99079 20.4589 3.97251 20.503C3.95423 20.5472 3.92743 20.5872 3.89366 20.621Z" fill="#0099C0"/>
<path d="M23.6365 12.3639C23.5646 12.3639 23.4943 12.3426 23.4345 12.3026C23.3748 12.2627 23.3281 12.2059 23.3006 12.1395C23.2731 12.073 23.2659 11.9999 23.2799 11.9294C23.294 11.8589 23.3286 11.7941 23.3794 11.7432C23.4303 11.6924 23.4951 11.6577 23.5656 11.6437C23.6361 11.6297 23.7093 11.6369 23.7757 11.6644C23.8421 11.6919 23.8989 11.7385 23.9389 11.7983C23.9788 11.8581 24.0001 11.9284 24.0001 12.0003C24.0001 12.0967 23.9618 12.1892 23.8936 12.2574C23.8254 12.3256 23.733 12.3639 23.6365 12.3639Z" fill="#0029C0"/>
<mask id="mask0_531_51257" style="mask-type:luminance" maskUnits="userSpaceOnUse" x="0" y="11" width="1" height="2">
<path d="M0 12.3639V11.6367H0.72732V12.3639H0Z" fill="white"/>
</mask>
<g mask="url(#mask0_531_51257)">
<path d="M0.3636 12.3639C0.291687 12.3639 0.221389 12.3426 0.161595 12.3026C0.101801 12.2627 0.0551976 12.2059 0.0276776 12.1395C0.000157542 12.073 -0.00704295 11.9999 0.00698664 11.9294C0.0210162 11.8589 0.0556458 11.7941 0.106496 11.7432C0.157347 11.6924 0.222134 11.6577 0.292665 11.6437C0.363197 11.6297 0.436305 11.6369 0.502744 11.6644C0.569183 11.6919 0.62597 11.7385 0.665923 11.7983C0.705875 11.8581 0.7272 11.9284 0.7272 12.0003C0.727168 12.0967 0.68885 12.1892 0.620669 12.2574C0.552488 12.3256 0.460023 12.3639 0.3636 12.3639Z" fill="#0029C0"/>
</g>
<path d="M12.3634 0.3636C12.3634 0.435513 12.3421 0.505812 12.3022 0.565605C12.2622 0.625399 12.2054 0.672003 12.139 0.699523C12.0725 0.727043 11.9994 0.734243 11.9289 0.720214C11.8584 0.706184 11.7936 0.671554 11.7427 0.620704C11.6919 0.569854 11.6572 0.505066 11.6432 0.434535C11.6292 0.364003 11.6364 0.290896 11.6639 0.224456C11.6914 0.158017 11.738 0.101231 11.7978 0.0612776C11.8576 0.0213248 11.9279 0 11.9998 0C12.0963 3.1807e-05 12.1887 0.0383498 12.2569 0.106531C12.3251 0.174712 12.3634 0.267177 12.3634 0.3636Z" fill="#0029C0"/>
<mask id="mask1_531_51257" style="mask-type:luminance" maskUnits="userSpaceOnUse" x="11" y="23" width="2" height="1">
<path d="M12.3634 24.0008H11.6362V23.2734H12.3634V24.0008Z" fill="white"/>
</mask>
<g mask="url(#mask1_531_51257)">
<path d="M12.3634 23.637C12.3634 23.7089 12.3421 23.7792 12.3022 23.839C12.2622 23.8988 12.2054 23.9454 12.139 23.973C12.0725 24.0005 11.9994 24.0077 11.9289 23.9937C11.8584 23.9796 11.7936 23.945 11.7427 23.8941C11.6919 23.8433 11.6572 23.7785 11.6432 23.708C11.6292 23.6374 11.6364 23.5643 11.6639 23.4979C11.6914 23.4315 11.738 23.3747 11.7978 23.3347C11.8576 23.2948 11.9279 23.2734 11.9998 23.2734C12.0963 23.2735 12.1887 23.3118 12.2569 23.38C12.3251 23.4481 12.3634 23.5406 12.3634 23.637Z" fill="#0029C0"/>
</g>
<path d="M14.4264 10.7873H14.9693C15.1461 10.7872 15.3156 10.7168 15.4406 10.5918C15.5656 10.4667 15.6358 10.2971 15.6358 10.1203V8.36328H13.8788C13.702 8.36328 13.5324 8.43351 13.4073 8.55854C13.2822 8.68356 13.2119 8.85314 13.2118 9.03V9.57528C13.2118 9.89672 13.0841 10.205 12.8568 10.4323C12.6295 10.6596 12.3212 10.7873 11.9998 10.7873C11.6783 10.7873 11.3701 10.6596 11.1428 10.4323C10.9155 10.205 10.7878 9.89672 10.7878 9.57528V9.00588C10.7876 8.83541 10.7198 8.67196 10.5992 8.55147C10.4787 8.43097 10.3152 8.36328 10.1447 8.36328H8.36377V15.6353H10.1314C10.3054 15.6352 10.4724 15.566 10.5954 15.443C10.7185 15.3199 10.7877 15.153 10.7878 14.9789V14.4233C10.7878 14.1018 10.9155 13.7936 11.1428 13.5663C11.3701 13.339 11.6783 13.2113 11.9998 13.2113V13.2137C12.3212 13.2137 12.6295 13.3414 12.8568 13.5687C13.0841 13.796 13.2118 14.1042 13.2118 14.4257V14.9737C13.2118 15.1492 13.2815 15.3175 13.4056 15.4416C13.5297 15.5657 13.698 15.6354 13.8734 15.6354H15.6358V13.8731C15.6358 13.7862 15.6187 13.7001 15.5854 13.6199C15.5521 13.5396 15.5034 13.4666 15.442 13.4052C15.3805 13.3438 15.3076 13.295 15.2273 13.2618C15.147 13.2285 15.061 13.2114 14.9741 13.2114H14.4238C14.1023 13.2114 13.7941 13.0837 13.5668 12.8564C13.3395 12.6291 13.2118 12.3208 13.2118 11.9994H13.2142C13.2142 11.678 13.3419 11.3697 13.5692 11.1424C13.7965 10.9151 14.1047 10.7874 14.4262 10.7874" fill="#003EC5"/>
</g>
<defs>
<clipPath id="clip0_531_51257">
<rect width="24" height="24" fill="white"/>
</clipPath>
</defs>
</svg>
