<svg width="24" height="24" viewBox="0 0 24 24" fill="none" xmlns="http://www.w3.org/2000/svg">
<g clip-path="url(#clip0_531_51508)">
<path d="M11.9903 23.5938C18.3987 23.5938 23.5938 18.3987 23.5938 11.9903C23.5938 5.5818 18.3987 0.386719 11.9903 0.386719C5.5818 0.386719 0.386719 5.5818 0.386719 11.9903C0.386719 18.3987 5.5818 23.5938 11.9903 23.5938Z" fill="#F2E3EE"/>
<path d="M11.9903 23.9807C18.6124 23.9807 23.9807 18.6124 23.9807 11.9903C23.9807 5.36825 18.6124 0 11.9903 0C5.36825 0 0 5.36825 0 11.9903C0 18.6124 5.36825 23.9807 11.9903 23.9807Z" fill="#D9327C"/>
<path fill-rule="evenodd" clip-rule="evenodd" d="M11.5263 6.3241C11.4296 6.40146 11.3136 6.53683 11.2362 6.78824C11.1589 7.03965 10.7334 8.27736 10.1919 9.8245H13.8084C13.2669 8.27736 12.8414 7.03965 12.764 6.78824C12.6867 6.53683 12.5706 6.40146 12.474 6.3241C12.3773 6.24674 12.2419 6.18872 11.9905 6.18872C11.7391 6.18872 11.623 6.24674 11.5263 6.3241ZM6.1887 9.8245H8.64478C9.2443 8.06463 9.76646 6.59485 9.84381 6.3241C9.99853 5.85996 10.2499 5.45383 10.6367 5.16374C11.0235 4.87366 11.4876 4.73828 11.9711 4.73828C12.4546 4.73828 12.9188 4.85432 13.3055 5.16374C13.6923 5.45383 13.9437 5.85996 14.0984 6.3241C14.1951 6.59485 14.698 8.04529 15.2975 9.8245H17.7922C18.1984 9.8245 18.5271 10.1533 18.5271 10.5594C18.5271 10.9655 18.1984 11.2943 17.7922 11.2943H15.839H14.3112H9.6891H8.1613H6.1887C5.78257 11.2943 5.47314 10.9655 5.47314 10.5594C5.47314 10.1533 5.80191 9.8245 6.1887 9.8245ZM6.1887 12.7254C5.78257 12.7254 5.47314 13.0542 5.47314 13.4603C5.47314 13.8664 5.80191 14.1952 6.1887 14.1952H7.15566L6.76887 15.3168L6.38209 16.4385L6.22738 16.864C6.092 17.2508 6.30473 17.6569 6.67218 17.7923C7.05896 17.9276 7.46509 17.7149 7.60046 17.3475L7.75518 16.922L8.14196 15.8003C8.29667 15.3362 8.49007 14.7947 8.7028 14.1952H15.3168C15.5102 14.7753 15.7036 15.3362 15.8777 15.8003L16.2644 16.922L16.4192 17.3475C16.5545 17.7343 16.9607 17.9276 17.3474 17.7923C17.7342 17.6569 17.9276 17.2508 17.7922 16.864L17.6375 16.4385L17.2507 15.3168L16.864 14.1952H17.8309C18.237 14.1952 18.5658 13.8664 18.5658 13.4603C18.5658 13.0542 18.237 12.7254 17.8309 12.7254H16.3611H14.8333H9.22496H7.69716H6.1887ZM17.0767 17.0767L17.7536 16.8446C17.7536 16.8446 17.7536 16.8446 17.0767 17.0767ZM17.0767 17.0767C16.3998 17.3088 16.3998 17.3088 16.3998 17.3088L17.0767 17.0767ZM6.92359 17.0767L7.60046 17.3088C7.60046 17.3088 7.60046 17.3088 6.92359 17.0767ZM6.92359 17.0767C6.24671 16.8446 6.24671 16.8446 6.24671 16.8446L6.92359 17.0767Z" fill="white"/>
</g>
<defs>
<clipPath id="clip0_531_51508">
<rect width="24" height="24" fill="white"/>
</clipPath>
</defs>
</svg>
