<svg width="24" height="24" viewBox="0 0 24 24" fill="none" xmlns="http://www.w3.org/2000/svg">
<g clip-path="url(#clip0_531_51600)">
<mask id="mask0_531_51600" style="mask-type:luminance" maskUnits="userSpaceOnUse" x="0" y="0" width="24" height="24">
<path d="M24 0H0V24H24V0Z" fill="white"/>
</mask>
<g mask="url(#mask0_531_51600)">
<path fill-rule="evenodd" clip-rule="evenodd" d="M21.5625 4.7625C19.7438 2.4375 17.0813 0.95625 14.1375 0.95625C8.4375 0.95625 4.25625 6.2625 4.25625 12C4.25625 15.9937 6.91875 18.9938 9.8625 18.9938C10.1437 18.9938 10.4062 18.975 10.6875 18.9188C8.7 17.475 7.44375 14.85 7.44375 12C7.44375 7.4625 10.5188 3.91875 14.1375 3.91875C18.0938 3.91875 20.8312 7.8375 20.8312 12C20.8125 15.075 19.725 18.1312 17.7938 20.3812C16.1063 22.35 13.9313 23.5875 11.5312 23.9813C11.5312 23.9813 11.7375 24 12 24C18.6187 24 24 18.6187 24 12C24 9.28125 23.1 6.76875 21.5625 4.7625ZM19.7438 12C19.7438 8.00625 17.0813 5.00625 14.1375 5.00625C13.8563 5.00625 13.5938 5.025 13.3125 5.08125C15.3 6.525 16.5563 9.15 16.5563 12C16.5563 16.5375 13.4812 20.0812 9.8625 20.0812C5.90625 20.0812 3.16875 16.1625 3.16875 12C3.1875 8.925 4.275 5.86875 6.20625 3.61875C7.89375 1.65 10.0687 0.4125 12.4688 0.01875C12.4688 0.01875 12.2625 0 12 0C5.38125 0 0 5.38125 0 12C0 14.7188 0.9 17.2312 2.4375 19.2375C4.25625 21.5625 6.91875 23.025 9.8625 23.025C15.5625 23.0438 19.7438 17.7375 19.7438 12Z" fill="#0089DB"/>
</g>
</g>
<defs>
<clipPath id="clip0_531_51600">
<rect width="24" height="24" fill="white"/>
</clipPath>
</defs>
</svg>
