<svg width="24" height="24" viewBox="0 0 24 24" fill="none" xmlns="http://www.w3.org/2000/svg">
<g clip-path="url(#clip0_531_51576)">
<path d="M12 24C18.6276 24 24 18.6276 24 12C24 5.3724 18.6276 0 12 0C5.3724 0 0 5.3724 0 12C0 18.6276 5.3724 24 12 24Z" fill="#20252F"/>
<path d="M19.6138 7.38672H17.0686L15.895 11.2195H18.4054L19.6138 7.38672Z" fill="white"/>
<path d="M15.0456 13.9954L13.7916 11.0314C13.6512 10.6654 13.404 10.351 13.0824 10.1278C12.7608 9.90462 12.378 9.78582 11.9856 9.78582C11.598 9.78582 11.2188 9.90102 10.8984 10.1194C10.578 10.3366 10.3296 10.6462 10.1868 11.0062L8.88241 13.9894L6.89161 7.39062H4.38721L7.36201 17.071C7.41721 17.2486 7.52761 17.4034 7.67641 17.5126C7.82521 17.623 8.00641 17.6818 8.19121 17.6818H9.63001C9.80401 17.683 9.97561 17.6326 10.1208 17.5354C10.266 17.4382 10.3788 17.3002 10.4436 17.1394L11.9856 13.3438L13.5528 17.1514C13.6176 17.3122 13.7292 17.449 13.8732 17.545C14.0172 17.6422 14.1852 17.6938 14.3592 17.6938H15.7752C15.96 17.6938 16.14 17.635 16.2888 17.5246C16.4376 17.4154 16.548 17.2606 16.6032 17.0842L18.0156 12.4978H15.516L15.0456 13.9954Z" fill="white"/>
</g>
<defs>
<clipPath id="clip0_531_51576">
<rect width="24" height="24" fill="white"/>
</clipPath>
</defs>
</svg>
