<svg width="24" height="24" viewBox="0 0 24 24" fill="none" xmlns="http://www.w3.org/2000/svg">
<g clip-path="url(#clip0_531_51668)">
<path d="M12 24C18.6274 24 24 18.6274 24 12C24 5.37258 18.6274 0 12 0C5.37258 0 0 5.37258 0 12C0 18.6274 5.37258 24 12 24Z" fill="#3CEAAA"/>
<path fill-rule="evenodd" clip-rule="evenodd" d="M9.04012 6.36031C9.76012 5.64031 10.9201 5.64031 11.6401 6.36031L13.6001 8.28031L13.9201 7.96031C14.6401 7.24031 15.8001 7.24031 16.5201 7.96031L18.4401 9.84031C19.2001 10.5603 19.2001 11.7603 18.4401 12.5203L13.2401 17.6403C12.5201 18.3603 11.3601 18.3603 10.6401 17.6403L5.44012 12.5203C4.68012 11.8003 4.68012 10.6003 5.44012 9.84031L9.04012 6.36031ZM12.3201 9.60031L10.4001 7.72031L6.80012 11.2003L8.72012 13.0803L12.3201 9.60031ZM10.0801 14.4003L12.0001 16.2803L13.9201 14.4003L12.0001 12.5203L10.0801 14.4003ZM13.3201 11.2003L15.2401 13.0803L17.2001 11.2003L15.2801 9.32031L13.3201 11.2003Z" fill="black" fill-opacity="0.6"/>
</g>
<defs>
<clipPath id="clip0_531_51668">
<rect width="24" height="24" fill="white"/>
</clipPath>
</defs>
</svg>
