<svg width="24" height="24" viewBox="0 0 24 24" fill="none" xmlns="http://www.w3.org/2000/svg">
<g clip-path="url(#clip0_531_51677)">
<path d="M14.4203 0.233227L12.1519 2.84547L12.6177 3.38192C12.6799 3.45455 12.754 3.51223 12.8357 3.55159C12.9174 3.59096 13.0051 3.61124 13.0937 3.61124C13.1822 3.61124 13.2699 3.59096 13.3516 3.55159C13.4333 3.51223 13.5074 3.45455 13.5696 3.38192L15.838 0.76967L15.3722 0.233227C15.31 0.160593 15.2359 0.102915 15.1542 0.0635472C15.0725 0.0241793 14.9848 0.00390625 14.8962 0.00390625C14.8076 0.00390625 14.7199 0.0241793 14.6382 0.0635472C14.5565 0.102915 14.4824 0.160593 14.4203 0.233227ZM8.6481 0.233227L8.10127 0.76967L10.4709 3.38192C10.5313 3.45386 10.6037 3.51107 10.6837 3.55014C10.7638 3.58922 10.8498 3.60935 10.9367 3.60935C11.0236 3.60935 11.1097 3.58922 11.1897 3.55014C11.2697 3.51107 11.3421 3.45386 11.4025 3.38192L11.8684 2.84547L9.57975 0.233227C9.51931 0.161281 9.44693 0.10407 9.3669 0.0649971C9.28688 0.0259245 9.20085 0.00578916 9.11392 0.00578916C9.027 0.00578916 8.94097 0.0259245 8.86094 0.0649971C8.78092 0.10407 8.70853 0.161281 8.6481 0.233227ZM16.5671 3.6618L12.2532 8.62973L13.1241 9.65597C13.3624 9.9238 13.6822 10.0737 14.0152 10.0737C14.3482 10.0737 14.668 9.9238 14.9063 9.65597L19.2203 4.66471L18.3494 3.6618C18.1145 3.39544 17.798 3.24614 17.4684 3.24614C17.1387 3.24614 16.8222 3.39544 16.5873 3.6618H16.5671ZM5.65063 3.6618L4.77975 4.66471L9.09367 9.63264C9.20896 9.77092 9.34733 9.88093 9.50047 9.95609C9.6536 10.0312 9.81835 10.07 9.98481 10.07C10.1513 10.07 10.316 10.0312 10.4692 9.95609C10.6223 9.88093 10.7607 9.77092 10.8759 9.63264L11.7468 8.62973L7.43291 3.6618C7.19458 3.39397 6.87477 3.24404 6.54177 3.24404C6.20877 3.24404 5.88896 3.39397 5.65063 3.6618ZM11.5241 3.54518L11.0785 4.08162L12.0101 5.15451L12.9418 4.08162L12.4759 3.54518C12.4155 3.47323 12.3431 3.41602 12.2631 3.37695C12.1831 3.33788 12.097 3.31774 12.0101 3.31774C11.9232 3.31774 11.8372 3.33788 11.7571 3.37695C11.6771 3.41602 11.6047 3.47323 11.5443 3.54518H11.5241ZM19.6253 8.51311L12.4354 16.7697L13.8734 18.449C14.0629 18.682 14.2918 18.8678 14.5461 18.9948C14.8005 19.1218 15.0747 19.1873 15.3519 19.1873C15.6291 19.1873 15.9033 19.1218 16.1576 18.9948C16.412 18.8678 16.6409 18.682 16.8304 18.449L24 10.1924L22.562 8.51311C22.3726 8.28008 22.1436 8.09432 21.8893 7.96732C21.635 7.84032 21.3607 7.77479 21.0835 7.77479C20.8063 7.77479 20.5321 7.84032 20.2778 7.96732C20.0235 8.09432 19.7945 8.28008 19.6051 8.51311H19.6253ZM1.39747 8.51311L0 10.1691L7.16962 18.449C7.35907 18.682 7.58804 18.8678 7.84235 18.9948C8.09666 19.1218 8.37091 19.1873 8.6481 19.1873C8.9253 19.1873 9.19954 19.1218 9.45385 18.9948C9.70817 18.8678 9.93713 18.682 10.1266 18.449L11.5848 16.7697L4.41519 8.51311C4.22574 8.28008 3.99677 8.09432 3.74246 7.96732C3.48815 7.84032 3.2139 7.77479 2.93671 7.77479C2.65951 7.77479 2.38527 7.84032 2.13096 7.96732C1.87664 8.09432 1.64768 8.28008 1.45823 8.51311H1.39747ZM11.0582 9.95917L10.1873 10.9621L11.9494 12.9912L13.7722 10.9621L12.9013 9.95917C12.7845 9.82378 12.6457 9.71632 12.4928 9.64299C12.3398 9.56965 12.1758 9.5319 12.0101 9.5319C11.8445 9.5319 11.6804 9.56965 11.5275 9.64299C11.3745 9.71632 11.2357 9.82378 11.119 9.95917H11.0582ZM10.5316 18.9621L9.07342 20.6181L12.0101 24L14.9266 20.6181L13.4886 18.9621C13.2992 18.7291 13.0702 18.5433 12.8159 18.4163C12.5616 18.2893 12.2873 18.2238 12.0101 18.2238C11.7329 18.2238 11.4587 18.2893 11.2044 18.4163C10.9501 18.5433 10.7211 18.7291 10.5316 18.9621Z" fill="url(#paint0_linear_531_51677)"/>
</g>
<defs>
<linearGradient id="paint0_linear_531_51677" x1="8.90633" y1="13.9781" x2="28.8263" y2="13.9781" gradientUnits="userSpaceOnUse">
<stop stop-color="#7CB7FF"/>
<stop offset="1" stop-color="#BA6DF6"/>
</linearGradient>
<clipPath id="clip0_531_51677">
<rect width="24" height="24" fill="white"/>
</clipPath>
</defs>
</svg>
