<svg width="24" height="24" viewBox="0 0 24 24" fill="none" xmlns="http://www.w3.org/2000/svg">
<g clip-path="url(#clip0_531_51671)">
<path d="M12 24C18.6421 24 24 18.6421 24 12C24 5.35793 18.5978 0 12 0C5.35793 0 0 5.35793 0 12C0 18.5978 5.35793 24 12 24Z" fill="white"/>
<path d="M21.2545 4.51694C20.4132 4.69406 19.6161 4.91546 18.9962 5.0483C17.4907 5.40255 16.118 6.50956 15.808 8.59074C15.5423 10.4505 16.1623 11.2476 15.8966 13.4173C15.4095 17.2254 11.7785 18.5096 10.0959 19.3066C9.12168 19.7494 6.73054 20.8121 4.91504 21.6092C6.90766 23.0704 9.34308 23.9561 12.0442 23.9561C18.6863 23.9561 24.0442 18.5981 24.0442 11.9561C24.0442 9.1221 23.07 6.55384 21.4316 4.47266C21.3431 4.51694 21.2988 4.51694 21.2545 4.51694Z" fill="url(#paint0_linear_531_51671)"/>
<path d="M10.6273 10.2288C11.5572 8.23616 11.203 8.23616 11.9114 6.3321C12.797 3.94096 15.5424 4.64945 16.2952 4.73801C17.5351 4.91513 17.8893 4.47232 20.5018 4.02952C20.6347 4.02952 20.7675 3.98524 20.9004 3.98524C18.6863 1.54982 15.4982 0 11.9557 0C7.21771 0 3.09963 2.78967 1.15129 6.81919C5.13653 7.79336 9.38745 9.91882 10.6273 10.2288ZM8.01476 2.08118C8.369 2.12546 10.0517 4.25092 10.3616 9.65314C10.3616 9.65314 8.19188 9.12177 7.7048 8.01476C7.35055 7.08487 7.83764 5.84502 8.01476 2.08118ZM0 12C0 11.0258 0.132841 10.0959 0.309963 9.21033C0.752768 9.56457 1.19557 9.9631 1.68266 10.4502C4.82657 13.3284 9.87454 15.631 11.7343 13.5055C11.3801 13.9483 10.0959 15.3653 7.66052 14.9225L3.80812 20.7232C1.46125 18.5535 0 15.4539 0 12Z" fill="url(#paint1_linear_531_51671)"/>
</g>
<defs>
<linearGradient id="paint0_linear_531_51671" x1="16.2865" y1="7.12443" x2="13.4579" y2="22.7076" gradientUnits="userSpaceOnUse">
<stop stop-color="#FF496A"/>
<stop offset="1" stop-color="#E42648"/>
</linearGradient>
<linearGradient id="paint1_linear_531_51671" x1="6.88645" y1="18.0509" x2="13.1405" y2="0.389269" gradientUnits="userSpaceOnUse">
<stop offset="0.00181229" stop-color="#1158F1"/>
<stop offset="1" stop-color="#119BED"/>
</linearGradient>
<clipPath id="clip0_531_51671">
<rect width="24" height="24" fill="white"/>
</clipPath>
</defs>
</svg>
