<svg width="24" height="24" viewBox="0 0 24 24" fill="none" xmlns="http://www.w3.org/2000/svg">
<g clip-path="url(#clip0_531_51298)">
<path d="M0 12C0 7.52 0 5.28 0.96 3.62667C1.6 2.50667 2.50667 1.6 3.62667 0.96C5.28 0 7.52 0 12 0C16.48 0 18.72 0 20.4267 0.96C21.4933 1.6 22.4 2.50667 23.04 3.62667C24 5.28 24 7.52 24 12C24 16.48 24 18.72 23.04 20.4267C22.4 21.5467 21.4933 22.4533 20.4267 23.04C18.72 24 16.48 24 12 24C7.52 24 5.28 24 3.62667 23.04C2.50667 22.4 1.6 21.4933 0.96 20.3733C0 18.72 0 16.48 0 12Z" fill="#7A52D1"/>
<path fill-rule="evenodd" clip-rule="evenodd" d="M6.3999 12.2664V7.73302H8.6399V12.2664C8.6399 13.4397 8.9599 14.1864 9.54657 14.7197C10.1332 15.253 10.8799 15.573 11.9999 15.573C13.1732 15.573 13.9199 15.253 14.4532 14.7197C14.9866 14.1864 15.3599 13.3864 15.3599 12.213V7.67969H17.5999V12.2664C17.5999 13.8664 17.1199 15.3064 16.0532 16.3197C14.9866 17.333 13.6532 17.813 11.9999 17.813C10.3999 17.813 9.01324 17.333 7.94657 16.3197C6.8799 15.3064 6.3999 13.8664 6.3999 12.2664ZM13.1199 12.213V7.78635H10.8799V12.213C10.8799 12.6397 10.9866 12.9064 11.1999 13.1197C11.4132 13.333 11.6266 13.4397 11.9999 13.4397C12.3732 13.4397 12.6399 13.333 12.7999 13.1197C13.0132 12.9064 13.1199 12.6397 13.1199 12.213Z" fill="white"/>
</g>
<defs>
<clipPath id="clip0_531_51298">
<rect width="24" height="24" fill="white"/>
</clipPath>
</defs>
</svg>
