<svg width="24" height="24" viewBox="0 0 24 24" fill="none" xmlns="http://www.w3.org/2000/svg">
<g clip-path="url(#clip0_531_51675)">
<path d="M12 24.0003C11.3531 24.0003 10.7062 23.8396 10.1402 23.5474L1.87601 19.2382C0.71159 18.6247 0 17.5146 0 16.3021V7.68376C0 6.48595 0.71159 5.36118 1.85984 4.76227L10.1402 0.453085C11.2884 -0.14582 12.7116 -0.14582 13.876 0.453085L22.1402 4.76227C23.2884 5.36118 24 6.48595 24 7.68376V16.3167C24 17.5146 23.2884 18.6393 22.1402 19.2382L13.876 23.5474C13.2938 23.8396 12.6631 24.0003 12 24.0003ZM12 1.16885C11.5795 1.16885 11.159 1.2711 10.7871 1.461L2.50674 5.78479C1.74663 6.17919 1.2938 6.90957 1.2938 7.68376V16.3167C1.2938 17.1055 1.7628 17.8213 2.50674 18.2157L10.7709 22.5395C11.531 22.9339 12.4528 22.9339 13.2129 22.5395L21.4771 18.2303C22.221 17.8359 22.69 17.1202 22.69 16.3314V7.68376C22.69 6.89496 22.221 6.16459 21.4771 5.78479L13.2291 1.461C12.8571 1.2711 12.4367 1.16885 12 1.16885ZM12 20.0855C11.6442 20.0855 11.3046 19.9978 10.9973 19.8371L4.98113 16.7111C4.36658 16.3898 3.97844 15.7909 3.97844 15.1335V8.86696C3.97844 8.22423 4.3504 7.62533 4.98113 7.28936L10.9973 4.16337C11.628 3.84201 12.3881 3.84201 13.0027 4.16337L19.0027 7.28936C19.6173 7.61072 20.0054 8.20963 20.0054 8.86696V15.1335C20.0054 15.7763 19.6173 16.3898 19.0027 16.7111L12.9865 19.8371C12.6954 19.9978 12.3558 20.0855 12 20.0855ZM12 4.79149C11.8221 4.79149 11.6442 4.83531 11.4825 4.92296L5.46631 8.04895C5.14286 8.22423 4.94879 8.53099 4.94879 8.86696V15.1335C4.94879 15.4695 5.14286 15.7763 5.46631 15.9516L11.4825 19.0776C11.8059 19.2528 12.1941 19.2528 12.5175 19.0776L18.5175 15.9516C18.841 15.7763 19.035 15.4695 19.035 15.1335V8.86696C19.035 8.53099 18.841 8.22423 18.5175 8.04895L12.5175 4.92296C12.372 4.83531 12.1941 4.79149 12 4.79149ZM12 16.1122C11.8221 16.1122 11.6442 16.0684 11.4825 15.9954L8.44205 14.3886C8.1186 14.2279 7.92453 13.9065 7.92453 13.5852V10.4007C7.92453 10.0648 8.1186 9.75801 8.44205 9.59733L11.4825 8.00512C11.8059 7.84444 12.1941 7.84444 12.5175 8.00512L15.558 9.59733C15.8814 9.75801 16.0755 10.0648 16.0755 10.4007V13.5852C16.0755 13.9211 15.8814 14.2279 15.558 14.3886L12.5175 15.9808C12.3558 16.0684 12.1779 16.1122 12 16.1122ZM12 8.47256C11.9353 8.47256 11.8706 8.48717 11.8059 8.51638L8.7655 10.1086C8.65229 10.167 8.57143 10.2839 8.57143 10.4007V13.5852C8.57143 13.702 8.65229 13.8189 8.7655 13.8919L11.8059 15.4841C11.9191 15.5426 12.0647 15.5426 12.1941 15.4841L15.2345 13.8919C15.3477 13.8335 15.4286 13.702 15.4286 13.5852V10.4007C15.4286 10.2839 15.3477 10.167 15.2345 10.1086L12.1941 8.51638C12.1294 8.48717 12.0647 8.47256 12 8.47256Z" fill="url(#paint0_linear_531_51675)"/>
</g>
<defs>
<linearGradient id="paint0_linear_531_51675" x1="0" y1="11.997" x2="24.0065" y2="11.997" gradientUnits="userSpaceOnUse">
<stop stop-color="#E168FD"/>
<stop offset="1" stop-color="#7B00FC"/>
</linearGradient>
<clipPath id="clip0_531_51675">
<rect width="24" height="24" fill="white"/>
</clipPath>
</defs>
</svg>
