<svg width="24" height="24" viewBox="0 0 24 24" fill="none" xmlns="http://www.w3.org/2000/svg">
<g clip-path="url(#clip0_531_50977)">
<path d="M12 24C18.6274 24 24 18.6274 24 12C24 5.37258 18.6274 0 12 0C5.37258 0 0 5.37258 0 12C0 18.6274 5.37258 24 12 24Z" fill="#988430"/>
<path d="M11.9999 23.616C18.415 23.616 23.6155 18.4155 23.6155 12.0004C23.6155 5.58525 18.415 0.384766 11.9999 0.384766C5.58477 0.384766 0.384277 5.58525 0.384277 12.0004C0.384277 18.4155 5.58477 23.616 11.9999 23.616Z" fill="#7A6A2A"/>
<path d="M11.9998 23.3707C18.2798 23.3707 23.3707 18.2798 23.3707 11.9998C23.3707 5.71982 18.2798 0.628906 11.9998 0.628906C5.71982 0.628906 0.628906 5.71982 0.628906 11.9998C0.628906 18.2798 5.71982 23.3707 11.9998 23.3707Z" fill="#BA9F33"/>
<path fill-rule="evenodd" clip-rule="evenodd" d="M5.24683 10.7175C5.17886 10.6554 5.10705 10.5932 5.041 10.5311C4.97496 10.469 4.90712 10.4068 4.83915 10.3448L4.63717 10.1528C4.60414 10.1197 4.5692 10.0907 4.53617 10.0575C4.50315 10.0285 4.46436 9.99544 4.43134 9.96626C4.16331 9.71192 3.89374 9.45759 3.62942 9.20312C3.90321 9.45362 4.17125 9.70232 4.44504 9.95653L4.54014 10.0518C4.57316 10.0847 4.60811 10.1138 4.64113 10.1469L4.84299 10.3332C4.91096 10.3953 4.977 10.4575 5.04497 10.5252C5.11294 10.5929 5.17899 10.6553 5.24696 10.7172L5.24683 10.7175ZM1.68958 10.6791C1.68958 10.6791 2.6643 10.78 3.14008 10.8479C3.58078 10.9101 4.95947 11.1217 4.95947 11.1217L1.68958 10.6791ZM1.68958 10.6791C1.96337 10.7024 2.23717 10.7314 2.51096 10.7606C2.65073 10.7742 2.78475 10.7897 2.91877 10.8033L3.12446 10.8267C3.19243 10.8363 3.25848 10.846 3.32644 10.8557L4.14206 10.9858L4.54974 11.0537C4.68376 11.077 4.81777 11.1024 4.95755 11.1257C4.82353 11.1121 4.68376 11.0927 4.54974 11.0732L4.14206 11.015L3.32644 10.8946C3.25848 10.8849 3.19243 10.8712 3.12446 10.8616L2.91864 10.8379C2.78462 10.8244 2.64485 10.8049 2.51083 10.7893C2.23704 10.7564 1.96325 10.7213 1.68945 10.6787L1.68958 10.6791ZM4.86244 11.3757C4.86244 11.3757 3.82168 11.6399 3.47019 11.7409C3.12459 11.836 2.07793 12.1544 2.07793 12.1544L4.86232 11.3758L4.86244 11.3757Z" fill="#CFB66C"/>
<path fill-rule="evenodd" clip-rule="evenodd" d="M4.86203 11.377C4.63099 11.4449 4.40123 11.511 4.16686 11.5732L3.47169 11.7595C3.24065 11.8275 3.01089 11.8936 2.78049 11.9615L2.43489 12.0566C2.32033 12.0897 2.20385 12.1187 2.08545 12.1519C2.19988 12.1135 2.31649 12.0742 2.43105 12.0411L2.77665 11.9306C3.00769 11.8586 3.23745 11.7906 3.46785 11.7188C3.70273 11.6606 3.9339 11.5984 4.16878 11.5421C4.39201 11.4858 4.62702 11.4296 4.86203 11.3771V11.377ZM2.22331 12.7965C2.33774 12.7537 3.65819 12.1383 3.965 11.9946C4.1186 11.9226 4.56507 11.7642 4.56507 11.7642L2.22331 12.7965Z" fill="#CFB66C"/>
<path fill-rule="evenodd" clip-rule="evenodd" d="M2.22327 12.7967C2.32414 12.7583 2.41937 12.7113 2.51639 12.6667L2.80375 12.5326L3.38052 12.255C3.57252 12.1637 3.75914 12.063 3.95716 11.9772C4.05815 11.9346 4.15914 11.8997 4.26001 11.8667L4.41361 11.8181C4.46596 11.8046 4.5146 11.789 4.56721 11.7754C4.37521 11.8667 4.1731 11.9444 3.98084 12.0336C3.78884 12.1288 3.59249 12.2065 3.39434 12.2919L2.80798 12.55C2.61111 12.6298 2.41911 12.7152 2.22314 12.7967H2.22327ZM2.35127 13.3343C2.35127 13.3343 3.5473 12.6334 3.95895 12.4081C4.1745 12.2878 4.87159 11.942 4.87159 11.942L2.35127 13.3343Z" fill="#CFB66C"/>
<path fill-rule="evenodd" clip-rule="evenodd" d="M2.35156 13.3336C2.55342 13.2093 2.75924 13.0831 2.96507 12.955L3.27227 12.7685C3.3771 12.7064 3.47809 12.6482 3.58497 12.5861C3.6898 12.5239 3.79079 12.4618 3.89755 12.4035C3.94837 12.3722 4.00161 12.3449 4.05678 12.322L4.21985 12.2405C4.4354 12.1356 4.65095 12.0288 4.87815 11.9375C4.67233 12.0677 4.46062 12.1784 4.24903 12.2928C4.1442 12.3511 4.03732 12.4035 3.93249 12.4618C3.82766 12.52 3.72667 12.5822 3.61979 12.6386C3.51495 12.7006 3.41396 12.7589 3.30721 12.8152L2.99067 12.988L2.35182 13.3336H2.35156ZM4.86215 12.0947C4.86215 12.0947 4.11847 12.6656 3.87771 12.8481C3.63694 13.0306 2.9282 13.5433 2.9282 13.5433L4.86215 12.0947Z" fill="#CFB66C"/>
<path fill-rule="evenodd" clip-rule="evenodd" d="M9.13006 16.6998L8.74951 15.9794L8.97082 15.0784L10.5494 14.4687L9.87758 13.0902L10.2096 11.6979L10.833 10.4512L12.7592 10.1483L14.1747 8.79883L17.231 9.02987L17.831 12.2978L16.6757 16.4124L16.0175 18.5426L13.3494 18.6436L12.1107 17.7853L10.6602 17.1794L9.13006 16.6998Z" fill="#E2CC85"/>
<path fill-rule="evenodd" clip-rule="evenodd" d="M13.81 16.675C13.81 16.675 13.441 16.844 12.8116 16.8051C12.6295 16.5604 11.3538 16.4459 11.3538 16.4459C11.3538 16.4459 11.1946 16.3974 10.913 16.5139C10.6296 16.6291 10.3616 16.6148 10.1111 16.6769C9.86056 16.739 9.61186 16.4129 9.41986 16.3449C9.22786 16.2731 8.97327 16.1003 8.97327 16.1003L8.43567 16.0478L7.35611 15.5915L5.64104 13.8828L5.17499 14.6124L5.03125 15.5153L5.54978 16.5853L6.94587 17.8571L9.66818 18.5483L11.2817 18.0729L13.3031 17.2185L13.81 16.6749V16.675Z" fill="#F1D789"/>
<path fill-rule="evenodd" clip-rule="evenodd" d="M4.13767 10.6378L4.48327 9.59125L4.89505 8.91541L6.22113 8.80469L5.82305 9.9659L4.71444 11.9388L5.1746 13.6999L4.35911 14.1076L4.10849 13.7232L3.90663 12.8417L3.89307 11.8513L4.13767 10.6378Z" fill="#F4ECB4"/>
<path fill-rule="evenodd" clip-rule="evenodd" d="M5.62513 16.603L5.37079 16.2477C5.37079 16.2477 5.30282 16.0787 5.34174 15.9311C5.38014 15.7816 5.37463 15.7719 5.3553 15.7156C5.33598 15.6593 5.17278 15.4651 5.1825 15.2981C5.1921 15.1291 5.16894 15.0728 5.2931 14.9389C5.42314 14.8088 5.38436 14.5836 5.38436 14.5836L5.55332 14.6884L5.59172 14.6302C5.59172 14.6302 5.6538 14.6787 5.6538 14.7544C5.66737 14.6496 5.61105 14.1641 5.73918 14.0535C5.8673 13.9429 6.0945 14.5719 6.0945 14.5719L5.95473 13.6593L5.59543 12.7235L4.95658 11.8691L4.91818 10.9272V10.8457C4.91818 10.8457 4.62494 11.2963 4.5434 11.6521C4.48516 11.8967 4.62494 12.1938 4.59588 12.5453C4.57246 12.8949 4.5434 12.8676 4.62878 13.0061C4.71415 13.1446 4.92202 13.4294 4.84049 13.6352C4.76868 13.812 4.52394 13.6877 4.52394 13.6877C4.52394 13.6877 4.47543 13.8313 4.40938 13.8838C4.38609 13.7984 4.36087 13.744 4.31428 13.6918C4.31031 13.7248 4.30071 13.7695 4.30071 13.7695C4.30071 13.7695 4.25796 13.6355 4.21521 13.4665C4.1571 13.2414 4.09489 12.9443 4.03857 12.785C4.01527 12.8763 3.95703 13.1539 3.95703 13.1539L3.99006 13.5812L4.14929 14.1676L4.30289 14.5516L4.45239 15.0214L4.58231 15.3371L4.68714 15.5779L4.77841 16.1197L5.21911 16.5856L5.45412 16.6906L5.62487 16.6031L5.62513 16.603Z" fill="#F3E19D"/>
<path fill-rule="evenodd" clip-rule="evenodd" d="M4.36876 9.78278C4.36876 9.78278 4.05222 10.3204 3.96108 10.8623C3.86995 11.4043 3.78828 11.977 3.84588 12.7147C3.90412 13.4586 4.01484 13.9147 4.10419 14.241C4.25779 14.7828 4.65561 15.5363 4.65561 15.5363L4.66918 15.5071C4.60231 15.3803 4.54894 15.2469 4.50995 15.109C4.45747 14.9032 4.43801 14.6586 4.3895 14.5478C4.34675 14.4372 4.27494 14.342 4.24 14.2061C4.20697 14.076 4.2016 13.8702 4.10022 13.7169C4.05747 13.6547 4.00499 13.4916 3.9895 13.3285C3.97004 13.0838 3.99923 12.81 3.97593 12.5848C3.93318 12.21 3.90412 11.9557 3.94291 11.7595C3.98169 11.5633 4.1838 11.0062 4.30809 10.5635C4.38963 10.2799 4.34099 10.0411 4.49049 9.79443C4.64 9.54982 4.73139 9.33427 4.76428 9.18476C4.80268 9.04883 4.36825 9.78278 4.36825 9.78278H4.36876Z" fill="#F2E8B0"/>
<path fill-rule="evenodd" clip-rule="evenodd" d="M5.86996 9.56641C5.86996 9.56641 5.70689 9.61505 5.6292 9.70042C5.5515 9.78196 5.51848 9.84993 5.41364 9.98778C5.30881 10.1256 5.30292 10.2383 5.21742 10.4111C5.13204 10.58 4.94363 10.8344 4.92033 10.9256C4.89704 11.0169 4.85825 11.444 4.80974 11.646C4.76699 11.848 4.85825 12.0966 4.85825 12.0966L4.96884 12.0732C4.96884 12.0732 4.96884 12.2169 5.07956 12.3141C5.19016 12.4092 5.20961 11.9916 5.20961 11.9916L5.62318 10.5955L6.24641 10.1722L6.31438 9.83047L5.86971 9.56641H5.86996Z" fill="#F5EEC0"/>
<path fill-rule="evenodd" clip-rule="evenodd" d="M6.17265 10.2005C6.17265 10.2005 5.87941 10.2198 5.73579 10.3248C5.67755 10.3674 5.65425 10.4024 5.59217 10.4548C5.47761 10.5499 5.36101 10.6374 5.30481 10.762C5.24261 10.8862 5.17464 11.0746 5.12805 11.4299C5.10859 11.5794 5.10859 11.7173 5.09502 11.8377C5.07557 12.0008 5.04651 12.1309 5.062 12.2217C5.08145 12.4081 5.27371 12.5053 5.2924 12.7169L5.69048 12.515L6.06526 11.0372L6.86142 10.538L6.41086 10.0332L6.17214 10.1996L6.17265 10.2005Z" fill="#E6DB9D"/>
<path fill-rule="evenodd" clip-rule="evenodd" d="M4.07288 20.1516C4.07455 20.137 4.07621 20.1224 4.07787 20.1075C4.13599 19.6083 4.14584 19.2299 4.18847 18.993C4.25055 18.6571 4.2933 18.5322 4.28357 18.4065C4.27 18.2046 4.25451 18.057 4.27397 17.9016C4.30303 17.6958 4.50501 17.4512 4.49925 17.2822C4.49528 17.1482 4.42731 17.0609 4.36907 16.9794C4.31083 16.8979 4.26424 16.8299 4.26424 16.8299C4.26424 16.8299 4.66232 16.5561 4.65848 15.4531C4.66661 15.4554 4.67443 15.4587 4.68178 15.4629L4.87787 16.02L5.01189 16.1831L5.52645 17.1423L6.18859 17.7852L7.16715 18.4433L7.78079 19.1111L7.84287 20.8917L7.04095 21.9325L6.90962 22.1703C5.86625 21.6465 4.90949 20.9656 4.07275 20.1515L4.07288 20.1516Z" fill="#E5CB7A"/>
<path fill-rule="evenodd" clip-rule="evenodd" d="M6.52246 21.8545C6.52246 21.8545 6.53603 21.6332 6.71856 21.4895C6.74774 21.538 6.76707 21.5847 6.76131 21.6195C6.79433 21.5614 7.02537 21.1886 7.54774 21.0914C8.07011 20.9963 8.19632 20.6158 8.19632 20.6158L9.30492 19.608L10.5729 18.441L12.1147 17.8992L12.8352 17.7224C12.8352 17.7224 12.8487 17.7749 12.8216 17.8914C12.9555 17.8818 13.2526 17.8138 13.5613 17.705C13.6856 17.6565 13.8022 17.6371 13.8643 17.7012C13.9555 17.7866 13.9691 17.9886 13.9749 18.1089C14.1244 18.0758 14.2972 17.9322 14.4357 17.9458C14.6571 17.9691 14.8532 18.2293 15.0785 18.2293C15.3756 18.2293 15.5095 18.0468 15.7173 17.903C15.8416 17.8177 16.0202 17.711 16.1212 17.639C16.3619 17.4622 18.9095 16.6836 18.9095 16.6836L19.8027 16.7418L19.9465 17.7011L19.8697 20.2086C19.8602 20.2177 19.8507 20.2271 19.8411 20.2362L15.7799 22.3573L10.1505 23.2203C8.88948 23.0143 7.67258 22.5957 6.55164 21.9824L6.52284 21.8544L6.52246 21.8545Z" fill="#D8C173"/>
<path fill-rule="evenodd" clip-rule="evenodd" d="M4.41406 20.4705C4.49406 20.3032 4.566 20.1633 4.57867 20.1133C4.58865 20.2141 4.60696 20.4355 4.64382 20.6707C4.56642 20.6049 4.48984 20.5382 4.41406 20.4704V20.4705Z" fill="#F1D789"/>
<path fill-rule="evenodd" clip-rule="evenodd" d="M8.52629 22.8303L9.25435 22.6278L9.31643 22.6472C9.31643 22.6472 9.34945 22.6667 9.34945 22.7326C9.44072 22.6803 9.51842 22.6899 9.57474 22.655C9.60379 22.7171 9.63285 22.923 9.7611 22.9482C9.89499 22.9774 10.0387 22.8899 10.1844 22.7793C10.328 22.6648 10.4916 22.521 10.6154 22.4628C10.6608 22.5463 10.701 22.6325 10.7358 22.721C10.8989 22.5909 11.1824 22.0628 11.5863 22.0724C11.703 21.7966 11.898 21.561 12.1472 21.3948C12.5219 21.1404 12.7568 21.121 13.0501 21.1443C13.1665 20.993 13.3101 20.8646 13.4734 20.7656C13.5219 20.7851 13.6559 20.8666 13.8229 20.7889C13.9919 20.7114 14.1821 20.4103 14.4326 20.3715C14.5676 20.353 14.7048 20.3818 14.8209 20.4531C14.8209 20.4531 15.5505 19.7287 16.054 19.4879C16.0345 19.4297 15.9957 19.2103 16.5859 18.7248C16.619 18.754 16.5957 18.8355 16.619 18.84C16.6286 18.84 16.7726 18.7779 16.9548 18.638C17.1801 18.4692 17.4499 18.2924 17.613 18.2439C17.9202 18.1526 18.2461 18.339 18.2461 18.339C18.2738 18.3196 18.3047 18.3051 18.3374 18.2963C18.4149 18.2827 18.4712 18.273 18.514 18.2579C18.5102 18.3589 18.5665 18.5317 18.514 18.6812C18.5748 18.7153 18.6392 18.7427 18.706 18.7627C18.6731 18.8345 18.6012 19.017 18.4808 19.1045C18.5817 19.153 18.5953 19.2093 18.739 19.2581C18.6808 19.3396 18.5854 19.4795 18.5429 19.5653C18.5002 19.6565 18.3467 20.0351 18.2787 20.1788C18.2069 20.3225 18.1099 20.5866 18.0632 20.6396C18.0165 20.6926 17.8476 20.9172 17.7176 21.0278C17.8328 20.985 18.3041 20.8414 18.504 20.787C18.4445 20.8743 18.1428 21.3219 17.8528 21.7524C16.464 22.5848 14.9138 23.1116 13.3055 23.2978C11.6971 23.484 10.0676 23.3253 8.52539 22.8322L8.52629 22.8303Z" fill="#E0CD81"/>
<path fill-rule="evenodd" clip-rule="evenodd" d="M6.22062 10.1472C6.22062 10.1472 6.05178 10.1472 6.01876 10.1705C5.98574 10.1938 6.18772 10.2424 6.2498 10.2657C6.31188 10.289 6.4459 10.3957 6.48084 10.4812C6.51386 10.5628 7.69441 11.0384 7.69441 11.0384L8.52935 10.9957L8.81722 10.598L8.26964 10.1184L8.65364 8.98633L8.14497 9.06786L6.92167 9.79746L6.30804 10.0325L6.22062 10.1472Z" fill="#DFC57C"/>
<path fill-rule="evenodd" clip-rule="evenodd" d="M8.05432 10.5233C8.06639 10.5428 8.08339 10.5588 8.10361 10.5697C8.12383 10.5806 8.14656 10.586 8.16952 10.5854C8.34232 10.5854 8.50142 10.6281 8.56747 10.7154C8.67819 10.8553 8.98501 11.3019 8.98501 11.3019L9.71896 11.566L9.76632 10.7017L8.9644 10.1445L8.05176 10.4804V10.5232H8.05381L8.05432 10.5233Z" fill="#E5CC7C"/>
<path fill-rule="evenodd" clip-rule="evenodd" d="M7.91061 10.8428C7.91061 10.8428 8.04449 10.8525 8.21345 10.7903C8.38241 10.7281 8.66005 10.5942 8.78049 10.6467C8.94933 10.7185 8.91438 10.9438 9.09704 11.1459C9.20763 11.2702 9.40961 11.2663 9.52417 11.4004C9.63873 11.5344 10.0328 11.4722 10.0328 11.4722L10.1823 12.2786L9.58241 13.0476L9.38619 14.0029H8.57493L7.83381 13.7088L7.46875 12.8256L7.65128 11.9325L7.91061 10.8428Z" fill="#D2C281"/>
<path fill-rule="evenodd" clip-rule="evenodd" d="M9.47974 10.8812C9.49986 10.8874 9.52077 10.8907 9.54182 10.8909C9.51853 10.9104 9.46989 10.953 9.48934 11.0637C9.5088 11.1744 9.57088 11.3142 9.51853 11.3996C9.56032 11.4453 9.59149 11.4997 9.60979 11.5588C9.64282 11.654 9.65254 11.7413 9.86797 11.755C9.83688 11.7742 9.80821 11.797 9.78259 11.823C9.78259 11.823 9.9321 11.9531 10.0079 12.0734C10.0854 12.07 10.2913 12.006 10.2913 12.006L10.334 12.0352L10.4253 11.9968C10.4253 11.9968 10.3399 11.9638 10.402 11.7561C10.4602 11.5735 10.5127 11.5833 10.5172 11.5697C10.5217 11.5561 10.5599 11.3639 10.5599 11.2862C10.589 11.1853 10.6123 10.8785 10.6123 10.8785L10.5502 10.2009L10.2008 9.98915L9.91661 9.71484L9.64858 10.2197L9.47206 10.3957L9.4585 10.8325L9.47974 10.8812Z" fill="#E2C270"/>
<path fill-rule="evenodd" clip-rule="evenodd" d="M10.3203 10.3139C10.3203 10.3139 10.3824 10.4906 10.4058 10.6265C10.4141 10.6001 10.4186 10.5726 10.4194 10.545C10.4194 10.545 10.4679 10.813 10.4775 10.9237C10.497 10.9198 10.5159 10.914 10.5202 10.9333C10.5246 10.9526 10.5689 11.1683 10.5586 11.2886C10.6395 11.1553 10.7514 11.0434 10.8848 10.9625C10.9625 10.9139 11.0538 10.8615 11.149 10.8575C11.2985 10.8537 11.4072 10.9528 11.5858 10.9528C12.0168 10.9528 12.4072 10.6362 12.6946 10.5392C12.9062 10.4673 13.0887 10.4149 13.2168 10.2983C13.279 10.246 13.3898 10.1295 13.4906 9.95655C13.6246 9.72615 13.7644 9.52558 13.9043 9.50036C13.841 9.51199 13.7766 9.51654 13.7123 9.51393C13.7123 9.51393 13.7551 9.47118 13.8275 9.41294C13.9 9.3547 13.9867 9.28289 14.1109 9.28289C14.3323 9.28289 14.4429 9.31578 14.5672 9.31578C14.6915 9.31194 14.7633 9.28289 14.7633 9.28289C14.7633 9.28289 14.8935 9.37415 15.1866 9.37415C15.4799 9.37799 15.676 9.40321 15.8294 9.4169C15.9829 9.4306 16.4973 9.37415 16.6449 9.3785C16.7411 9.38221 16.8356 9.40533 16.9227 9.44647L16.4469 8.06407L14.7378 6.57031L13.7204 7.2907L12.1552 8.85575L10.6407 9.4169L10.3242 9.77223V10.3139H10.3203Z" fill="#CCB360"/>
<path fill-rule="evenodd" clip-rule="evenodd" d="M13.7185 9.52194C13.7185 9.52194 13.7613 9.47932 13.8329 9.42108C13.9046 9.36284 13.9923 9.2909 14.1165 9.2909C14.3378 9.2909 14.4485 9.32393 14.5728 9.32393C14.6971 9.32009 14.7689 9.2909 14.7689 9.2909C14.7689 9.2909 14.8992 9.38204 15.1922 9.38204C15.4854 9.38588 15.6815 9.41109 15.835 9.42466C15.9885 9.43823 16.5029 9.38204 16.6505 9.38626C16.7467 9.38988 16.8411 9.41301 16.9281 9.45423L16.7126 8.83087L16.4622 8.35522L15.7476 7.57263C15.7476 7.57263 14.89 7.0678 14.8834 7.06396C14.8796 7.06012 14.5863 6.98242 14.5863 6.98242L13.8096 7.45231L13.1049 9.27567L13.0913 9.65967L13.5475 9.87522C13.6621 9.68322 13.7884 9.52962 13.9068 9.51017C13.7999 9.52181 13.7184 9.52181 13.7184 9.52181L13.7185 9.52194Z" fill="#D5B457"/>
<path fill-rule="evenodd" clip-rule="evenodd" d="M13.709 9.65276C13.641 9.6566 13.5848 9.64304 13.5692 9.59452C13.5109 9.43145 13.4644 9.40816 13.4156 9.40816C13.3668 9.40816 13.301 9.51299 13.262 9.52259C13.2229 9.53219 13.1766 9.40227 13.1766 9.40227L13.1339 9.38281C13.1339 9.38281 12.8834 9.54588 12.7067 9.73814C12.5301 9.9304 12.2407 10.2567 12.1106 10.3148C11.9806 10.3729 11.5339 10.3925 11.381 10.4255C11.2282 10.4585 11.0587 10.5692 11.0354 10.5945C11.0121 10.6197 11.1035 10.6468 11.1171 10.672C11.1307 10.6953 10.9675 10.6856 10.9539 10.7104C10.9443 10.7299 10.9923 10.8405 11.0161 10.8968C11.0578 10.8761 11.1035 10.8648 11.15 10.8638C11.2995 10.8599 11.4083 10.959 11.5868 10.959C12.018 10.959 12.4082 10.6425 12.6956 10.5453C12.9073 10.4735 13.0898 10.421 13.218 10.3045C13.28 10.2522 13.3908 10.1356 13.4917 9.96278C13.5655 9.84438 13.6374 9.73366 13.7093 9.65212L13.709 9.65276Z" fill="#D2B257"/>
<path fill-rule="evenodd" clip-rule="evenodd" d="M7.52653 19.2627C7.52653 19.2627 7.48813 19.119 7.13229 18.7482C7.03129 18.6433 6.96921 18.5562 6.90125 18.4938C6.73229 18.3345 6.63321 18.2919 6.51289 18.2006C6.24883 18.0045 5.96147 18.0045 5.74016 17.7637C5.51885 17.523 5.26093 17.0629 5.08173 16.5928C4.90509 16.1229 4.85645 15.9734 4.85645 15.9598C4.85645 15.9463 4.90509 15.855 4.96717 15.8686C5.02925 15.8821 5.02925 16.0024 5.04486 16.0316C5.07579 16.0793 5.11087 16.1241 5.14969 16.1655C5.24096 16.2705 5.37101 16.3959 5.43705 16.5831C5.42349 16.4238 5.36909 16.2472 5.36909 16.2472C5.36909 16.2472 5.71085 16.4627 6.00205 16.6879C6.29529 16.9132 6.41561 16.9909 6.50125 17.1345C6.58688 17.2781 6.78861 17.6568 6.88525 17.7676C6.98189 17.8783 8.30605 18.2957 8.30605 18.2957L8.93593 18.7653L9.24864 19.4508L9.0039 19.8348L8.53401 19.9358L7.77088 19.594L7.52653 19.2626V19.2627Z" fill="#D2B159"/>
<path fill-rule="evenodd" clip-rule="evenodd" d="M5.83105 16.9016C5.83105 16.9016 5.99029 17.156 6.37864 17.3967C6.72821 17.6085 7.28155 17.8007 7.77486 17.9153C8.05825 17.9832 8.34177 18.0356 8.59611 18.0396C9.28155 18.0492 9.75336 17.8532 10.3379 17.7891C10.6545 17.756 11.0428 17.7308 11.4467 17.6355C11.9651 17.5112 12.2719 17.3713 12.6894 17.1747C12.9923 17.0349 13.27 16.9301 13.4952 16.796C13.8117 16.6097 14.0428 16.4019 14.3108 16.3398C14.2778 16.4311 14.2428 16.5942 13.9788 16.7631C14.1185 16.7592 14.3108 16.7496 14.3108 16.7496C14.3108 16.7496 14.1244 16.8602 13.7962 17.1087C13.5943 17.2623 13.3263 17.5223 13.0526 17.6951C12.8758 17.8058 12.6835 17.8871 12.5573 17.9534C12.2501 18.1224 12.1262 18.2077 11.9244 18.4142C11.9962 18.4104 12.0021 18.4142 12.0021 18.4142C12.0021 18.4142 11.7476 18.4472 11.5652 18.5443C11.5268 18.5443 11.4602 18.5307 11.3438 18.5637C11.2525 18.5928 11.132 18.6589 11.0079 18.6938C10.8311 18.7462 10.773 18.7229 10.773 18.7229L10.8021 18.7812C10.8021 18.7812 10.5717 18.7772 10.4949 18.785C10.5084 18.7889 10.5046 18.7948 10.5046 18.7948C10.4911 18.797 10.4781 18.8016 10.4662 18.8083C10.4292 18.8323 10.3886 18.85 10.3459 18.8607C10.3226 18.8645 10.3031 18.8645 10.2739 18.8704C10.2837 18.8937 10.3594 19.024 10.3944 19.1008C10.3653 19.1203 9.92833 19.4504 9.92833 19.4504C9.94189 19.4717 9.95297 19.4945 9.96136 19.5183C9.97493 19.561 9.98081 19.6232 9.99438 19.6522C10.0273 19.7105 10.0467 19.7202 10.0467 19.7202C10.0467 19.7202 9.99438 19.7299 9.90299 19.7532C9.82542 19.7727 9.73019 19.8056 9.59579 19.825C9.55455 19.8304 9.51307 19.8336 9.4715 19.8348C9.49096 19.8775 9.57633 20.0406 9.41902 20.2289C9.26171 20.4172 9.2132 20.4445 9.16469 20.5649C9.14027 20.5464 9.11427 20.5301 9.08699 20.5162C9.03464 20.4929 8.9627 20.4581 8.93749 20.4114C8.92279 20.4736 8.90332 20.5347 8.87925 20.5939C8.83073 20.724 8.75893 20.8522 8.74536 20.9493C8.69288 20.891 8.59585 20.7765 8.46184 20.7997C8.32782 20.823 8.22107 21.0056 8.19777 21.0581C8.19777 21.025 8.17448 20.9998 8.16872 21.0386C8.16475 21.0813 8.09102 21.5278 7.67937 21.889C7.67553 21.7978 7.67553 21.5958 7.66581 21.5299C7.62741 21.5683 7.58043 21.625 7.30075 21.7454C7.02696 21.8657 7.07035 21.9862 7.07035 21.9862C7.07035 21.9862 7.04705 21.7942 7.19464 21.5919C7.34414 21.3901 7.43541 21.2949 7.43541 21.2794C7.43299 21.2636 7.42626 21.2488 7.41595 21.2366C7.39649 21.2172 7.35771 21.1939 7.35771 21.1784C7.38101 21.1688 7.61205 21.0581 7.59848 20.8288C7.58491 20.6231 7.49761 20.5162 7.43541 20.4406C7.42581 20.4309 7.5268 20.359 7.5131 20.3357C7.50337 20.3222 7.37922 20.2308 7.3636 20.1821C7.36727 20.1531 7.37379 20.1245 7.38305 20.0968C7.39662 20.054 7.40635 20.0248 7.40251 19.9958C7.39278 19.9473 7.3403 19.8133 7.32481 19.7997C7.33838 19.8035 7.43541 19.7997 7.43541 19.7997C7.43541 19.7997 7.35784 19.6754 7.34414 19.6172C7.33045 19.5589 7.30139 19.4054 7.2859 19.3764C7.31893 19.3802 7.40046 19.386 7.40046 19.3764C7.40443 19.3472 7.32865 19.2987 7.36206 19.2612C7.38536 19.265 7.43003 19.2845 7.47265 19.3389C7.44936 19.2767 7.41057 19.1564 7.32891 19.1078C7.36731 19.0943 7.49787 19.0592 7.61243 19.1272C7.72699 19.1951 7.76603 19.2902 7.76603 19.2902C7.76603 19.2902 7.834 19.3427 7.93896 19.4204C8.05928 19.5155 8.21262 19.6508 8.45736 19.7466C8.50984 19.7757 8.64373 19.7757 8.74088 19.7563C8.78318 19.7462 8.82374 19.7299 8.8612 19.7078C8.87473 19.6998 8.88905 19.6933 8.90395 19.6883C8.88308 19.6464 8.85907 19.6062 8.83214 19.5679C8.86517 19.5679 8.90395 19.5718 8.90395 19.5718C8.90395 19.5718 8.92725 19.5194 8.82241 19.4182C8.84571 19.3949 8.87489 19.3798 8.87489 19.3405C8.84187 19.3367 8.78363 19.2882 8.77006 19.2687C8.78939 19.2552 8.81857 19.2105 8.8516 19.1969C8.82241 19.1736 8.75061 19.0765 8.71758 19.0669C8.74913 19.0552 8.77966 19.0409 8.80885 19.0241C8.80885 19.0241 8.64577 18.9814 8.59329 18.9464C8.54081 18.908 8.46325 18.8416 8.41665 18.8221C8.36801 18.8027 8.28264 18.7931 8.24769 18.7542C8.28059 18.7639 8.33307 18.7542 8.37198 18.7542C8.40104 18.7542 8.41473 18.758 8.42433 18.758C8.42049 18.7445 8.42049 18.7153 8.49627 18.7057C8.53272 18.7002 8.56809 18.689 8.6011 18.6726C8.6011 18.6726 8.52917 18.6688 8.4475 18.5911C8.36584 18.5134 8.298 18.4513 8.25141 18.4416C8.20289 18.4319 8.11163 18.4746 8.05531 18.4707C7.97761 18.4611 7.94459 18.4221 7.94459 18.4221C7.94459 18.4221 7.68641 18.4454 7.11361 18.096C6.61838 17.793 6.40283 17.5251 6.40283 17.5251C6.35648 17.5083 6.31169 17.4875 6.26894 17.4629C6.08257 17.3659 5.82427 17.1639 5.83208 16.8997L5.83105 16.9016Z" fill="#C2A44D"/>
<path fill-rule="evenodd" clip-rule="evenodd" d="M12.9747 5.24672C13.0197 5.26131 13.0596 5.28823 13.0899 5.32441C13.1812 5.42925 13.2394 5.62726 13.0317 5.83897C13.1132 5.86803 13.1469 5.87737 13.2181 5.86803C13.1463 5.95353 12.9832 6.13606 12.9735 6.29529C12.9637 6.42534 13.0453 6.46425 13.0453 6.46425C13.0453 6.46425 12.921 6.60787 12.9152 6.84825C12.9739 6.78206 13.0381 6.721 13.1072 6.66573C13.251 6.55117 13.449 6.42112 13.583 6.33958C13.5812 6.37376 13.5858 6.40797 13.5966 6.44045C13.5966 6.44045 13.8469 6.23462 14.0574 6.32601C14.1525 6.36877 14.1097 6.50265 14.1097 6.50265C14.1097 6.50265 14.2399 6.45414 14.3312 6.54541C14.4224 6.63667 14.5514 6.87206 14.6176 6.96333C14.6467 7.00608 14.7225 7.08761 14.8 7.21382C14.906 7.39052 14.9945 7.57713 15.0642 7.77101C15.0681 7.67001 15.0933 7.51283 15.3808 7.61177C15.6681 7.71277 15.9943 7.92448 16.2681 8.34137C16.5418 8.75827 16.6097 9.22893 16.7475 9.40813C16.8873 9.58093 17.0311 9.86829 17.0408 9.98873C17.0505 10.1092 16.998 10.4974 17.2854 11.5479C17.3669 11.2218 17.4912 10.4974 17.4912 10.4974L17.5592 9.85856L17.6369 7.88185L15.5728 6.16704L13.9592 4.99609L12.9087 5.09709L12.9746 5.24659L12.9747 5.24672Z" fill="#CAA13E"/>
<path fill-rule="evenodd" clip-rule="evenodd" d="M16.8095 8.18817C16.8095 8.18817 16.7804 7.99617 16.295 7.66977C15.8095 7.34747 15.4309 7.34747 15.0814 7.07368C14.8134 6.85813 14.5338 6.36289 14.3518 6.19982C14.1751 6.03867 14.146 5.57262 14.146 5.57262L14.7421 5.07342L15.6286 3.79201L16.3781 2.9668L16.7372 3.466L17.2364 4.05237L17.5141 5.22907L17.6151 6.95144L16.8087 8.1883L16.8095 8.18817Z" fill="#B59544"/>
<path fill-rule="evenodd" clip-rule="evenodd" d="M17.41 10.2525C17.4247 9.99126 17.3925 9.72955 17.3148 9.47973C17.1868 9.08165 16.9071 8.37483 16.7772 8.11013C16.7247 7.81688 16.7636 7.79358 16.82 7.76056C16.8763 7.72754 17.088 7.60696 17.204 7.18392C17.3199 6.76088 17.6797 6.74706 17.6797 6.74706L17.901 6.58398L18.237 7.42469L18.5302 8.18398L18.6214 8.76459L18.6894 9.2597L18.5302 10.3064L17.7439 11.017L17.4099 10.2525H17.41Z" fill="#C89D3A"/>
<path fill-rule="evenodd" clip-rule="evenodd" d="M6.43701 21.9178V21.8963C6.45335 21.8861 6.46778 21.8731 6.47964 21.8579C6.4932 21.8384 6.50306 21.8151 6.51266 21.8094C6.53212 21.7996 6.62338 21.771 6.67189 21.7802C6.7204 21.7894 6.84866 21.8423 6.91663 21.8384C7.0564 21.8346 7.21948 21.7277 7.47778 21.7763C7.86613 21.8481 7.9574 22.1122 8.18268 22.2617C8.33628 22.3667 8.49525 22.32 8.51855 22.32H8.5709C8.58063 22.32 8.65244 22.2384 8.69135 22.2424C8.76904 22.2462 8.77672 22.3104 8.82524 22.3142C8.9398 22.3278 9.16124 22.256 9.27196 22.2851C9.30479 22.2954 9.33464 22.3135 9.35898 22.3378C9.38332 22.3621 9.40142 22.392 9.41173 22.4248C9.43503 22.4966 9.41557 22.5879 9.35925 22.6403C9.23893 22.7509 9.12437 22.8559 9.10108 22.9475C9.13071 22.9701 9.15916 22.9942 9.18632 23.0197C8.22558 22.7749 7.30121 22.4048 6.43701 21.9189V21.9178Z" fill="#CEB052"/>
<path fill-rule="evenodd" clip-rule="evenodd" d="M16.7769 18.0394C16.7769 18.0394 17.0797 17.6355 17.1847 17.4354C17.2895 17.2292 16.8526 14.618 16.8526 14.618L17.7303 11.7424L17.7069 10.8065C17.7069 10.8065 17.7497 9.94233 17.8506 9.56754C17.9711 9.7831 18.3459 10.0433 18.4274 10.1812C18.4658 9.91698 18.5962 9.3598 18.5769 8.76562C18.6487 8.87622 18.8215 9.98892 18.8215 9.98892L18.9943 10.7384L19.2196 11.5345L19.4701 12.3754L19.6196 12.956L19.705 13.0957L19.7769 13.3403L19.8449 13.6045L20.041 14.2239L20.1562 14.7326L20.2474 15.655C20.2673 15.7256 20.2816 15.7977 20.2902 15.8705C20.294 15.9715 20.2766 16.0298 20.2766 16.0473C20.2766 16.0648 20.3097 16.2686 20.2961 16.4221C20.2766 16.5757 20.2766 16.6959 20.1562 16.8061C20.0357 16.9163 19.9601 17.575 19.9601 17.575L19.7445 17.4314C19.7445 17.4314 19.7873 17.2351 19.6863 17.0566C19.5853 16.878 19.3892 16.841 19.2785 16.8702C19.1679 16.8935 18.9466 16.9283 18.8746 16.9905C18.8067 17.0526 18.6398 17.2449 18.4863 17.3323C18.2943 17.4475 17.9815 17.4566 17.8146 17.4954C17.6456 17.5338 17.4592 17.649 17.263 17.7827C17.1091 17.8823 16.9467 17.968 16.7776 18.0387L16.7769 18.0394Z" fill="#CCA847"/>
<path fill-rule="evenodd" clip-rule="evenodd" d="M16.7769 22.2821C16.7769 22.2821 16.7897 22.2904 16.8144 22.3039C18.1939 21.6576 19.4299 20.7415 20.4496 19.6095C20.4384 19.2166 20.424 18.8138 20.4081 18.6645C20.3752 18.348 20.3985 18.0257 20.3888 17.8393C20.379 17.6529 20.2742 16.8936 20.2257 16.6975C20.1732 16.5014 20.0721 16.4043 20.0567 16.4043C20.0432 16.4083 19.9615 16.7733 19.9615 16.8651C19.9615 16.9569 19.942 17.1778 19.942 17.2341C19.9285 17.2302 19.9227 17.1957 19.9227 17.1816C19.9033 17.2302 19.88 17.3157 19.8702 17.3254C19.8605 17.3351 19.8838 17.2438 19.8702 17.2244C19.8567 17.2049 19.8318 17.2147 19.8372 17.1662C19.8395 17.1374 19.844 17.1088 19.8508 17.0808C19.8508 17.0808 19.7925 17.1662 19.7499 17.3836C19.7072 17.5992 19.7072 17.6051 19.6917 17.6244C19.6781 17.6478 19.6004 17.7254 19.5964 17.7546C19.5926 17.8069 19.6684 17.8594 19.6741 17.8885C19.678 17.9371 19.6062 18.1622 19.5829 18.2725C19.5596 18.3827 19.5693 18.5986 19.5445 18.7093C19.525 18.8103 19.5061 18.8686 19.4396 18.9112C19.4882 18.9209 19.5347 18.9345 19.5347 18.9345C19.5347 18.9345 19.6027 19.2218 19.4299 19.4666C19.3678 19.5519 19.3523 19.5909 19.2863 19.6686C19.1561 19.8122 19.0551 19.9758 19.0454 20.0821C19.0387 20.0507 19.0341 20.0189 19.0318 19.9869C19.0318 19.9869 18.83 20.2219 18.7445 20.3559C18.6339 20.5287 18.4804 20.519 18.4373 20.5617C18.3941 20.6045 18.3848 20.6821 18.3989 20.7443C18.3605 20.7539 18.2883 20.7676 18.2396 20.9171C18.2163 20.9946 18.1581 21.0707 18.0668 21.1229C17.9756 21.1751 17.8649 21.1909 17.8085 21.2044C17.857 21.218 17.8765 21.218 17.8998 21.2335C17.8707 21.282 17.7367 21.3578 17.5872 21.4549C17.4377 21.5462 17.3658 21.6801 17.3289 21.7675C17.2905 21.849 17.2338 21.9015 17.1426 21.9112C17.181 21.9345 17.2378 21.9888 17.2668 22.0063C17.2241 22.0161 17.1516 22.0161 17.0222 22.1268C16.8863 22.2394 16.8397 22.2725 16.7775 22.2822L16.7769 22.2821Z" fill="#C39D3C"/>
<path fill-rule="evenodd" clip-rule="evenodd" d="M14.0749 23.1819C14.1492 23.1298 14.2297 23.0871 14.3146 23.0548C14.6174 22.9345 14.9378 22.9112 15.064 22.8724C15.1845 22.834 15.2796 22.781 15.4291 22.752C15.4251 22.786 15.4218 22.818 15.4182 22.8482C14.9775 22.9868 14.5286 23.0982 14.0742 23.1819H14.0749Z" fill="#D2BA6B"/>
<path fill-rule="evenodd" clip-rule="evenodd" d="M19.6607 15.2148C19.6607 15.2148 19.5986 15.5507 19.4879 15.7624C19.3771 15.9741 19.2575 16.2672 19.2575 16.2672C19.2582 16.2012 19.266 16.1354 19.2808 16.071C19.141 16.1526 18.8011 16.3488 18.7048 16.4361C18.6135 16.5176 18.46 16.6614 18.4212 16.7293C18.5125 16.4614 18.6076 16.2207 18.6232 16.1099C18.4834 16.2109 17.8309 16.7488 17.4912 17.1041L16.4329 17.9604C16.3108 18.0263 16.185 18.0852 16.0562 18.1368C15.8738 18.2144 15.6582 18.2804 15.499 18.3426C15.5418 18.2281 15.6096 18.127 15.7048 18.0299C15.8058 17.9348 16.1087 17.6066 16.1553 17.4539C16.198 17.2947 16.2077 17.1996 16.1514 17.0656C16.0989 17.0791 15.9786 17.085 15.8971 17.1083C15.8155 17.1316 15.7281 17.2189 15.7281 17.2189C15.7281 17.2189 15.7902 16.8636 15.9242 16.5277C15.8232 16.5316 15.6504 16.5606 15.6504 16.5606C15.6504 16.5606 15.8912 16.1568 16.3032 15.8753C16.177 15.9022 16.0536 15.9405 15.9343 15.9897C15.6936 16.0907 15.4295 16.2402 15.2334 16.3218C15.344 16.1682 16.1207 15.0597 16.5829 14.0266C17.0437 12.9956 17.2159 12.7315 17.3169 12.1782C17.3692 11.9044 17.3553 11.4998 17.3692 11.1374C17.3828 10.7781 17.4274 10.4558 17.3984 10.2402C17.5187 10.3897 17.9693 10.8111 17.9848 11.7529C17.9983 12.6946 17.5538 13.9666 17.0818 14.6519C17.197 14.6849 17.4955 14.7238 17.8022 14.1911C18.1089 13.6583 18.1052 13.5096 18.2159 13.2882C18.2295 13.3989 18.2255 13.4377 18.2255 13.4377C18.2255 13.4377 18.6722 12.896 18.8838 12.2144C18.9266 12.5076 19.0528 12.7659 18.8546 13.3038C18.678 13.7892 18.447 13.9077 18.447 13.9077C18.447 13.9077 18.5615 13.8882 18.7304 13.7872C18.7595 13.859 18.7538 13.9408 18.8023 13.9698C18.8508 13.9987 18.9169 14.0475 18.9266 14.0941C18.9789 14.0164 19.0605 13.9173 19.0858 13.8436C19.0664 13.9972 19.0528 14.6688 19.1242 15.0105C19.2738 14.997 19.4272 14.9872 19.532 14.7173C19.4602 14.9815 19.4602 15.1406 19.5087 15.3659C19.5883 15.3116 19.6602 15.2144 19.6602 15.2144L19.6607 15.2148Z" fill="#C0993A"/>
<path fill-rule="evenodd" clip-rule="evenodd" d="M14.6157 4.51353C14.6157 4.51353 14.4662 4.57561 14.2118 4.57561C13.9905 4.57561 14.0526 4.49023 13.707 4.49023C13.175 4.49023 11.3167 4.79743 10.9904 4.79308C10.7787 4.78924 11.7049 4.88435 11.7049 4.88435L14.072 4.91737L14.5477 4.87897L14.7245 4.51929L14.6157 4.51353Z" fill="#A88F33"/>
<path fill-rule="evenodd" clip-rule="evenodd" d="M8.47745 9.14041C8.47745 9.14041 8.17448 9.37145 8.04635 9.54822C7.91822 9.72499 7.85025 9.84134 7.70459 9.98508C7.73878 9.98639 7.77295 9.9818 7.80558 9.97151C7.80558 9.97151 7.80558 10.0099 7.78229 10.02C7.80242 10.0178 7.8228 10.0201 7.84193 10.0267C7.86107 10.0333 7.87847 10.0442 7.89288 10.0584C7.85013 10.0817 7.73365 10.1983 7.82491 10.3362C7.89288 10.441 8.03662 10.4506 8.03662 10.4506C8.03662 10.4506 8.0036 10.5459 8.14145 10.5361C8.43854 10.5226 8.77057 10.3924 8.92392 10.4254C9.07752 10.4638 9.16481 10.4779 9.27349 10.6663C9.38869 10.8527 9.48904 10.8818 9.48904 10.8818C9.48904 10.8818 9.55701 10.7089 9.54152 10.4507C9.59725 10.3116 9.62814 10.1637 9.63278 10.0139L9.53179 9.2702L9.09109 8.71289L8.52021 9.02943L8.47745 9.14003V9.14041Z" fill="#E3C571"/>
<path fill-rule="evenodd" clip-rule="evenodd" d="M9.01953 9.02978C9.01953 9.02978 9.06228 9.13077 9.24097 9.14037C9.22152 9.18312 9.22152 9.18901 9.2274 9.2219C9.23124 9.25493 9.237 9.30344 9.237 9.30344C9.25668 9.29392 9.27446 9.28091 9.28948 9.26504C9.29921 9.30779 9.27975 9.37563 9.28948 9.42427C9.29549 9.45385 9.30525 9.48255 9.31854 9.50965C9.32137 9.50301 9.32462 9.49655 9.32827 9.49032C9.33211 9.48059 9.36667 9.59515 9.46228 9.68232C9.4622 9.66892 9.4655 9.65571 9.47188 9.64392C9.47335 9.66827 9.4814 9.69176 9.49518 9.71189C9.48802 9.70848 9.48149 9.70389 9.47585 9.69832C9.47585 9.69832 9.48545 10.0055 9.53793 10.1644C9.5467 10.1541 9.5545 10.143 9.56123 10.1313C9.56123 10.1217 9.55739 10.2168 9.54766 10.2849C9.53409 10.3529 9.54382 10.448 9.54382 10.448C9.57883 10.4205 9.6173 10.3976 9.65825 10.38C9.71649 10.3566 9.81185 10.2848 9.86996 10.1256C9.90368 10.0354 9.92967 9.94253 9.94766 9.84795C9.96643 9.8841 9.97939 9.92297 9.98606 9.96315C9.99003 10.0117 10.0813 9.98645 10.0813 9.98645L10.1007 9.77474L10.2159 9.29512L10.3208 8.99803L10.8256 8.21173L11.7377 7.50926L12.5339 7.69179L13.2056 6.77915L12.0484 6.08398L10.9532 6.19854L9.95931 7.57518L9.16327 8.82382L9.01953 9.02965V9.02978Z" fill="#D8B65B"/>
<path fill-rule="evenodd" clip-rule="evenodd" d="M14.7553 7.03689C14.7553 7.03689 14.6873 7.05046 14.4912 7.15209C14.2951 7.25372 14.1592 7.28598 14.0834 7.43548C14.0077 7.58498 14.0019 7.70351 14.0019 7.70351C14.0019 7.70351 14.1359 7.64527 14.2136 7.62582C14.2951 7.60649 14.3864 7.61225 14.3767 7.64527C14.3673 7.66792 14.3544 7.68889 14.3383 7.70735C14.3383 7.70735 14.4919 7.70351 14.4878 7.77929C14.4837 7.85506 14.4587 7.93852 14.4297 7.97538C14.4005 8.01378 14.2802 8.07062 14.2666 8.11529C14.2336 8.20655 14.2802 8.21039 14.2626 8.28412C14.2491 8.35606 14.1851 8.49583 13.9753 8.74044C13.7597 8.98518 13.6681 9.15798 13.6681 9.15798C13.6681 9.15798 13.5632 8.96188 13.5088 8.79292C13.4704 8.81225 13.2642 8.92681 13.2642 8.92681L12.7865 7.26281L12.7961 7.15209C12.7961 7.15209 12.8389 7.09974 12.8486 7.00258C12.7768 6.97929 12.7671 6.95983 12.6719 6.8687C12.5766 6.77756 12.4991 6.66671 12.3399 6.59094C12.3167 6.54818 12.2875 6.49007 12.171 6.46665C12.0545 6.44322 11.9846 6.42402 11.9846 6.42402C11.9846 6.42402 12.0467 6.4006 12.0759 6.35209C12.0039 6.36182 11.9458 6.38511 11.7885 6.38127C11.6293 6.3773 11.6118 6.37154 11.5245 6.38511C11.4372 6.39868 11.3325 6.43759 11.2934 6.30358C11.2507 6.27055 11.1594 6.29974 11.0817 6.41417C11.004 6.5286 10.9769 6.61999 10.8274 6.66466C10.8169 6.73057 10.7938 6.79383 10.7594 6.85103C10.7167 6.92297 10.6487 6.99478 10.5574 7.10153C10.4137 7.27049 10.437 7.54812 10.2079 7.75983C9.97681 7.97142 10.2463 7.17334 10.2463 7.17334L10.6151 6.29014L11.6656 5.26294L13.2967 5.15234L13.456 5.99714L14.2521 6.27094L14.7551 7.03791L14.7553 7.03689Z" fill="#D3AE4D"/>
<path fill-rule="evenodd" clip-rule="evenodd" d="M15.0139 7.22409L14.3284 6.2358L13.8488 5.86678C13.8488 5.86678 13.507 5.23779 13.4837 5.21833C13.4643 5.20476 13.142 5.16982 12.9362 5.15625L12.9746 5.25135C13.0195 5.26595 13.0594 5.29287 13.0898 5.32905C13.181 5.43388 13.2393 5.6319 13.0315 5.84361C13.1131 5.87267 13.1467 5.88201 13.2179 5.87267C13.1461 5.95817 12.983 6.1407 12.9733 6.29993C12.9636 6.42998 13.0451 6.46876 13.0451 6.46876C13.0451 6.46876 12.9208 6.61251 12.915 6.85276C12.9737 6.78657 13.038 6.72551 13.107 6.67023C13.2508 6.55503 13.4488 6.4255 13.5828 6.34396C13.581 6.37818 13.5856 6.41243 13.5964 6.44495C13.5964 6.44495 13.8468 6.23913 14.0572 6.33039C14.1523 6.37315 14.1095 6.50716 14.1095 6.50716C14.1095 6.50716 14.2397 6.45865 14.331 6.54991C14.4222 6.64118 14.5523 6.87606 14.6183 6.96745C14.6474 7.0102 14.7232 7.09174 14.8007 7.21782C14.9067 7.39455 14.9952 7.5812 15.0649 7.77513C15.0688 7.69743 15.0844 7.58876 15.2185 7.58876L15.0146 7.22371L15.0139 7.22409Z" fill="#CAA13E"/>
<path fill-rule="evenodd" clip-rule="evenodd" d="M4.73787 10.0305C4.73787 10.0305 4.68936 9.91 4.73787 9.67512C4.78638 9.44024 4.86216 9.32952 4.88737 8.98392C4.91259 8.63832 5.13787 8.20722 5.13787 8.20722L5.7611 7.92383L6.20193 8.04415L6.33198 8.63448L5.77467 8.94168C5.77467 8.94168 5.74561 9.07173 5.5883 9.17656C5.43099 9.2814 5.21352 9.36293 5.16117 9.46981C5.12987 9.53526 5.10703 9.60442 5.0932 9.67564C5.0932 9.67564 4.93397 9.64261 4.83886 9.74744C4.73787 9.85432 4.74171 9.94943 4.73787 10.031V10.0305Z" fill="#F4EFC8"/>
<path fill-rule="evenodd" clip-rule="evenodd" d="M5.99612 9.87386C5.99612 9.87386 5.94364 9.90689 5.90485 9.98906C5.86645 9.92698 5.77468 9.55796 5.77084 9.22593C5.767 8.8939 5.74716 8.81159 5.82396 8.69716C5.90076 8.58273 6.20194 8.46215 6.15919 8.25607C6.11644 8.05998 5.93775 7.97844 5.71836 8.03476C5.56476 8.07316 5.45045 8.39982 5.29122 8.56289C5.17077 8.68718 5.02716 8.66772 4.98837 8.73569C4.93589 8.82695 4.98441 8.91822 4.96892 8.97646C4.96495 8.99591 4.91644 9.10074 4.82901 9.22695C4.65237 9.48129 4.35337 9.84058 4.31445 10.1629C4.32802 9.98036 4.31842 9.97652 4.36693 9.77454L4.33775 9.72602L4.52975 9.0969L4.65404 8.5785L4.9318 7.71041L5.42101 6.82311L5.89679 6.29102L6.39189 6.32404L6.45013 7.06772L6.73365 8.46394L7.32975 9.1979L6.37436 9.84084L5.99573 9.87386H5.99612Z" fill="#EBCC73"/>
<path fill-rule="evenodd" clip-rule="evenodd" d="M6.29314 10.1379C6.29314 10.1379 6.2116 10.1574 6.18242 10.1419C6.15323 10.1264 6.12431 10.1089 6.13391 10.0894C6.14351 10.07 6.19599 10.0371 6.19599 10.0215C6.19706 10.0073 6.1926 9.99336 6.18354 9.98249C6.17448 9.97162 6.16155 9.9647 6.14747 9.96321C6.1028 9.95745 6.08923 9.98651 6.08923 9.98651C6.08923 9.98651 6.04648 9.95361 6.01167 9.94811C6.03226 9.94558 6.05299 9.94426 6.07374 9.94414C6.02009 9.91983 5.96317 9.90349 5.90479 9.89563C5.9533 9.86657 6.04853 9.78107 6.11061 9.78107C6.17269 9.78107 6.2116 9.77147 6.20187 9.73844C6.19215 9.70542 6.14363 9.65691 6.09128 9.63745C6.11061 9.61415 6.1243 9.57921 6.07771 9.48385C6.02907 9.38875 6.04853 9.32462 6.06414 9.30145C6.07771 9.27227 6.12623 9.21991 6.14952 9.18689C6.17282 9.15387 6.19227 9.10919 6.23106 9.0859C6.25051 9.07233 6.31259 9.0475 6.3748 9.02382C6.44277 9.00052 6.49909 8.97134 6.53787 9.00052C6.58063 9.02958 6.56117 9.06849 6.56117 9.06849C6.56117 9.06849 6.69518 9.01985 6.8155 9.08206C6.93595 9.14017 7.2292 9.17716 7.2292 9.17716L7.33429 9.38887L6.63912 9.98497L6.35176 10.1287L6.29352 10.1383L6.29314 10.1379Z" fill="#E5C66B"/>
<path fill-rule="evenodd" clip-rule="evenodd" d="M7.25806 9.1636C7.25806 9.1636 7.04251 9.30734 6.994 9.35969C7.02305 9.36366 7.07156 9.38312 7.05211 9.41217C7.02881 9.44123 6.88904 9.54222 6.81134 9.63745C6.7298 9.73256 6.65211 9.85301 6.62497 9.91125C6.59592 9.9636 6.37448 10.1171 6.29883 10.1364C6.45806 10.1364 6.77844 9.9403 6.89876 9.9403C6.89492 9.99854 6.93179 10.0646 6.99976 10.0704C7.06772 10.0761 7.26382 10.1131 7.52788 9.95003C7.79195 9.7908 7.70465 9.67227 7.81524 9.5947C8.02696 9.4548 8.11233 9.33051 8.22881 9.25294C8.34529 9.17537 8.40558 9.15771 8.40558 9.15771C8.40558 9.15771 8.40942 9.09947 8.44398 9.10536C8.45344 9.10644 8.46242 9.11009 8.46996 9.11591C8.47749 9.12173 8.48329 9.1295 8.48673 9.13838C8.48673 9.13838 8.68872 8.99464 8.94753 8.95585C8.94149 8.95316 8.93666 8.94832 8.93396 8.94229C8.93396 8.94229 8.95329 8.93256 8.95726 8.92283C8.95726 8.92283 8.97083 8.90337 8.98056 8.9131C8.99028 8.92283 9.00385 8.99464 9.02331 9.02382C9.06606 9.00437 9.1476 8.82184 9.1476 8.82184L9.34382 8.26069V7.74805L9.19022 7.77723L8.03822 8.26645L7.33908 8.9908L7.25755 9.1636H7.25806Z" fill="#E6BD62"/>
<path fill-rule="evenodd" clip-rule="evenodd" d="M10.5749 6.64861C10.6372 6.63349 10.6969 6.60925 10.7522 6.57668C10.7289 6.63888 10.7289 6.70685 10.6279 6.85444C10.5269 7.00202 10.5231 7.0234 10.4415 7.17674C10.36 7.33597 10.3503 7.56509 10.2726 7.66596C10.3074 7.64903 10.3447 7.63792 10.3832 7.63306C10.3832 7.63306 10.3056 7.70103 10.2726 7.77284C10.2395 7.84464 10.1813 7.99415 10.0377 8.08554C9.89407 8.17693 9.71141 8.23504 9.51531 8.4506C9.31909 8.66218 9.11723 8.93021 9.01611 9.0266C9.06859 8.93533 9.1404 8.7528 9.15986 8.63248C9.17931 8.51216 9.15589 8.36829 9.18891 8.20919C9.22194 8.05008 9.22194 7.9354 9.38091 7.65764C9.53989 7.37988 9.81202 6.41488 9.81202 6.41488L10.3984 6.22852L10.5752 6.64797L10.5749 6.64861Z" fill="#B6933F"/>
<path fill-rule="evenodd" clip-rule="evenodd" d="M10.1516 6.2932C10.1516 6.2932 9.97494 6.54754 9.92643 6.77282C9.87792 6.9981 9.92246 6.97864 9.8934 7.08936C9.87603 7.15687 9.87603 7.22768 9.8934 7.29519C9.95458 7.19663 10.0383 7.11406 10.1378 7.05429C10.3048 6.95343 10.4407 6.88149 10.5218 6.79612C10.6033 6.70485 10.6713 6.55535 10.8479 6.44079C10.7761 6.43106 10.6751 6.39804 10.6559 6.40239C10.7278 6.32085 10.9433 6.19656 11.1607 6.04706C11.3763 5.89346 11.3627 5.83151 11.7123 5.67816C11.5977 5.69762 11.5433 5.66844 11.4481 5.67816C11.4865 5.59663 11.6209 5.55772 11.7553 5.42383C11.8897 5.28994 11.6699 5.0918 11.6699 5.0918L10.6459 5.71119L10.1508 6.29372L10.1516 6.2932Z" fill="#C49937"/>
<path fill-rule="evenodd" clip-rule="evenodd" d="M7.37256 5.83076L7.39585 5.64439L7.6891 5.1745L7.99592 4.34928V3.22109L7.97262 2.56868L8.02113 2.14141L8.058 2.00561L8.09691 1.95312L8.34728 2.08317L8.69301 2.55306L8.72603 3.45994L8.39003 4.89098L7.4308 5.93764L7.37256 5.83076Z" fill="#DFC068"/>
<path fill-rule="evenodd" clip-rule="evenodd" d="M8.13572 1.9013C8.13572 1.9013 7.98212 1.90526 7.94935 2.54411C7.91659 3.18296 7.90072 3.51883 7.87742 3.83538C7.85412 4.15192 7.79985 4.34405 7.77259 4.53055C7.74532 4.71704 7.72984 4.97125 7.64254 5.12664C7.60414 5.19845 7.52209 5.42373 7.32983 5.59269C7.11428 5.77906 6.79223 5.90923 6.74347 5.91896C6.65796 5.93829 6.22494 5.98104 6.0483 6.07819C5.98622 6.11122 5.87934 6.15 5.76094 6.26072C5.52593 6.4723 5.21335 6.85093 4.98807 7.30725C4.64247 7.98885 4.29688 9.91307 4.29688 9.91307L4.37457 9.78302C4.37457 9.78302 4.3843 9.61022 4.5571 9.30725C4.72606 9.0044 4.67755 8.66456 4.91243 8.08395C5.00369 7.86264 5.11825 7.57528 5.25803 7.33054C5.47947 6.93246 5.74737 6.5907 6.01732 6.40434C6.45803 6.10149 6.94353 6.03544 6.94353 6.03544L7.4659 5.68984C7.4659 5.68984 7.55716 5.5132 7.67761 5.31122C7.84644 5.02783 8.06161 4.71128 8.10859 4.25112C8.18052 3.56952 8.00759 3.12293 8.01732 2.71909C8.02705 2.31525 8.03089 2.01816 8.11255 1.94623C8.19422 1.87429 8.13585 1.90155 8.13585 1.90155L8.13572 1.9013Z" fill="#A88F33"/>
<path fill-rule="evenodd" clip-rule="evenodd" d="M8.136 4.94946C8.136 4.94946 8.3664 4.38242 8.47187 3.8795C8.49132 3.77851 8.53011 3.67765 8.53984 3.59611C8.58835 3.12034 8.60192 2.92424 8.53984 2.66402C8.49132 2.47202 8.30496 2.29896 8.2078 2.16482C8.1127 2.02491 8.06803 1.97282 8.08748 1.94338C8.10694 1.91394 8.18259 1.86581 8.25632 1.87157C8.33469 1.87385 8.41178 1.89205 8.4829 1.92505C8.55401 1.95806 8.61768 2.00519 8.67001 2.06357C8.81952 2.23637 8.93792 2.82286 8.93792 2.82286L9.06246 3.59675L9.379 4.57147L8.13625 4.95022L8.136 4.94946Z" fill="#C99E3D"/>
<path fill-rule="evenodd" clip-rule="evenodd" d="M10.3009 4.35911C10.3009 4.35911 10.2581 4.37844 10.1806 4.35911C10.1839 4.39081 10.1784 4.42281 10.1647 4.45158C10.151 4.48035 10.1296 4.50478 10.1029 4.52218C10.0213 4.48916 9.25808 4.55521 9.25808 4.55521C9.25808 4.55521 8.90275 4.493 8.79203 4.02311C8.71446 3.71041 8.85027 3.27943 8.8056 2.99591C8.73763 2.57838 8.64253 2.49671 8.6328 2.36679C8.62307 2.23687 8.61334 2.20372 8.61334 2.12218C8.57059 2.11246 8.54537 2.09889 8.50275 2.09889C8.49302 2.06049 8.51235 2.02695 8.46973 1.95898C8.49302 1.96871 8.65225 1.98817 8.83862 2.16481C8.99222 2.30855 8.99222 2.3609 9.01539 2.39009C9.04445 2.41914 9.27945 2.62049 9.38045 2.82119C9.48144 3.0219 9.67753 3.6619 9.72221 3.76673C9.73577 3.80948 9.76496 3.85223 9.83741 3.94926C9.95005 4.08916 10.115 4.32046 10.3014 4.35886L10.3009 4.35911Z" fill="#B58634"/>
<path fill-rule="evenodd" clip-rule="evenodd" d="M9.04297 2.40039C9.1606 2.59041 9.26627 2.78757 9.35939 2.99073C9.47395 3.2489 9.54191 3.46061 9.68566 3.63341C9.60796 3.40826 9.4701 2.96551 9.38857 2.8082C9.2973 2.6418 9.11094 2.4626 9.04297 2.40052V2.40039Z" fill="#A88F33"/>
<path fill-rule="evenodd" clip-rule="evenodd" d="M7.72244 5.59192C7.72244 5.59192 7.52634 5.64044 7.16128 5.83269C7.04084 5.89477 6.9264 5.94712 6.81568 5.99576C6.52807 6.12581 6.21959 6.246 5.97485 6.31231C5.99431 6.3356 6.00391 6.3452 6.00391 6.3452C6.00391 6.3452 6.00391 6.44044 6.05639 6.49471C6.02733 6.52389 5.63885 6.78796 5.75354 7.67141C5.83111 7.64236 5.92237 7.60344 5.93594 7.60344C5.95936 7.60741 5.96512 7.67141 5.99418 7.67141C6.02324 7.67141 6.11847 7.63301 6.21946 7.50245C6.21562 7.55493 6.15738 8.08306 6.46996 8.43839C6.5282 8.37042 6.67578 8.14514 6.67578 8.14514L6.67962 8.07333C6.67962 8.07333 6.69319 7.82284 6.77485 7.59372C6.85652 7.3646 7.01562 7.19564 7.01562 7.19564L7.84647 6.0092L7.72218 5.5918L7.72244 5.59192Z" fill="#E6C367"/>
<path fill-rule="evenodd" clip-rule="evenodd" d="M6.94574 7.33376C6.9077 7.36064 6.86579 7.38157 6.82145 7.39584C6.80788 7.34733 6.78843 7.18029 6.90299 7.01721C7.037 6.82099 7.33012 6.56665 7.41166 6.36441C7.46414 6.23424 7.44084 5.90809 7.90689 5.49056C8.37294 5.07302 8.55534 4.92941 8.55534 4.92941L9.30875 4.55078L10.235 4.91584L9.7748 6.71936L9.41755 7.56416L7.99675 7.29625L6.94561 7.33376H6.94574Z" fill="#DCBA5A"/>
<path fill-rule="evenodd" clip-rule="evenodd" d="M7.48779 6.84541L7.66456 6.6241V6.46679C7.66456 6.46679 7.86066 6.41431 8.07224 6.19876C8.28382 5.9832 8.57707 5.56964 8.83538 5.59485C9.09368 5.62404 9.1189 6.156 9.12863 6.30564C9.13835 6.45527 9.17138 6.79485 9.22373 6.97751C9.28197 7.16004 8.59461 7.85124 8.59461 7.85124L8.12779 8.20656L7.48779 6.84541Z" fill="#E9CE77"/>
<path fill-rule="evenodd" clip-rule="evenodd" d="M8.03516 8.6879C8.03516 8.6879 8.1789 8.46262 8.07356 8.4141C8.13564 8.27433 8.2502 8.12674 8.2502 8.12674C8.2502 8.12674 8.33173 7.92489 8.5958 7.67631C8.85986 7.42774 9.02306 7.26262 9.06581 7.0957C9.09217 6.98692 9.10651 6.87558 9.10856 6.76367C9.13711 6.78699 9.16765 6.80777 9.19983 6.82575C9.24258 6.84521 9.44444 7.01212 9.41538 7.34812C9.38632 7.68412 9.26178 7.8239 9.26178 7.8239C9.26178 7.8239 9.14146 7.94422 9.05608 8.00642C8.96469 8.0685 8.9318 8.14031 8.77832 8.1462C8.7941 8.13366 8.81183 8.1238 8.8308 8.11702C8.8308 8.11702 8.67157 8.09769 8.58607 8.17526C8.50056 8.25282 8.3188 8.4918 8.22754 8.56374C8.13628 8.62198 8.03554 8.68802 8.03554 8.68802L8.03516 8.6879Z" fill="#CDAE50"/>
<path fill-rule="evenodd" clip-rule="evenodd" d="M14.4914 4.91137C14.262 4.82776 14.0209 4.7806 13.7769 4.7716C13.3691 4.75803 12.773 4.78132 12.1886 4.78516C11.5594 4.789 10.9886 4.56961 10.1964 4.53083C10.0663 4.45313 9.73557 4.11329 8.70312 4.83368C8.76521 4.82984 9.45269 4.67444 9.69141 4.97358C9.93218 5.27067 9.86421 5.7755 9.83132 5.89582C9.76911 6.16385 9.56713 6.55412 9.48572 6.82792C9.40431 7.10171 9.42351 7.24558 9.36527 7.43758C9.30703 7.62958 9.1789 7.72494 9.25455 7.94625C9.35554 7.88417 9.40815 7.88417 9.57685 7.50555C9.74556 7.12692 9.71087 6.85697 9.99055 6.53659C10.2643 6.21428 10.7201 5.77345 10.8935 5.66273C11.0668 5.55201 12.4429 4.83752 13.8838 5.51912C14.2313 5.48225 14.4915 4.91124 14.4915 4.91124L14.4914 4.91137Z" fill="#D2A83E"/>
<path fill-rule="evenodd" clip-rule="evenodd" d="M9.28345 4.64545C9.28203 4.63085 9.2788 4.61649 9.27385 4.60269C9.26038 4.5743 9.24268 4.5481 9.22137 4.525C9.22137 4.525 8.87961 4.46292 8.70681 4.48225C8.40383 4.51527 8.13004 4.89005 8.00192 5.08231C7.87379 5.27457 7.71456 5.57153 7.54176 5.725C7.54365 5.71005 7.5402 5.69491 7.53203 5.68225C7.53203 5.68225 7.54176 5.69581 7.52243 5.71527C7.5031 5.73473 7.50297 5.74433 7.5127 5.75367L7.54188 5.78273C7.55148 5.78273 7.81951 5.66228 8.18457 5.32193C8.57292 4.9666 8.87001 4.78433 9.0254 4.72186C9.10827 4.68664 9.19489 4.66101 9.28358 4.64545H9.28345Z" fill="#C29637"/>
<path fill-rule="evenodd" clip-rule="evenodd" d="M15.9126 3.18555C15.9126 3.18555 15.8503 3.26311 15.7726 3.34862C15.5998 3.53115 15.3746 3.73684 15.1823 3.94855C14.9999 4.15054 14.7941 4.30785 14.5629 4.57191C14.3317 4.83598 14.0637 5.1291 13.9959 5.2146C13.9338 5.30011 13.8853 5.43988 13.8853 5.51169C13.8523 5.48839 13.8135 5.46318 13.8135 5.46318C13.8298 5.49366 13.8493 5.52233 13.8717 5.54868C13.9202 5.61665 13.9959 5.70228 14.0348 5.75451C14.0825 5.82099 14.1168 5.89617 14.1357 5.97582C14.1589 5.97966 14.3085 6.00884 14.495 5.70203C14.6814 5.39521 14.9259 5.05934 14.9259 5.05934L15.3143 4.48257L15.559 3.99335L15.8662 3.44577L15.9129 3.18555H15.9126Z" fill="#AC8132"/>
<path fill-rule="evenodd" clip-rule="evenodd" d="M16.3107 2.79492C16.3107 2.79492 16.0757 2.98692 15.9844 3.10212C15.8932 3.21732 15.6772 3.51966 15.6772 3.51966L15.7549 3.50993L16.1492 3.16049L16.3028 2.8867L16.3106 2.79543L16.3107 2.79492Z" fill="#A88F33"/>
<path fill-rule="evenodd" clip-rule="evenodd" d="M16.2388 18.2256C16.2388 18.2256 16.235 18.0664 16.3243 17.9713C16.4156 17.8761 16.6466 17.7363 16.8719 17.212C17.0972 16.6877 17.1223 16.5693 17.1223 16.5693C17.1223 16.5693 16.7184 16.9149 16.4695 16.9964C16.5277 16.876 16.5607 16.7906 16.5899 16.7284C16.5569 16.6994 16.4171 16.6663 16.4036 16.6508C16.4811 16.5731 16.5239 16.3828 16.6812 16.2566C16.8832 16.103 17.2521 15.8391 17.5388 15.6038C17.8255 15.3685 18.3892 14.8213 18.4612 14.6621C18.5039 14.7242 18.5135 14.763 18.5135 14.763C18.5135 14.763 18.2301 15.132 18.0825 15.3669C17.9524 15.5689 17.9621 15.6834 17.9621 15.6834L18.2301 15.5682C18.2301 15.5682 18.3077 15.8556 17.9563 16.2926C18.1099 16.2343 18.1719 16.2693 18.2592 16.2206C18.1154 16.312 17.9174 16.4363 17.731 16.778C17.5485 17.1197 17.2999 17.5178 16.8806 17.7662C16.4728 18.0284 16.2378 18.2245 16.2378 18.2245L16.2388 18.2256Z" fill="#A67A2E"/>
<path fill-rule="evenodd" clip-rule="evenodd" d="M15.1867 5.11315C15.1867 5.11315 15.0274 5.44505 15.0041 5.70336C15.0003 5.76556 14.9847 5.81408 14.9847 5.88588C14.9809 6.11692 14.9983 6.37523 14.9463 6.49555C14.9268 6.44704 14.9171 6.41401 14.8977 6.39468C14.8686 6.47622 14.8161 6.73056 14.7734 6.82566C14.754 6.76358 14.7113 6.54803 14.7153 6.29369C14.7192 6.03936 14.7249 5.99072 14.7249 5.93836C14.7153 6.01593 14.6628 6.12089 14.6433 6.18297C14.6143 6.13062 14.5812 6.06265 14.5423 6.00633C14.519 6.04473 14.49 6.10144 14.4648 6.13062C14.4608 6.10732 14.4512 6.04512 14.4453 5.95782C14.4415 5.85683 14.4356 5.72678 14.4415 5.69952C14.4511 5.64716 14.5327 5.44134 14.7055 5.25292C14.9113 5.02764 15.1231 4.59475 15.1851 4.46073C15.2472 4.32672 15.5113 3.76953 15.5113 3.76953H15.7133L15.42 4.43744C15.42 4.43744 15.2434 4.80249 15.1521 4.93664C15.0609 5.07078 14.8686 5.45516 14.7831 5.60467C14.8452 5.52313 14.8977 5.48038 14.9599 5.40268C15.02 5.34828 15.1869 5.1134 15.1869 5.1134L15.1867 5.11315Z" fill="#8C6228"/>
<path fill-rule="evenodd" clip-rule="evenodd" d="M16.3146 2.76953C16.2816 2.87108 16.2295 2.96536 16.161 3.04729C16.0406 3.19104 15.7822 3.38316 15.6562 3.53651C15.541 3.68601 15.3106 4.09382 15.4153 4.57728C15.4537 4.47244 15.526 4.2647 15.7182 4.02969C15.9105 3.79468 16.1163 3.52486 16.2174 3.3152C16.3183 3.10348 16.3319 2.93657 16.3319 2.93657L16.3703 2.88806L16.347 2.77734L16.314 2.76953H16.3146Z" fill="#CBA94C"/>
<path fill-rule="evenodd" clip-rule="evenodd" d="M20.2465 15.6491C20.2465 15.6491 20.1688 15.4375 20.1455 15.2453C20.1222 15.053 20.1839 15.0149 20.1125 14.7948C20.0697 14.6608 19.9922 14.6796 19.9727 14.6608C19.9533 14.642 19.9397 14.4395 19.9435 14.3288C19.9474 14.2181 19.9397 14.0744 19.9202 14.0122C19.8912 13.9889 19.8717 13.9695 19.829 13.8259C19.7805 13.6821 19.7572 13.6103 19.7339 13.5677C19.7106 13.5251 19.6425 13.4861 19.6425 13.4434C19.6425 13.3579 19.7202 13.3133 19.7202 13.2898C19.7163 13.2413 19.6581 13.2802 19.6425 13.2665C19.6231 13.2432 19.6911 13.1034 19.6659 13.084C19.6562 13.0744 19.5882 13.1559 19.5707 13.1326C19.5512 13.1092 19.5279 12.8781 19.493 12.7248C19.4601 12.5753 19.425 12.4666 19.4212 12.422C19.4173 12.3792 19.1531 11.6258 19.0891 11.4433C19.0375 11.289 18.9941 11.1322 18.9591 10.9734C18.9396 10.8821 18.9261 10.6956 18.9163 10.7151C18.9066 10.7345 18.9125 10.8296 18.8969 10.8258C18.8833 10.8218 18.8348 10.4899 18.8193 10.4374C18.8057 10.385 18.7241 10.207 18.7041 10.0783C18.6846 9.9481 18.642 9.60826 18.6128 9.37722C18.5837 9.14618 18.5701 9.05107 18.5701 8.99322C18.5749 8.85171 18.5671 8.71005 18.5468 8.56992C18.5084 8.32519 18.4316 8.0281 18.3643 7.85543C18.2342 7.52915 17.8885 6.69421 17.8267 6.48647C17.8267 6.43399 17.8946 6.46317 17.8946 6.46317C17.8946 6.46317 18.0635 6.88647 18.1877 7.21261C18.3082 7.53888 18.4228 7.82624 18.4519 7.85543C18.4752 7.88448 18.6578 8.20487 18.7393 8.72915C18.8208 9.25344 18.8499 9.7369 18.8985 10.0592C18.9218 10.2128 18.9413 10.3757 18.9898 10.5388C19.0421 10.7156 19.1237 10.8981 19.2306 11.1777C19.3218 11.4127 19.3898 11.6088 19.4267 11.7777C19.4694 11.9933 19.4694 12.1564 19.4946 12.2632C19.5181 12.3545 19.5529 12.5369 19.6345 12.8008C19.7162 13.0648 19.8364 13.4047 19.9179 13.6163C20.0773 14.0396 20.1483 14.393 20.1724 14.5814C20.1936 14.7756 20.2656 15.4475 20.2461 15.6493L20.2465 15.6491Z" fill="#A88F33"/>
<path fill-rule="evenodd" clip-rule="evenodd" d="M16.3243 2.74576L16.3146 2.76906C16.3146 2.76906 16.3437 2.77879 16.3379 2.8177C16.3383 2.87094 16.3351 2.92414 16.3282 2.97693C16.3186 3.0449 16.2991 3.09725 16.2953 3.14C16.2953 3.23127 16.3089 3.3361 16.1801 3.59632C16.1417 3.66813 16.118 3.73021 16.0985 3.77296C16.05 3.87779 16.0403 3.89341 15.9976 3.94192C16.0655 3.90352 16.3103 3.74992 16.4344 3.77296C16.349 3.82147 16.2189 3.91671 16.1373 4.04099C16.1568 4.04483 16.2383 4.06045 16.3677 4.04099C16.5833 4.00797 16.8241 3.93027 17.0356 3.94576C17.2668 3.95933 17.1755 3.66813 17.1755 3.66813L16.9088 3.08176L16.404 2.72656L16.3243 2.74589V2.74576Z" fill="#BE9C44"/>
<path fill-rule="evenodd" clip-rule="evenodd" d="M17.6407 7.13823C17.6407 7.13823 17.4155 6.91295 17.3242 6.13983C17.2329 5.36313 17.2524 4.21983 17.2524 4.21983L17.0699 3.77324C17.0699 3.77324 17.0315 3.47615 16.9358 3.36556C16.8402 3.25497 16.6524 3.06847 16.5669 2.97721C16.4814 2.88594 16.3844 2.76166 16.3262 2.7422C16.3552 2.69369 16.4854 2.4199 16.9843 2.41606C17.4833 2.41222 17.6371 2.68985 17.6892 2.79084C17.7413 2.89183 17.9766 3.32844 18.0639 4.16044C18.1454 4.99142 18.1494 5.05362 18.1358 5.34098C18.1261 5.50021 18.0736 5.86911 17.9822 6.26322C17.8988 6.5973 17.8075 6.97017 17.6405 7.139L17.6407 7.13823Z" fill="#A17C34"/>
<path fill-rule="evenodd" clip-rule="evenodd" d="M16.9344 7.79918C17.0095 7.8046 17.0845 7.78768 17.15 7.75054C17.2218 7.7467 17.482 7.77973 17.6819 7.52539C17.6955 7.5835 17.7306 7.74094 17.6392 7.88072C17.6878 7.83208 17.7596 7.81275 17.7694 7.79918C17.7732 7.87099 17.8412 8.0923 17.5538 8.63016C17.6314 8.54478 17.7226 8.54862 17.8042 8.53889C17.8081 8.63989 17.8624 8.9796 17.7188 9.16225C17.6237 9.28654 17.4683 9.24763 17.4683 9.24763C17.4706 9.2205 17.4706 9.19323 17.4683 9.16609C17.4645 9.11361 17.445 9.06126 17.4587 9.02632C17.3836 8.99202 17.3152 8.94465 17.2567 8.88641C17.0878 8.72718 16.8684 8.45544 16.8529 8.25345C16.8334 8.02817 17.0354 7.97966 17.0354 7.97966C17.0185 7.96453 17.0041 7.94681 16.9927 7.92718C16.9829 7.89429 16.9732 7.84181 16.9344 7.79918Z" fill="#8C6228"/>
<path fill-rule="evenodd" clip-rule="evenodd" d="M15.4366 5.35635C15.4366 5.35635 15.4269 5.34278 15.3745 5.40486C15.3842 5.34278 15.394 5.28441 15.3978 5.22809C15.4226 5.17595 15.4547 5.12759 15.493 5.08448C15.4639 5.14259 15.4444 5.19507 15.4444 5.19507C15.4444 5.19507 15.5163 5.06105 15.6212 4.97952C15.693 4.92128 15.7842 4.89414 15.823 4.83974C15.8658 4.7815 15.856 4.77177 15.8658 4.76204C15.8658 4.76204 15.961 4.69996 16.1067 4.51731C16.126 4.49401 16.1552 4.4688 16.1746 4.4455C16.2075 4.43193 16.2852 4.39699 16.3765 4.35027C16.4717 4.29792 16.5785 4.22611 16.6445 4.19667C16.7746 4.13843 16.9126 4.14432 16.9766 4.05292C17.0251 4.03936 17.0774 3.89369 17.0678 3.76953C17.1396 3.79859 17.5085 4.02771 17.6349 4.5287C17.7261 4.88403 17.5629 5.43161 17.495 5.6958C17.427 5.96 17.4174 6.15596 17.3222 6.27628C17.2017 6.43564 16.8135 6.66028 16.7183 6.77151C16.6367 6.86278 16.3921 7.09382 16.4017 7.26073C16.4114 7.38502 16.5648 7.45273 16.5979 7.47628C16.6311 7.49983 16.6308 7.52876 16.693 7.51468C16.7552 7.5006 16.7784 7.47193 16.8038 7.47193C16.8328 7.47577 16.8328 7.48166 16.8464 7.48166C16.8562 7.48137 16.866 7.48004 16.8756 7.47769C16.8756 7.47769 16.8658 7.65446 16.4523 7.70809C16.4231 7.71206 16.394 7.72166 16.357 7.72755C16.4057 7.70425 16.4347 7.70425 16.4872 7.63244C16.429 7.62272 16.2619 7.61299 16.2192 7.59942C16.2328 7.57612 16.2774 7.51392 16.3143 7.48486C16.3473 7.4558 16.3104 7.44646 16.2814 7.46156C16.2314 7.4956 16.1834 7.53253 16.1376 7.57216C16.0891 7.61491 16.0464 7.67315 15.9687 7.72576C15.9454 7.64806 15.9492 7.50048 16.0406 7.39372C16.0172 7.39756 15.9725 7.46553 15.9299 7.45196C15.9222 7.38114 15.9268 7.30951 15.9435 7.24025C15.9668 7.15283 16.093 6.99948 16.093 6.99948L16.7026 5.91008L16.8327 5.08486L15.4366 5.35609V5.35635Z" fill="#92723A"/>
<path fill-rule="evenodd" clip-rule="evenodd" d="M15.4038 5.40372C15.4038 5.40372 15.3708 5.42702 15.4368 5.47169C15.4271 5.48526 15.4038 5.53377 15.3746 5.5668C15.3417 5.6052 15.3067 5.629 15.2931 5.66203C15.264 5.73 15.2408 5.77659 15.2408 5.80577C15.2408 5.83496 15.231 6.02132 15.1495 6.14164C15.1203 6.1844 15.0873 6.2562 15.064 6.30472C15.0155 6.39009 14.9727 6.45832 14.963 6.49672C14.9437 6.56468 14.9301 6.75105 14.9301 6.75105C14.9301 6.75105 14.9728 6.69857 14.9883 6.67924C14.9649 6.72776 14.9397 6.78011 14.9028 6.81902C14.9261 6.79956 14.9941 6.75105 15.1087 6.65006C15.2679 6.51617 15.5165 6.29089 15.8194 6.11246C15.728 6.14548 15.6505 6.14548 15.5884 6.15521C15.6369 6.1067 16.0738 5.59406 16.3029 5.54555C16.3168 5.52791 16.3237 5.50576 16.3224 5.48334L16.1261 5.46401L15.728 5.54939L15.6699 5.24219L15.4038 5.40334V5.40372Z" fill="#B18E3E"/>
<path fill-rule="evenodd" clip-rule="evenodd" d="M16.0368 7.15106C16.0368 7.15106 15.9843 7.20341 15.9358 7.33358C15.8985 7.29458 15.8665 7.25081 15.8406 7.20341C15.7688 7.08309 15.6582 6.92962 15.3999 7.01704C15.3961 6.9355 15.3902 6.89275 15.3999 6.83451C15.4426 6.82491 15.5727 6.72008 15.7027 6.56661C15.7941 6.46178 15.8795 6.34133 15.9378 6.18798C15.9762 6.1588 16.0426 6.11029 16.1298 6.05397C16.254 5.96859 16.4035 5.85198 16.4268 5.72194C16.3686 5.74523 16.2443 5.80347 16.0578 5.79387C16.1298 5.76085 16.2403 5.7259 16.2268 5.58216C16.256 5.5627 16.2793 5.54914 16.2793 5.54914C16.2574 5.54184 16.2343 5.53854 16.2113 5.53941C16.2073 5.52584 16.2016 5.50651 16.1685 5.51611C16.1355 5.52571 16.1301 5.52584 16.1258 5.53941C16.1122 5.54338 16.0675 5.53941 16.0345 5.56283C16.0015 5.58626 15.9102 5.6637 15.8753 5.67726C15.8889 5.65397 15.9082 5.61915 15.9082 5.61915C15.9082 5.61915 15.8131 5.62875 15.7451 5.65755C15.6208 5.7003 15.4772 5.778 15.3315 5.85365C15.3451 5.83035 15.351 5.81525 15.3606 5.8109C15.3702 5.80654 15.3936 5.8013 15.3936 5.79733C15.3936 5.79336 15.384 5.75893 15.3898 5.74498C15.4333 5.65272 15.4847 5.56437 15.5434 5.48091C15.6114 5.38952 15.6249 5.25947 15.6249 5.25947L15.922 5.10997L16.757 4.91797L17.2988 4.95099L17.2308 5.32578L16.9108 5.98011L16.637 6.57621L16.3243 6.94139L16.037 7.15106H16.0368Z" fill="#543E26"/>
<path fill-rule="evenodd" clip-rule="evenodd" d="M17.3906 5.52892C17.3906 5.52892 17.0643 5.93276 16.973 5.99497C17.0313 5.87068 17.3906 5.13084 17.5206 4.92502C17.4916 4.90172 17.4526 4.90172 17.5439 4.54102C17.4663 4.72342 17.4391 4.81865 17.3751 4.86716C17.3111 4.91567 17.3031 4.90018 17.2599 4.90018C17.268 4.88541 17.2714 4.86845 17.2695 4.85167C17.2695 4.85167 16.9957 4.81865 16.8087 4.81865C16.6217 4.81865 16.2515 4.91964 16.0455 5.00118C15.8825 5.06914 15.7912 5.06914 15.733 5.11177C15.6747 5.16028 15.6417 5.21276 15.6125 5.22633C15.5892 5.2399 15.4786 5.27484 15.4533 5.3117C15.43 5.3501 15.3912 5.39324 15.3912 5.40297C15.3912 5.4127 15.3815 5.42639 15.4107 5.41654C15.4203 5.4127 15.4922 5.37378 15.5737 5.32527C15.6843 5.26319 15.8183 5.19138 15.9155 5.14863C16.1931 5.03791 16.2805 5.05737 16.4047 5.03407C16.5348 5.01078 16.7213 4.95638 16.8454 4.95638C16.9697 4.95254 17.2047 4.95638 17.2591 4.9661C17.2358 4.98556 17.2164 5.00886 17.2261 5.09039C17.2261 5.11369 17.2066 5.1389 17.1877 5.19522C17.1296 5.35446 17.0189 5.61852 16.9573 5.75254C16.8719 5.93494 16.7749 6.08841 16.7269 6.18351C16.6789 6.27862 16.5733 6.52911 16.4687 6.66313C16.3641 6.79714 16.3095 6.87868 16.2767 6.90786C16.2439 6.93705 16.0087 7.10972 16.0262 7.17193C16.069 7.15836 16.3389 7.05673 16.5349 6.83606C16.7309 6.61538 16.7699 6.48073 16.9232 6.36028C17.0766 6.23983 17.197 6.03798 17.2688 5.87106C17.329 5.71567 17.3154 5.66716 17.3911 5.5293L17.3906 5.52892Z" fill="#806031"/>
<path fill-rule="evenodd" clip-rule="evenodd" d="M10.3593 8.54288C10.3593 8.54288 10.3166 8.71952 10.2194 8.80695C10.1243 8.89245 9.95537 8.96618 9.93604 9.10993C9.91274 9.25354 10.105 9.32548 10.105 9.32548C10.105 9.32548 10 9.49828 10 9.62833C10 9.76234 9.9962 9.78756 10.0098 9.91568C9.99437 9.92559 9.98127 9.93869 9.97137 9.95408C9.97137 9.95408 9.98097 10.0784 10.0762 10.1559C10.1714 10.2335 10.2528 10.2802 10.3014 10.2608C10.3088 10.2766 10.3153 10.2928 10.3208 10.3094C10.3208 10.3094 10.3927 10.1269 10.4413 9.96765C10.4898 9.80458 10.5325 9.82775 10.5518 9.60836C10.5712 9.38896 10.7822 9.01226 10.7822 9.01226L10.9262 8.69034L10.6914 8.50781L10.3593 8.54276V8.54288Z" fill="#B6903C"/>
<path fill-rule="evenodd" clip-rule="evenodd" d="M10.7962 8.85938C10.7477 8.9091 10.703 8.96232 10.6624 9.01861C10.6003 9.10411 10.5518 9.18168 10.4605 9.21483C10.3693 9.24798 10.311 9.24773 10.3168 9.33912C10.3226 9.43051 10.4081 9.46917 10.4566 9.51576C10.5091 9.56427 10.5518 9.64581 10.5285 9.7372C10.5576 9.72363 10.61 9.70801 10.6586 9.60318C10.7071 9.49835 11.0464 8.8595 11.0464 8.8595H10.7962V8.85938Z" fill="#685026"/>
<path fill-rule="evenodd" clip-rule="evenodd" d="M12.1343 7.38553C12.1343 7.38553 12.1633 7.30796 12.1343 7.25164C12.1051 7.1934 11.9284 7.17395 11.841 7.1079C11.7497 7.03993 11.639 6.9927 11.5478 7.02252C11.5613 6.9895 11.6157 6.91756 11.5711 6.90208C11.5283 6.88851 11.3692 6.96032 11.3264 6.99334C11.2837 7.02636 11.1865 7.06515 11.1672 7.08857C11.1479 7.112 11.1147 7.15654 11.0953 7.13708C11.0758 7.12352 11.0662 7.08857 11.0332 7.1079C11.0002 7.12723 10.8412 7.2574 10.8119 7.33318C10.7826 7.40896 10.7167 7.57792 10.5186 7.77004C10.3206 7.96217 10.2351 8.08659 10.2934 8.1584C10.3516 8.2302 10.3789 8.17785 10.3886 8.23993C10.3961 8.30087 10.3928 8.36266 10.3789 8.42246C10.3556 8.52345 10.3168 8.61856 10.3691 8.63801C10.5031 8.68076 10.6333 8.59961 10.6624 8.62444C10.7206 8.6768 10.6294 8.86521 10.7672 8.90208C10.9071 8.94048 11.045 8.86905 11.045 8.86905L11.5536 8.59526L12.043 8.33708L12.2934 7.84185L12.1591 7.42828L12.1335 7.38553H12.1343Z" fill="#D4B968"/>
<path fill-rule="evenodd" clip-rule="evenodd" d="M11.6544 8.56976C11.6544 8.56976 11.5689 8.43971 11.6739 8.32503C11.7788 8.21034 11.9282 8.16195 11.9864 8.09015C11.9754 8.07647 11.9605 8.06636 11.9437 8.06109C11.9824 7.99191 12.0413 7.93628 12.1127 7.90173C12.0836 7.87267 12.0447 7.84938 12.0021 7.84938C11.9068 7.84938 11.8485 7.90762 11.7612 7.90762C11.6758 7.90762 11.6661 7.86487 11.6661 7.86487C11.6661 7.86487 11.8098 7.8513 11.7961 7.78717C11.7825 7.7192 11.7577 7.7192 11.7577 7.7192C11.7577 7.7192 12.0353 7.604 12.0839 7.54256C12.1324 7.48112 12.1266 7.40855 12.1363 7.37949C12.1692 7.37949 12.3615 7.2785 12.4392 7.32125C12.5169 7.364 12.4625 7.48048 12.4625 7.48048C12.4625 7.48048 12.6976 7.30371 12.8174 7.1304C12.9223 7.14013 12.971 7.05859 13.0478 7.05859C13.1431 7.05859 13.2926 7.18864 13.3216 7.46627C13.3411 7.62551 13.3701 7.71677 13.3411 7.99837C13.3275 8.1576 13.3313 8.49757 13.3795 8.66627C13.4124 8.80029 13.4901 8.78672 13.4901 8.78672C13.4781 8.82756 13.4545 8.86401 13.4221 8.89155C13.3696 8.94007 13.3639 9.06832 13.3696 9.11683C13.3774 9.1523 13.3871 9.1873 13.3988 9.22167C13.3988 9.22167 13.3367 9.29347 13.3211 9.34211C13.3075 9.39063 13.2435 9.42365 13.1968 9.42365C13.1501 9.42365 13.1735 9.41968 13.1114 9.42365C13.0494 9.42762 13.0299 9.43722 12.991 9.42365C12.9521 9.41008 12.923 9.39447 12.9386 9.27005C12.9522 9.14576 12.459 8.85648 12.459 8.85648L11.6526 8.56912L11.6544 8.56976Z" fill="#CCA849"/>
<path fill-rule="evenodd" clip-rule="evenodd" d="M10.7282 9.79624C10.7282 9.79624 10.9048 10.0313 11.6311 10.0313C11.9767 10.0313 12.0971 9.99823 12.1687 9.97877C12.2464 9.95932 12.5376 9.84488 12.8308 9.49916C13.0949 9.18658 13.0367 9.05845 13.0367 9.05845L12.8831 9.03516L12.3839 9.10312L10.9067 9.73224L10.7275 9.79624H10.7282Z" fill="#585136"/>
<path fill-rule="evenodd" clip-rule="evenodd" d="M11.2697 9.85396C11.2697 9.85396 10.6406 9.99387 10.6406 9.59579C10.6406 9.20743 11.029 8.79963 11.1261 8.72782C11.2271 8.65588 11.4679 8.57422 11.4679 8.57422H12.0485L12.1591 8.86747L12.1106 9.50043L11.2697 9.85383V9.85396Z" fill="#252211"/>
<path fill-rule="evenodd" clip-rule="evenodd" d="M11.8503 8.69384C11.8503 8.69384 11.73 8.58312 11.4562 8.73224C11.1824 8.88136 10.9609 9.19304 10.9474 9.47604C10.9338 9.72641 11.1532 9.91291 11.495 9.92264C11.7493 9.93224 11.9028 9.90318 11.9805 9.88424C11.961 9.86094 11.86 9.73473 11.86 9.73473L11.8504 8.69396L11.8503 8.69384Z" fill="#C3B378"/>
<path fill-rule="evenodd" clip-rule="evenodd" d="M11.7321 8.75582C11.7321 8.75582 11.7031 8.73253 11.6169 8.77912C11.5451 8.81752 11.4403 8.91902 11.3588 8.99083C11.3063 9.03358 11.2733 9.05291 11.2436 9.08594C11.1231 9.22968 11.0221 9.46469 11.0805 9.58117C11.1389 9.69765 11.331 9.83166 11.8203 9.7404L11.7307 8.75595L11.7321 8.75582Z" fill="#E6D89C"/>
<path fill-rule="evenodd" clip-rule="evenodd" d="M11.5731 8.9966C11.5731 8.9966 11.4954 9.11705 11.4954 9.3093C11.4954 9.5054 11.6061 9.81798 12.0139 9.84127C12.3265 9.86073 12.5362 9.39084 12.7634 9.20831C12.9362 9.06854 13.041 9.06457 13.041 9.06457C13.041 9.06457 12.8643 8.87257 12.3925 8.62386C11.9265 8.37337 11.4041 8.34034 11.1206 8.72486C11.2546 8.71513 11.6876 8.60441 11.6876 8.60441L11.8994 8.67238L11.5731 8.99673V8.9966Z" fill="#252211"/>
<path fill-rule="evenodd" clip-rule="evenodd" d="M12.1823 9.24979C12.1688 9.22073 12.159 9.18182 12.2154 9.17222C12.2717 9.16262 12.2969 9.16825 12.3163 9.21062C12.3358 9.25299 12.3547 9.28831 12.3259 9.30585C12.2969 9.32134 12.2211 9.30585 12.1822 9.24953L12.1823 9.24979ZM12.0911 8.97599C12.0911 8.97599 12.0716 8.98956 12.0813 8.96243C12.0852 8.92953 12.1105 8.87116 12.1726 8.88486C12.2347 8.89855 12.2212 8.96639 12.211 8.98585C12.2008 9.00531 12.1489 9.0382 12.11 9.02425C12.1051 9.02299 12.1005 9.02058 12.0967 9.01722C12.0929 9.01387 12.0899 9.00966 12.088 9.00493C12.0861 9.0002 12.0853 8.9951 12.0858 8.99002C12.0862 8.98495 12.0879 8.98006 12.0906 8.97574L12.0911 8.97599Z" fill="#6F674D"/>
<path fill-rule="evenodd" clip-rule="evenodd" d="M6.83496 9.09986C6.83496 9.09986 6.98856 9.21506 7.16699 9.21058C7.34363 9.20661 7.57083 9.02421 7.67566 8.9076C7.73774 8.83963 7.79086 8.76782 7.84846 8.7115C7.8971 8.66299 7.93 8.6397 7.9533 8.60667C7.98632 8.56827 8.02126 8.49608 8.0388 8.47266C7.99605 8.50568 7.93397 8.56405 7.86984 8.60283C7.80776 8.64123 7.67375 8.71342 7.61935 8.73288C7.56699 8.75234 7.02325 9.04008 7.02325 9.04008L6.83496 9.09986Z" fill="#AC924C"/>
<path fill-rule="evenodd" clip-rule="evenodd" d="M7.06982 7.66515C7.06982 7.66515 7.1552 7.60691 7.32032 7.56992C7.47955 7.53152 7.79994 7.50195 7.79994 7.50195L8.064 7.61715L8.16883 8.01523L7.97683 8.42893L7.73222 8.58253L7.45446 8.13594L7.07046 7.66592L7.06982 7.66515Z" fill="#9F8E57"/>
<path fill-rule="evenodd" clip-rule="evenodd" d="M6.7242 8.02175L6.63281 8.08997C6.63281 8.08997 6.65624 8.04722 6.67556 7.91717C6.69489 7.78712 6.79601 7.47058 6.9436 7.28805C7.09118 7.10552 7.08734 7.11525 7.08734 7.11525C7.07376 7.11277 7.05981 7.11321 7.04641 7.11654C7.03301 7.11987 7.02048 7.12602 7.00964 7.13458C7.0291 7.09157 7.15339 6.93797 7.27768 6.86117C7.40196 6.78437 7.45048 6.76018 7.58052 6.82277C7.71057 6.88536 7.7436 6.91787 7.83883 6.91403C7.93406 6.91019 8.01547 6.8092 8.01547 6.8092C8.01547 6.8092 8.03492 6.87128 7.96312 7.01503C7.89131 7.15877 7.60779 7.45189 7.60779 7.45189L7.01745 7.85573L6.7242 8.02213V8.02175Z" fill="#EAC970"/>
<path fill-rule="evenodd" clip-rule="evenodd" d="M7.16116 7.61822C7.16116 7.61822 7.58842 7.67646 7.71847 7.55614C7.72231 7.56971 7.73793 7.56971 7.73793 7.57944C7.73688 7.58677 7.73346 7.59356 7.7282 7.59876C7.74234 7.59651 7.75663 7.59522 7.77095 7.59492C7.78805 7.60001 7.80564 7.60327 7.82343 7.60465C7.83776 7.60434 7.85204 7.60302 7.86618 7.60068C7.86483 7.61034 7.86155 7.61962 7.85654 7.62797C7.85152 7.63633 7.84488 7.64359 7.837 7.64932C7.85645 7.64932 7.8754 7.65316 7.8754 7.66865C7.8754 7.68414 7.87924 7.73086 7.85594 7.74059C7.83664 7.74592 7.8161 7.74453 7.7977 7.73662C7.79924 7.77338 7.80923 7.8093 7.82688 7.84158C7.86528 7.91339 7.9472 7.99518 8.05728 7.97163C8.05728 7.97163 8.1154 8.1114 7.87079 8.42206C7.83789 8.46481 7.80282 8.52305 7.7602 8.57156C7.74336 8.60827 7.73048 8.64668 7.7218 8.68612C7.7218 8.68612 8.13549 8.52689 8.25389 8.16376C8.37434 7.7987 8.39764 7.43953 8.37434 7.10366C8.37037 7.00843 8.35489 6.94059 8.33159 6.89195C8.27335 6.7715 8.11015 6.79096 8.04423 6.85892C7.949 6.95416 7.78977 7.19096 7.56845 7.35403C7.34317 7.5171 7.33357 7.54603 7.16064 7.61822H7.16116Z" fill="#D7BC6B"/>
<path fill-rule="evenodd" clip-rule="evenodd" d="M6.64854 8.14253C6.64854 8.14253 6.56701 8.19104 6.52426 8.37293C6.4815 8.5593 6.56266 8.7865 6.60963 8.85831C6.65661 8.93012 6.76323 9.12634 6.98442 9.13607C7.03916 9.13578 7.0933 9.12455 7.14365 9.10304C7.22086 9.06764 7.29329 9.02261 7.3592 8.96903C7.45443 8.89722 7.532 8.83514 7.52227 8.82925C7.49898 8.81952 6.9359 8.35348 6.9359 8.35348L6.72419 8.11719L6.64842 8.14279L6.64854 8.14253Z" fill="#585136"/>
<path fill-rule="evenodd" clip-rule="evenodd" d="M7.18088 8.91461C7.18088 8.91461 7.29544 8.90501 7.36341 8.86225C7.43138 8.8195 6.96533 8.35742 6.96533 8.35742L6.99836 8.85662L7.18088 8.91461Z" fill="#453A25"/>
<path fill-rule="evenodd" clip-rule="evenodd" d="M6.68565 8.10606C6.68565 8.10606 6.62741 8.21678 6.62741 8.24596C6.61768 8.34106 6.64687 8.64007 6.67016 8.73518C6.69346 8.83617 6.81967 8.98951 6.98287 8.98951C7.08373 8.98951 7.22364 8.92743 7.22364 8.91194C7.22364 8.89249 7.07989 8.87354 7.04111 8.80122C7.01781 8.76282 7.00808 8.66734 7.00271 8.57082C6.99887 8.50874 6.99887 8.44078 7.02216 8.41722C7.07464 8.35898 7.08424 8.19194 7.08424 8.19194L7.27061 7.8457H7.02549L6.73224 8.02823L6.68565 8.10606Z" fill="#84754B"/>
<path fill-rule="evenodd" clip-rule="evenodd" d="M6.61377 8.21374C6.61377 8.21374 6.80577 7.9594 6.97883 7.90103C7.15188 7.84267 7.22932 7.87774 7.22932 7.87774L7.12833 8.13604L6.98459 8.29527L6.99431 8.37681C6.99431 8.37681 6.97089 8.59236 7.11463 8.74187C7.25838 8.89137 7.36513 8.88561 7.42734 8.88561C7.48955 8.88561 7.66811 8.83313 7.75937 8.61758C7.84091 8.41572 7.90887 8.15678 7.7458 7.89719C7.58644 7.63889 7.30497 7.62891 7.25057 7.62891C7.19617 7.62891 6.76903 7.65028 6.61377 8.21335V8.21374Z" fill="#252211"/>
<path fill-rule="evenodd" clip-rule="evenodd" d="M11.5437 9.07783C11.4719 9.0448 11.5399 8.84295 11.6117 8.78074C11.6835 8.71853 11.7748 8.64685 11.9341 8.63699C11.9923 8.63315 12.0486 8.67002 12.039 8.70893C12.0254 8.78074 11.9244 8.88173 11.8332 8.95354C11.7069 9.05261 11.6253 9.11469 11.5437 9.07783Z" fill="#F7F7E7"/>
<path fill-rule="evenodd" clip-rule="evenodd" d="M7.65993 7.9768C7.71241 7.97296 7.78038 8.0152 7.79395 8.07204C7.80752 8.13412 7.76092 8.2584 7.65993 8.2584C7.5784 8.2584 7.53564 8.15741 7.53564 8.12836C7.53656 8.10447 7.54324 8.08115 7.5551 8.06039C7.55894 8.0545 7.56867 7.98653 7.65993 7.9768Z" fill="#F8F6DE"/>
<path fill-rule="evenodd" clip-rule="evenodd" d="M6.9028 8.02148C6.9028 8.02148 6.76878 8.08356 6.7067 8.21348C6.66235 8.30942 6.64893 8.41678 6.6683 8.52068C6.67803 8.5692 6.72654 8.68952 6.75957 8.73227C6.79259 8.77502 6.83726 8.8042 6.87029 8.80024C6.90331 8.79627 6.97115 8.70897 6.97115 8.65662C6.97115 8.60427 6.97512 8.38283 7.03912 8.26238C7.09544 8.14206 6.90318 8.02161 6.90318 8.02161L6.9028 8.02148Z" fill="#D4C38B"/>
<path fill-rule="evenodd" clip-rule="evenodd" d="M6.92214 8.01096C6.89885 8.02452 6.86006 8.04398 6.86966 8.0692C6.87939 8.09249 6.96093 8.1076 6.99011 8.16443C7.02313 8.22267 7.02313 8.28475 7.01341 8.31393C7.03877 8.30188 7.06178 8.28541 7.08137 8.26529C7.12413 8.21678 7.17648 8.15086 7.22115 8.15086C7.25033 8.15086 7.27939 8.16443 7.30665 8.16443C7.34941 8.16443 7.39203 8.15086 7.39792 8.10619C7.40752 8.04795 7.31638 7.99547 7.2639 8.0052C7.27363 7.9668 7.2872 7.91009 7.24445 7.87118C7.20169 7.83227 7.06781 7.90036 7.03862 7.91982C7.00944 7.93928 6.92214 8.01108 6.92214 8.01108V8.01096Z" fill="#E2D59D"/>
<path fill-rule="evenodd" clip-rule="evenodd" d="M10.0077 12.0907L10.295 12.0059L10.3766 12.0641C10.3766 12.0641 10.4347 12.1884 10.5261 12.2039C10.4969 12.266 10.4211 12.3191 10.4251 12.3631C10.4291 12.4071 10.4678 12.4408 10.4678 12.4408C10.4678 12.4408 10.2095 12.8679 10.7183 13.2984C10.5979 13.3469 10.4445 13.4136 10.363 13.452C10.4211 13.4656 10.5454 13.4904 10.5979 13.5375C10.6504 13.5846 10.6504 13.5996 10.6989 13.6288C10.7474 13.658 10.7764 13.6967 10.7668 13.7141C10.7338 13.6947 10.6231 13.6366 10.6038 13.6909C10.5844 13.7451 10.1242 13.7239 10.1242 13.7239L9.34746 13.8734C9.34746 13.8734 9.37651 13.7957 9.29498 13.7239C9.19987 13.6385 9.08339 13.7277 8.9591 13.6326C8.79603 13.5083 8.79014 13.3646 8.73779 13.3103C8.79014 13.2773 8.89702 13.2288 9.15136 13.1951C9.14163 13.1757 9.10861 13.1174 9.12806 13.0651C9.15136 12.9971 9.24838 12.9543 9.21933 12.8731C9.26208 12.8633 9.28141 12.8633 9.38829 12.7293C9.48928 12.5953 9.55136 12.5662 9.62906 12.5565C9.70675 12.5468 9.75334 12.5565 9.89709 12.4225C9.99795 12.3274 9.96506 12.2459 9.96506 12.2459C9.96506 12.2459 10.031 12.2245 10.0078 12.0905L10.0077 12.0907Z" fill="#CBAC5A"/>
<path fill-rule="evenodd" clip-rule="evenodd" d="M9.15914 12.1337C9.16298 12.1142 9.1786 12.1045 9.28343 12.1142C9.38826 12.124 10.0523 12.0521 10.2329 12.0424C10.4155 12.0289 11.0581 12.0385 11.3709 12.1045C11.6836 12.1705 12 12.2482 12.1533 12.287C12.3069 12.3298 12.3553 12.3451 12.3494 12.3646C12.3456 12.3841 12.311 12.403 12.2912 12.3976C12.2718 12.3938 11.763 12.2384 11.6059 12.2056C11.4487 12.1729 10.9048 12.0852 10.6075 12.0904C10.3298 12.0944 10.2191 12.0866 9.98423 12.1137C9.74922 12.1429 9.36087 12.1817 9.24439 12.1662C9.12919 12.1526 9.153 12.1526 9.15888 12.1332L9.15914 12.1337Z" fill="#D6BC6F"/>
<path fill-rule="evenodd" clip-rule="evenodd" d="M10.7221 13.6559C10.7221 13.6559 11.1202 13.8715 11.2639 14.1356C11.3687 14.3317 11.2018 14.4288 11.2018 14.4288C11.2018 14.4288 11.4271 14.4288 11.3979 14.5531C11.3844 14.6307 11.0096 14.8403 10.7591 14.951C10.5047 15.0618 10.5145 15.056 10.3902 15.0753C10.2697 15.0948 9.93962 15.0369 9.87165 15.1336C9.80368 15.2302 9.83325 15.3298 9.85219 15.3453C9.87165 15.3589 10.029 15.3783 10.029 15.3783C10.029 15.3783 9.99594 15.4696 9.66979 15.4793C9.34365 15.489 9.26198 15.5122 9.24253 15.5473C9.22307 15.5802 9.30461 15.5608 9.45424 15.5857C9.60374 15.609 9.81341 15.6241 9.81341 15.6241C9.81341 15.6241 9.74544 15.6823 9.5688 15.7289C9.36682 15.7813 9.05027 15.8299 8.95517 15.8881C9.00368 15.9212 9.07562 15.9697 9.10877 15.9735C9.02723 15.993 8.91254 16.0357 8.89322 16.0512C8.92227 16.0707 8.96118 16.094 8.96118 16.094C8.96118 16.094 8.79798 16.2901 8.70288 16.3387C8.60778 16.3873 8.06019 16.6415 7.87178 16.593C7.40189 16.4687 7.34365 15.9542 7.22909 15.9154C7.05629 15.8572 6.97475 15.9735 6.82128 15.892C6.88925 15.8435 6.92624 15.8144 6.99805 15.7814C6.92035 15.743 6.51843 15.4881 6.51843 15.4881C6.4764 15.3965 6.42975 15.3071 6.37866 15.2202C6.30096 15.0862 6.18666 14.9075 6.1009 14.7502C5.91453 14.4046 5.9048 14.2454 5.73584 14.0493C5.76502 14.0109 5.86589 14.0163 5.86589 14.0163L7.28157 14.4823L9.79178 14.555L10.4446 13.623L10.7222 13.6561L10.7221 13.6559Z" fill="#DFC677"/>
<path fill-rule="evenodd" clip-rule="evenodd" d="M7.00391 15.0776C7.01905 15.0945 7.03671 15.1089 7.05626 15.1204C7.1049 15.1534 7.17671 15.1923 7.22522 15.2504C7.24467 15.2213 7.29319 15.1689 7.37882 15.2504C7.46445 15.3319 7.57082 15.2738 7.63699 15.2932C7.70496 15.3166 7.7088 15.3262 7.7088 15.3262C7.7088 15.3262 7.7472 15.2932 7.83309 15.2582C7.88557 15.2388 7.94765 15.2252 8.01562 15.2059C8.0777 15.1923 8.14567 15.1728 8.19239 15.1728C8.23514 15.2019 8.38848 15.3648 9.00403 15.1243C9.58464 14.899 9.71853 14.8738 9.81568 14.9086C9.82541 14.8853 9.83514 14.8407 9.98464 14.8466C9.98464 14.7845 9.86035 14.5728 9.86035 14.5728L9.17491 14.3379H8.8L7.67578 14.5437L7.0528 14.8992L7.00429 15.0784L7.00391 15.0776Z" fill="#C4A859"/>
<path fill-rule="evenodd" clip-rule="evenodd" d="M6.62891 14.6839C6.62891 14.6839 6.64247 14.7888 6.79787 14.8995C6.95147 15.0101 6.99972 15.0761 6.99972 15.0761C6.99972 15.0761 7.02891 15.0377 7.0522 14.9986C7.0755 14.9558 7.09495 14.9073 7.13374 14.8937C7.21143 14.8607 7.38807 14.9228 7.42699 14.9131C7.46001 14.9035 7.45028 14.8355 7.48523 14.8355C7.56676 14.8315 7.61911 14.8878 7.6483 14.8878C7.67748 14.8878 7.74916 14.884 7.75889 14.8685C7.76862 14.853 7.77246 14.6917 7.88318 14.614C8.00363 14.5287 8.15121 14.5655 8.19038 14.585C8.19038 14.614 8.19422 14.686 8.27191 14.6898C8.34961 14.6937 8.35729 14.6801 8.42551 14.7034C8.49374 14.7267 8.57502 14.6996 8.61188 14.814C8.64491 14.8044 8.7226 14.7947 8.70315 14.6839C8.74155 14.6549 8.77508 14.6354 8.85675 14.5209C8.8762 14.4918 8.9091 14.4588 8.93444 14.416C9.00241 14.416 9.08395 14.4025 9.19262 14.4976C9.15959 14.5209 9.14014 14.536 9.13054 14.5596C9.15896 14.5878 9.18491 14.6183 9.20811 14.6509C9.23729 14.6893 9.25675 14.7364 9.29361 14.7461C9.37515 14.7694 9.50916 14.7364 9.65867 14.7461C9.80241 14.7559 9.92273 14.8082 9.97521 14.8412C9.99467 14.8316 9.99467 14.8277 10.0432 14.8374C10.0917 14.8471 10.1286 14.851 10.0762 14.7889C10.1053 14.8025 10.1383 14.8316 10.1675 14.8025C10.1966 14.7733 10.2198 14.7307 10.3014 14.7209C10.3829 14.7112 10.4121 14.7248 10.4451 14.6394C10.4878 14.5346 10.3403 14.5346 10.3403 14.5346C10.3403 14.5346 10.4082 14.4724 10.484 14.3908C10.5753 14.3054 10.6801 14.1947 10.7053 14.0588C10.7481 13.8083 10.5035 13.7754 10.5035 13.7754L9.31703 14.1404L7.86654 14.0685L6.62967 14.6841L6.62891 14.6839Z" fill="#927D49"/>
<path fill-rule="evenodd" clip-rule="evenodd" d="M5.56326 11.2558C5.56326 11.2558 5.52486 11.3043 5.50118 11.4189C5.4775 11.5334 5.48761 11.5199 5.46815 11.6014C5.4487 11.6829 5.20972 12.4946 5.29932 12.7684C5.38892 13.0422 5.54406 13.1432 5.64108 13.3645C5.66054 13.413 5.67948 13.4422 5.68959 13.4849C5.72262 13.6285 5.69356 13.7392 5.73235 13.883C5.74591 13.9315 5.78099 13.9878 5.83334 14.0461C5.94854 14.1664 6.13631 14.2809 6.21734 14.3625C6.33177 14.4829 6.49497 14.7277 6.70271 14.7508C6.81343 14.7644 6.97075 14.7178 7.10079 14.6402C7.21599 14.5683 7.28716 14.4674 7.40799 14.4098C7.49337 14.3671 7.58463 14.3516 7.66617 14.3321C7.83513 14.2991 7.9886 14.2937 8.07987 14.3127C8.21964 14.3419 8.54975 14.4429 8.73267 14.4429C8.87559 14.4406 9.01772 14.421 9.15596 14.3846C9.43359 14.3031 9.76947 14.1632 9.99091 14.1011C10.121 14.0627 10.2258 14.0526 10.3327 14.0293C10.5152 13.9865 10.6685 13.9283 10.756 13.8176C10.6977 13.7496 10.6259 13.6448 10.2374 13.6486C9.79673 13.6584 9.28793 13.903 9.03743 13.9419C8.78694 13.9808 8.67827 14.0137 8.39859 13.9127C8.12441 13.8107 8.11532 13.7432 8.11532 13.7432C8.11532 13.7432 7.82745 13.5419 7.707 13.0286C7.58655 12.5153 7.707 12.1413 8.01971 11.7858C8.10124 11.6946 8.08179 11.613 8.08179 11.613C8.08179 11.613 8.28761 11.3354 8.23129 11.0754C8.16921 10.8171 7.77113 10.8696 7.77113 10.8696L5.56339 11.2558H5.56326Z" fill="#6E6342"/>
<path fill-rule="evenodd" clip-rule="evenodd" d="M5.89514 12.1211C5.87803 12.1533 5.86997 12.1895 5.87185 12.2259C5.87569 12.2783 5.8913 12.3462 6.04849 12.4997C6.1825 12.6336 6.15332 12.7831 6.15332 12.7831C6.15332 12.7831 6.22078 12.7967 6.40382 12.711C6.54756 12.6431 6.59582 12.7635 6.59582 12.7635C6.63766 12.7416 6.68301 12.7271 6.72983 12.7208C6.77225 12.7169 6.81331 12.7038 6.85015 12.6824C6.85015 12.6824 7.01911 12.8552 7.1667 12.9367C7.30071 13.0086 7.37841 13.0572 7.44446 13.0086C7.50654 12.9659 7.50654 12.8785 7.50257 12.8397C7.48717 12.8039 7.46766 12.77 7.44446 12.7387C7.4017 12.6766 7.33374 12.6047 7.32926 12.5467C7.31953 12.4128 7.43025 12.2534 7.40682 12.2147C7.3834 12.1759 7.29623 12.1662 7.08068 12.2438C6.85745 12.3176 5.89425 12.1215 5.89425 12.1215L5.89514 12.1211Z" fill="#39331F"/>
<path fill-rule="evenodd" clip-rule="evenodd" d="M6.40379 12.9887C6.40379 12.9887 6.29319 12.8839 6.33198 12.3751C6.37893 12.3744 6.42581 12.3789 6.47175 12.3886C6.47175 12.3886 6.53204 12.7829 6.40379 12.9887Z" fill="#292311"/>
<path fill-rule="evenodd" clip-rule="evenodd" d="M5.61577 10.8686C5.6312 10.8572 5.64552 10.8444 5.65852 10.8302C5.62012 10.902 5.44284 11.1894 5.58659 11.6419C5.73033 12.0923 6.09142 12.4282 6.53609 12.4438C6.98076 12.4594 7.21449 12.2418 7.48175 11.9157C7.58659 11.7856 7.70703 11.6224 7.81379 11.5118C7.97302 11.3389 8.09731 11.2904 8.09731 11.1235C8.09731 10.7817 7.74774 10.6282 7.23318 10.4749C6.71862 10.3216 6.25449 10.3405 6.01372 10.4455C5.77884 10.5599 5.67785 10.6803 5.61564 10.8688L5.61577 10.8686Z" fill="#252211"/>
<path fill-rule="evenodd" clip-rule="evenodd" d="M7.26796 13.1417L7.30636 13.1222C7.30636 13.1222 7.31596 12.9686 7.37817 12.9727C7.44025 12.9825 7.46943 13.0641 7.46355 13.0932C7.45971 13.1222 7.44422 13.1709 7.38201 13.165C7.30047 13.1669 7.26758 13.1417 7.26758 13.1417H7.26796Z" fill="#3F3824"/>
<path fill-rule="evenodd" clip-rule="evenodd" d="M7.09521 12.4901C7.09521 12.4901 7.13361 12.4766 7.18059 12.5231C7.21899 12.5231 7.38641 12.5037 7.43889 12.5367C7.49137 12.5697 7.50686 12.5988 7.50686 12.5988C7.50686 12.5988 7.31077 12.6415 7.20389 12.5988C7.09521 12.5619 7.09521 12.4901 7.09521 12.4901Z" fill="#2D2815"/>
<path fill-rule="evenodd" clip-rule="evenodd" d="M7.95927 12.5189C7.95927 12.5092 7.85444 12.4373 7.74372 12.4139C7.72427 12.4101 7.7203 12.4236 7.70532 12.4236C7.69559 12.4198 7.69175 12.3906 7.69175 12.3906L7.62878 12.4238C7.62878 12.4238 7.61905 12.4373 7.65207 12.4622C7.68113 12.4855 7.72977 12.5049 7.74334 12.5437C7.75691 12.5825 7.75691 12.5961 7.76279 12.602C7.76663 12.6058 7.8346 12.602 7.86763 12.5825C7.90065 12.563 7.96286 12.5313 7.95889 12.5185L7.95927 12.5189Z" fill="#82764F"/>
<path fill-rule="evenodd" clip-rule="evenodd" d="M6.97852 12.9118C6.97852 12.9118 6.99784 12.7779 7.12802 12.772C7.26191 12.7623 7.28725 12.8923 7.28725 12.8923L7.20956 12.97C7.20956 12.9681 7.15132 12.8866 6.97916 12.9118H6.97852Z" fill="#2D2816"/>
<path fill-rule="evenodd" clip-rule="evenodd" d="M7.82325 12.3367C7.82325 12.3367 7.75132 12.4144 7.59221 12.4377C7.57865 12.4183 7.54946 12.3795 7.59221 12.3174C7.63497 12.2553 7.68348 12.2359 7.73199 12.2552C7.75339 12.2587 7.77336 12.2682 7.78953 12.2826C7.8057 12.2971 7.8174 12.3159 7.82325 12.3367Z" fill="#574F35"/>
<path fill-rule="evenodd" clip-rule="evenodd" d="M8.11639 12.4303C8.12036 12.4108 8.10679 12.407 8.11639 12.3972C8.12599 12.3875 8.1786 12.3682 8.18833 12.3778C8.19217 12.3817 8.18833 12.3972 8.18833 12.4162C8.18833 12.4351 8.18833 12.4546 8.1786 12.4685C8.16503 12.488 8.12625 12.4977 8.10679 12.4919C8.08734 12.4862 8.0835 12.4589 8.0835 12.4535C8.0931 12.4497 8.11639 12.44 8.11639 12.4303ZM8.44791 12.2206C8.44791 12.2109 8.48094 12.1914 8.50039 12.1914C8.52945 12.1914 8.52945 12.2147 8.53342 12.2206C8.54302 12.2244 8.54302 12.2166 8.55274 12.2342C8.56247 12.2517 8.57617 12.2827 8.56631 12.3021C8.55646 12.3216 8.5178 12.335 8.5082 12.3312C8.49463 12.3215 8.45188 12.2342 8.44791 12.2206Z" fill="#82764F"/>
<path fill-rule="evenodd" clip-rule="evenodd" d="M7.78076 12.4767C7.78076 12.4767 7.82351 12.4863 7.88175 12.5349C7.8623 12.5485 7.83311 12.564 7.83311 12.564C7.83311 12.564 7.82927 12.5193 7.78076 12.4766V12.4767Z" fill="#6E6342"/>
<path fill-rule="evenodd" clip-rule="evenodd" d="M7.68562 12.0479C7.67589 12.0383 7.71467 12.015 7.73797 12.0188C7.76127 12.0227 7.77099 12.0383 7.79621 12.0421C7.82143 12.046 7.82539 12.0324 7.83461 12.0227C7.84383 12.013 7.87736 12.0188 7.88312 12.0227C7.88671 12.027 7.88996 12.0315 7.89285 12.0363C7.89326 12.0289 7.89518 12.0216 7.89851 12.015C7.90183 12.0084 7.90649 12.0026 7.91218 11.9979C7.91963 11.9924 7.92822 11.9887 7.9373 11.987C7.94639 11.9853 7.95574 11.9857 7.96466 11.9881C7.9685 12.0017 7.98795 12.0502 7.98411 12.0599C7.98027 12.0697 7.92203 12.0834 7.91218 12.0735C7.92191 12.0969 7.96466 12.1454 7.97042 12.155C7.97618 12.1646 7.92767 12.1881 7.90834 12.1842C7.8812 12.1823 7.71416 12.0851 7.68511 12.0483L7.68562 12.0479ZM7.93995 11.7256C7.93636 11.7158 7.92948 11.7076 7.9205 11.7023C7.90693 11.6985 7.86226 11.7023 7.86226 11.7256C7.86226 11.7489 7.90066 11.8792 7.94379 11.947C7.99243 12.015 8.02533 12.0712 8.05835 12.0868C8.06872 12.0915 8.08049 12.0922 8.0913 12.0885C8.10211 12.0849 8.11114 12.0774 8.11659 12.0674C8.12043 12.0576 8.13016 11.9858 8.12632 11.8169C8.12248 11.6479 8.11659 11.4848 8.10687 11.4751C8.09714 11.4654 8.05835 11.4655 8.04479 11.4848C8.03122 11.5042 7.94379 11.6965 7.93982 11.7256H7.93995Z" fill="#585136"/>
<path fill-rule="evenodd" clip-rule="evenodd" d="M7.76701 12.721C7.76701 12.721 7.69904 12.6783 7.63299 12.7075C7.57091 12.7366 7.57475 12.8512 7.57475 12.8512C7.58872 12.8567 7.60381 12.8586 7.61871 12.8569C7.63361 12.8553 7.64788 12.8499 7.66026 12.8415C7.70301 12.8124 7.75728 12.7639 7.76701 12.7212V12.721Z" fill="#574F35"/>
<path fill-rule="evenodd" clip-rule="evenodd" d="M7.89533 12.8731C7.89149 12.8347 7.85693 12.8347 7.85693 12.8149C7.85931 12.8054 7.86481 12.797 7.87254 12.791C7.88027 12.785 7.88978 12.7818 7.89956 12.7818C7.91901 12.7818 7.93796 12.8051 7.96177 12.8202C7.98506 12.8338 8.02001 12.8586 8.02385 12.8882C8.02769 12.9178 7.98545 12.9988 7.93847 12.9988C7.89149 12.9988 7.90545 12.9114 7.89572 12.8726L7.89533 12.8731ZM8.27012 12.8206C8.27012 12.8206 8.19242 12.8439 8.19818 12.8206C8.20394 12.7973 8.22161 12.7916 8.24682 12.7916C8.25963 12.7782 8.27687 12.7698 8.29533 12.7681C8.3059 12.7676 8.31627 12.7711 8.32439 12.7779C8.32439 12.7779 8.37687 12.7546 8.39236 12.7681C8.40785 12.7817 8.39633 12.7817 8.40593 12.7973C8.41815 12.8147 8.42617 12.8346 8.42935 12.8556C8.42935 12.8711 8.37111 12.9041 8.32439 12.8983C8.27012 12.8867 8.27972 12.8303 8.27012 12.8206ZM8.72247 12.7332C8.72247 12.7332 8.74577 12.7468 8.72644 12.7624C8.71287 12.7759 8.6449 12.8008 8.58653 12.8051C8.52829 12.8051 8.47594 12.8147 8.47594 12.7954C8.47594 12.7761 8.52445 12.7372 8.55351 12.7274C8.55934 12.7201 8.56674 12.7143 8.57516 12.7102C8.58358 12.7062 8.59281 12.7041 8.60215 12.7041C8.62545 12.7041 8.71658 12.6944 8.74193 12.6906C8.76522 12.6866 8.78468 12.7002 8.77098 12.7196C8.76522 12.7332 8.72247 12.7332 8.72247 12.7332ZM8.85649 12.1336C8.85649 12.1336 8.8273 12.1957 8.79441 12.1957C8.76138 12.1919 8.76138 12.1822 8.76138 12.1724C8.76138 12.1589 8.79441 12.1239 8.79044 12.1142C8.78084 12.1142 8.75741 12.1142 8.76138 12.0909C8.76138 12.0714 8.79441 12.0481 8.82346 12.0525C8.84542 12.0345 8.87275 12.0242 8.90116 12.0234C8.93418 12.0234 8.96324 12.033 8.96324 12.0525C8.96324 12.0719 8.92484 12.1146 8.91076 12.1244C8.89527 12.1399 8.87581 12.15 8.85649 12.134V12.1336ZM8.41373 13.2812C8.41373 13.2812 8.37533 13.2851 8.37533 13.3045C8.37533 13.3142 8.38493 13.3142 8.39863 13.3084C8.40652 13.308 8.41433 13.3067 8.42193 13.3045C8.42577 13.3084 8.42577 13.3278 8.45495 13.3278C8.47891 13.3245 8.50201 13.3166 8.52292 13.3045C8.54621 13.2949 8.56567 13.285 8.56567 13.2661C8.55594 13.233 8.53649 13.2174 8.50743 13.2174C8.49254 13.2165 8.47769 13.2199 8.46468 13.2271C8.46468 13.2271 8.45495 13.2077 8.42193 13.2271C8.3889 13.2466 8.39274 13.2466 8.40247 13.2563C8.41988 13.2718 8.41412 13.2819 8.41412 13.2819L8.41373 13.2812ZM8.19434 13.4831C8.19434 13.4734 8.24285 13.454 8.25642 13.4599C8.26999 13.4637 8.30877 13.5374 8.30877 13.5452C8.30877 13.555 8.26026 13.5783 8.24081 13.5783C8.22135 13.5783 8.18845 13.5452 8.18845 13.5399C8.18845 13.536 8.21175 13.5303 8.21175 13.5263C8.21751 13.5167 8.19434 13.4933 8.19434 13.4835V13.4831ZM8.04074 13.1996C8.05047 13.1958 8.05047 13.1861 8.06404 13.1763C8.06829 13.1735 8.07312 13.1717 8.07818 13.171C8.08324 13.1704 8.08839 13.1709 8.09322 13.1725C8.09665 13.1664 8.10138 13.1611 8.1071 13.1571C8.11281 13.153 8.11935 13.1503 8.12625 13.1491C8.14954 13.1452 8.169 13.1491 8.16465 13.1588C8.16465 13.188 8.1841 13.2073 8.1841 13.2306C8.1841 13.2539 8.17053 13.2831 8.12202 13.3025C8.07351 13.3161 8.00746 13.3161 7.99773 13.3123C7.98801 13.3084 7.97828 13.2695 7.98801 13.2501C7.99773 13.2306 8.02487 13.2094 8.04049 13.1996H8.04074Z" fill="#82764F"/>
<path fill-rule="evenodd" clip-rule="evenodd" d="M8.10236 13.2129C8.10236 13.2129 8.06934 13.2323 8.06934 13.2421C8.06641 13.2515 8.06511 13.2613 8.0655 13.2711C8.0655 13.2769 8.10825 13.2673 8.11401 13.2614C8.11593 13.2576 8.10236 13.223 8.10236 13.2129Z" fill="#6E6342"/>
<path fill-rule="evenodd" clip-rule="evenodd" d="M7.81373 13.1215C7.83306 13.1254 7.86609 13.1215 7.8913 13.1312C7.91076 13.1409 7.92433 13.1604 7.90487 13.1837C7.88541 13.207 7.86647 13.2419 7.82333 13.236C7.77482 13.2322 7.72823 13.207 7.72823 13.1875C7.72742 13.1752 7.72906 13.1629 7.73305 13.1512C7.73705 13.1395 7.74333 13.1288 7.75153 13.1196C7.77098 13.1041 7.78058 13.1138 7.81361 13.1215H7.81373Z" fill="#585136"/>
<path fill-rule="evenodd" clip-rule="evenodd" d="M7.79039 13.1426C7.79039 13.1426 7.72831 13.1911 7.71269 13.2145C7.69324 13.2378 7.59814 13.3581 7.56908 13.3833C7.57873 13.3663 7.58973 13.3501 7.60198 13.3348C7.56357 13.3594 7.53479 13.3964 7.52044 13.4397C7.49714 13.5116 7.65062 13.5504 7.75148 13.5796C7.85234 13.6088 7.89138 13.618 7.89138 13.618C7.85425 13.5622 7.82237 13.503 7.79615 13.4413C7.75775 13.3501 7.73791 13.3403 7.76313 13.2976C7.78258 13.2548 7.81177 13.2258 7.81177 13.1928C7.80012 13.162 7.79039 13.1426 7.79039 13.1426Z" fill="#574F35"/>
<path fill-rule="evenodd" clip-rule="evenodd" d="M5.57692 13.2949C5.59105 13.2975 5.60554 13.2975 5.61967 13.2949C5.64872 13.2909 5.9517 13.1797 6.26824 13.1997C6.50521 13.214 6.74009 13.2526 6.96917 13.3149C7.36725 13.4197 7.86236 13.6274 8.18274 13.746C8.26812 13.7789 8.3517 13.8372 8.41314 13.8604C8.65788 13.9556 8.66748 13.9556 8.81122 13.9808C8.98018 14.0041 9.15298 13.9478 9.33359 13.909C9.5549 13.8604 9.93352 13.8371 10.2656 13.7886C10.3729 13.7737 10.4788 13.7497 10.5821 13.7168C10.5821 13.7168 10.318 13.9808 9.68495 14.076C9.42905 14.1148 9.16901 14.1181 8.91221 14.0857C8.71023 14.0662 8.57634 14.037 8.47535 14.008C8.36079 13.975 8.12578 13.8875 7.8365 13.816C7.63452 13.7635 7.40924 13.7247 7.15106 13.6762C6.51413 13.5596 5.82293 13.4257 5.57666 13.2957L5.57692 13.2949Z" fill="#252211"/>
<path fill-rule="evenodd" clip-rule="evenodd" d="M4.86184 12.0957C4.70824 12.2258 4.5453 12.35 4.3862 12.4704L3.90658 12.8389C3.74351 12.9592 3.58428 13.0835 3.42108 13.2039C3.25788 13.3244 3.09493 13.4388 2.92188 13.5495C3.07548 13.4195 3.23842 13.299 3.40149 13.1806C3.56456 13.0622 3.73365 12.9461 3.89096 12.8261L4.37058 12.457C4.53557 12.3367 4.6948 12.2124 4.86184 12.096V12.0957ZM4.01333 13.4549C4.01333 13.4549 4.18613 13.3112 4.40168 13.1093C4.66959 12.859 4.99778 12.5385 5.10261 12.4803L4.0132 13.4551L4.01333 13.4549Z" fill="#CFB66C"/>
<path fill-rule="evenodd" clip-rule="evenodd" d="M4.01367 13.4553C4.09918 13.3699 4.19044 13.2864 4.2817 13.2048L4.42148 13.0844C4.46423 13.046 4.51287 13.0029 4.5555 12.9601C4.64087 12.8748 4.72446 12.7834 4.80983 12.6961C4.85215 12.6522 4.89689 12.6107 4.94385 12.5718C4.96732 12.551 4.9934 12.5334 5.02142 12.5193C5.04484 12.5057 5.07006 12.4809 5.10295 12.4766C5.08362 12.5057 5.06033 12.5193 5.04087 12.5445C5.01758 12.564 4.99812 12.5873 4.97879 12.6066C4.93604 12.6494 4.88753 12.6881 4.84478 12.7271C4.75351 12.8048 4.65841 12.8807 4.56714 12.9619C4.47588 13.0432 4.3905 13.1309 4.29911 13.2124C4.20017 13.296 4.1089 13.3776 4.01367 13.4556V13.4553ZM5.17489 12.6785C5.17489 12.6785 4.54193 13.2981 4.41175 13.3989L5.17489 12.6785Z" fill="#CFB66C"/>
<path fill-rule="evenodd" clip-rule="evenodd" d="M5.17476 12.6777C5.11782 12.7436 5.05677 12.8059 4.99197 12.8641L4.79997 13.0466C4.73789 13.1087 4.67953 13.1709 4.61361 13.233C4.54564 13.2912 4.48356 13.3482 4.41162 13.402L4.59799 13.2194C4.6602 13.1574 4.72816 13.105 4.79421 13.0428L4.98058 12.8603C5.04458 12.7963 5.10679 12.7341 5.17476 12.6777ZM5.20381 13.0136C5.14547 13.1764 5.07672 13.3354 4.99799 13.4894C4.83492 13.8157 4.59031 14.2233 4.48343 14.4312L5.20381 13.0136Z" fill="#CFB66C"/>
<path fill-rule="evenodd" clip-rule="evenodd" d="M5.20382 13.0137C5.20382 13.0855 5.18436 13.1477 5.16106 13.2098C5.13836 13.2719 5.11246 13.3328 5.0835 13.3923C5.05431 13.4505 5.02129 13.5127 4.98826 13.5691C4.95524 13.6254 4.91646 13.6835 4.88727 13.7419L4.69118 14.0875C4.62321 14.2027 4.55716 14.3185 4.48535 14.4292C4.53386 14.3049 4.59991 14.1885 4.66212 14.0739C4.73009 13.9587 4.79217 13.8435 4.85412 13.7243C4.88437 13.6649 4.91158 13.6041 4.93566 13.5419C4.96471 13.4797 4.99377 13.4215 5.01719 13.3652C5.04625 13.3031 5.06954 13.2447 5.09873 13.1885C5.13162 13.1282 5.15889 13.07 5.20356 13.0137H5.20382Z" fill="#CFB66C"/>
<path fill-rule="evenodd" clip-rule="evenodd" d="M5.89534 14.6055C5.89534 14.6055 5.70334 14.8598 5.72254 15.1821C5.77489 15.0133 5.84094 14.755 5.89534 14.6055ZM6.07787 14.8604C6.07787 14.8604 6.0099 15.5516 5.95358 15.8915C6.0332 15.4987 6.04869 15.5317 6.07787 14.8604ZM7.34968 15.9323C7.34968 15.9323 7.06232 16.7771 7.05643 17.0119C7.11864 16.7705 7.23896 16.2773 7.34968 15.9317V15.9323Z" fill="#DEC270"/>
<path fill-rule="evenodd" clip-rule="evenodd" d="M8.02148 14.5527C8.02148 14.5527 8.48753 15.3216 8.8371 15.9779C8.74251 15.6476 8.52491 15.042 8.02148 14.5527Z" fill="#CBAF59"/>
<path fill-rule="evenodd" clip-rule="evenodd" d="M9.27393 15.6855C9.52981 16.1379 9.76056 16.6039 9.96513 17.0816C9.92634 16.7515 9.82138 16.1865 9.27393 15.6855Z" fill="#E3C677"/>
<path fill-rule="evenodd" clip-rule="evenodd" d="M12.9552 16.8201C13.0328 16.7716 13.1863 16.5074 13.3203 16.4415C13.4542 16.3736 13.5552 16.36 13.6756 16.226C13.7959 16.0861 13.8292 16.0007 14.093 15.8901C14.4621 15.7307 14.2082 15.5249 14.2082 15.5249C14.2489 15.485 14.2923 15.448 14.3383 15.4143C14.4335 15.3425 14.5441 15.2551 14.5345 15.1016C14.5209 14.8434 14.4724 14.4687 14.2607 14.2512C14.4665 14.2084 14.8607 14.1794 15.1055 14.1173C15.3889 14.0454 15.5191 13.9444 15.5191 13.9444C15.5191 13.9444 15.356 13.6667 15.6201 13.3872C15.8841 13.1076 16.0997 12.9406 16.2589 12.6279C16.0764 12.6046 15.7981 12.5076 15.088 12.7774C15.1263 12.7954 15.1633 12.8162 15.1987 12.8395C15.1987 12.8395 14.7618 12.9599 14.6026 13.0939C14.3248 13.3288 14.2899 13.5211 13.989 13.6648C13.688 13.8086 13.3851 13.7697 13.1347 13.8861C12.8843 14.0026 12.8473 14.1017 12.7559 14.1444C12.7754 14.1677 12.7521 14.2065 12.789 14.2395C12.7657 14.2726 12.6297 14.4939 12.4919 14.4939C12.5055 14.5464 12.6219 14.5851 12.6219 14.5851C12.6219 14.5851 12.5366 14.6473 12.3191 14.6628C12.4297 14.778 12.5346 14.9036 12.8239 15.0861C12.8006 15.1346 12.7035 15.2066 12.7424 15.2978C12.7851 15.3891 12.896 15.5134 13.3385 15.6144C13.1132 15.624 12.8493 15.6765 12.4937 15.628C12.1383 15.5852 12.0801 15.56 11.8607 15.6144C11.884 15.6377 11.9461 15.6377 12.0005 15.6998C11.9423 15.7036 11.5772 15.657 11.4529 15.8202C11.3229 15.989 11.2665 16.2668 11.2763 16.4532C11.2083 16.4862 11.1423 16.5444 11.1753 16.6649C11.2083 16.7853 11.3811 16.8241 11.4918 16.8998C11.6024 16.9813 11.6121 17.0104 11.7171 16.991C11.8277 16.9677 11.9908 16.8571 12.086 16.8571C12.1812 16.8571 12.2491 16.9289 12.2491 16.9289C12.2491 16.9289 12.5074 16.8047 12.5326 16.828C12.5559 16.8512 12.5364 17.0008 12.5616 17.0241C12.5872 17.0416 12.8782 16.8688 12.9559 16.8201H12.9552Z" fill="#ECD592"/>
<path fill-rule="evenodd" clip-rule="evenodd" d="M18.6001 9.04854C17.3866 5.91459 14.3865 5.33398 14.3865 5.33398H5.82728L5.8603 8.52618H7.56488V15.6544H5.82715V18.8408H14.1496C16.1553 18.8408 17.7631 16.8252 17.7631 16.8252C20.3379 13.1709 18.6 9.04854 18.6 9.04854H18.6001ZM14.1943 14.6776C14.1943 14.6776 13.5415 15.6194 12.8312 15.6194H11.4104L11.3767 8.53398H13.2001C13.2001 8.53398 14.0449 8.71062 14.6351 10.3824C14.6351 10.3824 15.4175 12.776 14.1943 14.6776Z" fill="white" fill-opacity="0.8"/>
</g>
<defs>
<clipPath id="clip0_531_50977">
<rect width="24" height="24" fill="white"/>
</clipPath>
</defs>
</svg>
