<svg width="24" height="24" viewBox="0 0 24 24" fill="none" xmlns="http://www.w3.org/2000/svg">
<g clip-path="url(#clip0_531_51491)">
<path d="M16.219 13.4839L22.7732 7.48051C23.0167 7.25761 23.2098 6.99261 23.3413 6.7008C23.4727 6.40899 23.54 6.09614 23.5393 5.78031L23.5504 0.927944C23.5497 0.679014 23.4451 0.439814 23.258 0.259766L10.6844 11.7871C10.44 12.0097 10.246 12.2745 10.1136 12.5663C9.98124 12.8581 9.91309 13.1712 9.91309 13.4873C9.91309 13.8035 9.98124 14.1165 10.1136 14.4083C10.246 14.7001 10.44 14.9649 10.6844 15.1875L19.5497 23.3077C19.7927 23.5298 20.081 23.7058 20.398 23.8256C20.715 23.9454 21.0547 24.0067 21.3975 24.0059C21.7402 24.0051 22.0795 23.9423 22.3959 23.821C22.7123 23.6998 22.9995 23.5224 23.2413 23.2992C23.4831 23.0759 23.6747 22.811 23.8051 22.5197C23.9355 22.2284 24.0021 21.9164 24.0013 21.6014C24.0004 21.2865 23.932 20.9748 23.8001 20.6841C23.6681 20.3934 23.4751 20.1294 23.2321 19.9073L16.219 13.4839Z" fill="#008C62"/>
<path d="M22.5254 0.000229155H2.77585C1.17893 0.000229155 0.00021462 1.10876 0.00021462 2.62193V21.5536C-0.00426494 21.8753 0.0614201 22.1946 0.193394 22.4925C0.325369 22.7905 0.520959 23.0612 0.768627 23.2886C1.01629 23.516 1.31102 23.6955 1.63542 23.8166C1.95982 23.9376 2.30732 23.9978 2.65742 23.9934C3.00779 23.9989 3.35578 23.9396 3.68065 23.819C4.00553 23.6983 4.30066 23.5188 4.54844 23.2911C4.79622 23.0635 4.99159 22.7923 5.1229 22.4938C5.25422 22.1953 5.31879 21.8756 5.31278 21.5536V4.67067H18.4508L23.2619 0.272261C23.1655 0.183503 23.0506 0.11363 22.924 0.0668713C22.7974 0.0201129 22.6618 -0.00255851 22.5254 0.000229155Z" fill="#00E6A0"/>
</g>
<defs>
<clipPath id="clip0_531_51491">
<rect width="24" height="24" fill="white"/>
</clipPath>
</defs>
</svg>
