<svg width="24" height="24" viewBox="0 0 24 24" fill="none" xmlns="http://www.w3.org/2000/svg">
<g clip-path="url(#clip0_531_51161)">
<path d="M17.5101 2.11095C16.8926 2.72851 16.3268 3.39785 15.8238 4.11156L15.6648 4.05979C14.7477 3.76025 13.7973 3.57535 12.8396 3.51249C12.5511 3.4903 11.475 3.4903 11.1237 3.51249C10.0624 3.58275 9.2488 3.74176 8.32431 4.06349C8.28733 4.07828 8.25404 4.08938 8.22076 4.10047C7.69934 3.39045 7.11876 2.72482 6.479 2.11465C9.54834 0.542998 13.1391 0.354399 16.3527 1.59323C16.6966 1.72266 17.0331 1.87428 17.3622 2.03699L17.5101 2.11095Z" fill="#F00500"/>
<path d="M23.2348 16.1369C22.7688 17.4645 22.0699 18.6959 21.1639 19.7683C20.672 20.3452 20.1284 20.874 19.5442 21.3547C18.1759 22.4567 16.5784 23.2444 14.8736 23.6586C12.9876 24.1134 11.0203 24.1134 9.13429 23.6586C7.42582 23.2444 5.83199 22.4567 4.46373 21.3547C3.87944 20.874 3.33584 20.3452 2.844 19.7683C0.236913 16.6879 -0.554458 12.4574 0.773123 8.64473C1.02459 7.93841 1.33892 7.25798 1.71611 6.61083C1.88992 6.31499 2.1044 5.98217 2.20795 5.84534C2.56296 7.37262 2.99932 8.71499 3.16203 9.19943C3.15093 9.22531 3.13614 9.2549 3.12135 9.28078C2.25972 11.0262 1.79377 12.7088 1.68283 14.4987C1.68283 14.5208 1.67913 14.5467 1.67913 14.5689C1.64955 15.1051 1.66434 15.3603 1.75309 15.6968C2.03044 16.7507 2.88468 17.9119 4.22336 19.0509C6.41627 20.9147 9.38946 22.2608 11.6415 22.4161C13.9898 22.5751 17.4548 21.2031 19.7623 19.1988C20.1247 18.8771 20.465 18.5369 20.783 18.1745C21.0123 17.9082 21.3525 17.4497 21.3266 17.4497C21.3192 17.4497 21.3266 17.4423 21.3414 17.4349C21.3525 17.4275 21.3636 17.4164 21.3562 17.409C21.3525 17.4053 21.3599 17.3942 21.371 17.3905C21.3821 17.3868 21.3895 17.3794 21.3858 17.372C21.3821 17.3646 21.3858 17.3572 21.4006 17.3535C21.4116 17.3498 21.4153 17.3387 21.4116 17.3313C21.4079 17.3239 21.4116 17.3165 21.419 17.3165C21.4264 17.3165 21.4338 17.3054 21.4338 17.298C21.4338 17.2906 21.4412 17.2795 21.4486 17.2795C21.456 17.2795 21.4634 17.2722 21.4634 17.2648C21.4745 17.2352 21.493 17.2056 21.5115 17.1797C21.567 17.0946 21.7888 16.699 21.8184 16.6324C22.0292 16.1554 22.1623 15.7301 22.2252 15.3048C22.2548 15.1014 22.2733 14.7279 22.2585 14.6392C22.2548 14.6244 22.2548 14.5985 22.2511 14.5578C22.2437 14.4839 22.24 14.3729 22.2326 14.262C22.2252 14.0956 22.2104 13.8626 22.1993 13.748C22.0403 12.0691 21.6113 10.6971 20.7978 9.2438C20.7645 9.18833 20.7349 9.13286 20.7164 9.08849C20.709 9.07739 20.7053 9.0663 20.7016 9.0589C20.8163 8.71499 21.2859 7.27647 21.6594 5.63086L21.6668 5.63826L21.7223 5.71222C21.8184 5.84165 22.0736 6.22624 22.1882 6.41114C22.7096 7.26168 23.1164 8.17508 23.4049 9.12916C24.0742 11.4256 24.0187 13.8737 23.2348 16.1369Z" fill="#F00500"/>
<path d="M18.4347 11.7181C18.4236 11.7773 18.2498 11.9548 18.076 12.0842C17.5657 12.4577 16.6523 12.8054 15.7241 12.9718C15.1953 13.0679 14.6665 13.0827 14.5075 13.005C14.4039 12.9533 14.3891 12.9126 14.4261 12.7795C14.5038 12.5021 14.7552 12.1989 15.1472 11.9141C15.3469 11.7699 16.1568 11.2781 16.534 11.071C17.1552 10.7308 17.6581 10.5274 17.9984 10.4793C18.1056 10.4645 18.235 10.4608 18.2757 10.4793C18.3423 10.5052 18.4162 10.7012 18.4458 10.9379C18.4606 11.0636 18.4532 11.6183 18.4347 11.7181Z" fill="black"/>
<path d="M9.72238 12.9428C9.70019 12.9872 9.58925 13.0353 9.46352 13.0538C9.33779 13.0723 8.9532 13.0612 8.73502 13.0353C7.95104 12.9317 7.11899 12.6914 6.51252 12.3955C6.1723 12.2291 5.92823 12.0627 5.74703 11.8815L5.64349 11.7743L5.6324 11.6337C5.61391 11.3897 5.6176 11.0051 5.64719 10.8683C5.66568 10.7536 5.70636 10.6427 5.76183 10.5428C5.79141 10.5059 5.79141 10.5059 5.92454 10.5059C6.08725 10.5059 6.22407 10.5317 6.44595 10.602C6.90081 10.7425 7.57754 11.0827 8.4022 11.5783C9.08263 11.9851 9.33779 12.1848 9.53378 12.4584C9.66691 12.6285 9.75566 12.8689 9.72238 12.9428Z" fill="black"/>
<path d="M14.9586 18.0896C14.9586 18.1007 14.9143 18.2782 14.8588 18.489C14.8033 18.6998 14.759 18.8699 14.759 18.8773C14.7183 18.881 14.6813 18.8847 14.6406 18.881H14.5223L14.3596 19.2656C14.2708 19.4764 14.1895 19.6723 14.1784 19.7019L14.1562 19.7537L14.0785 19.628L14.0009 19.5022V18.4779L13.9713 18.4853C13.9084 18.5001 13.461 18.5593 13.265 18.5777C12.4551 18.6591 11.6415 18.6406 10.8354 18.526C10.7059 18.5075 10.595 18.4927 10.5913 18.4964C10.5876 18.5001 10.5913 18.7368 10.5987 19.0289L10.6098 19.554L10.5469 19.6502C10.5137 19.7019 10.4804 19.7463 10.4804 19.75C10.4693 19.7611 10.4323 19.7019 10.3472 19.5318C10.2548 19.3543 10.1882 19.1657 10.1402 18.9697L10.1143 18.8625L9.99963 18.8699L9.885 18.881L9.85541 18.7442C9.84062 18.6702 9.82213 18.5556 9.81473 18.4927L9.80364 18.3744L9.70749 18.2893C9.65202 18.2412 9.59655 18.1932 9.58546 18.1858C9.56697 18.171 9.55957 18.1451 9.55957 18.1229V18.0785L10.0218 18.0822L10.4841 18.0859L10.4989 18.134L10.5137 18.1821L10.6727 18.1895C10.7614 18.1932 11.0425 18.2005 11.2939 18.2079L11.7562 18.219L11.8745 18.0341L11.9966 17.8492H12.1519L12.1482 17.4646L12.1445 17.0801L11.9411 16.9913C11.2865 16.7029 10.9019 16.3737 10.7577 15.9744C10.7281 15.893 10.7281 15.8634 10.7207 15.4936C10.717 15.1275 10.717 15.0942 10.7429 15.0129C10.7947 14.828 10.9389 14.6838 11.1238 14.6357C11.1867 14.6172 11.3531 14.6172 12.2258 14.6172L13.2539 14.6209L13.3685 14.6764C13.5053 14.7429 13.5682 14.791 13.6459 14.8945C13.7346 15.0129 13.7605 15.1053 13.7605 15.3309C13.7605 15.6526 13.7383 15.93 13.705 16.0409C13.657 16.1925 13.583 16.3368 13.4905 16.4662C13.3056 16.7029 12.9691 16.9395 12.6622 17.0468L12.5734 17.0801L12.5771 17.4683L12.5808 17.8566L12.6622 17.864L12.7435 17.8714L12.8545 18.0378L12.9617 18.2042H13.4573C13.7309 18.2042 13.9713 18.2079 13.9935 18.2116C14.0304 18.219 14.0378 18.2153 14.0748 18.1525L14.1192 18.0859H14.5445C14.8625 18.0711 14.9586 18.0785 14.9586 18.0896Z" fill="black"/>
<path d="M13.0061 19.1522C12.9359 19.1929 12.8878 19.2114 12.8767 19.204C12.8656 19.2003 12.8138 19.1559 12.7584 19.1152L12.6585 19.0339L12.555 19.1448C12.3294 19.3889 12.322 19.4 12.2554 19.4037C12.1519 19.4148 12.1297 19.3963 12.004 19.2077C11.9374 19.1115 11.8857 19.0302 11.8857 19.0302C11.8857 19.0302 11.8376 19.0228 11.7821 19.0191L11.6786 19.008L11.6305 19.1078L11.5824 19.2077L11.4974 19.1818C11.4308 19.1596 11.3642 19.1337 11.3014 19.1041L11.1904 19.0487V18.8379L12.1741 18.8416L13.1578 18.8453L13.1615 18.9451C13.1652 19.0635 13.1689 19.0598 13.0061 19.1522Z" fill="black"/>
<path d="M22.2508 14.6405C22.2471 14.6257 22.2471 14.5998 22.2434 14.5591C21.3559 14.463 18.8228 14.4038 16.4709 16.3453C16.4709 16.3453 15.7128 12.8691 12.1627 12.8691C8.61263 12.8691 7.29614 16.3453 7.29614 16.3453C5.30662 14.2041 2.64406 14.3594 1.68258 14.5C1.68258 14.5221 1.67889 14.548 1.67889 14.5702C1.6493 15.1064 1.66409 15.3616 1.75285 15.6981C2.0302 16.752 2.88443 17.9132 4.22311 19.0522C6.41602 20.916 9.38921 22.2621 11.6413 22.4174C13.9895 22.5764 17.4545 21.2044 19.7621 19.2001C20.1245 18.8784 20.4647 18.5382 20.7827 18.1758C21.012 17.9095 21.3522 17.451 21.3263 17.451C21.319 17.451 21.3263 17.4436 21.3411 17.4362C21.3522 17.4288 21.3633 17.4177 21.3559 17.4103C21.3522 17.4066 21.3596 17.3955 21.3707 17.3918C21.3818 17.3881 21.3892 17.3807 21.3855 17.3733C21.3818 17.3659 21.3855 17.3585 21.4003 17.3548C21.4114 17.3511 21.4151 17.34 21.4114 17.3326C21.4077 17.3252 21.4114 17.3178 21.4188 17.3178C21.4262 17.3178 21.4336 17.3067 21.4336 17.2993C21.4336 17.2919 21.441 17.2809 21.4484 17.2809C21.4558 17.2809 21.4632 17.2735 21.4632 17.2661C21.4743 17.2365 21.4928 17.2069 21.5112 17.181C21.5667 17.096 21.7886 16.7003 21.8182 16.6337C22.029 16.1567 22.1621 15.7314 22.225 15.3061C22.2471 15.1027 22.2656 14.7292 22.2508 14.6405ZM13.0059 19.152C12.9356 19.1927 12.8875 19.2112 12.8764 19.2038C12.8653 19.2001 12.8136 19.1557 12.7581 19.1151L12.6582 19.0337L12.5547 19.1446C12.3291 19.3887 12.3217 19.3998 12.2552 19.4035C12.1516 19.4146 12.1294 19.3961 12.0037 19.2075C11.9371 19.1114 11.8854 19.03 11.8854 19.03C11.8854 19.03 11.8373 19.0226 11.7818 19.0189L11.6783 19.0078L11.6302 19.1077L11.5821 19.2075L11.4971 19.1816C11.4305 19.1594 11.3639 19.1335 11.3011 19.104L11.1901 19.0485V18.8377L12.1738 18.8414L13.1575 18.8451L13.1612 18.9449C13.1649 19.0633 13.1686 19.0596 13.0059 19.152ZM14.8549 18.4864C14.7994 18.6972 14.755 18.8673 14.755 18.8747C14.7143 18.8784 14.6773 18.8821 14.6367 18.8784H14.5183L14.3593 19.2667C14.2706 19.4775 14.1892 19.6735 14.1781 19.703L14.1559 19.7548L14.0783 19.6291L14.0006 19.5033V18.479L13.971 18.4864C13.9082 18.5012 13.4607 18.5604 13.2647 18.5788C12.4549 18.6602 11.6413 18.6417 10.8351 18.5271C10.7057 18.5086 10.5948 18.4938 10.5911 18.4975C10.5874 18.5012 10.5911 18.7379 10.5985 19.03L10.6095 19.5551L10.5467 19.6513C10.5134 19.703 10.4801 19.7474 10.4801 19.7511C10.469 19.7622 10.432 19.703 10.347 19.5329C10.2545 19.3554 10.188 19.1668 10.1399 18.9708L10.114 18.8636L9.99938 18.871L9.88474 18.8821L9.85516 18.7453C9.84036 18.6713 9.82188 18.5567 9.81448 18.4938L9.80339 18.3755L9.70724 18.2904C9.65177 18.2423 9.5963 18.1943 9.58521 18.1869C9.56672 18.1721 9.55932 18.1462 9.55932 18.124V18.0796L10.0216 18.0833L10.4838 18.087L10.4986 18.1351L10.5134 18.1832L10.6724 18.1906C10.7612 18.1943 11.0422 18.2017 11.2937 18.209L11.7559 18.2201L11.8743 18.0352L11.9963 17.8503H12.1516L12.1479 17.4658L12.1442 17.0812L11.9408 16.9924C11.2863 16.704 10.9017 16.3748 10.7575 15.9755C10.7279 15.8941 10.7279 15.8645 10.7205 15.4947C10.7168 15.1286 10.7168 15.0953 10.7427 15.014C10.7944 14.8291 10.9387 14.6849 11.1236 14.6368C11.1864 14.6183 11.3528 14.6183 12.2256 14.6183L13.2536 14.622L13.3683 14.6775C13.5051 14.744 13.5679 14.7921 13.6456 14.8956C13.7344 15.014 13.7602 15.1064 13.7602 15.332C13.7602 15.6537 13.7381 15.9311 13.7048 16.042C13.6567 16.1936 13.5827 16.3379 13.4903 16.4673C13.3054 16.704 12.9689 16.9406 12.6619 17.0479L12.5732 17.0812L12.5769 17.4694L12.5806 17.8577L12.6619 17.8651L12.7433 17.8725L12.8542 18.0389L12.9615 18.2053H13.457C13.7307 18.2053 13.971 18.209 13.9932 18.2127C14.0302 18.2201 14.0376 18.2164 14.0746 18.1536L14.1189 18.087H14.5442C14.8733 18.087 14.9695 18.0907 14.9695 18.1018C14.9584 18.0981 14.9103 18.2793 14.8549 18.4864Z" fill="white"/>
<path d="M22.2214 14.2626C22.214 14.0962 22.1992 13.8632 22.1881 13.7486C22.0291 12.0697 21.6001 10.6977 20.7865 9.24442C20.7533 9.18895 20.7237 9.13348 20.7052 9.08911C20.6978 9.07801 20.6941 9.06692 20.6904 9.05952C20.805 8.71561 21.2747 7.27709 21.6482 5.63148C22.1548 3.39789 22.4765 0.787104 21.4929 0.00312882C21.4929 0.00312882 19.7918 -0.122603 17.5138 2.11099C16.8963 2.72855 16.3305 3.39789 15.8275 4.1116L15.6685 4.05983C14.7514 3.76029 13.801 3.57539 12.8432 3.51253C12.5548 3.49034 11.4787 3.49034 11.1274 3.51253C10.066 3.58279 9.25249 3.7418 8.32799 4.06353C8.29101 4.07832 8.25773 4.08941 8.22445 4.10051C7.70303 3.39049 7.12244 2.72485 6.48269 2.11469C4.11227 -0.129999 2.34833 -0.000569401 2.34833 -0.000569401C1.30549 0.809292 1.6605 3.53841 2.20041 5.84596C2.55542 7.37324 2.99178 8.71561 3.15449 9.20005C3.1434 9.22593 3.12861 9.25552 3.11381 9.2814C2.25218 11.0269 1.78623 12.7094 1.67529 14.4993C2.64047 14.3588 5.29933 14.1997 7.29255 16.3446C7.29255 16.3446 8.60904 12.8685 12.1591 12.8685C15.7092 12.8685 16.4673 16.3446 16.4673 16.3446C18.8192 14.4031 21.3523 14.466 22.2399 14.5584C22.2362 14.4845 22.2288 14.3735 22.2214 14.2626ZM3.85341 7.8059C3.85341 7.8059 2.47036 4.34827 2.82537 2.37354C2.88454 2.04073 2.99548 1.74858 3.16928 1.5267C3.16928 1.5267 4.73723 1.68202 7.26666 4.4925C7.26666 4.4925 6.78593 4.72547 6.14248 5.221C6.14248 5.221 6.13877 5.2247 6.13508 5.2247C5.43616 5.76091 4.54124 6.61145 3.85341 7.8059ZM9.72213 12.9424C9.69995 12.9868 9.58901 13.0349 9.46327 13.0534C9.33754 13.0718 8.95295 13.0608 8.73477 13.0349C7.9508 12.9313 7.11875 12.691 6.51228 12.3951C6.17206 12.2287 5.92799 12.0623 5.74679 11.8811L5.64325 11.7739L5.63215 11.6333C5.61366 11.3893 5.61736 11.0047 5.64694 10.8678C5.66543 10.7532 5.70611 10.6423 5.76158 10.5424C5.79116 10.5054 5.79116 10.5054 5.92429 10.5054C6.087 10.5054 6.22383 10.5313 6.44571 10.6016C6.90056 10.7421 7.5773 11.0823 8.40195 11.5779C9.08238 11.9846 9.33754 12.1843 9.53354 12.458C9.66667 12.6281 9.75542 12.8685 9.72213 12.9424ZM18.4346 11.7184C18.4235 11.7776 18.2497 11.9551 18.0759 12.0845C17.5656 12.458 16.6522 12.8056 15.724 12.972C15.1952 13.0681 14.6664 13.0829 14.5073 13.0053C14.4038 12.9535 14.389 12.9128 14.426 12.7797C14.5036 12.5024 14.7551 12.1991 15.1471 11.9144C15.3468 11.7702 16.1567 11.2783 16.5338 11.0712C17.1551 10.731 17.658 10.5276 17.9983 10.4796C18.1055 10.4648 18.2349 10.4611 18.2756 10.4796C18.3422 10.5054 18.4161 10.7014 18.4457 10.9381C18.4605 11.0638 18.4531 11.6185 18.4346 11.7184ZM17.8207 5.221L17.8134 5.2173C17.1921 4.72177 16.7261 4.4888 16.7261 4.4888C19.1705 1.67832 20.683 1.52301 20.683 1.52301C20.8494 1.74858 20.9567 2.03703 21.0158 2.36985C21.3597 4.34458 20.0248 7.8059 20.0248 7.8059C19.4664 6.81114 18.7157 5.93102 17.8207 5.221Z" fill="#FFA409"/>
<path d="M21.0194 2.37028C20.731 2.3333 19.3664 2.3259 17.8207 5.22143L17.8133 5.21774C17.192 4.7222 16.7261 4.48923 16.7261 4.48923C19.1705 1.67875 20.6829 1.52344 20.6829 1.52344C20.853 1.74902 20.9603 2.03746 21.0194 2.37028Z" fill="#FF9300"/>
<path d="M20.0285 7.80668C19.4664 6.80822 18.7194 5.9318 17.8208 5.22178C19.3666 2.32625 20.7274 2.33365 21.0196 2.37063C21.3635 4.34906 20.0285 7.80668 20.0285 7.80668Z" fill="#FF8300"/>
<path d="M21.075 2.38219C21.0565 2.37849 21.038 2.37479 21.0195 2.37109L21.075 2.38219Z" fill="#FF8300"/>
<path d="M7.26677 4.48923C7.26677 4.48923 6.78603 4.7222 6.14258 5.21774C6.14258 5.21774 6.13888 5.22143 6.13518 5.22143C4.53395 2.3222 3.12501 2.3333 2.82178 2.37028C2.88095 2.03746 2.99189 1.74532 3.16569 1.52344C3.16939 1.52344 4.73734 1.67875 7.26677 4.48923Z" fill="#FF9300"/>
<path d="M6.13828 5.22178C5.43566 5.76169 4.54075 6.60853 3.85292 7.80668C3.85292 7.80668 2.46987 4.34906 2.82488 2.37063C3.12441 2.33365 4.53705 2.32625 6.13828 5.22178Z" fill="#FF8300"/>
<path d="M2.82528 2.37109C2.80679 2.37479 2.7846 2.37849 2.76611 2.38219L2.82528 2.37109Z" fill="#FF8300"/>
<path d="M16.286 9.72609C16.286 9.72609 15.1027 9.80005 15.2506 8.87555C15.3985 7.95105 16.323 7.84011 16.5819 7.87709C16.8407 7.91407 17.8762 8.28387 17.6913 9.06045C17.5064 9.83703 17.2475 9.68911 17.0996 9.72609C16.9517 9.76307 16.286 9.72609 16.286 9.72609Z" fill="white"/>
<path d="M7.55898 9.72609C7.55898 9.72609 6.37562 9.80005 6.52354 8.87555C6.67146 7.95105 7.59596 7.84011 7.85482 7.87709C8.11368 7.91407 9.14912 8.28387 8.96422 9.06045C8.77932 9.83703 8.52046 9.68911 8.37254 9.72609C8.22462 9.76307 7.55898 9.72609 7.55898 9.72609Z" fill="white"/>
</g>
<defs>
<clipPath id="clip0_531_51161">
<rect width="24" height="24" fill="white"/>
</clipPath>
</defs>
</svg>
