<svg width="24" height="24" viewBox="0 0 24 24" fill="none" xmlns="http://www.w3.org/2000/svg">
<g clip-path="url(#clip0_531_43360)">
<path d="M12 24C18.6276 24 24 18.6276 24 12C24 5.3724 18.6276 0 12 0C5.3724 0 0 5.3724 0 12C0 18.6276 5.3724 24 12 24Z" fill="#070A0E"/>
<path fill-rule="evenodd" clip-rule="evenodd" d="M6.9324 16.0237C6.5736 15.8041 6.354 15.4141 6.354 14.9941V12.6493C6.354 12.3709 6.5808 12.1453 6.8592 12.1465C6.948 12.1465 7.0356 12.1705 7.1124 12.2149L12.4032 15.3001C12.7128 15.4801 12.9036 15.8113 12.9036 16.1701V18.5989C12.9048 18.9325 12.6348 19.2037 12.3012 19.2037C12.1896 19.2037 12.0792 19.1725 11.9844 19.1149L6.9324 16.0237ZM14.8188 11.5729C15.1284 11.7529 15.318 12.0853 15.3192 12.4429V17.3725C15.3192 17.5177 15.2412 17.6521 15.114 17.7229L13.956 18.3745C13.9416 18.3829 13.926 18.3889 13.9092 18.3937V15.6565C13.9092 15.3025 13.7232 14.9737 13.4184 14.7913L8.772 12.0121V8.92213C8.772 8.64373 8.9988 8.41813 9.2772 8.41933C9.366 8.41933 9.4536 8.44333 9.5304 8.48773L14.8188 11.5729ZM17.1348 7.93213C17.4456 8.11213 17.6364 8.44453 17.6364 8.80333V16.0033C17.6352 16.1509 17.5536 16.2865 17.424 16.3573L16.326 16.9501V11.9377C16.326 11.5837 16.14 11.2561 15.8376 11.0737L11.088 8.22493V5.29453C11.088 5.20573 11.112 5.11813 11.1552 5.04133C11.2956 4.80133 11.604 4.71973 11.844 4.85893L17.1348 7.93213Z" fill="#00D395"/>
</g>
<defs>
<clipPath id="clip0_531_43360">
<rect width="24" height="24" fill="white"/>
</clipPath>
</defs>
</svg>
